G04 #@! TF.GenerationSoftware,KiCad,Pcbnew,5.0.2-bee76a0~70~ubuntu18.04.1*
G04 #@! TF.CreationDate,2019-02-06T18:27:39+01:00*
G04 #@! TF.ProjectId,g-track,672d7472-6163-46b2-9e6b-696361645f70,rev?*
G04 #@! TF.SameCoordinates,Original*
G04 #@! TF.FileFunction,Legend,Top*
G04 #@! TF.FilePolarity,Positive*
%FSLAX46Y46*%
G04 Gerber Fmt 4.6, Leading zero omitted, Abs format (unit mm)*
G04 Created by KiCad (PCBNEW 5.0.2-bee76a0~70~ubuntu18.04.1) date 2019. febr. 6., szerda, 18:27:39 CET*
%MOMM*%
%LPD*%
G01*
G04 APERTURE LIST*
%ADD10C,0.300000*%
%ADD11C,0.200000*%
%ADD12C,0.150000*%
%ADD13C,0.120000*%
G04 APERTURE END LIST*
D10*
X168028571Y-88678571D02*
X167171428Y-88678571D01*
X167600000Y-88678571D02*
X167600000Y-87178571D01*
X167457142Y-87392857D01*
X167314285Y-87535714D01*
X167171428Y-87607142D01*
X198692857Y-67807142D02*
X198764285Y-67592857D01*
X198835714Y-67521428D01*
X198978571Y-67450000D01*
X199192857Y-67450000D01*
X199335714Y-67521428D01*
X199407142Y-67592857D01*
X199478571Y-67735714D01*
X199478571Y-68307142D01*
X197978571Y-68307142D01*
X197978571Y-67807142D01*
X198050000Y-67664285D01*
X198121428Y-67592857D01*
X198264285Y-67521428D01*
X198407142Y-67521428D01*
X198550000Y-67592857D01*
X198621428Y-67664285D01*
X198692857Y-67807142D01*
X198692857Y-68307142D01*
X198121428Y-66878571D02*
X198050000Y-66807142D01*
X197978571Y-66664285D01*
X197978571Y-66307142D01*
X198050000Y-66164285D01*
X198121428Y-66092857D01*
X198264285Y-66021428D01*
X198407142Y-66021428D01*
X198621428Y-66092857D01*
X199478571Y-66950000D01*
X199478571Y-66021428D01*
X198792857Y-71607142D02*
X198864285Y-71392857D01*
X198935714Y-71321428D01*
X199078571Y-71250000D01*
X199292857Y-71250000D01*
X199435714Y-71321428D01*
X199507142Y-71392857D01*
X199578571Y-71535714D01*
X199578571Y-72107142D01*
X198078571Y-72107142D01*
X198078571Y-71607142D01*
X198150000Y-71464285D01*
X198221428Y-71392857D01*
X198364285Y-71321428D01*
X198507142Y-71321428D01*
X198650000Y-71392857D01*
X198721428Y-71464285D01*
X198792857Y-71607142D01*
X198792857Y-72107142D01*
X199578571Y-69821428D02*
X199578571Y-70678571D01*
X199578571Y-70250000D02*
X198078571Y-70250000D01*
X198292857Y-70392857D01*
X198435714Y-70535714D01*
X198507142Y-70678571D01*
X199150000Y-75871428D02*
X199150000Y-75157142D01*
X199578571Y-76014285D02*
X198078571Y-75514285D01*
X199578571Y-75014285D01*
X198221428Y-74585714D02*
X198150000Y-74514285D01*
X198078571Y-74371428D01*
X198078571Y-74014285D01*
X198150000Y-73871428D01*
X198221428Y-73800000D01*
X198364285Y-73728571D01*
X198507142Y-73728571D01*
X198721428Y-73800000D01*
X199578571Y-74657142D01*
X199578571Y-73728571D01*
X199150000Y-79671428D02*
X199150000Y-78957142D01*
X199578571Y-79814285D02*
X198078571Y-79314285D01*
X199578571Y-78814285D01*
X199578571Y-77528571D02*
X199578571Y-78385714D01*
X199578571Y-77957142D02*
X198078571Y-77957142D01*
X198292857Y-78100000D01*
X198435714Y-78242857D01*
X198507142Y-78385714D01*
X204971428Y-100321428D02*
X205828571Y-100321428D01*
X205400000Y-100321428D02*
X205400000Y-101821428D01*
X205542857Y-101607142D01*
X205685714Y-101464285D01*
X205828571Y-101392857D01*
D11*
X157900000Y-68700000D02*
G75*
G03X157900000Y-68700000I-100000J0D01*
G01*
X100100000Y-69000000D02*
G75*
G03X100100000Y-69000000I-100000J0D01*
G01*
X109900000Y-69000000D02*
G75*
G03X109900000Y-69000000I-100000J0D01*
G01*
X119500000Y-69000000D02*
G75*
G03X119500000Y-69000000I-100000J0D01*
G01*
X129000000Y-73000000D02*
G75*
G03X129000000Y-73000000I-100000J0D01*
G01*
X176600000Y-103600000D02*
G75*
G03X176600000Y-103600000I-100000J0D01*
G01*
X200500000Y-100500000D02*
G75*
G03X200500000Y-100500000I-100000J0D01*
G01*
X193000000Y-80300000D02*
G75*
G03X193000000Y-80300000I-100000J0D01*
G01*
D10*
X160037857Y-112375000D02*
X159895000Y-112303571D01*
X159680714Y-112303571D01*
X159466428Y-112375000D01*
X159323571Y-112517857D01*
X159252142Y-112660714D01*
X159180714Y-112946428D01*
X159180714Y-113160714D01*
X159252142Y-113446428D01*
X159323571Y-113589285D01*
X159466428Y-113732142D01*
X159680714Y-113803571D01*
X159823571Y-113803571D01*
X160037857Y-113732142D01*
X160109285Y-113660714D01*
X160109285Y-113160714D01*
X159823571Y-113160714D01*
X160752142Y-113232142D02*
X161895000Y-113232142D01*
X162395000Y-112803571D02*
X162966428Y-112803571D01*
X162609285Y-112303571D02*
X162609285Y-113589285D01*
X162680714Y-113732142D01*
X162823571Y-113803571D01*
X162966428Y-113803571D01*
X163466428Y-113803571D02*
X163466428Y-112803571D01*
X163466428Y-113089285D02*
X163537857Y-112946428D01*
X163609285Y-112875000D01*
X163752142Y-112803571D01*
X163895000Y-112803571D01*
X165037857Y-113803571D02*
X165037857Y-113017857D01*
X164966428Y-112875000D01*
X164823571Y-112803571D01*
X164537857Y-112803571D01*
X164395000Y-112875000D01*
X165037857Y-113732142D02*
X164895000Y-113803571D01*
X164537857Y-113803571D01*
X164395000Y-113732142D01*
X164323571Y-113589285D01*
X164323571Y-113446428D01*
X164395000Y-113303571D01*
X164537857Y-113232142D01*
X164895000Y-113232142D01*
X165037857Y-113160714D01*
X166395000Y-113732142D02*
X166252142Y-113803571D01*
X165966428Y-113803571D01*
X165823571Y-113732142D01*
X165752142Y-113660714D01*
X165680714Y-113517857D01*
X165680714Y-113089285D01*
X165752142Y-112946428D01*
X165823571Y-112875000D01*
X165966428Y-112803571D01*
X166252142Y-112803571D01*
X166395000Y-112875000D01*
X167037857Y-113803571D02*
X167037857Y-112303571D01*
X167180714Y-113232142D02*
X167609285Y-113803571D01*
X167609285Y-112803571D02*
X167037857Y-113375000D01*
X159109285Y-115353571D02*
X159466428Y-116353571D01*
X159823571Y-115353571D01*
X161180714Y-116353571D02*
X160323571Y-116353571D01*
X160752142Y-116353571D02*
X160752142Y-114853571D01*
X160609285Y-115067857D01*
X160466428Y-115210714D01*
X160323571Y-115282142D01*
X161823571Y-116210714D02*
X161895000Y-116282142D01*
X161823571Y-116353571D01*
X161752142Y-116282142D01*
X161823571Y-116210714D01*
X161823571Y-116353571D01*
X162823571Y-114853571D02*
X162966428Y-114853571D01*
X163109285Y-114925000D01*
X163180714Y-114996428D01*
X163252142Y-115139285D01*
X163323571Y-115425000D01*
X163323571Y-115782142D01*
X163252142Y-116067857D01*
X163180714Y-116210714D01*
X163109285Y-116282142D01*
X162966428Y-116353571D01*
X162823571Y-116353571D01*
X162680714Y-116282142D01*
X162609285Y-116210714D01*
X162537857Y-116067857D01*
X162466428Y-115782142D01*
X162466428Y-115425000D01*
X162537857Y-115139285D01*
X162609285Y-114996428D01*
X162680714Y-114925000D01*
X162823571Y-114853571D01*
X90000000Y-55000000D02*
X90000000Y-120000000D01*
X210000000Y-55000000D02*
X90000000Y-55000000D01*
X210000000Y-120000000D02*
X210000000Y-55000000D01*
X90000000Y-120000000D02*
X210000000Y-120000000D01*
D12*
G04 #@! TO.C,U4*
X193050000Y-114150000D02*
X195050000Y-114150000D01*
X194050000Y-115150000D02*
X194050000Y-113150000D01*
X199550000Y-114400000D02*
X199550000Y-111400000D01*
X193800000Y-117150000D02*
X196800000Y-117150000D01*
X191050000Y-114400000D02*
X191050000Y-111400000D01*
X196800000Y-108650000D02*
X193800000Y-108650000D01*
D13*
G04 #@! TO.C,D4*
X126700000Y-66150000D02*
X126700000Y-69450000D01*
X126700000Y-69450000D02*
X132100000Y-69450000D01*
X126700000Y-66150000D02*
X132100000Y-66150000D01*
G04 #@! TO.C,D1*
X131550000Y-82200000D02*
X134850000Y-82200000D01*
X134850000Y-82200000D02*
X134850000Y-76800000D01*
X131550000Y-82200000D02*
X131550000Y-76800000D01*
G04 #@! TO.C,U8*
X120770000Y-76300000D02*
G75*
G02X120770000Y-74300000I0J1000000D01*
G01*
X120770000Y-74300000D02*
X120770000Y-72065000D01*
X120770000Y-72065000D02*
X113030000Y-72065000D01*
X113030000Y-72065000D02*
X113030000Y-78535000D01*
X113030000Y-78535000D02*
X120770000Y-78535000D01*
X120770000Y-78535000D02*
X120770000Y-76300000D01*
G04 #@! TO.C,U9*
X111070000Y-78535000D02*
X111070000Y-76300000D01*
X103330000Y-78535000D02*
X111070000Y-78535000D01*
X103330000Y-72065000D02*
X103330000Y-78535000D01*
X111070000Y-72065000D02*
X103330000Y-72065000D01*
X111070000Y-74300000D02*
X111070000Y-72065000D01*
X111070000Y-76300000D02*
G75*
G02X111070000Y-74300000I0J1000000D01*
G01*
G04 #@! TO.C,U10*
X101370000Y-76300000D02*
G75*
G02X101370000Y-74300000I0J1000000D01*
G01*
X101370000Y-74300000D02*
X101370000Y-72065000D01*
X101370000Y-72065000D02*
X93630000Y-72065000D01*
X93630000Y-72065000D02*
X93630000Y-78535000D01*
X93630000Y-78535000D02*
X101370000Y-78535000D01*
X101370000Y-78535000D02*
X101370000Y-76300000D01*
G04 #@! TO.C,C27*
X197471267Y-100210000D02*
X197128733Y-100210000D01*
X197471267Y-99190000D02*
X197128733Y-99190000D01*
G04 #@! TO.C,C26*
X197471267Y-98710000D02*
X197128733Y-98710000D01*
X197471267Y-97690000D02*
X197128733Y-97690000D01*
G04 #@! TO.C,R35*
X113561252Y-83810000D02*
X113038748Y-83810000D01*
X113561252Y-82390000D02*
X113038748Y-82390000D01*
G04 #@! TO.C,R8*
X171971267Y-99010000D02*
X171628733Y-99010000D01*
X171971267Y-97990000D02*
X171628733Y-97990000D01*
G04 #@! TO.C,C32*
X167790000Y-68161252D02*
X167790000Y-67638748D01*
X169210000Y-68161252D02*
X169210000Y-67638748D01*
G04 #@! TO.C,R30*
X196061252Y-80310000D02*
X195538748Y-80310000D01*
X196061252Y-78890000D02*
X195538748Y-78890000D01*
G04 #@! TO.C,R31*
X196061252Y-75690000D02*
X195538748Y-75690000D01*
X196061252Y-77110000D02*
X195538748Y-77110000D01*
D12*
G04 #@! TO.C,U3*
X175025000Y-101875000D02*
X176025000Y-101875000D01*
X175025000Y-91525000D02*
X176100000Y-91525000D01*
X185375000Y-91525000D02*
X184300000Y-91525000D01*
X185375000Y-101875000D02*
X184300000Y-101875000D01*
X175025000Y-101875000D02*
X175025000Y-100800000D01*
X185375000Y-101875000D02*
X185375000Y-100800000D01*
X185375000Y-91525000D02*
X185375000Y-92600000D01*
X175025000Y-91525000D02*
X175025000Y-92600000D01*
X176025000Y-101875000D02*
X176025000Y-102900000D01*
D13*
G04 #@! TO.C,R1*
X188690000Y-69538748D02*
X188690000Y-70061252D01*
X190110000Y-69538748D02*
X190110000Y-70061252D01*
G04 #@! TO.C,C10*
X175153733Y-107890000D02*
X175496267Y-107890000D01*
X175153733Y-108910000D02*
X175496267Y-108910000D01*
G04 #@! TO.C,SW1*
X191070000Y-88970000D02*
X191100000Y-88970000D01*
X197530000Y-88970000D02*
X197500000Y-88970000D01*
X197530000Y-95430000D02*
X197500000Y-95430000D01*
X191100000Y-95430000D02*
X191070000Y-95430000D01*
X193000000Y-88970000D02*
X195600000Y-88970000D01*
X191070000Y-95430000D02*
X191070000Y-88970000D01*
X193000000Y-95430000D02*
X195600000Y-95430000D01*
X197530000Y-95430000D02*
X197530000Y-88970000D01*
G04 #@! TO.C,J8*
X208930000Y-81890000D02*
X206270000Y-81890000D01*
X208930000Y-99730000D02*
X208930000Y-81890000D01*
X206270000Y-99730000D02*
X206270000Y-81890000D01*
X208930000Y-99730000D02*
X206270000Y-99730000D01*
X208930000Y-101000000D02*
X208930000Y-102330000D01*
X208930000Y-102330000D02*
X207600000Y-102330000D01*
G04 #@! TO.C,JP3*
X202705000Y-94960000D02*
X203005507Y-94960000D01*
X203794493Y-94960000D02*
X204095000Y-94960000D01*
X202705000Y-93085000D02*
X202705000Y-94960000D01*
X204095000Y-93085000D02*
X204095000Y-94960000D01*
X202705000Y-93085000D02*
X202791724Y-93085000D01*
X204008276Y-93085000D02*
X204095000Y-93085000D01*
X202705000Y-92400000D02*
X202705000Y-91715000D01*
X202705000Y-91715000D02*
X203400000Y-91715000D01*
G04 #@! TO.C,R20*
X168310000Y-62538748D02*
X168310000Y-63061252D01*
X166890000Y-62538748D02*
X166890000Y-63061252D01*
D12*
G04 #@! TO.C,J6*
X155700000Y-119200000D02*
X155700000Y-89000000D01*
X90700000Y-119200000D02*
X155700000Y-119200000D01*
X90700000Y-89000000D02*
X90700000Y-119200000D01*
X155700000Y-89000000D02*
X90700000Y-89000000D01*
D13*
G04 #@! TO.C,R7*
X118810000Y-84038748D02*
X118810000Y-84561252D01*
X117390000Y-84038748D02*
X117390000Y-84561252D01*
G04 #@! TO.C,R6*
X119290000Y-84561252D02*
X119290000Y-84038748D01*
X120710000Y-84561252D02*
X120710000Y-84038748D01*
G04 #@! TO.C,R9*
X180128733Y-107990000D02*
X180471267Y-107990000D01*
X180128733Y-109010000D02*
X180471267Y-109010000D01*
G04 #@! TO.C,R3*
X123238748Y-66390000D02*
X123761252Y-66390000D01*
X123238748Y-67810000D02*
X123761252Y-67810000D01*
G04 #@! TO.C,R2*
X190038748Y-71990000D02*
X190561252Y-71990000D01*
X190038748Y-73410000D02*
X190561252Y-73410000D01*
G04 #@! TO.C,C1*
X128397936Y-70490000D02*
X129602064Y-70490000D01*
X128397936Y-72310000D02*
X129602064Y-72310000D01*
G04 #@! TO.C,C2*
X124738748Y-83110000D02*
X125261252Y-83110000D01*
X124738748Y-81690000D02*
X125261252Y-81690000D01*
G04 #@! TO.C,C3*
X121390000Y-83138748D02*
X121390000Y-83661252D01*
X122810000Y-83138748D02*
X122810000Y-83661252D01*
G04 #@! TO.C,C4*
X123761252Y-72110000D02*
X123238748Y-72110000D01*
X123761252Y-70690000D02*
X123238748Y-70690000D01*
G04 #@! TO.C,C5*
X130161252Y-85210000D02*
X129638748Y-85210000D01*
X130161252Y-83790000D02*
X129638748Y-83790000D01*
G04 #@! TO.C,C6*
X136040000Y-65840000D02*
X136040000Y-68590000D01*
X136040000Y-74360000D02*
X136040000Y-71610000D01*
X143495563Y-74360000D02*
X136040000Y-74360000D01*
X143495563Y-65840000D02*
X136040000Y-65840000D01*
X144560000Y-66904437D02*
X144560000Y-68590000D01*
X144560000Y-73295563D02*
X144560000Y-71610000D01*
X144560000Y-73295563D02*
X143495563Y-74360000D01*
X144560000Y-66904437D02*
X143495563Y-65840000D01*
X145800000Y-72610000D02*
X144800000Y-72610000D01*
X145300000Y-73110000D02*
X145300000Y-72110000D01*
G04 #@! TO.C,C7*
X152361252Y-75510000D02*
X151838748Y-75510000D01*
X152361252Y-74090000D02*
X151838748Y-74090000D01*
G04 #@! TO.C,C8*
X151950000Y-87310000D02*
X156335000Y-87310000D01*
X156335000Y-87310000D02*
X156335000Y-84290000D01*
X156335000Y-84290000D02*
X151950000Y-84290000D01*
G04 #@! TO.C,C9*
X175128733Y-105910000D02*
X175471267Y-105910000D01*
X175128733Y-104890000D02*
X175471267Y-104890000D01*
G04 #@! TO.C,C11*
X177171267Y-110610000D02*
X176828733Y-110610000D01*
X177171267Y-109590000D02*
X176828733Y-109590000D01*
G04 #@! TO.C,C12*
X181928733Y-110610000D02*
X182271267Y-110610000D01*
X181928733Y-109590000D02*
X182271267Y-109590000D01*
G04 #@! TO.C,C13*
X196171267Y-84190000D02*
X195828733Y-84190000D01*
X196171267Y-85210000D02*
X195828733Y-85210000D01*
G04 #@! TO.C,C14*
X170961252Y-84490000D02*
X170438748Y-84490000D01*
X170961252Y-85910000D02*
X170438748Y-85910000D01*
G04 #@! TO.C,C17*
X170490000Y-88797936D02*
X170490000Y-90002064D01*
X172310000Y-88797936D02*
X172310000Y-90002064D01*
G04 #@! TO.C,C18*
X189010000Y-100028733D02*
X189010000Y-100371267D01*
X187990000Y-100028733D02*
X187990000Y-100371267D01*
G04 #@! TO.C,C19*
X186990000Y-91728733D02*
X186990000Y-92071267D01*
X188010000Y-91728733D02*
X188010000Y-92071267D01*
G04 #@! TO.C,C20*
X171971267Y-101210000D02*
X171628733Y-101210000D01*
X171971267Y-100190000D02*
X171628733Y-100190000D01*
G04 #@! TO.C,C21*
X171971267Y-102690000D02*
X171628733Y-102690000D01*
X171971267Y-103710000D02*
X171628733Y-103710000D01*
G04 #@! TO.C,C22*
X185171267Y-107210000D02*
X184828733Y-107210000D01*
X185171267Y-106190000D02*
X184828733Y-106190000D01*
G04 #@! TO.C,C23*
X182971267Y-104590000D02*
X182628733Y-104590000D01*
X182971267Y-105610000D02*
X182628733Y-105610000D01*
G04 #@! TO.C,C24*
X175228733Y-88410000D02*
X175571267Y-88410000D01*
X175228733Y-87390000D02*
X175571267Y-87390000D01*
G04 #@! TO.C,C25*
X175228733Y-88890000D02*
X175571267Y-88890000D01*
X175228733Y-89910000D02*
X175571267Y-89910000D01*
G04 #@! TO.C,C28*
X182090000Y-78438748D02*
X182090000Y-78961252D01*
X183510000Y-78438748D02*
X183510000Y-78961252D01*
G04 #@! TO.C,C29*
X193602064Y-68710000D02*
X192397936Y-68710000D01*
X193602064Y-66890000D02*
X192397936Y-66890000D01*
G04 #@! TO.C,C30*
X193861252Y-70710000D02*
X193338748Y-70710000D01*
X193861252Y-69290000D02*
X193338748Y-69290000D01*
G04 #@! TO.C,C31*
X167210000Y-71335000D02*
X167210000Y-66950000D01*
X164190000Y-71335000D02*
X167210000Y-71335000D01*
X164190000Y-66950000D02*
X164190000Y-71335000D01*
G04 #@! TO.C,D2*
X159965000Y-95700000D02*
X159965000Y-98160000D01*
X159965000Y-98160000D02*
X161435000Y-98160000D01*
X161435000Y-98160000D02*
X161435000Y-95700000D01*
G04 #@! TO.C,D3*
X159335000Y-98160000D02*
X159335000Y-95700000D01*
X157865000Y-98160000D02*
X159335000Y-98160000D01*
X157865000Y-95700000D02*
X157865000Y-98160000D01*
G04 #@! TO.C,D6*
X165065000Y-61800000D02*
X165065000Y-64260000D01*
X165065000Y-64260000D02*
X166535000Y-64260000D01*
X166535000Y-64260000D02*
X166535000Y-61800000D01*
G04 #@! TO.C,D7*
X195350000Y-104600000D02*
X191050000Y-104600000D01*
X191050000Y-104600000D02*
X191050000Y-106600000D01*
X191050000Y-106600000D02*
X195350000Y-106600000D01*
G04 #@! TO.C,D8*
X164935000Y-64260000D02*
X164935000Y-61800000D01*
X163465000Y-64260000D02*
X164935000Y-64260000D01*
X163465000Y-61800000D02*
X163465000Y-64260000D01*
G04 #@! TO.C,J1*
X163570000Y-89170000D02*
X166230000Y-89170000D01*
X163570000Y-89170000D02*
X163570000Y-101930000D01*
X163570000Y-101930000D02*
X166230000Y-101930000D01*
X166230000Y-89170000D02*
X166230000Y-101930000D01*
X166230000Y-86570000D02*
X166230000Y-87900000D01*
X164900000Y-86570000D02*
X166230000Y-86570000D01*
G04 #@! TO.C,J2*
X147190000Y-55490000D02*
X155010000Y-55490000D01*
X153210000Y-64810000D02*
X153210000Y-65240000D01*
X147190000Y-55490000D02*
X147190000Y-57440000D01*
X147190000Y-59660000D02*
X147190000Y-62890000D01*
X148990000Y-64810000D02*
X147910000Y-64810000D01*
X154290000Y-64810000D02*
X153210000Y-64810000D01*
X155010000Y-59660000D02*
X155010000Y-62890000D01*
X155010000Y-55490000D02*
X155010000Y-57440000D01*
G04 #@! TO.C,J3*
X174595000Y-55515000D02*
X175105000Y-55865000D01*
X172085000Y-55715000D02*
X171825000Y-55715000D01*
X172285000Y-55515000D02*
X172085000Y-55715000D01*
X181685000Y-55515000D02*
X181475000Y-55715000D01*
X181475000Y-55865000D02*
X181475000Y-55715000D01*
X181475000Y-55865000D02*
X175105000Y-55865000D01*
X184575000Y-60475000D02*
X184575000Y-58675000D01*
X184575000Y-66475000D02*
X184575000Y-61775000D01*
X183545000Y-55515000D02*
X183745000Y-55715000D01*
X183545000Y-55515000D02*
X181685000Y-55515000D01*
X172285000Y-55515000D02*
X174595000Y-55515000D01*
X184575000Y-71785000D02*
X184575000Y-68175000D01*
X184125000Y-71785000D02*
X184575000Y-71785000D01*
X170605000Y-71785000D02*
X170605000Y-57775000D01*
X172525000Y-71785000D02*
X170605000Y-71785000D01*
G04 #@! TO.C,JP1*
X147190000Y-70470000D02*
X147190000Y-73130000D01*
X152330000Y-70470000D02*
X147190000Y-70470000D01*
X152330000Y-73130000D02*
X147190000Y-73130000D01*
X152330000Y-70470000D02*
X152330000Y-73130000D01*
X153600000Y-70470000D02*
X154930000Y-70470000D01*
X154930000Y-70470000D02*
X154930000Y-71800000D01*
G04 #@! TO.C,JP2*
X158550000Y-59050000D02*
X160500000Y-59050000D01*
X158550000Y-64550000D02*
X158550000Y-59050000D01*
X160500000Y-64550000D02*
X158550000Y-64550000D01*
X160500000Y-59050000D02*
X160500000Y-64550000D01*
G04 #@! TO.C,L1*
X136450000Y-75000000D02*
X147950000Y-75000000D01*
X135800000Y-75650000D02*
X135800000Y-78400000D01*
X147950000Y-87800000D02*
X136450000Y-87800000D01*
X148600000Y-75650000D02*
X148600000Y-78400000D01*
X135800000Y-84400000D02*
X135800000Y-87150000D01*
X148600000Y-84400000D02*
X148600000Y-87150000D01*
X135800000Y-75650000D02*
G75*
G02X136450000Y-75000000I650000J0D01*
G01*
X136450000Y-87800000D02*
G75*
G02X135800000Y-87150000I0J650000D01*
G01*
X148600000Y-87150000D02*
G75*
G02X147950000Y-87800000I-650000J0D01*
G01*
X147950000Y-75000000D02*
G75*
G02X148600000Y-75650000I0J-650000D01*
G01*
G04 #@! TO.C,Q1*
X197220000Y-105560000D02*
X197220000Y-104100000D01*
X200380000Y-105560000D02*
X200380000Y-103400000D01*
X200380000Y-105560000D02*
X199450000Y-105560000D01*
X197220000Y-105560000D02*
X198150000Y-105560000D01*
G04 #@! TO.C,Q2*
X103260000Y-68380000D02*
X103260000Y-67450000D01*
X103260000Y-65220000D02*
X103260000Y-66150000D01*
X103260000Y-65220000D02*
X101100000Y-65220000D01*
X103260000Y-68380000D02*
X101800000Y-68380000D01*
G04 #@! TO.C,R4*
X123761252Y-68390000D02*
X123238748Y-68390000D01*
X123761252Y-69810000D02*
X123238748Y-69810000D01*
G04 #@! TO.C,R5*
X125261252Y-85110000D02*
X124738748Y-85110000D01*
X125261252Y-83690000D02*
X124738748Y-83690000D01*
G04 #@! TO.C,R10*
X159990000Y-92438748D02*
X159990000Y-92961252D01*
X161410000Y-92438748D02*
X161410000Y-92961252D01*
G04 #@! TO.C,R11*
X157890000Y-92438748D02*
X157890000Y-92961252D01*
X159310000Y-92438748D02*
X159310000Y-92961252D01*
G04 #@! TO.C,R14*
X170438748Y-84010000D02*
X170961252Y-84010000D01*
X170438748Y-82590000D02*
X170961252Y-82590000D01*
G04 #@! TO.C,R15*
X160910000Y-86161252D02*
X160910000Y-85638748D01*
X159490000Y-86161252D02*
X159490000Y-85638748D01*
G04 #@! TO.C,R21*
X149161252Y-67810000D02*
X148638748Y-67810000D01*
X149161252Y-66390000D02*
X148638748Y-66390000D01*
G04 #@! TO.C,R22*
X203710000Y-104638748D02*
X203710000Y-105161252D01*
X202290000Y-104638748D02*
X202290000Y-105161252D01*
G04 #@! TO.C,R23*
X159510000Y-72561252D02*
X159510000Y-72038748D01*
X158090000Y-72561252D02*
X158090000Y-72038748D01*
G04 #@! TO.C,R24*
X161510000Y-72038748D02*
X161510000Y-72561252D01*
X160090000Y-72038748D02*
X160090000Y-72561252D01*
G04 #@! TO.C,R25*
X161690000Y-63061252D02*
X161690000Y-62538748D01*
X163110000Y-63061252D02*
X163110000Y-62538748D01*
G04 #@! TO.C,R26*
X185890000Y-71161252D02*
X185890000Y-70638748D01*
X187310000Y-71161252D02*
X187310000Y-70638748D01*
G04 #@! TO.C,R27*
X174338748Y-74610000D02*
X174861252Y-74610000D01*
X174338748Y-73190000D02*
X174861252Y-73190000D01*
G04 #@! TO.C,R28*
X188410000Y-109561252D02*
X188410000Y-109038748D01*
X186990000Y-109561252D02*
X186990000Y-109038748D01*
G04 #@! TO.C,R29*
X190890000Y-83461252D02*
X190890000Y-82938748D01*
X192310000Y-83461252D02*
X192310000Y-82938748D01*
G04 #@! TO.C,R32*
X117610000Y-66838748D02*
X117610000Y-67361252D01*
X116190000Y-66838748D02*
X116190000Y-67361252D01*
G04 #@! TO.C,R33*
X109090000Y-66638748D02*
X109090000Y-67161252D01*
X110510000Y-66638748D02*
X110510000Y-67161252D01*
G04 #@! TO.C,R34*
X105590000Y-66638748D02*
X105590000Y-67161252D01*
X107010000Y-66638748D02*
X107010000Y-67161252D01*
G04 #@! TO.C,R36*
X105438748Y-83810000D02*
X105961252Y-83810000D01*
X105438748Y-82390000D02*
X105961252Y-82390000D01*
G04 #@! TO.C,R37*
X95738748Y-83710000D02*
X96261252Y-83710000D01*
X95738748Y-82290000D02*
X96261252Y-82290000D01*
G04 #@! TO.C,R38*
X95910000Y-67161252D02*
X95910000Y-66638748D01*
X94490000Y-67161252D02*
X94490000Y-66638748D01*
G04 #@! TO.C,R39*
X200038748Y-93390000D02*
X200561252Y-93390000D01*
X200038748Y-94810000D02*
X200561252Y-94810000D01*
G04 #@! TO.C,R40*
X97810000Y-66638748D02*
X97810000Y-67161252D01*
X96390000Y-66638748D02*
X96390000Y-67161252D01*
G04 #@! TO.C,SW2*
X162470000Y-81530000D02*
X162470000Y-81500000D01*
X162470000Y-75070000D02*
X162470000Y-75100000D01*
X168930000Y-75070000D02*
X168930000Y-75100000D01*
X168930000Y-81500000D02*
X168930000Y-81530000D01*
X162470000Y-79600000D02*
X162470000Y-77000000D01*
X168930000Y-81530000D02*
X162470000Y-81530000D01*
X168930000Y-79600000D02*
X168930000Y-77000000D01*
X168930000Y-75070000D02*
X162470000Y-75070000D01*
D12*
G04 #@! TO.C,U1*
X129475000Y-75025000D02*
X129425000Y-75025000D01*
X129475000Y-79175000D02*
X129330000Y-79175000D01*
X124325000Y-79175000D02*
X124470000Y-79175000D01*
X124325000Y-75025000D02*
X124470000Y-75025000D01*
X129475000Y-75025000D02*
X129475000Y-79175000D01*
X124325000Y-75025000D02*
X124325000Y-79175000D01*
X129425000Y-75025000D02*
X129425000Y-73625000D01*
D13*
G04 #@! TO.C,U2*
X157110000Y-83310000D02*
X157110000Y-82050000D01*
X157110000Y-76490000D02*
X157110000Y-77750000D01*
X153350000Y-83310000D02*
X157110000Y-83310000D01*
X151100000Y-76490000D02*
X157110000Y-76490000D01*
G04 #@! TO.C,U5*
X156400000Y-66090000D02*
X154600000Y-66090000D01*
X154600000Y-69310000D02*
X157050000Y-69310000D01*
G04 #@! TO.C,U6*
X199790000Y-97465000D02*
X199790000Y-96790000D01*
X199790000Y-96790000D02*
X199965000Y-96790000D01*
X203010000Y-97465000D02*
X203010000Y-96790000D01*
X203010000Y-96790000D02*
X202835000Y-96790000D01*
X203010000Y-99335000D02*
X203010000Y-100010000D01*
X203010000Y-100010000D02*
X202835000Y-100010000D01*
D12*
G04 #@! TO.C,U7*
X191050000Y-75275000D02*
X186550000Y-75275000D01*
X192175000Y-80825000D02*
X186550000Y-80825000D01*
D13*
G04 #@! TO.C,Y1*
X169300000Y-105070000D02*
X169800000Y-105070000D01*
X169800000Y-105070000D02*
X169800000Y-108670000D01*
X169800000Y-108670000D02*
X169300000Y-108670000D01*
X169800000Y-106270000D02*
X171200000Y-105600000D01*
X171200000Y-105600000D02*
X171900000Y-105600000D01*
X169800000Y-107470000D02*
X171200000Y-108140000D01*
X171200000Y-108140000D02*
X171900000Y-108140000D01*
G04 #@! TO.C,Y2*
X176515000Y-111275000D02*
X182765000Y-111275000D01*
X176515000Y-116325000D02*
X182765000Y-116325000D01*
X176515000Y-116325000D02*
G75*
G02X176515000Y-111275000I0J2525000D01*
G01*
X182765000Y-116325000D02*
G75*
G03X182765000Y-111275000I0J2525000D01*
G01*
G04 #@! TO.C,C33*
X186390000Y-64661252D02*
X186390000Y-64138748D01*
X187810000Y-64661252D02*
X187810000Y-64138748D01*
G04 #@! TO.C,C34*
X195990000Y-59750000D02*
X195990000Y-64135000D01*
X195990000Y-64135000D02*
X199010000Y-64135000D01*
X199010000Y-64135000D02*
X199010000Y-59750000D01*
G04 #@! TO.C,U11*
X195310000Y-60090000D02*
X194050000Y-60090000D01*
X188490000Y-60090000D02*
X189750000Y-60090000D01*
X195310000Y-63850000D02*
X195310000Y-60090000D01*
X188490000Y-66100000D02*
X188490000Y-60090000D01*
G04 #@! TD*
G04 #@! TO.C,U4*
D12*
X188652380Y-117761904D02*
X189461904Y-117761904D01*
X189557142Y-117714285D01*
X189604761Y-117666666D01*
X189652380Y-117571428D01*
X189652380Y-117380952D01*
X189604761Y-117285714D01*
X189557142Y-117238095D01*
X189461904Y-117190476D01*
X188652380Y-117190476D01*
X188985714Y-116285714D02*
X189652380Y-116285714D01*
X188604761Y-116523809D02*
X189319047Y-116761904D01*
X189319047Y-116142857D01*
G04 #@! TO.C,D4*
X134852380Y-68538095D02*
X133852380Y-68538095D01*
X133852380Y-68300000D01*
X133900000Y-68157142D01*
X133995238Y-68061904D01*
X134090476Y-68014285D01*
X134280952Y-67966666D01*
X134423809Y-67966666D01*
X134614285Y-68014285D01*
X134709523Y-68061904D01*
X134804761Y-68157142D01*
X134852380Y-68300000D01*
X134852380Y-68538095D01*
X134185714Y-67109523D02*
X134852380Y-67109523D01*
X133804761Y-67347619D02*
X134519047Y-67585714D01*
X134519047Y-66966666D01*
G04 #@! TO.C,D1*
X132461904Y-74952380D02*
X132461904Y-73952380D01*
X132700000Y-73952380D01*
X132842857Y-74000000D01*
X132938095Y-74095238D01*
X132985714Y-74190476D01*
X133033333Y-74380952D01*
X133033333Y-74523809D01*
X132985714Y-74714285D01*
X132938095Y-74809523D01*
X132842857Y-74904761D01*
X132700000Y-74952380D01*
X132461904Y-74952380D01*
X133985714Y-74952380D02*
X133414285Y-74952380D01*
X133700000Y-74952380D02*
X133700000Y-73952380D01*
X133604761Y-74095238D01*
X133509523Y-74190476D01*
X133414285Y-74238095D01*
G04 #@! TO.C,U8*
X121222380Y-76061904D02*
X122031904Y-76061904D01*
X122127142Y-76014285D01*
X122174761Y-75966666D01*
X122222380Y-75871428D01*
X122222380Y-75680952D01*
X122174761Y-75585714D01*
X122127142Y-75538095D01*
X122031904Y-75490476D01*
X121222380Y-75490476D01*
X121650952Y-74871428D02*
X121603333Y-74966666D01*
X121555714Y-75014285D01*
X121460476Y-75061904D01*
X121412857Y-75061904D01*
X121317619Y-75014285D01*
X121270000Y-74966666D01*
X121222380Y-74871428D01*
X121222380Y-74680952D01*
X121270000Y-74585714D01*
X121317619Y-74538095D01*
X121412857Y-74490476D01*
X121460476Y-74490476D01*
X121555714Y-74538095D01*
X121603333Y-74585714D01*
X121650952Y-74680952D01*
X121650952Y-74871428D01*
X121698571Y-74966666D01*
X121746190Y-75014285D01*
X121841428Y-75061904D01*
X122031904Y-75061904D01*
X122127142Y-75014285D01*
X122174761Y-74966666D01*
X122222380Y-74871428D01*
X122222380Y-74680952D01*
X122174761Y-74585714D01*
X122127142Y-74538095D01*
X122031904Y-74490476D01*
X121841428Y-74490476D01*
X121746190Y-74538095D01*
X121698571Y-74585714D01*
X121650952Y-74680952D01*
G04 #@! TO.C,U9*
X111522380Y-76061904D02*
X112331904Y-76061904D01*
X112427142Y-76014285D01*
X112474761Y-75966666D01*
X112522380Y-75871428D01*
X112522380Y-75680952D01*
X112474761Y-75585714D01*
X112427142Y-75538095D01*
X112331904Y-75490476D01*
X111522380Y-75490476D01*
X112522380Y-74966666D02*
X112522380Y-74776190D01*
X112474761Y-74680952D01*
X112427142Y-74633333D01*
X112284285Y-74538095D01*
X112093809Y-74490476D01*
X111712857Y-74490476D01*
X111617619Y-74538095D01*
X111570000Y-74585714D01*
X111522380Y-74680952D01*
X111522380Y-74871428D01*
X111570000Y-74966666D01*
X111617619Y-75014285D01*
X111712857Y-75061904D01*
X111950952Y-75061904D01*
X112046190Y-75014285D01*
X112093809Y-74966666D01*
X112141428Y-74871428D01*
X112141428Y-74680952D01*
X112093809Y-74585714D01*
X112046190Y-74538095D01*
X111950952Y-74490476D01*
G04 #@! TO.C,U10*
X101822380Y-76538095D02*
X102631904Y-76538095D01*
X102727142Y-76490476D01*
X102774761Y-76442857D01*
X102822380Y-76347619D01*
X102822380Y-76157142D01*
X102774761Y-76061904D01*
X102727142Y-76014285D01*
X102631904Y-75966666D01*
X101822380Y-75966666D01*
X102822380Y-74966666D02*
X102822380Y-75538095D01*
X102822380Y-75252380D02*
X101822380Y-75252380D01*
X101965238Y-75347619D01*
X102060476Y-75442857D01*
X102108095Y-75538095D01*
X101822380Y-74347619D02*
X101822380Y-74252380D01*
X101870000Y-74157142D01*
X101917619Y-74109523D01*
X102012857Y-74061904D01*
X102203333Y-74014285D01*
X102441428Y-74014285D01*
X102631904Y-74061904D01*
X102727142Y-74109523D01*
X102774761Y-74157142D01*
X102822380Y-74252380D01*
X102822380Y-74347619D01*
X102774761Y-74442857D01*
X102727142Y-74490476D01*
X102631904Y-74538095D01*
X102441428Y-74585714D01*
X102203333Y-74585714D01*
X102012857Y-74538095D01*
X101917619Y-74490476D01*
X101870000Y-74442857D01*
X101822380Y-74347619D01*
G04 #@! TO.C,J5*
X139252380Y-57333333D02*
X139966666Y-57333333D01*
X140109523Y-57380952D01*
X140204761Y-57476190D01*
X140252380Y-57619047D01*
X140252380Y-57714285D01*
X139252380Y-56380952D02*
X139252380Y-56857142D01*
X139728571Y-56904761D01*
X139680952Y-56857142D01*
X139633333Y-56761904D01*
X139633333Y-56523809D01*
X139680952Y-56428571D01*
X139728571Y-56380952D01*
X139823809Y-56333333D01*
X140061904Y-56333333D01*
X140157142Y-56380952D01*
X140204761Y-56428571D01*
X140252380Y-56523809D01*
X140252380Y-56761904D01*
X140204761Y-56857142D01*
X140157142Y-56904761D01*
G04 #@! TO.C,J4*
X201452380Y-82233333D02*
X202166666Y-82233333D01*
X202309523Y-82280952D01*
X202404761Y-82376190D01*
X202452380Y-82519047D01*
X202452380Y-82614285D01*
X201785714Y-81328571D02*
X202452380Y-81328571D01*
X201404761Y-81566666D02*
X202119047Y-81804761D01*
X202119047Y-81185714D01*
G04 #@! TO.C,C27*
X193457142Y-100057142D02*
X193409523Y-100104761D01*
X193266666Y-100152380D01*
X193171428Y-100152380D01*
X193028571Y-100104761D01*
X192933333Y-100009523D01*
X192885714Y-99914285D01*
X192838095Y-99723809D01*
X192838095Y-99580952D01*
X192885714Y-99390476D01*
X192933333Y-99295238D01*
X193028571Y-99200000D01*
X193171428Y-99152380D01*
X193266666Y-99152380D01*
X193409523Y-99200000D01*
X193457142Y-99247619D01*
X193838095Y-99247619D02*
X193885714Y-99200000D01*
X193980952Y-99152380D01*
X194219047Y-99152380D01*
X194314285Y-99200000D01*
X194361904Y-99247619D01*
X194409523Y-99342857D01*
X194409523Y-99438095D01*
X194361904Y-99580952D01*
X193790476Y-100152380D01*
X194409523Y-100152380D01*
X194742857Y-99152380D02*
X195409523Y-99152380D01*
X194980952Y-100152380D01*
G04 #@! TO.C,C26*
X193457142Y-98557142D02*
X193409523Y-98604761D01*
X193266666Y-98652380D01*
X193171428Y-98652380D01*
X193028571Y-98604761D01*
X192933333Y-98509523D01*
X192885714Y-98414285D01*
X192838095Y-98223809D01*
X192838095Y-98080952D01*
X192885714Y-97890476D01*
X192933333Y-97795238D01*
X193028571Y-97700000D01*
X193171428Y-97652380D01*
X193266666Y-97652380D01*
X193409523Y-97700000D01*
X193457142Y-97747619D01*
X193838095Y-97747619D02*
X193885714Y-97700000D01*
X193980952Y-97652380D01*
X194219047Y-97652380D01*
X194314285Y-97700000D01*
X194361904Y-97747619D01*
X194409523Y-97842857D01*
X194409523Y-97938095D01*
X194361904Y-98080952D01*
X193790476Y-98652380D01*
X194409523Y-98652380D01*
X195266666Y-97652380D02*
X195076190Y-97652380D01*
X194980952Y-97700000D01*
X194933333Y-97747619D01*
X194838095Y-97890476D01*
X194790476Y-98080952D01*
X194790476Y-98461904D01*
X194838095Y-98557142D01*
X194885714Y-98604761D01*
X194980952Y-98652380D01*
X195171428Y-98652380D01*
X195266666Y-98604761D01*
X195314285Y-98557142D01*
X195361904Y-98461904D01*
X195361904Y-98223809D01*
X195314285Y-98128571D01*
X195266666Y-98080952D01*
X195171428Y-98033333D01*
X194980952Y-98033333D01*
X194885714Y-98080952D01*
X194838095Y-98128571D01*
X194790476Y-98223809D01*
G04 #@! TO.C,R35*
X112357142Y-85252380D02*
X112023809Y-84776190D01*
X111785714Y-85252380D02*
X111785714Y-84252380D01*
X112166666Y-84252380D01*
X112261904Y-84300000D01*
X112309523Y-84347619D01*
X112357142Y-84442857D01*
X112357142Y-84585714D01*
X112309523Y-84680952D01*
X112261904Y-84728571D01*
X112166666Y-84776190D01*
X111785714Y-84776190D01*
X112690476Y-84252380D02*
X113309523Y-84252380D01*
X112976190Y-84633333D01*
X113119047Y-84633333D01*
X113214285Y-84680952D01*
X113261904Y-84728571D01*
X113309523Y-84823809D01*
X113309523Y-85061904D01*
X113261904Y-85157142D01*
X113214285Y-85204761D01*
X113119047Y-85252380D01*
X112833333Y-85252380D01*
X112738095Y-85204761D01*
X112690476Y-85157142D01*
X114214285Y-84252380D02*
X113738095Y-84252380D01*
X113690476Y-84728571D01*
X113738095Y-84680952D01*
X113833333Y-84633333D01*
X114071428Y-84633333D01*
X114166666Y-84680952D01*
X114214285Y-84728571D01*
X114261904Y-84823809D01*
X114261904Y-85061904D01*
X114214285Y-85157142D01*
X114166666Y-85204761D01*
X114071428Y-85252380D01*
X113833333Y-85252380D01*
X113738095Y-85204761D01*
X113690476Y-85157142D01*
G04 #@! TO.C,R8*
X171033333Y-97652380D02*
X170700000Y-97176190D01*
X170461904Y-97652380D02*
X170461904Y-96652380D01*
X170842857Y-96652380D01*
X170938095Y-96700000D01*
X170985714Y-96747619D01*
X171033333Y-96842857D01*
X171033333Y-96985714D01*
X170985714Y-97080952D01*
X170938095Y-97128571D01*
X170842857Y-97176190D01*
X170461904Y-97176190D01*
X171604761Y-97080952D02*
X171509523Y-97033333D01*
X171461904Y-96985714D01*
X171414285Y-96890476D01*
X171414285Y-96842857D01*
X171461904Y-96747619D01*
X171509523Y-96700000D01*
X171604761Y-96652380D01*
X171795238Y-96652380D01*
X171890476Y-96700000D01*
X171938095Y-96747619D01*
X171985714Y-96842857D01*
X171985714Y-96890476D01*
X171938095Y-96985714D01*
X171890476Y-97033333D01*
X171795238Y-97080952D01*
X171604761Y-97080952D01*
X171509523Y-97128571D01*
X171461904Y-97176190D01*
X171414285Y-97271428D01*
X171414285Y-97461904D01*
X171461904Y-97557142D01*
X171509523Y-97604761D01*
X171604761Y-97652380D01*
X171795238Y-97652380D01*
X171890476Y-97604761D01*
X171938095Y-97557142D01*
X171985714Y-97461904D01*
X171985714Y-97271428D01*
X171938095Y-97176190D01*
X171890476Y-97128571D01*
X171795238Y-97080952D01*
G04 #@! TO.C,C32*
X168257142Y-65757142D02*
X168209523Y-65804761D01*
X168066666Y-65852380D01*
X167971428Y-65852380D01*
X167828571Y-65804761D01*
X167733333Y-65709523D01*
X167685714Y-65614285D01*
X167638095Y-65423809D01*
X167638095Y-65280952D01*
X167685714Y-65090476D01*
X167733333Y-64995238D01*
X167828571Y-64900000D01*
X167971428Y-64852380D01*
X168066666Y-64852380D01*
X168209523Y-64900000D01*
X168257142Y-64947619D01*
X168590476Y-64852380D02*
X169209523Y-64852380D01*
X168876190Y-65233333D01*
X169019047Y-65233333D01*
X169114285Y-65280952D01*
X169161904Y-65328571D01*
X169209523Y-65423809D01*
X169209523Y-65661904D01*
X169161904Y-65757142D01*
X169114285Y-65804761D01*
X169019047Y-65852380D01*
X168733333Y-65852380D01*
X168638095Y-65804761D01*
X168590476Y-65757142D01*
X169590476Y-64947619D02*
X169638095Y-64900000D01*
X169733333Y-64852380D01*
X169971428Y-64852380D01*
X170066666Y-64900000D01*
X170114285Y-64947619D01*
X170161904Y-65042857D01*
X170161904Y-65138095D01*
X170114285Y-65280952D01*
X169542857Y-65852380D01*
X170161904Y-65852380D01*
G04 #@! TO.C,R30*
X195157142Y-81702380D02*
X194823809Y-81226190D01*
X194585714Y-81702380D02*
X194585714Y-80702380D01*
X194966666Y-80702380D01*
X195061904Y-80750000D01*
X195109523Y-80797619D01*
X195157142Y-80892857D01*
X195157142Y-81035714D01*
X195109523Y-81130952D01*
X195061904Y-81178571D01*
X194966666Y-81226190D01*
X194585714Y-81226190D01*
X195490476Y-80702380D02*
X196109523Y-80702380D01*
X195776190Y-81083333D01*
X195919047Y-81083333D01*
X196014285Y-81130952D01*
X196061904Y-81178571D01*
X196109523Y-81273809D01*
X196109523Y-81511904D01*
X196061904Y-81607142D01*
X196014285Y-81654761D01*
X195919047Y-81702380D01*
X195633333Y-81702380D01*
X195538095Y-81654761D01*
X195490476Y-81607142D01*
X196728571Y-80702380D02*
X196823809Y-80702380D01*
X196919047Y-80750000D01*
X196966666Y-80797619D01*
X197014285Y-80892857D01*
X197061904Y-81083333D01*
X197061904Y-81321428D01*
X197014285Y-81511904D01*
X196966666Y-81607142D01*
X196919047Y-81654761D01*
X196823809Y-81702380D01*
X196728571Y-81702380D01*
X196633333Y-81654761D01*
X196585714Y-81607142D01*
X196538095Y-81511904D01*
X196490476Y-81321428D01*
X196490476Y-81083333D01*
X196538095Y-80892857D01*
X196585714Y-80797619D01*
X196633333Y-80750000D01*
X196728571Y-80702380D01*
G04 #@! TO.C,R31*
X195157142Y-78502380D02*
X194823809Y-78026190D01*
X194585714Y-78502380D02*
X194585714Y-77502380D01*
X194966666Y-77502380D01*
X195061904Y-77550000D01*
X195109523Y-77597619D01*
X195157142Y-77692857D01*
X195157142Y-77835714D01*
X195109523Y-77930952D01*
X195061904Y-77978571D01*
X194966666Y-78026190D01*
X194585714Y-78026190D01*
X195490476Y-77502380D02*
X196109523Y-77502380D01*
X195776190Y-77883333D01*
X195919047Y-77883333D01*
X196014285Y-77930952D01*
X196061904Y-77978571D01*
X196109523Y-78073809D01*
X196109523Y-78311904D01*
X196061904Y-78407142D01*
X196014285Y-78454761D01*
X195919047Y-78502380D01*
X195633333Y-78502380D01*
X195538095Y-78454761D01*
X195490476Y-78407142D01*
X197061904Y-78502380D02*
X196490476Y-78502380D01*
X196776190Y-78502380D02*
X196776190Y-77502380D01*
X196680952Y-77645238D01*
X196585714Y-77740476D01*
X196490476Y-77788095D01*
G04 #@! TO.C,U3*
X181438095Y-88852380D02*
X181438095Y-89661904D01*
X181485714Y-89757142D01*
X181533333Y-89804761D01*
X181628571Y-89852380D01*
X181819047Y-89852380D01*
X181914285Y-89804761D01*
X181961904Y-89757142D01*
X182009523Y-89661904D01*
X182009523Y-88852380D01*
X182390476Y-88852380D02*
X183009523Y-88852380D01*
X182676190Y-89233333D01*
X182819047Y-89233333D01*
X182914285Y-89280952D01*
X182961904Y-89328571D01*
X183009523Y-89423809D01*
X183009523Y-89661904D01*
X182961904Y-89757142D01*
X182914285Y-89804761D01*
X182819047Y-89852380D01*
X182533333Y-89852380D01*
X182438095Y-89804761D01*
X182390476Y-89757142D01*
G04 #@! TO.C,R1*
X189233333Y-67752380D02*
X188900000Y-67276190D01*
X188661904Y-67752380D02*
X188661904Y-66752380D01*
X189042857Y-66752380D01*
X189138095Y-66800000D01*
X189185714Y-66847619D01*
X189233333Y-66942857D01*
X189233333Y-67085714D01*
X189185714Y-67180952D01*
X189138095Y-67228571D01*
X189042857Y-67276190D01*
X188661904Y-67276190D01*
X190185714Y-67752380D02*
X189614285Y-67752380D01*
X189900000Y-67752380D02*
X189900000Y-66752380D01*
X189804761Y-66895238D01*
X189709523Y-66990476D01*
X189614285Y-67038095D01*
G04 #@! TO.C,C10*
X174557142Y-107357142D02*
X174509523Y-107404761D01*
X174366666Y-107452380D01*
X174271428Y-107452380D01*
X174128571Y-107404761D01*
X174033333Y-107309523D01*
X173985714Y-107214285D01*
X173938095Y-107023809D01*
X173938095Y-106880952D01*
X173985714Y-106690476D01*
X174033333Y-106595238D01*
X174128571Y-106500000D01*
X174271428Y-106452380D01*
X174366666Y-106452380D01*
X174509523Y-106500000D01*
X174557142Y-106547619D01*
X175509523Y-107452380D02*
X174938095Y-107452380D01*
X175223809Y-107452380D02*
X175223809Y-106452380D01*
X175128571Y-106595238D01*
X175033333Y-106690476D01*
X174938095Y-106738095D01*
X176128571Y-106452380D02*
X176223809Y-106452380D01*
X176319047Y-106500000D01*
X176366666Y-106547619D01*
X176414285Y-106642857D01*
X176461904Y-106833333D01*
X176461904Y-107071428D01*
X176414285Y-107261904D01*
X176366666Y-107357142D01*
X176319047Y-107404761D01*
X176223809Y-107452380D01*
X176128571Y-107452380D01*
X176033333Y-107404761D01*
X175985714Y-107357142D01*
X175938095Y-107261904D01*
X175890476Y-107071428D01*
X175890476Y-106833333D01*
X175938095Y-106642857D01*
X175985714Y-106547619D01*
X176033333Y-106500000D01*
X176128571Y-106452380D01*
G04 #@! TO.C,SW1*
X198804761Y-91433333D02*
X198852380Y-91290476D01*
X198852380Y-91052380D01*
X198804761Y-90957142D01*
X198757142Y-90909523D01*
X198661904Y-90861904D01*
X198566666Y-90861904D01*
X198471428Y-90909523D01*
X198423809Y-90957142D01*
X198376190Y-91052380D01*
X198328571Y-91242857D01*
X198280952Y-91338095D01*
X198233333Y-91385714D01*
X198138095Y-91433333D01*
X198042857Y-91433333D01*
X197947619Y-91385714D01*
X197900000Y-91338095D01*
X197852380Y-91242857D01*
X197852380Y-91004761D01*
X197900000Y-90861904D01*
X197852380Y-90528571D02*
X198852380Y-90290476D01*
X198138095Y-90100000D01*
X198852380Y-89909523D01*
X197852380Y-89671428D01*
X198852380Y-88766666D02*
X198852380Y-89338095D01*
X198852380Y-89052380D02*
X197852380Y-89052380D01*
X197995238Y-89147619D01*
X198090476Y-89242857D01*
X198138095Y-89338095D01*
G04 #@! TO.C,J8*
X207266666Y-102952380D02*
X207266666Y-103666666D01*
X207219047Y-103809523D01*
X207123809Y-103904761D01*
X206980952Y-103952380D01*
X206885714Y-103952380D01*
X207885714Y-103380952D02*
X207790476Y-103333333D01*
X207742857Y-103285714D01*
X207695238Y-103190476D01*
X207695238Y-103142857D01*
X207742857Y-103047619D01*
X207790476Y-103000000D01*
X207885714Y-102952380D01*
X208076190Y-102952380D01*
X208171428Y-103000000D01*
X208219047Y-103047619D01*
X208266666Y-103142857D01*
X208266666Y-103190476D01*
X208219047Y-103285714D01*
X208171428Y-103333333D01*
X208076190Y-103380952D01*
X207885714Y-103380952D01*
X207790476Y-103428571D01*
X207742857Y-103476190D01*
X207695238Y-103571428D01*
X207695238Y-103761904D01*
X207742857Y-103857142D01*
X207790476Y-103904761D01*
X207885714Y-103952380D01*
X208076190Y-103952380D01*
X208171428Y-103904761D01*
X208219047Y-103857142D01*
X208266666Y-103761904D01*
X208266666Y-103571428D01*
X208219047Y-103476190D01*
X208171428Y-103428571D01*
X208076190Y-103380952D01*
G04 #@! TO.C,JP3*
X204452380Y-94433333D02*
X205166666Y-94433333D01*
X205309523Y-94480952D01*
X205404761Y-94576190D01*
X205452380Y-94719047D01*
X205452380Y-94814285D01*
X205452380Y-93957142D02*
X204452380Y-93957142D01*
X204452380Y-93576190D01*
X204500000Y-93480952D01*
X204547619Y-93433333D01*
X204642857Y-93385714D01*
X204785714Y-93385714D01*
X204880952Y-93433333D01*
X204928571Y-93480952D01*
X204976190Y-93576190D01*
X204976190Y-93957142D01*
X204452380Y-93052380D02*
X204452380Y-92433333D01*
X204833333Y-92766666D01*
X204833333Y-92623809D01*
X204880952Y-92528571D01*
X204928571Y-92480952D01*
X205023809Y-92433333D01*
X205261904Y-92433333D01*
X205357142Y-92480952D01*
X205404761Y-92528571D01*
X205452380Y-92623809D01*
X205452380Y-92909523D01*
X205404761Y-93004761D01*
X205357142Y-93052380D01*
G04 #@! TO.C,R20*
X168052380Y-60142857D02*
X167576190Y-60476190D01*
X168052380Y-60714285D02*
X167052380Y-60714285D01*
X167052380Y-60333333D01*
X167100000Y-60238095D01*
X167147619Y-60190476D01*
X167242857Y-60142857D01*
X167385714Y-60142857D01*
X167480952Y-60190476D01*
X167528571Y-60238095D01*
X167576190Y-60333333D01*
X167576190Y-60714285D01*
X167147619Y-59761904D02*
X167100000Y-59714285D01*
X167052380Y-59619047D01*
X167052380Y-59380952D01*
X167100000Y-59285714D01*
X167147619Y-59238095D01*
X167242857Y-59190476D01*
X167338095Y-59190476D01*
X167480952Y-59238095D01*
X168052380Y-59809523D01*
X168052380Y-59190476D01*
X167052380Y-58571428D02*
X167052380Y-58476190D01*
X167100000Y-58380952D01*
X167147619Y-58333333D01*
X167242857Y-58285714D01*
X167433333Y-58238095D01*
X167671428Y-58238095D01*
X167861904Y-58285714D01*
X167957142Y-58333333D01*
X168004761Y-58380952D01*
X168052380Y-58476190D01*
X168052380Y-58571428D01*
X168004761Y-58666666D01*
X167957142Y-58714285D01*
X167861904Y-58761904D01*
X167671428Y-58809523D01*
X167433333Y-58809523D01*
X167242857Y-58761904D01*
X167147619Y-58714285D01*
X167100000Y-58666666D01*
X167052380Y-58571428D01*
G04 #@! TO.C,J6*
X156052380Y-90133333D02*
X156766666Y-90133333D01*
X156909523Y-90180952D01*
X157004761Y-90276190D01*
X157052380Y-90419047D01*
X157052380Y-90514285D01*
X156052380Y-89228571D02*
X156052380Y-89419047D01*
X156100000Y-89514285D01*
X156147619Y-89561904D01*
X156290476Y-89657142D01*
X156480952Y-89704761D01*
X156861904Y-89704761D01*
X156957142Y-89657142D01*
X157004761Y-89609523D01*
X157052380Y-89514285D01*
X157052380Y-89323809D01*
X157004761Y-89228571D01*
X156957142Y-89180952D01*
X156861904Y-89133333D01*
X156623809Y-89133333D01*
X156528571Y-89180952D01*
X156480952Y-89228571D01*
X156433333Y-89323809D01*
X156433333Y-89514285D01*
X156480952Y-89609523D01*
X156528571Y-89657142D01*
X156623809Y-89704761D01*
G04 #@! TO.C,R7*
X118652380Y-87266666D02*
X118176190Y-87600000D01*
X118652380Y-87838095D02*
X117652380Y-87838095D01*
X117652380Y-87457142D01*
X117700000Y-87361904D01*
X117747619Y-87314285D01*
X117842857Y-87266666D01*
X117985714Y-87266666D01*
X118080952Y-87314285D01*
X118128571Y-87361904D01*
X118176190Y-87457142D01*
X118176190Y-87838095D01*
X117652380Y-86933333D02*
X117652380Y-86266666D01*
X118652380Y-86695238D01*
G04 #@! TO.C,R6*
X120452380Y-87266666D02*
X119976190Y-87600000D01*
X120452380Y-87838095D02*
X119452380Y-87838095D01*
X119452380Y-87457142D01*
X119500000Y-87361904D01*
X119547619Y-87314285D01*
X119642857Y-87266666D01*
X119785714Y-87266666D01*
X119880952Y-87314285D01*
X119928571Y-87361904D01*
X119976190Y-87457142D01*
X119976190Y-87838095D01*
X119452380Y-86409523D02*
X119452380Y-86600000D01*
X119500000Y-86695238D01*
X119547619Y-86742857D01*
X119690476Y-86838095D01*
X119880952Y-86885714D01*
X120261904Y-86885714D01*
X120357142Y-86838095D01*
X120404761Y-86790476D01*
X120452380Y-86695238D01*
X120452380Y-86504761D01*
X120404761Y-86409523D01*
X120357142Y-86361904D01*
X120261904Y-86314285D01*
X120023809Y-86314285D01*
X119928571Y-86361904D01*
X119880952Y-86409523D01*
X119833333Y-86504761D01*
X119833333Y-86695238D01*
X119880952Y-86790476D01*
X119928571Y-86838095D01*
X120023809Y-86885714D01*
G04 #@! TO.C,R9*
X182833333Y-108952380D02*
X182500000Y-108476190D01*
X182261904Y-108952380D02*
X182261904Y-107952380D01*
X182642857Y-107952380D01*
X182738095Y-108000000D01*
X182785714Y-108047619D01*
X182833333Y-108142857D01*
X182833333Y-108285714D01*
X182785714Y-108380952D01*
X182738095Y-108428571D01*
X182642857Y-108476190D01*
X182261904Y-108476190D01*
X183309523Y-108952380D02*
X183500000Y-108952380D01*
X183595238Y-108904761D01*
X183642857Y-108857142D01*
X183738095Y-108714285D01*
X183785714Y-108523809D01*
X183785714Y-108142857D01*
X183738095Y-108047619D01*
X183690476Y-108000000D01*
X183595238Y-107952380D01*
X183404761Y-107952380D01*
X183309523Y-108000000D01*
X183261904Y-108047619D01*
X183214285Y-108142857D01*
X183214285Y-108380952D01*
X183261904Y-108476190D01*
X183309523Y-108523809D01*
X183404761Y-108571428D01*
X183595238Y-108571428D01*
X183690476Y-108523809D01*
X183738095Y-108476190D01*
X183785714Y-108380952D01*
G04 #@! TO.C,R3*
X120433333Y-67152380D02*
X120100000Y-66676190D01*
X119861904Y-67152380D02*
X119861904Y-66152380D01*
X120242857Y-66152380D01*
X120338095Y-66200000D01*
X120385714Y-66247619D01*
X120433333Y-66342857D01*
X120433333Y-66485714D01*
X120385714Y-66580952D01*
X120338095Y-66628571D01*
X120242857Y-66676190D01*
X119861904Y-66676190D01*
X120766666Y-66152380D02*
X121385714Y-66152380D01*
X121052380Y-66533333D01*
X121195238Y-66533333D01*
X121290476Y-66580952D01*
X121338095Y-66628571D01*
X121385714Y-66723809D01*
X121385714Y-66961904D01*
X121338095Y-67057142D01*
X121290476Y-67104761D01*
X121195238Y-67152380D01*
X120909523Y-67152380D01*
X120814285Y-67104761D01*
X120766666Y-67057142D01*
G04 #@! TO.C,R2*
X192933333Y-73552380D02*
X192600000Y-73076190D01*
X192361904Y-73552380D02*
X192361904Y-72552380D01*
X192742857Y-72552380D01*
X192838095Y-72600000D01*
X192885714Y-72647619D01*
X192933333Y-72742857D01*
X192933333Y-72885714D01*
X192885714Y-72980952D01*
X192838095Y-73028571D01*
X192742857Y-73076190D01*
X192361904Y-73076190D01*
X193314285Y-72647619D02*
X193361904Y-72600000D01*
X193457142Y-72552380D01*
X193695238Y-72552380D01*
X193790476Y-72600000D01*
X193838095Y-72647619D01*
X193885714Y-72742857D01*
X193885714Y-72838095D01*
X193838095Y-72980952D01*
X193266666Y-73552380D01*
X193885714Y-73552380D01*
G04 #@! TO.C,C1*
X132333333Y-71757142D02*
X132285714Y-71804761D01*
X132142857Y-71852380D01*
X132047619Y-71852380D01*
X131904761Y-71804761D01*
X131809523Y-71709523D01*
X131761904Y-71614285D01*
X131714285Y-71423809D01*
X131714285Y-71280952D01*
X131761904Y-71090476D01*
X131809523Y-70995238D01*
X131904761Y-70900000D01*
X132047619Y-70852380D01*
X132142857Y-70852380D01*
X132285714Y-70900000D01*
X132333333Y-70947619D01*
X133285714Y-71852380D02*
X132714285Y-71852380D01*
X133000000Y-71852380D02*
X133000000Y-70852380D01*
X132904761Y-70995238D01*
X132809523Y-71090476D01*
X132714285Y-71138095D01*
G04 #@! TO.C,C2*
X127733333Y-82757142D02*
X127685714Y-82804761D01*
X127542857Y-82852380D01*
X127447619Y-82852380D01*
X127304761Y-82804761D01*
X127209523Y-82709523D01*
X127161904Y-82614285D01*
X127114285Y-82423809D01*
X127114285Y-82280952D01*
X127161904Y-82090476D01*
X127209523Y-81995238D01*
X127304761Y-81900000D01*
X127447619Y-81852380D01*
X127542857Y-81852380D01*
X127685714Y-81900000D01*
X127733333Y-81947619D01*
X128114285Y-81947619D02*
X128161904Y-81900000D01*
X128257142Y-81852380D01*
X128495238Y-81852380D01*
X128590476Y-81900000D01*
X128638095Y-81947619D01*
X128685714Y-82042857D01*
X128685714Y-82138095D01*
X128638095Y-82280952D01*
X128066666Y-82852380D01*
X128685714Y-82852380D01*
G04 #@! TO.C,C3*
X121833333Y-86457142D02*
X121785714Y-86504761D01*
X121642857Y-86552380D01*
X121547619Y-86552380D01*
X121404761Y-86504761D01*
X121309523Y-86409523D01*
X121261904Y-86314285D01*
X121214285Y-86123809D01*
X121214285Y-85980952D01*
X121261904Y-85790476D01*
X121309523Y-85695238D01*
X121404761Y-85600000D01*
X121547619Y-85552380D01*
X121642857Y-85552380D01*
X121785714Y-85600000D01*
X121833333Y-85647619D01*
X122166666Y-85552380D02*
X122785714Y-85552380D01*
X122452380Y-85933333D01*
X122595238Y-85933333D01*
X122690476Y-85980952D01*
X122738095Y-86028571D01*
X122785714Y-86123809D01*
X122785714Y-86361904D01*
X122738095Y-86457142D01*
X122690476Y-86504761D01*
X122595238Y-86552380D01*
X122309523Y-86552380D01*
X122214285Y-86504761D01*
X122166666Y-86457142D01*
G04 #@! TO.C,C4*
X122533333Y-73457142D02*
X122485714Y-73504761D01*
X122342857Y-73552380D01*
X122247619Y-73552380D01*
X122104761Y-73504761D01*
X122009523Y-73409523D01*
X121961904Y-73314285D01*
X121914285Y-73123809D01*
X121914285Y-72980952D01*
X121961904Y-72790476D01*
X122009523Y-72695238D01*
X122104761Y-72600000D01*
X122247619Y-72552380D01*
X122342857Y-72552380D01*
X122485714Y-72600000D01*
X122533333Y-72647619D01*
X123390476Y-72885714D02*
X123390476Y-73552380D01*
X123152380Y-72504761D02*
X122914285Y-73219047D01*
X123533333Y-73219047D01*
G04 #@! TO.C,C5*
X128933333Y-86557142D02*
X128885714Y-86604761D01*
X128742857Y-86652380D01*
X128647619Y-86652380D01*
X128504761Y-86604761D01*
X128409523Y-86509523D01*
X128361904Y-86414285D01*
X128314285Y-86223809D01*
X128314285Y-86080952D01*
X128361904Y-85890476D01*
X128409523Y-85795238D01*
X128504761Y-85700000D01*
X128647619Y-85652380D01*
X128742857Y-85652380D01*
X128885714Y-85700000D01*
X128933333Y-85747619D01*
X129838095Y-85652380D02*
X129361904Y-85652380D01*
X129314285Y-86128571D01*
X129361904Y-86080952D01*
X129457142Y-86033333D01*
X129695238Y-86033333D01*
X129790476Y-86080952D01*
X129838095Y-86128571D01*
X129885714Y-86223809D01*
X129885714Y-86461904D01*
X129838095Y-86557142D01*
X129790476Y-86604761D01*
X129695238Y-86652380D01*
X129457142Y-86652380D01*
X129361904Y-86604761D01*
X129314285Y-86557142D01*
G04 #@! TO.C,C6*
X140033333Y-65457142D02*
X139985714Y-65504761D01*
X139842857Y-65552380D01*
X139747619Y-65552380D01*
X139604761Y-65504761D01*
X139509523Y-65409523D01*
X139461904Y-65314285D01*
X139414285Y-65123809D01*
X139414285Y-64980952D01*
X139461904Y-64790476D01*
X139509523Y-64695238D01*
X139604761Y-64600000D01*
X139747619Y-64552380D01*
X139842857Y-64552380D01*
X139985714Y-64600000D01*
X140033333Y-64647619D01*
X140890476Y-64552380D02*
X140700000Y-64552380D01*
X140604761Y-64600000D01*
X140557142Y-64647619D01*
X140461904Y-64790476D01*
X140414285Y-64980952D01*
X140414285Y-65361904D01*
X140461904Y-65457142D01*
X140509523Y-65504761D01*
X140604761Y-65552380D01*
X140795238Y-65552380D01*
X140890476Y-65504761D01*
X140938095Y-65457142D01*
X140985714Y-65361904D01*
X140985714Y-65123809D01*
X140938095Y-65028571D01*
X140890476Y-64980952D01*
X140795238Y-64933333D01*
X140604761Y-64933333D01*
X140509523Y-64980952D01*
X140461904Y-65028571D01*
X140414285Y-65123809D01*
G04 #@! TO.C,C7*
X155057142Y-74966666D02*
X155104761Y-75014285D01*
X155152380Y-75157142D01*
X155152380Y-75252380D01*
X155104761Y-75395238D01*
X155009523Y-75490476D01*
X154914285Y-75538095D01*
X154723809Y-75585714D01*
X154580952Y-75585714D01*
X154390476Y-75538095D01*
X154295238Y-75490476D01*
X154200000Y-75395238D01*
X154152380Y-75252380D01*
X154152380Y-75157142D01*
X154200000Y-75014285D01*
X154247619Y-74966666D01*
X154152380Y-74633333D02*
X154152380Y-73966666D01*
X155152380Y-74395238D01*
G04 #@! TO.C,C8*
X150757142Y-85966666D02*
X150804761Y-86014285D01*
X150852380Y-86157142D01*
X150852380Y-86252380D01*
X150804761Y-86395238D01*
X150709523Y-86490476D01*
X150614285Y-86538095D01*
X150423809Y-86585714D01*
X150280952Y-86585714D01*
X150090476Y-86538095D01*
X149995238Y-86490476D01*
X149900000Y-86395238D01*
X149852380Y-86252380D01*
X149852380Y-86157142D01*
X149900000Y-86014285D01*
X149947619Y-85966666D01*
X150280952Y-85395238D02*
X150233333Y-85490476D01*
X150185714Y-85538095D01*
X150090476Y-85585714D01*
X150042857Y-85585714D01*
X149947619Y-85538095D01*
X149900000Y-85490476D01*
X149852380Y-85395238D01*
X149852380Y-85204761D01*
X149900000Y-85109523D01*
X149947619Y-85061904D01*
X150042857Y-85014285D01*
X150090476Y-85014285D01*
X150185714Y-85061904D01*
X150233333Y-85109523D01*
X150280952Y-85204761D01*
X150280952Y-85395238D01*
X150328571Y-85490476D01*
X150376190Y-85538095D01*
X150471428Y-85585714D01*
X150661904Y-85585714D01*
X150757142Y-85538095D01*
X150804761Y-85490476D01*
X150852380Y-85395238D01*
X150852380Y-85204761D01*
X150804761Y-85109523D01*
X150757142Y-85061904D01*
X150661904Y-85014285D01*
X150471428Y-85014285D01*
X150376190Y-85061904D01*
X150328571Y-85109523D01*
X150280952Y-85204761D01*
G04 #@! TO.C,C9*
X174533333Y-104357142D02*
X174485714Y-104404761D01*
X174342857Y-104452380D01*
X174247619Y-104452380D01*
X174104761Y-104404761D01*
X174009523Y-104309523D01*
X173961904Y-104214285D01*
X173914285Y-104023809D01*
X173914285Y-103880952D01*
X173961904Y-103690476D01*
X174009523Y-103595238D01*
X174104761Y-103500000D01*
X174247619Y-103452380D01*
X174342857Y-103452380D01*
X174485714Y-103500000D01*
X174533333Y-103547619D01*
X175009523Y-104452380D02*
X175200000Y-104452380D01*
X175295238Y-104404761D01*
X175342857Y-104357142D01*
X175438095Y-104214285D01*
X175485714Y-104023809D01*
X175485714Y-103642857D01*
X175438095Y-103547619D01*
X175390476Y-103500000D01*
X175295238Y-103452380D01*
X175104761Y-103452380D01*
X175009523Y-103500000D01*
X174961904Y-103547619D01*
X174914285Y-103642857D01*
X174914285Y-103880952D01*
X174961904Y-103976190D01*
X175009523Y-104023809D01*
X175104761Y-104071428D01*
X175295238Y-104071428D01*
X175390476Y-104023809D01*
X175438095Y-103976190D01*
X175485714Y-103880952D01*
G04 #@! TO.C,C11*
X172057142Y-110557142D02*
X172009523Y-110604761D01*
X171866666Y-110652380D01*
X171771428Y-110652380D01*
X171628571Y-110604761D01*
X171533333Y-110509523D01*
X171485714Y-110414285D01*
X171438095Y-110223809D01*
X171438095Y-110080952D01*
X171485714Y-109890476D01*
X171533333Y-109795238D01*
X171628571Y-109700000D01*
X171771428Y-109652380D01*
X171866666Y-109652380D01*
X172009523Y-109700000D01*
X172057142Y-109747619D01*
X173009523Y-110652380D02*
X172438095Y-110652380D01*
X172723809Y-110652380D02*
X172723809Y-109652380D01*
X172628571Y-109795238D01*
X172533333Y-109890476D01*
X172438095Y-109938095D01*
X173961904Y-110652380D02*
X173390476Y-110652380D01*
X173676190Y-110652380D02*
X173676190Y-109652380D01*
X173580952Y-109795238D01*
X173485714Y-109890476D01*
X173390476Y-109938095D01*
G04 #@! TO.C,C12*
X184557142Y-110957142D02*
X184509523Y-111004761D01*
X184366666Y-111052380D01*
X184271428Y-111052380D01*
X184128571Y-111004761D01*
X184033333Y-110909523D01*
X183985714Y-110814285D01*
X183938095Y-110623809D01*
X183938095Y-110480952D01*
X183985714Y-110290476D01*
X184033333Y-110195238D01*
X184128571Y-110100000D01*
X184271428Y-110052380D01*
X184366666Y-110052380D01*
X184509523Y-110100000D01*
X184557142Y-110147619D01*
X185509523Y-111052380D02*
X184938095Y-111052380D01*
X185223809Y-111052380D02*
X185223809Y-110052380D01*
X185128571Y-110195238D01*
X185033333Y-110290476D01*
X184938095Y-110338095D01*
X185890476Y-110147619D02*
X185938095Y-110100000D01*
X186033333Y-110052380D01*
X186271428Y-110052380D01*
X186366666Y-110100000D01*
X186414285Y-110147619D01*
X186461904Y-110242857D01*
X186461904Y-110338095D01*
X186414285Y-110480952D01*
X185842857Y-111052380D01*
X186461904Y-111052380D01*
G04 #@! TO.C,C13*
X195257142Y-83657142D02*
X195209523Y-83704761D01*
X195066666Y-83752380D01*
X194971428Y-83752380D01*
X194828571Y-83704761D01*
X194733333Y-83609523D01*
X194685714Y-83514285D01*
X194638095Y-83323809D01*
X194638095Y-83180952D01*
X194685714Y-82990476D01*
X194733333Y-82895238D01*
X194828571Y-82800000D01*
X194971428Y-82752380D01*
X195066666Y-82752380D01*
X195209523Y-82800000D01*
X195257142Y-82847619D01*
X196209523Y-83752380D02*
X195638095Y-83752380D01*
X195923809Y-83752380D02*
X195923809Y-82752380D01*
X195828571Y-82895238D01*
X195733333Y-82990476D01*
X195638095Y-83038095D01*
X196542857Y-82752380D02*
X197161904Y-82752380D01*
X196828571Y-83133333D01*
X196971428Y-83133333D01*
X197066666Y-83180952D01*
X197114285Y-83228571D01*
X197161904Y-83323809D01*
X197161904Y-83561904D01*
X197114285Y-83657142D01*
X197066666Y-83704761D01*
X196971428Y-83752380D01*
X196685714Y-83752380D01*
X196590476Y-83704761D01*
X196542857Y-83657142D01*
G04 #@! TO.C,C14*
X166657142Y-85557142D02*
X166609523Y-85604761D01*
X166466666Y-85652380D01*
X166371428Y-85652380D01*
X166228571Y-85604761D01*
X166133333Y-85509523D01*
X166085714Y-85414285D01*
X166038095Y-85223809D01*
X166038095Y-85080952D01*
X166085714Y-84890476D01*
X166133333Y-84795238D01*
X166228571Y-84700000D01*
X166371428Y-84652380D01*
X166466666Y-84652380D01*
X166609523Y-84700000D01*
X166657142Y-84747619D01*
X167609523Y-85652380D02*
X167038095Y-85652380D01*
X167323809Y-85652380D02*
X167323809Y-84652380D01*
X167228571Y-84795238D01*
X167133333Y-84890476D01*
X167038095Y-84938095D01*
X168466666Y-84985714D02*
X168466666Y-85652380D01*
X168228571Y-84604761D02*
X167990476Y-85319047D01*
X168609523Y-85319047D01*
G04 #@! TO.C,C17*
X170057142Y-91042857D02*
X170104761Y-91090476D01*
X170152380Y-91233333D01*
X170152380Y-91328571D01*
X170104761Y-91471428D01*
X170009523Y-91566666D01*
X169914285Y-91614285D01*
X169723809Y-91661904D01*
X169580952Y-91661904D01*
X169390476Y-91614285D01*
X169295238Y-91566666D01*
X169200000Y-91471428D01*
X169152380Y-91328571D01*
X169152380Y-91233333D01*
X169200000Y-91090476D01*
X169247619Y-91042857D01*
X170152380Y-90090476D02*
X170152380Y-90661904D01*
X170152380Y-90376190D02*
X169152380Y-90376190D01*
X169295238Y-90471428D01*
X169390476Y-90566666D01*
X169438095Y-90661904D01*
X169152380Y-89757142D02*
X169152380Y-89090476D01*
X170152380Y-89519047D01*
G04 #@! TO.C,C18*
X190357142Y-101042857D02*
X190404761Y-101090476D01*
X190452380Y-101233333D01*
X190452380Y-101328571D01*
X190404761Y-101471428D01*
X190309523Y-101566666D01*
X190214285Y-101614285D01*
X190023809Y-101661904D01*
X189880952Y-101661904D01*
X189690476Y-101614285D01*
X189595238Y-101566666D01*
X189500000Y-101471428D01*
X189452380Y-101328571D01*
X189452380Y-101233333D01*
X189500000Y-101090476D01*
X189547619Y-101042857D01*
X190452380Y-100090476D02*
X190452380Y-100661904D01*
X190452380Y-100376190D02*
X189452380Y-100376190D01*
X189595238Y-100471428D01*
X189690476Y-100566666D01*
X189738095Y-100661904D01*
X189880952Y-99519047D02*
X189833333Y-99614285D01*
X189785714Y-99661904D01*
X189690476Y-99709523D01*
X189642857Y-99709523D01*
X189547619Y-99661904D01*
X189500000Y-99614285D01*
X189452380Y-99519047D01*
X189452380Y-99328571D01*
X189500000Y-99233333D01*
X189547619Y-99185714D01*
X189642857Y-99138095D01*
X189690476Y-99138095D01*
X189785714Y-99185714D01*
X189833333Y-99233333D01*
X189880952Y-99328571D01*
X189880952Y-99519047D01*
X189928571Y-99614285D01*
X189976190Y-99661904D01*
X190071428Y-99709523D01*
X190261904Y-99709523D01*
X190357142Y-99661904D01*
X190404761Y-99614285D01*
X190452380Y-99519047D01*
X190452380Y-99328571D01*
X190404761Y-99233333D01*
X190357142Y-99185714D01*
X190261904Y-99138095D01*
X190071428Y-99138095D01*
X189976190Y-99185714D01*
X189928571Y-99233333D01*
X189880952Y-99328571D01*
G04 #@! TO.C,C19*
X189357142Y-92742857D02*
X189404761Y-92790476D01*
X189452380Y-92933333D01*
X189452380Y-93028571D01*
X189404761Y-93171428D01*
X189309523Y-93266666D01*
X189214285Y-93314285D01*
X189023809Y-93361904D01*
X188880952Y-93361904D01*
X188690476Y-93314285D01*
X188595238Y-93266666D01*
X188500000Y-93171428D01*
X188452380Y-93028571D01*
X188452380Y-92933333D01*
X188500000Y-92790476D01*
X188547619Y-92742857D01*
X189452380Y-91790476D02*
X189452380Y-92361904D01*
X189452380Y-92076190D02*
X188452380Y-92076190D01*
X188595238Y-92171428D01*
X188690476Y-92266666D01*
X188738095Y-92361904D01*
X189452380Y-91314285D02*
X189452380Y-91123809D01*
X189404761Y-91028571D01*
X189357142Y-90980952D01*
X189214285Y-90885714D01*
X189023809Y-90838095D01*
X188642857Y-90838095D01*
X188547619Y-90885714D01*
X188500000Y-90933333D01*
X188452380Y-91028571D01*
X188452380Y-91219047D01*
X188500000Y-91314285D01*
X188547619Y-91361904D01*
X188642857Y-91409523D01*
X188880952Y-91409523D01*
X188976190Y-91361904D01*
X189023809Y-91314285D01*
X189071428Y-91219047D01*
X189071428Y-91028571D01*
X189023809Y-90933333D01*
X188976190Y-90885714D01*
X188880952Y-90838095D01*
G04 #@! TO.C,C20*
X168057142Y-101057142D02*
X168009523Y-101104761D01*
X167866666Y-101152380D01*
X167771428Y-101152380D01*
X167628571Y-101104761D01*
X167533333Y-101009523D01*
X167485714Y-100914285D01*
X167438095Y-100723809D01*
X167438095Y-100580952D01*
X167485714Y-100390476D01*
X167533333Y-100295238D01*
X167628571Y-100200000D01*
X167771428Y-100152380D01*
X167866666Y-100152380D01*
X168009523Y-100200000D01*
X168057142Y-100247619D01*
X168438095Y-100247619D02*
X168485714Y-100200000D01*
X168580952Y-100152380D01*
X168819047Y-100152380D01*
X168914285Y-100200000D01*
X168961904Y-100247619D01*
X169009523Y-100342857D01*
X169009523Y-100438095D01*
X168961904Y-100580952D01*
X168390476Y-101152380D01*
X169009523Y-101152380D01*
X169628571Y-100152380D02*
X169723809Y-100152380D01*
X169819047Y-100200000D01*
X169866666Y-100247619D01*
X169914285Y-100342857D01*
X169961904Y-100533333D01*
X169961904Y-100771428D01*
X169914285Y-100961904D01*
X169866666Y-101057142D01*
X169819047Y-101104761D01*
X169723809Y-101152380D01*
X169628571Y-101152380D01*
X169533333Y-101104761D01*
X169485714Y-101057142D01*
X169438095Y-100961904D01*
X169390476Y-100771428D01*
X169390476Y-100533333D01*
X169438095Y-100342857D01*
X169485714Y-100247619D01*
X169533333Y-100200000D01*
X169628571Y-100152380D01*
G04 #@! TO.C,C21*
X168057142Y-103657142D02*
X168009523Y-103704761D01*
X167866666Y-103752380D01*
X167771428Y-103752380D01*
X167628571Y-103704761D01*
X167533333Y-103609523D01*
X167485714Y-103514285D01*
X167438095Y-103323809D01*
X167438095Y-103180952D01*
X167485714Y-102990476D01*
X167533333Y-102895238D01*
X167628571Y-102800000D01*
X167771428Y-102752380D01*
X167866666Y-102752380D01*
X168009523Y-102800000D01*
X168057142Y-102847619D01*
X168438095Y-102847619D02*
X168485714Y-102800000D01*
X168580952Y-102752380D01*
X168819047Y-102752380D01*
X168914285Y-102800000D01*
X168961904Y-102847619D01*
X169009523Y-102942857D01*
X169009523Y-103038095D01*
X168961904Y-103180952D01*
X168390476Y-103752380D01*
X169009523Y-103752380D01*
X169961904Y-103752380D02*
X169390476Y-103752380D01*
X169676190Y-103752380D02*
X169676190Y-102752380D01*
X169580952Y-102895238D01*
X169485714Y-102990476D01*
X169390476Y-103038095D01*
G04 #@! TO.C,C22*
X181257142Y-107057142D02*
X181209523Y-107104761D01*
X181066666Y-107152380D01*
X180971428Y-107152380D01*
X180828571Y-107104761D01*
X180733333Y-107009523D01*
X180685714Y-106914285D01*
X180638095Y-106723809D01*
X180638095Y-106580952D01*
X180685714Y-106390476D01*
X180733333Y-106295238D01*
X180828571Y-106200000D01*
X180971428Y-106152380D01*
X181066666Y-106152380D01*
X181209523Y-106200000D01*
X181257142Y-106247619D01*
X181638095Y-106247619D02*
X181685714Y-106200000D01*
X181780952Y-106152380D01*
X182019047Y-106152380D01*
X182114285Y-106200000D01*
X182161904Y-106247619D01*
X182209523Y-106342857D01*
X182209523Y-106438095D01*
X182161904Y-106580952D01*
X181590476Y-107152380D01*
X182209523Y-107152380D01*
X182590476Y-106247619D02*
X182638095Y-106200000D01*
X182733333Y-106152380D01*
X182971428Y-106152380D01*
X183066666Y-106200000D01*
X183114285Y-106247619D01*
X183161904Y-106342857D01*
X183161904Y-106438095D01*
X183114285Y-106580952D01*
X182542857Y-107152380D01*
X183161904Y-107152380D01*
G04 #@! TO.C,C23*
X185157142Y-105457142D02*
X185109523Y-105504761D01*
X184966666Y-105552380D01*
X184871428Y-105552380D01*
X184728571Y-105504761D01*
X184633333Y-105409523D01*
X184585714Y-105314285D01*
X184538095Y-105123809D01*
X184538095Y-104980952D01*
X184585714Y-104790476D01*
X184633333Y-104695238D01*
X184728571Y-104600000D01*
X184871428Y-104552380D01*
X184966666Y-104552380D01*
X185109523Y-104600000D01*
X185157142Y-104647619D01*
X185538095Y-104647619D02*
X185585714Y-104600000D01*
X185680952Y-104552380D01*
X185919047Y-104552380D01*
X186014285Y-104600000D01*
X186061904Y-104647619D01*
X186109523Y-104742857D01*
X186109523Y-104838095D01*
X186061904Y-104980952D01*
X185490476Y-105552380D01*
X186109523Y-105552380D01*
X186442857Y-104552380D02*
X187061904Y-104552380D01*
X186728571Y-104933333D01*
X186871428Y-104933333D01*
X186966666Y-104980952D01*
X187014285Y-105028571D01*
X187061904Y-105123809D01*
X187061904Y-105361904D01*
X187014285Y-105457142D01*
X186966666Y-105504761D01*
X186871428Y-105552380D01*
X186585714Y-105552380D01*
X186490476Y-105504761D01*
X186442857Y-105457142D01*
G04 #@! TO.C,C24*
X177857142Y-88257142D02*
X177809523Y-88304761D01*
X177666666Y-88352380D01*
X177571428Y-88352380D01*
X177428571Y-88304761D01*
X177333333Y-88209523D01*
X177285714Y-88114285D01*
X177238095Y-87923809D01*
X177238095Y-87780952D01*
X177285714Y-87590476D01*
X177333333Y-87495238D01*
X177428571Y-87400000D01*
X177571428Y-87352380D01*
X177666666Y-87352380D01*
X177809523Y-87400000D01*
X177857142Y-87447619D01*
X178238095Y-87447619D02*
X178285714Y-87400000D01*
X178380952Y-87352380D01*
X178619047Y-87352380D01*
X178714285Y-87400000D01*
X178761904Y-87447619D01*
X178809523Y-87542857D01*
X178809523Y-87638095D01*
X178761904Y-87780952D01*
X178190476Y-88352380D01*
X178809523Y-88352380D01*
X179666666Y-87685714D02*
X179666666Y-88352380D01*
X179428571Y-87304761D02*
X179190476Y-88019047D01*
X179809523Y-88019047D01*
G04 #@! TO.C,C25*
X177857142Y-89757142D02*
X177809523Y-89804761D01*
X177666666Y-89852380D01*
X177571428Y-89852380D01*
X177428571Y-89804761D01*
X177333333Y-89709523D01*
X177285714Y-89614285D01*
X177238095Y-89423809D01*
X177238095Y-89280952D01*
X177285714Y-89090476D01*
X177333333Y-88995238D01*
X177428571Y-88900000D01*
X177571428Y-88852380D01*
X177666666Y-88852380D01*
X177809523Y-88900000D01*
X177857142Y-88947619D01*
X178238095Y-88947619D02*
X178285714Y-88900000D01*
X178380952Y-88852380D01*
X178619047Y-88852380D01*
X178714285Y-88900000D01*
X178761904Y-88947619D01*
X178809523Y-89042857D01*
X178809523Y-89138095D01*
X178761904Y-89280952D01*
X178190476Y-89852380D01*
X178809523Y-89852380D01*
X179714285Y-88852380D02*
X179238095Y-88852380D01*
X179190476Y-89328571D01*
X179238095Y-89280952D01*
X179333333Y-89233333D01*
X179571428Y-89233333D01*
X179666666Y-89280952D01*
X179714285Y-89328571D01*
X179761904Y-89423809D01*
X179761904Y-89661904D01*
X179714285Y-89757142D01*
X179666666Y-89804761D01*
X179571428Y-89852380D01*
X179333333Y-89852380D01*
X179238095Y-89804761D01*
X179190476Y-89757142D01*
G04 #@! TO.C,C28*
X181557142Y-79642857D02*
X181604761Y-79690476D01*
X181652380Y-79833333D01*
X181652380Y-79928571D01*
X181604761Y-80071428D01*
X181509523Y-80166666D01*
X181414285Y-80214285D01*
X181223809Y-80261904D01*
X181080952Y-80261904D01*
X180890476Y-80214285D01*
X180795238Y-80166666D01*
X180700000Y-80071428D01*
X180652380Y-79928571D01*
X180652380Y-79833333D01*
X180700000Y-79690476D01*
X180747619Y-79642857D01*
X180747619Y-79261904D02*
X180700000Y-79214285D01*
X180652380Y-79119047D01*
X180652380Y-78880952D01*
X180700000Y-78785714D01*
X180747619Y-78738095D01*
X180842857Y-78690476D01*
X180938095Y-78690476D01*
X181080952Y-78738095D01*
X181652380Y-79309523D01*
X181652380Y-78690476D01*
X181080952Y-78119047D02*
X181033333Y-78214285D01*
X180985714Y-78261904D01*
X180890476Y-78309523D01*
X180842857Y-78309523D01*
X180747619Y-78261904D01*
X180700000Y-78214285D01*
X180652380Y-78119047D01*
X180652380Y-77928571D01*
X180700000Y-77833333D01*
X180747619Y-77785714D01*
X180842857Y-77738095D01*
X180890476Y-77738095D01*
X180985714Y-77785714D01*
X181033333Y-77833333D01*
X181080952Y-77928571D01*
X181080952Y-78119047D01*
X181128571Y-78214285D01*
X181176190Y-78261904D01*
X181271428Y-78309523D01*
X181461904Y-78309523D01*
X181557142Y-78261904D01*
X181604761Y-78214285D01*
X181652380Y-78119047D01*
X181652380Y-77928571D01*
X181604761Y-77833333D01*
X181557142Y-77785714D01*
X181461904Y-77738095D01*
X181271428Y-77738095D01*
X181176190Y-77785714D01*
X181128571Y-77833333D01*
X181080952Y-77928571D01*
G04 #@! TO.C,C29*
X196657142Y-68642857D02*
X196704761Y-68690476D01*
X196752380Y-68833333D01*
X196752380Y-68928571D01*
X196704761Y-69071428D01*
X196609523Y-69166666D01*
X196514285Y-69214285D01*
X196323809Y-69261904D01*
X196180952Y-69261904D01*
X195990476Y-69214285D01*
X195895238Y-69166666D01*
X195800000Y-69071428D01*
X195752380Y-68928571D01*
X195752380Y-68833333D01*
X195800000Y-68690476D01*
X195847619Y-68642857D01*
X195847619Y-68261904D02*
X195800000Y-68214285D01*
X195752380Y-68119047D01*
X195752380Y-67880952D01*
X195800000Y-67785714D01*
X195847619Y-67738095D01*
X195942857Y-67690476D01*
X196038095Y-67690476D01*
X196180952Y-67738095D01*
X196752380Y-68309523D01*
X196752380Y-67690476D01*
X196752380Y-67214285D02*
X196752380Y-67023809D01*
X196704761Y-66928571D01*
X196657142Y-66880952D01*
X196514285Y-66785714D01*
X196323809Y-66738095D01*
X195942857Y-66738095D01*
X195847619Y-66785714D01*
X195800000Y-66833333D01*
X195752380Y-66928571D01*
X195752380Y-67119047D01*
X195800000Y-67214285D01*
X195847619Y-67261904D01*
X195942857Y-67309523D01*
X196180952Y-67309523D01*
X196276190Y-67261904D01*
X196323809Y-67214285D01*
X196371428Y-67119047D01*
X196371428Y-66928571D01*
X196323809Y-66833333D01*
X196276190Y-66785714D01*
X196180952Y-66738095D01*
G04 #@! TO.C,C30*
X192957142Y-72057142D02*
X192909523Y-72104761D01*
X192766666Y-72152380D01*
X192671428Y-72152380D01*
X192528571Y-72104761D01*
X192433333Y-72009523D01*
X192385714Y-71914285D01*
X192338095Y-71723809D01*
X192338095Y-71580952D01*
X192385714Y-71390476D01*
X192433333Y-71295238D01*
X192528571Y-71200000D01*
X192671428Y-71152380D01*
X192766666Y-71152380D01*
X192909523Y-71200000D01*
X192957142Y-71247619D01*
X193290476Y-71152380D02*
X193909523Y-71152380D01*
X193576190Y-71533333D01*
X193719047Y-71533333D01*
X193814285Y-71580952D01*
X193861904Y-71628571D01*
X193909523Y-71723809D01*
X193909523Y-71961904D01*
X193861904Y-72057142D01*
X193814285Y-72104761D01*
X193719047Y-72152380D01*
X193433333Y-72152380D01*
X193338095Y-72104761D01*
X193290476Y-72057142D01*
X194528571Y-71152380D02*
X194623809Y-71152380D01*
X194719047Y-71200000D01*
X194766666Y-71247619D01*
X194814285Y-71342857D01*
X194861904Y-71533333D01*
X194861904Y-71771428D01*
X194814285Y-71961904D01*
X194766666Y-72057142D01*
X194719047Y-72104761D01*
X194623809Y-72152380D01*
X194528571Y-72152380D01*
X194433333Y-72104761D01*
X194385714Y-72057142D01*
X194338095Y-71961904D01*
X194290476Y-71771428D01*
X194290476Y-71533333D01*
X194338095Y-71342857D01*
X194385714Y-71247619D01*
X194433333Y-71200000D01*
X194528571Y-71152380D01*
G04 #@! TO.C,C31*
X165157142Y-65757142D02*
X165109523Y-65804761D01*
X164966666Y-65852380D01*
X164871428Y-65852380D01*
X164728571Y-65804761D01*
X164633333Y-65709523D01*
X164585714Y-65614285D01*
X164538095Y-65423809D01*
X164538095Y-65280952D01*
X164585714Y-65090476D01*
X164633333Y-64995238D01*
X164728571Y-64900000D01*
X164871428Y-64852380D01*
X164966666Y-64852380D01*
X165109523Y-64900000D01*
X165157142Y-64947619D01*
X165490476Y-64852380D02*
X166109523Y-64852380D01*
X165776190Y-65233333D01*
X165919047Y-65233333D01*
X166014285Y-65280952D01*
X166061904Y-65328571D01*
X166109523Y-65423809D01*
X166109523Y-65661904D01*
X166061904Y-65757142D01*
X166014285Y-65804761D01*
X165919047Y-65852380D01*
X165633333Y-65852380D01*
X165538095Y-65804761D01*
X165490476Y-65757142D01*
X167061904Y-65852380D02*
X166490476Y-65852380D01*
X166776190Y-65852380D02*
X166776190Y-64852380D01*
X166680952Y-64995238D01*
X166585714Y-65090476D01*
X166490476Y-65138095D01*
G04 #@! TO.C,D2*
X162652380Y-97838095D02*
X161652380Y-97838095D01*
X161652380Y-97600000D01*
X161700000Y-97457142D01*
X161795238Y-97361904D01*
X161890476Y-97314285D01*
X162080952Y-97266666D01*
X162223809Y-97266666D01*
X162414285Y-97314285D01*
X162509523Y-97361904D01*
X162604761Y-97457142D01*
X162652380Y-97600000D01*
X162652380Y-97838095D01*
X161747619Y-96885714D02*
X161700000Y-96838095D01*
X161652380Y-96742857D01*
X161652380Y-96504761D01*
X161700000Y-96409523D01*
X161747619Y-96361904D01*
X161842857Y-96314285D01*
X161938095Y-96314285D01*
X162080952Y-96361904D01*
X162652380Y-96933333D01*
X162652380Y-96314285D01*
G04 #@! TO.C,D3*
X157652380Y-97838095D02*
X156652380Y-97838095D01*
X156652380Y-97600000D01*
X156700000Y-97457142D01*
X156795238Y-97361904D01*
X156890476Y-97314285D01*
X157080952Y-97266666D01*
X157223809Y-97266666D01*
X157414285Y-97314285D01*
X157509523Y-97361904D01*
X157604761Y-97457142D01*
X157652380Y-97600000D01*
X157652380Y-97838095D01*
X156652380Y-96933333D02*
X156652380Y-96314285D01*
X157033333Y-96647619D01*
X157033333Y-96504761D01*
X157080952Y-96409523D01*
X157128571Y-96361904D01*
X157223809Y-96314285D01*
X157461904Y-96314285D01*
X157557142Y-96361904D01*
X157604761Y-96409523D01*
X157652380Y-96504761D01*
X157652380Y-96790476D01*
X157604761Y-96885714D01*
X157557142Y-96933333D01*
G04 #@! TO.C,D6*
X166252380Y-60738095D02*
X165252380Y-60738095D01*
X165252380Y-60500000D01*
X165300000Y-60357142D01*
X165395238Y-60261904D01*
X165490476Y-60214285D01*
X165680952Y-60166666D01*
X165823809Y-60166666D01*
X166014285Y-60214285D01*
X166109523Y-60261904D01*
X166204761Y-60357142D01*
X166252380Y-60500000D01*
X166252380Y-60738095D01*
X165252380Y-59309523D02*
X165252380Y-59500000D01*
X165300000Y-59595238D01*
X165347619Y-59642857D01*
X165490476Y-59738095D01*
X165680952Y-59785714D01*
X166061904Y-59785714D01*
X166157142Y-59738095D01*
X166204761Y-59690476D01*
X166252380Y-59595238D01*
X166252380Y-59404761D01*
X166204761Y-59309523D01*
X166157142Y-59261904D01*
X166061904Y-59214285D01*
X165823809Y-59214285D01*
X165728571Y-59261904D01*
X165680952Y-59309523D01*
X165633333Y-59404761D01*
X165633333Y-59595238D01*
X165680952Y-59690476D01*
X165728571Y-59738095D01*
X165823809Y-59785714D01*
G04 #@! TO.C,D7*
X191261904Y-104252380D02*
X191261904Y-103252380D01*
X191500000Y-103252380D01*
X191642857Y-103300000D01*
X191738095Y-103395238D01*
X191785714Y-103490476D01*
X191833333Y-103680952D01*
X191833333Y-103823809D01*
X191785714Y-104014285D01*
X191738095Y-104109523D01*
X191642857Y-104204761D01*
X191500000Y-104252380D01*
X191261904Y-104252380D01*
X192166666Y-103252380D02*
X192833333Y-103252380D01*
X192404761Y-104252380D01*
G04 #@! TO.C,D8*
X164652380Y-60738095D02*
X163652380Y-60738095D01*
X163652380Y-60500000D01*
X163700000Y-60357142D01*
X163795238Y-60261904D01*
X163890476Y-60214285D01*
X164080952Y-60166666D01*
X164223809Y-60166666D01*
X164414285Y-60214285D01*
X164509523Y-60261904D01*
X164604761Y-60357142D01*
X164652380Y-60500000D01*
X164652380Y-60738095D01*
X164080952Y-59595238D02*
X164033333Y-59690476D01*
X163985714Y-59738095D01*
X163890476Y-59785714D01*
X163842857Y-59785714D01*
X163747619Y-59738095D01*
X163700000Y-59690476D01*
X163652380Y-59595238D01*
X163652380Y-59404761D01*
X163700000Y-59309523D01*
X163747619Y-59261904D01*
X163842857Y-59214285D01*
X163890476Y-59214285D01*
X163985714Y-59261904D01*
X164033333Y-59309523D01*
X164080952Y-59404761D01*
X164080952Y-59595238D01*
X164128571Y-59690476D01*
X164176190Y-59738095D01*
X164271428Y-59785714D01*
X164461904Y-59785714D01*
X164557142Y-59738095D01*
X164604761Y-59690476D01*
X164652380Y-59595238D01*
X164652380Y-59404761D01*
X164604761Y-59309523D01*
X164557142Y-59261904D01*
X164461904Y-59214285D01*
X164271428Y-59214285D01*
X164176190Y-59261904D01*
X164128571Y-59309523D01*
X164080952Y-59404761D01*
G04 #@! TO.C,J1*
X164566666Y-85152380D02*
X164566666Y-85866666D01*
X164519047Y-86009523D01*
X164423809Y-86104761D01*
X164280952Y-86152380D01*
X164185714Y-86152380D01*
X165566666Y-86152380D02*
X164995238Y-86152380D01*
X165280952Y-86152380D02*
X165280952Y-85152380D01*
X165185714Y-85295238D01*
X165090476Y-85390476D01*
X164995238Y-85438095D01*
G04 #@! TO.C,J2*
X145266666Y-61052380D02*
X145266666Y-61766666D01*
X145219047Y-61909523D01*
X145123809Y-62004761D01*
X144980952Y-62052380D01*
X144885714Y-62052380D01*
X145695238Y-61147619D02*
X145742857Y-61100000D01*
X145838095Y-61052380D01*
X146076190Y-61052380D01*
X146171428Y-61100000D01*
X146219047Y-61147619D01*
X146266666Y-61242857D01*
X146266666Y-61338095D01*
X146219047Y-61480952D01*
X145647619Y-62052380D01*
X146266666Y-62052380D01*
G04 #@! TO.C,J3*
X186166666Y-56552380D02*
X186166666Y-57266666D01*
X186119047Y-57409523D01*
X186023809Y-57504761D01*
X185880952Y-57552380D01*
X185785714Y-57552380D01*
X186547619Y-56552380D02*
X187166666Y-56552380D01*
X186833333Y-56933333D01*
X186976190Y-56933333D01*
X187071428Y-56980952D01*
X187119047Y-57028571D01*
X187166666Y-57123809D01*
X187166666Y-57361904D01*
X187119047Y-57457142D01*
X187071428Y-57504761D01*
X186976190Y-57552380D01*
X186690476Y-57552380D01*
X186595238Y-57504761D01*
X186547619Y-57457142D01*
G04 #@! TO.C,JP1*
X147566666Y-73452380D02*
X147566666Y-74166666D01*
X147519047Y-74309523D01*
X147423809Y-74404761D01*
X147280952Y-74452380D01*
X147185714Y-74452380D01*
X148042857Y-74452380D02*
X148042857Y-73452380D01*
X148423809Y-73452380D01*
X148519047Y-73500000D01*
X148566666Y-73547619D01*
X148614285Y-73642857D01*
X148614285Y-73785714D01*
X148566666Y-73880952D01*
X148519047Y-73928571D01*
X148423809Y-73976190D01*
X148042857Y-73976190D01*
X149566666Y-74452380D02*
X148995238Y-74452380D01*
X149280952Y-74452380D02*
X149280952Y-73452380D01*
X149185714Y-73595238D01*
X149090476Y-73690476D01*
X148995238Y-73738095D01*
G04 #@! TO.C,JP2*
X158766666Y-56952380D02*
X158766666Y-57666666D01*
X158719047Y-57809523D01*
X158623809Y-57904761D01*
X158480952Y-57952380D01*
X158385714Y-57952380D01*
X159242857Y-57952380D02*
X159242857Y-56952380D01*
X159623809Y-56952380D01*
X159719047Y-57000000D01*
X159766666Y-57047619D01*
X159814285Y-57142857D01*
X159814285Y-57285714D01*
X159766666Y-57380952D01*
X159719047Y-57428571D01*
X159623809Y-57476190D01*
X159242857Y-57476190D01*
X160195238Y-57047619D02*
X160242857Y-57000000D01*
X160338095Y-56952380D01*
X160576190Y-56952380D01*
X160671428Y-57000000D01*
X160719047Y-57047619D01*
X160766666Y-57142857D01*
X160766666Y-57238095D01*
X160719047Y-57380952D01*
X160147619Y-57952380D01*
X160766666Y-57952380D01*
X158952380Y-65533333D02*
X158952380Y-64914285D01*
X159333333Y-65247619D01*
X159333333Y-65104761D01*
X159380952Y-65009523D01*
X159428571Y-64961904D01*
X159523809Y-64914285D01*
X159761904Y-64914285D01*
X159857142Y-64961904D01*
X159904761Y-65009523D01*
X159952380Y-65104761D01*
X159952380Y-65390476D01*
X159904761Y-65485714D01*
X159857142Y-65533333D01*
X159952380Y-58164285D02*
X159952380Y-58735714D01*
X159952380Y-58450000D02*
X158952380Y-58450000D01*
X159095238Y-58545238D01*
X159190476Y-58640476D01*
X159238095Y-58735714D01*
G04 #@! TO.C,L1*
X135352380Y-86766666D02*
X135352380Y-87242857D01*
X134352380Y-87242857D01*
X135352380Y-85909523D02*
X135352380Y-86480952D01*
X135352380Y-86195238D02*
X134352380Y-86195238D01*
X134495238Y-86290476D01*
X134590476Y-86385714D01*
X134638095Y-86480952D01*
G04 #@! TO.C,Q1*
X198704761Y-102947619D02*
X198609523Y-102900000D01*
X198514285Y-102804761D01*
X198371428Y-102661904D01*
X198276190Y-102614285D01*
X198180952Y-102614285D01*
X198228571Y-102852380D02*
X198133333Y-102804761D01*
X198038095Y-102709523D01*
X197990476Y-102519047D01*
X197990476Y-102185714D01*
X198038095Y-101995238D01*
X198133333Y-101900000D01*
X198228571Y-101852380D01*
X198419047Y-101852380D01*
X198514285Y-101900000D01*
X198609523Y-101995238D01*
X198657142Y-102185714D01*
X198657142Y-102519047D01*
X198609523Y-102709523D01*
X198514285Y-102804761D01*
X198419047Y-102852380D01*
X198228571Y-102852380D01*
X199609523Y-102852380D02*
X199038095Y-102852380D01*
X199323809Y-102852380D02*
X199323809Y-101852380D01*
X199228571Y-101995238D01*
X199133333Y-102090476D01*
X199038095Y-102138095D01*
G04 #@! TO.C,Q2*
X100647619Y-66995238D02*
X100600000Y-67090476D01*
X100504761Y-67185714D01*
X100361904Y-67328571D01*
X100314285Y-67423809D01*
X100314285Y-67519047D01*
X100552380Y-67471428D02*
X100504761Y-67566666D01*
X100409523Y-67661904D01*
X100219047Y-67709523D01*
X99885714Y-67709523D01*
X99695238Y-67661904D01*
X99600000Y-67566666D01*
X99552380Y-67471428D01*
X99552380Y-67280952D01*
X99600000Y-67185714D01*
X99695238Y-67090476D01*
X99885714Y-67042857D01*
X100219047Y-67042857D01*
X100409523Y-67090476D01*
X100504761Y-67185714D01*
X100552380Y-67280952D01*
X100552380Y-67471428D01*
X99647619Y-66661904D02*
X99600000Y-66614285D01*
X99552380Y-66519047D01*
X99552380Y-66280952D01*
X99600000Y-66185714D01*
X99647619Y-66138095D01*
X99742857Y-66090476D01*
X99838095Y-66090476D01*
X99980952Y-66138095D01*
X100552380Y-66709523D01*
X100552380Y-66090476D01*
G04 #@! TO.C,R4*
X120433333Y-68652380D02*
X120100000Y-68176190D01*
X119861904Y-68652380D02*
X119861904Y-67652380D01*
X120242857Y-67652380D01*
X120338095Y-67700000D01*
X120385714Y-67747619D01*
X120433333Y-67842857D01*
X120433333Y-67985714D01*
X120385714Y-68080952D01*
X120338095Y-68128571D01*
X120242857Y-68176190D01*
X119861904Y-68176190D01*
X121290476Y-67985714D02*
X121290476Y-68652380D01*
X121052380Y-67604761D02*
X120814285Y-68319047D01*
X121433333Y-68319047D01*
G04 #@! TO.C,R5*
X124033333Y-86552380D02*
X123700000Y-86076190D01*
X123461904Y-86552380D02*
X123461904Y-85552380D01*
X123842857Y-85552380D01*
X123938095Y-85600000D01*
X123985714Y-85647619D01*
X124033333Y-85742857D01*
X124033333Y-85885714D01*
X123985714Y-85980952D01*
X123938095Y-86028571D01*
X123842857Y-86076190D01*
X123461904Y-86076190D01*
X124938095Y-85552380D02*
X124461904Y-85552380D01*
X124414285Y-86028571D01*
X124461904Y-85980952D01*
X124557142Y-85933333D01*
X124795238Y-85933333D01*
X124890476Y-85980952D01*
X124938095Y-86028571D01*
X124985714Y-86123809D01*
X124985714Y-86361904D01*
X124938095Y-86457142D01*
X124890476Y-86504761D01*
X124795238Y-86552380D01*
X124557142Y-86552380D01*
X124461904Y-86504761D01*
X124414285Y-86457142D01*
G04 #@! TO.C,R10*
X162852380Y-93642857D02*
X162376190Y-93976190D01*
X162852380Y-94214285D02*
X161852380Y-94214285D01*
X161852380Y-93833333D01*
X161900000Y-93738095D01*
X161947619Y-93690476D01*
X162042857Y-93642857D01*
X162185714Y-93642857D01*
X162280952Y-93690476D01*
X162328571Y-93738095D01*
X162376190Y-93833333D01*
X162376190Y-94214285D01*
X162852380Y-92690476D02*
X162852380Y-93261904D01*
X162852380Y-92976190D02*
X161852380Y-92976190D01*
X161995238Y-93071428D01*
X162090476Y-93166666D01*
X162138095Y-93261904D01*
X161852380Y-92071428D02*
X161852380Y-91976190D01*
X161900000Y-91880952D01*
X161947619Y-91833333D01*
X162042857Y-91785714D01*
X162233333Y-91738095D01*
X162471428Y-91738095D01*
X162661904Y-91785714D01*
X162757142Y-91833333D01*
X162804761Y-91880952D01*
X162852380Y-91976190D01*
X162852380Y-92071428D01*
X162804761Y-92166666D01*
X162757142Y-92214285D01*
X162661904Y-92261904D01*
X162471428Y-92309523D01*
X162233333Y-92309523D01*
X162042857Y-92261904D01*
X161947619Y-92214285D01*
X161900000Y-92166666D01*
X161852380Y-92071428D01*
G04 #@! TO.C,R11*
X157452380Y-93542857D02*
X156976190Y-93876190D01*
X157452380Y-94114285D02*
X156452380Y-94114285D01*
X156452380Y-93733333D01*
X156500000Y-93638095D01*
X156547619Y-93590476D01*
X156642857Y-93542857D01*
X156785714Y-93542857D01*
X156880952Y-93590476D01*
X156928571Y-93638095D01*
X156976190Y-93733333D01*
X156976190Y-94114285D01*
X157452380Y-92590476D02*
X157452380Y-93161904D01*
X157452380Y-92876190D02*
X156452380Y-92876190D01*
X156595238Y-92971428D01*
X156690476Y-93066666D01*
X156738095Y-93161904D01*
X157452380Y-91638095D02*
X157452380Y-92209523D01*
X157452380Y-91923809D02*
X156452380Y-91923809D01*
X156595238Y-92019047D01*
X156690476Y-92114285D01*
X156738095Y-92209523D01*
G04 #@! TO.C,R14*
X166657142Y-83852380D02*
X166323809Y-83376190D01*
X166085714Y-83852380D02*
X166085714Y-82852380D01*
X166466666Y-82852380D01*
X166561904Y-82900000D01*
X166609523Y-82947619D01*
X166657142Y-83042857D01*
X166657142Y-83185714D01*
X166609523Y-83280952D01*
X166561904Y-83328571D01*
X166466666Y-83376190D01*
X166085714Y-83376190D01*
X167609523Y-83852380D02*
X167038095Y-83852380D01*
X167323809Y-83852380D02*
X167323809Y-82852380D01*
X167228571Y-82995238D01*
X167133333Y-83090476D01*
X167038095Y-83138095D01*
X168466666Y-83185714D02*
X168466666Y-83852380D01*
X168228571Y-82804761D02*
X167990476Y-83519047D01*
X168609523Y-83519047D01*
G04 #@! TO.C,R15*
X159002380Y-86942857D02*
X158526190Y-87276190D01*
X159002380Y-87514285D02*
X158002380Y-87514285D01*
X158002380Y-87133333D01*
X158050000Y-87038095D01*
X158097619Y-86990476D01*
X158192857Y-86942857D01*
X158335714Y-86942857D01*
X158430952Y-86990476D01*
X158478571Y-87038095D01*
X158526190Y-87133333D01*
X158526190Y-87514285D01*
X159002380Y-85990476D02*
X159002380Y-86561904D01*
X159002380Y-86276190D02*
X158002380Y-86276190D01*
X158145238Y-86371428D01*
X158240476Y-86466666D01*
X158288095Y-86561904D01*
X158002380Y-85085714D02*
X158002380Y-85561904D01*
X158478571Y-85609523D01*
X158430952Y-85561904D01*
X158383333Y-85466666D01*
X158383333Y-85228571D01*
X158430952Y-85133333D01*
X158478571Y-85085714D01*
X158573809Y-85038095D01*
X158811904Y-85038095D01*
X158907142Y-85085714D01*
X158954761Y-85133333D01*
X159002380Y-85228571D01*
X159002380Y-85466666D01*
X158954761Y-85561904D01*
X158907142Y-85609523D01*
G04 #@! TO.C,R21*
X147957142Y-69252380D02*
X147623809Y-68776190D01*
X147385714Y-69252380D02*
X147385714Y-68252380D01*
X147766666Y-68252380D01*
X147861904Y-68300000D01*
X147909523Y-68347619D01*
X147957142Y-68442857D01*
X147957142Y-68585714D01*
X147909523Y-68680952D01*
X147861904Y-68728571D01*
X147766666Y-68776190D01*
X147385714Y-68776190D01*
X148338095Y-68347619D02*
X148385714Y-68300000D01*
X148480952Y-68252380D01*
X148719047Y-68252380D01*
X148814285Y-68300000D01*
X148861904Y-68347619D01*
X148909523Y-68442857D01*
X148909523Y-68538095D01*
X148861904Y-68680952D01*
X148290476Y-69252380D01*
X148909523Y-69252380D01*
X149861904Y-69252380D02*
X149290476Y-69252380D01*
X149576190Y-69252380D02*
X149576190Y-68252380D01*
X149480952Y-68395238D01*
X149385714Y-68490476D01*
X149290476Y-68538095D01*
G04 #@! TO.C,R22*
X205152380Y-105842857D02*
X204676190Y-106176190D01*
X205152380Y-106414285D02*
X204152380Y-106414285D01*
X204152380Y-106033333D01*
X204200000Y-105938095D01*
X204247619Y-105890476D01*
X204342857Y-105842857D01*
X204485714Y-105842857D01*
X204580952Y-105890476D01*
X204628571Y-105938095D01*
X204676190Y-106033333D01*
X204676190Y-106414285D01*
X204247619Y-105461904D02*
X204200000Y-105414285D01*
X204152380Y-105319047D01*
X204152380Y-105080952D01*
X204200000Y-104985714D01*
X204247619Y-104938095D01*
X204342857Y-104890476D01*
X204438095Y-104890476D01*
X204580952Y-104938095D01*
X205152380Y-105509523D01*
X205152380Y-104890476D01*
X204247619Y-104509523D02*
X204200000Y-104461904D01*
X204152380Y-104366666D01*
X204152380Y-104128571D01*
X204200000Y-104033333D01*
X204247619Y-103985714D01*
X204342857Y-103938095D01*
X204438095Y-103938095D01*
X204580952Y-103985714D01*
X205152380Y-104557142D01*
X205152380Y-103938095D01*
G04 #@! TO.C,R23*
X157652380Y-73242857D02*
X157176190Y-73576190D01*
X157652380Y-73814285D02*
X156652380Y-73814285D01*
X156652380Y-73433333D01*
X156700000Y-73338095D01*
X156747619Y-73290476D01*
X156842857Y-73242857D01*
X156985714Y-73242857D01*
X157080952Y-73290476D01*
X157128571Y-73338095D01*
X157176190Y-73433333D01*
X157176190Y-73814285D01*
X156747619Y-72861904D02*
X156700000Y-72814285D01*
X156652380Y-72719047D01*
X156652380Y-72480952D01*
X156700000Y-72385714D01*
X156747619Y-72338095D01*
X156842857Y-72290476D01*
X156938095Y-72290476D01*
X157080952Y-72338095D01*
X157652380Y-72909523D01*
X157652380Y-72290476D01*
X156652380Y-71957142D02*
X156652380Y-71338095D01*
X157033333Y-71671428D01*
X157033333Y-71528571D01*
X157080952Y-71433333D01*
X157128571Y-71385714D01*
X157223809Y-71338095D01*
X157461904Y-71338095D01*
X157557142Y-71385714D01*
X157604761Y-71433333D01*
X157652380Y-71528571D01*
X157652380Y-71814285D01*
X157604761Y-71909523D01*
X157557142Y-71957142D01*
G04 #@! TO.C,R24*
X162952380Y-73242857D02*
X162476190Y-73576190D01*
X162952380Y-73814285D02*
X161952380Y-73814285D01*
X161952380Y-73433333D01*
X162000000Y-73338095D01*
X162047619Y-73290476D01*
X162142857Y-73242857D01*
X162285714Y-73242857D01*
X162380952Y-73290476D01*
X162428571Y-73338095D01*
X162476190Y-73433333D01*
X162476190Y-73814285D01*
X162047619Y-72861904D02*
X162000000Y-72814285D01*
X161952380Y-72719047D01*
X161952380Y-72480952D01*
X162000000Y-72385714D01*
X162047619Y-72338095D01*
X162142857Y-72290476D01*
X162238095Y-72290476D01*
X162380952Y-72338095D01*
X162952380Y-72909523D01*
X162952380Y-72290476D01*
X162285714Y-71433333D02*
X162952380Y-71433333D01*
X161904761Y-71671428D02*
X162619047Y-71909523D01*
X162619047Y-71290476D01*
G04 #@! TO.C,R25*
X162952380Y-60142857D02*
X162476190Y-60476190D01*
X162952380Y-60714285D02*
X161952380Y-60714285D01*
X161952380Y-60333333D01*
X162000000Y-60238095D01*
X162047619Y-60190476D01*
X162142857Y-60142857D01*
X162285714Y-60142857D01*
X162380952Y-60190476D01*
X162428571Y-60238095D01*
X162476190Y-60333333D01*
X162476190Y-60714285D01*
X162047619Y-59761904D02*
X162000000Y-59714285D01*
X161952380Y-59619047D01*
X161952380Y-59380952D01*
X162000000Y-59285714D01*
X162047619Y-59238095D01*
X162142857Y-59190476D01*
X162238095Y-59190476D01*
X162380952Y-59238095D01*
X162952380Y-59809523D01*
X162952380Y-59190476D01*
X161952380Y-58285714D02*
X161952380Y-58761904D01*
X162428571Y-58809523D01*
X162380952Y-58761904D01*
X162333333Y-58666666D01*
X162333333Y-58428571D01*
X162380952Y-58333333D01*
X162428571Y-58285714D01*
X162523809Y-58238095D01*
X162761904Y-58238095D01*
X162857142Y-58285714D01*
X162904761Y-58333333D01*
X162952380Y-58428571D01*
X162952380Y-58666666D01*
X162904761Y-58761904D01*
X162857142Y-58809523D01*
G04 #@! TO.C,R26*
X186157142Y-68852380D02*
X185823809Y-68376190D01*
X185585714Y-68852380D02*
X185585714Y-67852380D01*
X185966666Y-67852380D01*
X186061904Y-67900000D01*
X186109523Y-67947619D01*
X186157142Y-68042857D01*
X186157142Y-68185714D01*
X186109523Y-68280952D01*
X186061904Y-68328571D01*
X185966666Y-68376190D01*
X185585714Y-68376190D01*
X186538095Y-67947619D02*
X186585714Y-67900000D01*
X186680952Y-67852380D01*
X186919047Y-67852380D01*
X187014285Y-67900000D01*
X187061904Y-67947619D01*
X187109523Y-68042857D01*
X187109523Y-68138095D01*
X187061904Y-68280952D01*
X186490476Y-68852380D01*
X187109523Y-68852380D01*
X187966666Y-67852380D02*
X187776190Y-67852380D01*
X187680952Y-67900000D01*
X187633333Y-67947619D01*
X187538095Y-68090476D01*
X187490476Y-68280952D01*
X187490476Y-68661904D01*
X187538095Y-68757142D01*
X187585714Y-68804761D01*
X187680952Y-68852380D01*
X187871428Y-68852380D01*
X187966666Y-68804761D01*
X188014285Y-68757142D01*
X188061904Y-68661904D01*
X188061904Y-68423809D01*
X188014285Y-68328571D01*
X187966666Y-68280952D01*
X187871428Y-68233333D01*
X187680952Y-68233333D01*
X187585714Y-68280952D01*
X187538095Y-68328571D01*
X187490476Y-68423809D01*
G04 #@! TO.C,R27*
X173657142Y-76052380D02*
X173323809Y-75576190D01*
X173085714Y-76052380D02*
X173085714Y-75052380D01*
X173466666Y-75052380D01*
X173561904Y-75100000D01*
X173609523Y-75147619D01*
X173657142Y-75242857D01*
X173657142Y-75385714D01*
X173609523Y-75480952D01*
X173561904Y-75528571D01*
X173466666Y-75576190D01*
X173085714Y-75576190D01*
X174038095Y-75147619D02*
X174085714Y-75100000D01*
X174180952Y-75052380D01*
X174419047Y-75052380D01*
X174514285Y-75100000D01*
X174561904Y-75147619D01*
X174609523Y-75242857D01*
X174609523Y-75338095D01*
X174561904Y-75480952D01*
X173990476Y-76052380D01*
X174609523Y-76052380D01*
X174942857Y-75052380D02*
X175609523Y-75052380D01*
X175180952Y-76052380D01*
G04 #@! TO.C,R28*
X189852380Y-110242857D02*
X189376190Y-110576190D01*
X189852380Y-110814285D02*
X188852380Y-110814285D01*
X188852380Y-110433333D01*
X188900000Y-110338095D01*
X188947619Y-110290476D01*
X189042857Y-110242857D01*
X189185714Y-110242857D01*
X189280952Y-110290476D01*
X189328571Y-110338095D01*
X189376190Y-110433333D01*
X189376190Y-110814285D01*
X188947619Y-109861904D02*
X188900000Y-109814285D01*
X188852380Y-109719047D01*
X188852380Y-109480952D01*
X188900000Y-109385714D01*
X188947619Y-109338095D01*
X189042857Y-109290476D01*
X189138095Y-109290476D01*
X189280952Y-109338095D01*
X189852380Y-109909523D01*
X189852380Y-109290476D01*
X189280952Y-108719047D02*
X189233333Y-108814285D01*
X189185714Y-108861904D01*
X189090476Y-108909523D01*
X189042857Y-108909523D01*
X188947619Y-108861904D01*
X188900000Y-108814285D01*
X188852380Y-108719047D01*
X188852380Y-108528571D01*
X188900000Y-108433333D01*
X188947619Y-108385714D01*
X189042857Y-108338095D01*
X189090476Y-108338095D01*
X189185714Y-108385714D01*
X189233333Y-108433333D01*
X189280952Y-108528571D01*
X189280952Y-108719047D01*
X189328571Y-108814285D01*
X189376190Y-108861904D01*
X189471428Y-108909523D01*
X189661904Y-108909523D01*
X189757142Y-108861904D01*
X189804761Y-108814285D01*
X189852380Y-108719047D01*
X189852380Y-108528571D01*
X189804761Y-108433333D01*
X189757142Y-108385714D01*
X189661904Y-108338095D01*
X189471428Y-108338095D01*
X189376190Y-108385714D01*
X189328571Y-108433333D01*
X189280952Y-108528571D01*
G04 #@! TO.C,R29*
X193752380Y-84142857D02*
X193276190Y-84476190D01*
X193752380Y-84714285D02*
X192752380Y-84714285D01*
X192752380Y-84333333D01*
X192800000Y-84238095D01*
X192847619Y-84190476D01*
X192942857Y-84142857D01*
X193085714Y-84142857D01*
X193180952Y-84190476D01*
X193228571Y-84238095D01*
X193276190Y-84333333D01*
X193276190Y-84714285D01*
X192847619Y-83761904D02*
X192800000Y-83714285D01*
X192752380Y-83619047D01*
X192752380Y-83380952D01*
X192800000Y-83285714D01*
X192847619Y-83238095D01*
X192942857Y-83190476D01*
X193038095Y-83190476D01*
X193180952Y-83238095D01*
X193752380Y-83809523D01*
X193752380Y-83190476D01*
X193752380Y-82714285D02*
X193752380Y-82523809D01*
X193704761Y-82428571D01*
X193657142Y-82380952D01*
X193514285Y-82285714D01*
X193323809Y-82238095D01*
X192942857Y-82238095D01*
X192847619Y-82285714D01*
X192800000Y-82333333D01*
X192752380Y-82428571D01*
X192752380Y-82619047D01*
X192800000Y-82714285D01*
X192847619Y-82761904D01*
X192942857Y-82809523D01*
X193180952Y-82809523D01*
X193276190Y-82761904D01*
X193323809Y-82714285D01*
X193371428Y-82619047D01*
X193371428Y-82428571D01*
X193323809Y-82333333D01*
X193276190Y-82285714D01*
X193180952Y-82238095D01*
G04 #@! TO.C,R32*
X115752380Y-68042857D02*
X115276190Y-68376190D01*
X115752380Y-68614285D02*
X114752380Y-68614285D01*
X114752380Y-68233333D01*
X114800000Y-68138095D01*
X114847619Y-68090476D01*
X114942857Y-68042857D01*
X115085714Y-68042857D01*
X115180952Y-68090476D01*
X115228571Y-68138095D01*
X115276190Y-68233333D01*
X115276190Y-68614285D01*
X114752380Y-67709523D02*
X114752380Y-67090476D01*
X115133333Y-67423809D01*
X115133333Y-67280952D01*
X115180952Y-67185714D01*
X115228571Y-67138095D01*
X115323809Y-67090476D01*
X115561904Y-67090476D01*
X115657142Y-67138095D01*
X115704761Y-67185714D01*
X115752380Y-67280952D01*
X115752380Y-67566666D01*
X115704761Y-67661904D01*
X115657142Y-67709523D01*
X114847619Y-66709523D02*
X114800000Y-66661904D01*
X114752380Y-66566666D01*
X114752380Y-66328571D01*
X114800000Y-66233333D01*
X114847619Y-66185714D01*
X114942857Y-66138095D01*
X115038095Y-66138095D01*
X115180952Y-66185714D01*
X115752380Y-66757142D01*
X115752380Y-66138095D01*
G04 #@! TO.C,R33*
X111952380Y-67842857D02*
X111476190Y-68176190D01*
X111952380Y-68414285D02*
X110952380Y-68414285D01*
X110952380Y-68033333D01*
X111000000Y-67938095D01*
X111047619Y-67890476D01*
X111142857Y-67842857D01*
X111285714Y-67842857D01*
X111380952Y-67890476D01*
X111428571Y-67938095D01*
X111476190Y-68033333D01*
X111476190Y-68414285D01*
X110952380Y-67509523D02*
X110952380Y-66890476D01*
X111333333Y-67223809D01*
X111333333Y-67080952D01*
X111380952Y-66985714D01*
X111428571Y-66938095D01*
X111523809Y-66890476D01*
X111761904Y-66890476D01*
X111857142Y-66938095D01*
X111904761Y-66985714D01*
X111952380Y-67080952D01*
X111952380Y-67366666D01*
X111904761Y-67461904D01*
X111857142Y-67509523D01*
X110952380Y-66557142D02*
X110952380Y-65938095D01*
X111333333Y-66271428D01*
X111333333Y-66128571D01*
X111380952Y-66033333D01*
X111428571Y-65985714D01*
X111523809Y-65938095D01*
X111761904Y-65938095D01*
X111857142Y-65985714D01*
X111904761Y-66033333D01*
X111952380Y-66128571D01*
X111952380Y-66414285D01*
X111904761Y-66509523D01*
X111857142Y-66557142D01*
G04 #@! TO.C,R34*
X108452380Y-67842857D02*
X107976190Y-68176190D01*
X108452380Y-68414285D02*
X107452380Y-68414285D01*
X107452380Y-68033333D01*
X107500000Y-67938095D01*
X107547619Y-67890476D01*
X107642857Y-67842857D01*
X107785714Y-67842857D01*
X107880952Y-67890476D01*
X107928571Y-67938095D01*
X107976190Y-68033333D01*
X107976190Y-68414285D01*
X107452380Y-67509523D02*
X107452380Y-66890476D01*
X107833333Y-67223809D01*
X107833333Y-67080952D01*
X107880952Y-66985714D01*
X107928571Y-66938095D01*
X108023809Y-66890476D01*
X108261904Y-66890476D01*
X108357142Y-66938095D01*
X108404761Y-66985714D01*
X108452380Y-67080952D01*
X108452380Y-67366666D01*
X108404761Y-67461904D01*
X108357142Y-67509523D01*
X107785714Y-66033333D02*
X108452380Y-66033333D01*
X107404761Y-66271428D02*
X108119047Y-66509523D01*
X108119047Y-65890476D01*
G04 #@! TO.C,R36*
X104757142Y-85252380D02*
X104423809Y-84776190D01*
X104185714Y-85252380D02*
X104185714Y-84252380D01*
X104566666Y-84252380D01*
X104661904Y-84300000D01*
X104709523Y-84347619D01*
X104757142Y-84442857D01*
X104757142Y-84585714D01*
X104709523Y-84680952D01*
X104661904Y-84728571D01*
X104566666Y-84776190D01*
X104185714Y-84776190D01*
X105090476Y-84252380D02*
X105709523Y-84252380D01*
X105376190Y-84633333D01*
X105519047Y-84633333D01*
X105614285Y-84680952D01*
X105661904Y-84728571D01*
X105709523Y-84823809D01*
X105709523Y-85061904D01*
X105661904Y-85157142D01*
X105614285Y-85204761D01*
X105519047Y-85252380D01*
X105233333Y-85252380D01*
X105138095Y-85204761D01*
X105090476Y-85157142D01*
X106566666Y-84252380D02*
X106376190Y-84252380D01*
X106280952Y-84300000D01*
X106233333Y-84347619D01*
X106138095Y-84490476D01*
X106090476Y-84680952D01*
X106090476Y-85061904D01*
X106138095Y-85157142D01*
X106185714Y-85204761D01*
X106280952Y-85252380D01*
X106471428Y-85252380D01*
X106566666Y-85204761D01*
X106614285Y-85157142D01*
X106661904Y-85061904D01*
X106661904Y-84823809D01*
X106614285Y-84728571D01*
X106566666Y-84680952D01*
X106471428Y-84633333D01*
X106280952Y-84633333D01*
X106185714Y-84680952D01*
X106138095Y-84728571D01*
X106090476Y-84823809D01*
G04 #@! TO.C,R37*
X95057142Y-85152380D02*
X94723809Y-84676190D01*
X94485714Y-85152380D02*
X94485714Y-84152380D01*
X94866666Y-84152380D01*
X94961904Y-84200000D01*
X95009523Y-84247619D01*
X95057142Y-84342857D01*
X95057142Y-84485714D01*
X95009523Y-84580952D01*
X94961904Y-84628571D01*
X94866666Y-84676190D01*
X94485714Y-84676190D01*
X95390476Y-84152380D02*
X96009523Y-84152380D01*
X95676190Y-84533333D01*
X95819047Y-84533333D01*
X95914285Y-84580952D01*
X95961904Y-84628571D01*
X96009523Y-84723809D01*
X96009523Y-84961904D01*
X95961904Y-85057142D01*
X95914285Y-85104761D01*
X95819047Y-85152380D01*
X95533333Y-85152380D01*
X95438095Y-85104761D01*
X95390476Y-85057142D01*
X96342857Y-84152380D02*
X97009523Y-84152380D01*
X96580952Y-85152380D01*
G04 #@! TO.C,R38*
X94052380Y-67842857D02*
X93576190Y-68176190D01*
X94052380Y-68414285D02*
X93052380Y-68414285D01*
X93052380Y-68033333D01*
X93100000Y-67938095D01*
X93147619Y-67890476D01*
X93242857Y-67842857D01*
X93385714Y-67842857D01*
X93480952Y-67890476D01*
X93528571Y-67938095D01*
X93576190Y-68033333D01*
X93576190Y-68414285D01*
X93052380Y-67509523D02*
X93052380Y-66890476D01*
X93433333Y-67223809D01*
X93433333Y-67080952D01*
X93480952Y-66985714D01*
X93528571Y-66938095D01*
X93623809Y-66890476D01*
X93861904Y-66890476D01*
X93957142Y-66938095D01*
X94004761Y-66985714D01*
X94052380Y-67080952D01*
X94052380Y-67366666D01*
X94004761Y-67461904D01*
X93957142Y-67509523D01*
X93480952Y-66319047D02*
X93433333Y-66414285D01*
X93385714Y-66461904D01*
X93290476Y-66509523D01*
X93242857Y-66509523D01*
X93147619Y-66461904D01*
X93100000Y-66414285D01*
X93052380Y-66319047D01*
X93052380Y-66128571D01*
X93100000Y-66033333D01*
X93147619Y-65985714D01*
X93242857Y-65938095D01*
X93290476Y-65938095D01*
X93385714Y-65985714D01*
X93433333Y-66033333D01*
X93480952Y-66128571D01*
X93480952Y-66319047D01*
X93528571Y-66414285D01*
X93576190Y-66461904D01*
X93671428Y-66509523D01*
X93861904Y-66509523D01*
X93957142Y-66461904D01*
X94004761Y-66414285D01*
X94052380Y-66319047D01*
X94052380Y-66128571D01*
X94004761Y-66033333D01*
X93957142Y-65985714D01*
X93861904Y-65938095D01*
X93671428Y-65938095D01*
X93576190Y-65985714D01*
X93528571Y-66033333D01*
X93480952Y-66128571D01*
G04 #@! TO.C,R39*
X198857142Y-96352380D02*
X198523809Y-95876190D01*
X198285714Y-96352380D02*
X198285714Y-95352380D01*
X198666666Y-95352380D01*
X198761904Y-95400000D01*
X198809523Y-95447619D01*
X198857142Y-95542857D01*
X198857142Y-95685714D01*
X198809523Y-95780952D01*
X198761904Y-95828571D01*
X198666666Y-95876190D01*
X198285714Y-95876190D01*
X199190476Y-95352380D02*
X199809523Y-95352380D01*
X199476190Y-95733333D01*
X199619047Y-95733333D01*
X199714285Y-95780952D01*
X199761904Y-95828571D01*
X199809523Y-95923809D01*
X199809523Y-96161904D01*
X199761904Y-96257142D01*
X199714285Y-96304761D01*
X199619047Y-96352380D01*
X199333333Y-96352380D01*
X199238095Y-96304761D01*
X199190476Y-96257142D01*
X200285714Y-96352380D02*
X200476190Y-96352380D01*
X200571428Y-96304761D01*
X200619047Y-96257142D01*
X200714285Y-96114285D01*
X200761904Y-95923809D01*
X200761904Y-95542857D01*
X200714285Y-95447619D01*
X200666666Y-95400000D01*
X200571428Y-95352380D01*
X200380952Y-95352380D01*
X200285714Y-95400000D01*
X200238095Y-95447619D01*
X200190476Y-95542857D01*
X200190476Y-95780952D01*
X200238095Y-95876190D01*
X200285714Y-95923809D01*
X200380952Y-95971428D01*
X200571428Y-95971428D01*
X200666666Y-95923809D01*
X200714285Y-95876190D01*
X200761904Y-95780952D01*
G04 #@! TO.C,R40*
X99252380Y-67842857D02*
X98776190Y-68176190D01*
X99252380Y-68414285D02*
X98252380Y-68414285D01*
X98252380Y-68033333D01*
X98300000Y-67938095D01*
X98347619Y-67890476D01*
X98442857Y-67842857D01*
X98585714Y-67842857D01*
X98680952Y-67890476D01*
X98728571Y-67938095D01*
X98776190Y-68033333D01*
X98776190Y-68414285D01*
X98585714Y-66985714D02*
X99252380Y-66985714D01*
X98204761Y-67223809D02*
X98919047Y-67461904D01*
X98919047Y-66842857D01*
X98252380Y-66271428D02*
X98252380Y-66176190D01*
X98300000Y-66080952D01*
X98347619Y-66033333D01*
X98442857Y-65985714D01*
X98633333Y-65938095D01*
X98871428Y-65938095D01*
X99061904Y-65985714D01*
X99157142Y-66033333D01*
X99204761Y-66080952D01*
X99252380Y-66176190D01*
X99252380Y-66271428D01*
X99204761Y-66366666D01*
X99157142Y-66414285D01*
X99061904Y-66461904D01*
X98871428Y-66509523D01*
X98633333Y-66509523D01*
X98442857Y-66461904D01*
X98347619Y-66414285D01*
X98300000Y-66366666D01*
X98252380Y-66271428D01*
G04 #@! TO.C,SW2*
X162466666Y-82904761D02*
X162609523Y-82952380D01*
X162847619Y-82952380D01*
X162942857Y-82904761D01*
X162990476Y-82857142D01*
X163038095Y-82761904D01*
X163038095Y-82666666D01*
X162990476Y-82571428D01*
X162942857Y-82523809D01*
X162847619Y-82476190D01*
X162657142Y-82428571D01*
X162561904Y-82380952D01*
X162514285Y-82333333D01*
X162466666Y-82238095D01*
X162466666Y-82142857D01*
X162514285Y-82047619D01*
X162561904Y-82000000D01*
X162657142Y-81952380D01*
X162895238Y-81952380D01*
X163038095Y-82000000D01*
X163371428Y-81952380D02*
X163609523Y-82952380D01*
X163800000Y-82238095D01*
X163990476Y-82952380D01*
X164228571Y-81952380D01*
X164561904Y-82047619D02*
X164609523Y-82000000D01*
X164704761Y-81952380D01*
X164942857Y-81952380D01*
X165038095Y-82000000D01*
X165085714Y-82047619D01*
X165133333Y-82142857D01*
X165133333Y-82238095D01*
X165085714Y-82380952D01*
X164514285Y-82952380D01*
X165133333Y-82952380D01*
G04 #@! TO.C,U1*
X129852380Y-77761904D02*
X130661904Y-77761904D01*
X130757142Y-77714285D01*
X130804761Y-77666666D01*
X130852380Y-77571428D01*
X130852380Y-77380952D01*
X130804761Y-77285714D01*
X130757142Y-77238095D01*
X130661904Y-77190476D01*
X129852380Y-77190476D01*
X130852380Y-76190476D02*
X130852380Y-76761904D01*
X130852380Y-76476190D02*
X129852380Y-76476190D01*
X129995238Y-76571428D01*
X130090476Y-76666666D01*
X130138095Y-76761904D01*
G04 #@! TO.C,U2*
X149352380Y-80861904D02*
X150161904Y-80861904D01*
X150257142Y-80814285D01*
X150304761Y-80766666D01*
X150352380Y-80671428D01*
X150352380Y-80480952D01*
X150304761Y-80385714D01*
X150257142Y-80338095D01*
X150161904Y-80290476D01*
X149352380Y-80290476D01*
X149447619Y-79861904D02*
X149400000Y-79814285D01*
X149352380Y-79719047D01*
X149352380Y-79480952D01*
X149400000Y-79385714D01*
X149447619Y-79338095D01*
X149542857Y-79290476D01*
X149638095Y-79290476D01*
X149780952Y-79338095D01*
X150352380Y-79909523D01*
X150352380Y-79290476D01*
G04 #@! TO.C,U5*
X151638095Y-68352380D02*
X151638095Y-69161904D01*
X151685714Y-69257142D01*
X151733333Y-69304761D01*
X151828571Y-69352380D01*
X152019047Y-69352380D01*
X152114285Y-69304761D01*
X152161904Y-69257142D01*
X152209523Y-69161904D01*
X152209523Y-68352380D01*
X153161904Y-68352380D02*
X152685714Y-68352380D01*
X152638095Y-68828571D01*
X152685714Y-68780952D01*
X152780952Y-68733333D01*
X153019047Y-68733333D01*
X153114285Y-68780952D01*
X153161904Y-68828571D01*
X153209523Y-68923809D01*
X153209523Y-69161904D01*
X153161904Y-69257142D01*
X153114285Y-69304761D01*
X153019047Y-69352380D01*
X152780952Y-69352380D01*
X152685714Y-69304761D01*
X152638095Y-69257142D01*
G04 #@! TO.C,U6*
X203538095Y-96452380D02*
X203538095Y-97261904D01*
X203585714Y-97357142D01*
X203633333Y-97404761D01*
X203728571Y-97452380D01*
X203919047Y-97452380D01*
X204014285Y-97404761D01*
X204061904Y-97357142D01*
X204109523Y-97261904D01*
X204109523Y-96452380D01*
X205014285Y-96452380D02*
X204823809Y-96452380D01*
X204728571Y-96500000D01*
X204680952Y-96547619D01*
X204585714Y-96690476D01*
X204538095Y-96880952D01*
X204538095Y-97261904D01*
X204585714Y-97357142D01*
X204633333Y-97404761D01*
X204728571Y-97452380D01*
X204919047Y-97452380D01*
X205014285Y-97404761D01*
X205061904Y-97357142D01*
X205109523Y-97261904D01*
X205109523Y-97023809D01*
X205061904Y-96928571D01*
X205014285Y-96880952D01*
X204919047Y-96833333D01*
X204728571Y-96833333D01*
X204633333Y-96880952D01*
X204585714Y-96928571D01*
X204538095Y-97023809D01*
G04 #@! TO.C,U7*
X187938095Y-73952380D02*
X187938095Y-74761904D01*
X187985714Y-74857142D01*
X188033333Y-74904761D01*
X188128571Y-74952380D01*
X188319047Y-74952380D01*
X188414285Y-74904761D01*
X188461904Y-74857142D01*
X188509523Y-74761904D01*
X188509523Y-73952380D01*
X188890476Y-73952380D02*
X189557142Y-73952380D01*
X189128571Y-74952380D01*
G04 #@! TO.C,Y1*
X157476190Y-107276190D02*
X157952380Y-107276190D01*
X156952380Y-107609523D02*
X157476190Y-107276190D01*
X156952380Y-106942857D01*
X157952380Y-106085714D02*
X157952380Y-106657142D01*
X157952380Y-106371428D02*
X156952380Y-106371428D01*
X157095238Y-106466666D01*
X157190476Y-106561904D01*
X157238095Y-106657142D01*
G04 #@! TO.C,Y2*
X179023809Y-118276190D02*
X179023809Y-118752380D01*
X178690476Y-117752380D02*
X179023809Y-118276190D01*
X179357142Y-117752380D01*
X179642857Y-117847619D02*
X179690476Y-117800000D01*
X179785714Y-117752380D01*
X180023809Y-117752380D01*
X180119047Y-117800000D01*
X180166666Y-117847619D01*
X180214285Y-117942857D01*
X180214285Y-118038095D01*
X180166666Y-118180952D01*
X179595238Y-118752380D01*
X180214285Y-118752380D01*
G04 #@! TO.C,C33*
X186257142Y-62257142D02*
X186209523Y-62304761D01*
X186066666Y-62352380D01*
X185971428Y-62352380D01*
X185828571Y-62304761D01*
X185733333Y-62209523D01*
X185685714Y-62114285D01*
X185638095Y-61923809D01*
X185638095Y-61780952D01*
X185685714Y-61590476D01*
X185733333Y-61495238D01*
X185828571Y-61400000D01*
X185971428Y-61352380D01*
X186066666Y-61352380D01*
X186209523Y-61400000D01*
X186257142Y-61447619D01*
X186590476Y-61352380D02*
X187209523Y-61352380D01*
X186876190Y-61733333D01*
X187019047Y-61733333D01*
X187114285Y-61780952D01*
X187161904Y-61828571D01*
X187209523Y-61923809D01*
X187209523Y-62161904D01*
X187161904Y-62257142D01*
X187114285Y-62304761D01*
X187019047Y-62352380D01*
X186733333Y-62352380D01*
X186638095Y-62304761D01*
X186590476Y-62257142D01*
X187542857Y-61352380D02*
X188161904Y-61352380D01*
X187828571Y-61733333D01*
X187971428Y-61733333D01*
X188066666Y-61780952D01*
X188114285Y-61828571D01*
X188161904Y-61923809D01*
X188161904Y-62161904D01*
X188114285Y-62257142D01*
X188066666Y-62304761D01*
X187971428Y-62352380D01*
X187685714Y-62352380D01*
X187590476Y-62304761D01*
X187542857Y-62257142D01*
G04 #@! TO.C,C34*
X196857142Y-58457142D02*
X196809523Y-58504761D01*
X196666666Y-58552380D01*
X196571428Y-58552380D01*
X196428571Y-58504761D01*
X196333333Y-58409523D01*
X196285714Y-58314285D01*
X196238095Y-58123809D01*
X196238095Y-57980952D01*
X196285714Y-57790476D01*
X196333333Y-57695238D01*
X196428571Y-57600000D01*
X196571428Y-57552380D01*
X196666666Y-57552380D01*
X196809523Y-57600000D01*
X196857142Y-57647619D01*
X197190476Y-57552380D02*
X197809523Y-57552380D01*
X197476190Y-57933333D01*
X197619047Y-57933333D01*
X197714285Y-57980952D01*
X197761904Y-58028571D01*
X197809523Y-58123809D01*
X197809523Y-58361904D01*
X197761904Y-58457142D01*
X197714285Y-58504761D01*
X197619047Y-58552380D01*
X197333333Y-58552380D01*
X197238095Y-58504761D01*
X197190476Y-58457142D01*
X198666666Y-57885714D02*
X198666666Y-58552380D01*
X198428571Y-57504761D02*
X198190476Y-58219047D01*
X198809523Y-58219047D01*
G04 #@! TO.C,U11*
X190761904Y-56252380D02*
X190761904Y-57061904D01*
X190809523Y-57157142D01*
X190857142Y-57204761D01*
X190952380Y-57252380D01*
X191142857Y-57252380D01*
X191238095Y-57204761D01*
X191285714Y-57157142D01*
X191333333Y-57061904D01*
X191333333Y-56252380D01*
X192333333Y-57252380D02*
X191761904Y-57252380D01*
X192047619Y-57252380D02*
X192047619Y-56252380D01*
X191952380Y-56395238D01*
X191857142Y-56490476D01*
X191761904Y-56538095D01*
X193285714Y-57252380D02*
X192714285Y-57252380D01*
X193000000Y-57252380D02*
X193000000Y-56252380D01*
X192904761Y-56395238D01*
X192809523Y-56490476D01*
X192714285Y-56538095D01*
G04 #@! TD*
M02*
