G04 #@! TF.GenerationSoftware,KiCad,Pcbnew,5.0.2-bee76a0~70~ubuntu18.04.1*
G04 #@! TF.CreationDate,2019-02-06T18:27:39+01:00*
G04 #@! TF.ProjectId,g-track,672d7472-6163-46b2-9e6b-696361645f70,rev?*
G04 #@! TF.SameCoordinates,Original*
G04 #@! TF.FileFunction,Legend,Bot*
G04 #@! TF.FilePolarity,Positive*
%FSLAX46Y46*%
G04 Gerber Fmt 4.6, Leading zero omitted, Abs format (unit mm)*
G04 Created by KiCad (PCBNEW 5.0.2-bee76a0~70~ubuntu18.04.1) date 2019. febr. 6., szerda, 18:27:39 CET*
%MOMM*%
%LPD*%
G01*
G04 APERTURE LIST*
%ADD10C,0.300000*%
G04 APERTURE END LIST*
D10*
X110578571Y-65121428D02*
X109078571Y-65121428D01*
X110578571Y-65978571D01*
X109078571Y-65978571D01*
X110435714Y-67550000D02*
X110507142Y-67478571D01*
X110578571Y-67264285D01*
X110578571Y-67121428D01*
X110507142Y-66907142D01*
X110364285Y-66764285D01*
X110221428Y-66692857D01*
X109935714Y-66621428D01*
X109721428Y-66621428D01*
X109435714Y-66692857D01*
X109292857Y-66764285D01*
X109150000Y-66907142D01*
X109078571Y-67121428D01*
X109078571Y-67264285D01*
X109150000Y-67478571D01*
X109221428Y-67550000D01*
X103078571Y-65907142D02*
X103078571Y-65192857D01*
X101578571Y-65192857D01*
X102292857Y-66407142D02*
X102292857Y-66907142D01*
X103078571Y-67121428D02*
X103078571Y-66407142D01*
X101578571Y-66407142D01*
X101578571Y-67121428D01*
X103078571Y-67764285D02*
X101578571Y-67764285D01*
X101578571Y-68121428D01*
X101650000Y-68335714D01*
X101792857Y-68478571D01*
X101935714Y-68550000D01*
X102221428Y-68621428D01*
X102435714Y-68621428D01*
X102721428Y-68550000D01*
X102864285Y-68478571D01*
X103007142Y-68335714D01*
X103078571Y-68121428D01*
X103078571Y-67764285D01*
X102507142Y-69264285D02*
X102507142Y-70407142D01*
X103078571Y-69835714D02*
X101935714Y-69835714D01*
X106778571Y-65807142D02*
X106778571Y-65092857D01*
X105278571Y-65092857D01*
X105992857Y-66307142D02*
X105992857Y-66807142D01*
X106778571Y-67021428D02*
X106778571Y-66307142D01*
X105278571Y-66307142D01*
X105278571Y-67021428D01*
X106778571Y-67664285D02*
X105278571Y-67664285D01*
X105278571Y-68021428D01*
X105350000Y-68235714D01*
X105492857Y-68378571D01*
X105635714Y-68450000D01*
X105921428Y-68521428D01*
X106135714Y-68521428D01*
X106421428Y-68450000D01*
X106564285Y-68378571D01*
X106707142Y-68235714D01*
X106778571Y-68021428D01*
X106778571Y-67664285D01*
X106207142Y-69164285D02*
X106207142Y-70307142D01*
X114307142Y-65171428D02*
X114378571Y-65385714D01*
X114378571Y-65742857D01*
X114307142Y-65885714D01*
X114235714Y-65957142D01*
X114092857Y-66028571D01*
X113950000Y-66028571D01*
X113807142Y-65957142D01*
X113735714Y-65885714D01*
X113664285Y-65742857D01*
X113592857Y-65457142D01*
X113521428Y-65314285D01*
X113450000Y-65242857D01*
X113307142Y-65171428D01*
X113164285Y-65171428D01*
X113021428Y-65242857D01*
X112950000Y-65314285D01*
X112878571Y-65457142D01*
X112878571Y-65814285D01*
X112950000Y-66028571D01*
X112878571Y-66528571D02*
X114378571Y-66885714D01*
X113307142Y-67171428D01*
X114378571Y-67457142D01*
X112878571Y-67814285D01*
X114378571Y-69171428D02*
X114378571Y-68314285D01*
X114378571Y-68742857D02*
X112878571Y-68742857D01*
X113092857Y-68600000D01*
X113235714Y-68457142D01*
X113307142Y-68314285D01*
X113807142Y-69814285D02*
X113807142Y-70957142D01*
X114378571Y-70385714D02*
X113235714Y-70385714D01*
X118107142Y-65171428D02*
X118178571Y-65385714D01*
X118178571Y-65742857D01*
X118107142Y-65885714D01*
X118035714Y-65957142D01*
X117892857Y-66028571D01*
X117750000Y-66028571D01*
X117607142Y-65957142D01*
X117535714Y-65885714D01*
X117464285Y-65742857D01*
X117392857Y-65457142D01*
X117321428Y-65314285D01*
X117250000Y-65242857D01*
X117107142Y-65171428D01*
X116964285Y-65171428D01*
X116821428Y-65242857D01*
X116750000Y-65314285D01*
X116678571Y-65457142D01*
X116678571Y-65814285D01*
X116750000Y-66028571D01*
X116678571Y-66528571D02*
X118178571Y-66885714D01*
X117107142Y-67171428D01*
X118178571Y-67457142D01*
X116678571Y-67814285D01*
X118178571Y-69171428D02*
X118178571Y-68314285D01*
X118178571Y-68742857D02*
X116678571Y-68742857D01*
X116892857Y-68600000D01*
X117035714Y-68457142D01*
X117107142Y-68314285D01*
X117607142Y-69814285D02*
X117607142Y-70957142D01*
X121907142Y-65171428D02*
X121978571Y-65385714D01*
X121978571Y-65742857D01*
X121907142Y-65885714D01*
X121835714Y-65957142D01*
X121692857Y-66028571D01*
X121550000Y-66028571D01*
X121407142Y-65957142D01*
X121335714Y-65885714D01*
X121264285Y-65742857D01*
X121192857Y-65457142D01*
X121121428Y-65314285D01*
X121050000Y-65242857D01*
X120907142Y-65171428D01*
X120764285Y-65171428D01*
X120621428Y-65242857D01*
X120550000Y-65314285D01*
X120478571Y-65457142D01*
X120478571Y-65814285D01*
X120550000Y-66028571D01*
X120478571Y-66528571D02*
X121978571Y-66885714D01*
X120907142Y-67171428D01*
X121978571Y-67457142D01*
X120478571Y-67814285D01*
X120621428Y-68314285D02*
X120550000Y-68385714D01*
X120478571Y-68528571D01*
X120478571Y-68885714D01*
X120550000Y-69028571D01*
X120621428Y-69100000D01*
X120764285Y-69171428D01*
X120907142Y-69171428D01*
X121121428Y-69100000D01*
X121978571Y-68242857D01*
X121978571Y-69171428D01*
X121407142Y-69814285D02*
X121407142Y-70957142D01*
X121978571Y-70385714D02*
X120835714Y-70385714D01*
X125707142Y-65071428D02*
X125778571Y-65285714D01*
X125778571Y-65642857D01*
X125707142Y-65785714D01*
X125635714Y-65857142D01*
X125492857Y-65928571D01*
X125350000Y-65928571D01*
X125207142Y-65857142D01*
X125135714Y-65785714D01*
X125064285Y-65642857D01*
X124992857Y-65357142D01*
X124921428Y-65214285D01*
X124850000Y-65142857D01*
X124707142Y-65071428D01*
X124564285Y-65071428D01*
X124421428Y-65142857D01*
X124350000Y-65214285D01*
X124278571Y-65357142D01*
X124278571Y-65714285D01*
X124350000Y-65928571D01*
X124278571Y-66428571D02*
X125778571Y-66785714D01*
X124707142Y-67071428D01*
X125778571Y-67357142D01*
X124278571Y-67714285D01*
X124421428Y-68214285D02*
X124350000Y-68285714D01*
X124278571Y-68428571D01*
X124278571Y-68785714D01*
X124350000Y-68928571D01*
X124421428Y-69000000D01*
X124564285Y-69071428D01*
X124707142Y-69071428D01*
X124921428Y-69000000D01*
X125778571Y-68142857D01*
X125778571Y-69071428D01*
X125207142Y-69714285D02*
X125207142Y-70857142D01*
X129578571Y-65107142D02*
X128078571Y-65107142D01*
X128150000Y-66607142D02*
X128078571Y-66464285D01*
X128078571Y-66250000D01*
X128150000Y-66035714D01*
X128292857Y-65892857D01*
X128435714Y-65821428D01*
X128721428Y-65750000D01*
X128935714Y-65750000D01*
X129221428Y-65821428D01*
X129364285Y-65892857D01*
X129507142Y-66035714D01*
X129578571Y-66250000D01*
X129578571Y-66392857D01*
X129507142Y-66607142D01*
X129435714Y-66678571D01*
X128935714Y-66678571D01*
X128935714Y-66392857D01*
X129578571Y-67321428D02*
X128078571Y-67321428D01*
X129578571Y-68178571D01*
X128078571Y-68178571D01*
X129578571Y-68892857D02*
X128078571Y-68892857D01*
X128078571Y-69392857D02*
X128078571Y-70250000D01*
X129578571Y-69821428D02*
X128078571Y-69821428D01*
X129578571Y-70750000D02*
X128078571Y-70750000D01*
X128078571Y-71750000D02*
X128078571Y-72035714D01*
X128150000Y-72178571D01*
X128292857Y-72321428D01*
X128578571Y-72392857D01*
X129078571Y-72392857D01*
X129364285Y-72321428D01*
X129507142Y-72178571D01*
X129578571Y-72035714D01*
X129578571Y-71750000D01*
X129507142Y-71607142D01*
X129364285Y-71464285D01*
X129078571Y-71392857D01*
X128578571Y-71392857D01*
X128292857Y-71464285D01*
X128150000Y-71607142D01*
X128078571Y-71750000D01*
X129578571Y-73035714D02*
X128078571Y-73035714D01*
X129578571Y-73892857D01*
X128078571Y-73892857D01*
X132607142Y-65057142D02*
X132607142Y-66200000D01*
X133178571Y-65628571D02*
X132035714Y-65628571D01*
X133178571Y-67700000D02*
X133178571Y-66842857D01*
X133178571Y-67271428D02*
X131678571Y-67271428D01*
X131892857Y-67128571D01*
X132035714Y-66985714D01*
X132107142Y-66842857D01*
X131821428Y-68271428D02*
X131750000Y-68342857D01*
X131678571Y-68485714D01*
X131678571Y-68842857D01*
X131750000Y-68985714D01*
X131821428Y-69057142D01*
X131964285Y-69128571D01*
X132107142Y-69128571D01*
X132321428Y-69057142D01*
X133178571Y-68200000D01*
X133178571Y-69128571D01*
X131678571Y-69557142D02*
X133178571Y-70057142D01*
X131678571Y-70557142D01*
X136507142Y-65157142D02*
X136507142Y-66300000D01*
X137078571Y-67800000D02*
X137078571Y-66942857D01*
X137078571Y-67371428D02*
X135578571Y-67371428D01*
X135792857Y-67228571D01*
X135935714Y-67085714D01*
X136007142Y-66942857D01*
X135721428Y-68371428D02*
X135650000Y-68442857D01*
X135578571Y-68585714D01*
X135578571Y-68942857D01*
X135650000Y-69085714D01*
X135721428Y-69157142D01*
X135864285Y-69228571D01*
X136007142Y-69228571D01*
X136221428Y-69157142D01*
X137078571Y-68300000D01*
X137078571Y-69228571D01*
X135578571Y-69657142D02*
X137078571Y-70157142D01*
X135578571Y-70657142D01*
X138747857Y-96792857D02*
X138247857Y-96792857D01*
X138033571Y-97578571D02*
X138747857Y-97578571D01*
X138747857Y-96078571D01*
X138033571Y-96078571D01*
X137533571Y-96078571D02*
X136533571Y-97578571D01*
X136533571Y-96078571D02*
X137533571Y-97578571D01*
X136176428Y-96078571D02*
X135319285Y-96078571D01*
X135747857Y-97578571D02*
X135747857Y-96078571D01*
X134819285Y-97007142D02*
X133676428Y-97007142D01*
X133033571Y-97150000D02*
X132319285Y-97150000D01*
X133176428Y-97578571D02*
X132676428Y-96078571D01*
X132176428Y-97578571D01*
X130819285Y-97435714D02*
X130890714Y-97507142D01*
X131105000Y-97578571D01*
X131247857Y-97578571D01*
X131462142Y-97507142D01*
X131605000Y-97364285D01*
X131676428Y-97221428D01*
X131747857Y-96935714D01*
X131747857Y-96721428D01*
X131676428Y-96435714D01*
X131605000Y-96292857D01*
X131462142Y-96150000D01*
X131247857Y-96078571D01*
X131105000Y-96078571D01*
X130890714Y-96150000D01*
X130819285Y-96221428D01*
X129319285Y-97435714D02*
X129390714Y-97507142D01*
X129605000Y-97578571D01*
X129747857Y-97578571D01*
X129962142Y-97507142D01*
X130105000Y-97364285D01*
X130176428Y-97221428D01*
X130247857Y-96935714D01*
X130247857Y-96721428D01*
X130176428Y-96435714D01*
X130105000Y-96292857D01*
X129962142Y-96150000D01*
X129747857Y-96078571D01*
X129605000Y-96078571D01*
X129390714Y-96150000D01*
X129319285Y-96221428D01*
X127105000Y-98150000D02*
X127176428Y-98078571D01*
X127319285Y-97864285D01*
X127390714Y-97721428D01*
X127462142Y-97507142D01*
X127533571Y-97150000D01*
X127533571Y-96864285D01*
X127462142Y-96507142D01*
X127390714Y-96292857D01*
X127319285Y-96150000D01*
X127176428Y-95935714D01*
X127105000Y-95864285D01*
X126105000Y-96078571D02*
X126105000Y-97150000D01*
X126176428Y-97364285D01*
X126319285Y-97507142D01*
X126533571Y-97578571D01*
X126676428Y-97578571D01*
X125176428Y-96721428D02*
X125319285Y-96650000D01*
X125390714Y-96578571D01*
X125462142Y-96435714D01*
X125462142Y-96364285D01*
X125390714Y-96221428D01*
X125319285Y-96150000D01*
X125176428Y-96078571D01*
X124890714Y-96078571D01*
X124747857Y-96150000D01*
X124676428Y-96221428D01*
X124605000Y-96364285D01*
X124605000Y-96435714D01*
X124676428Y-96578571D01*
X124747857Y-96650000D01*
X124890714Y-96721428D01*
X125176428Y-96721428D01*
X125319285Y-96792857D01*
X125390714Y-96864285D01*
X125462142Y-97007142D01*
X125462142Y-97292857D01*
X125390714Y-97435714D01*
X125319285Y-97507142D01*
X125176428Y-97578571D01*
X124890714Y-97578571D01*
X124747857Y-97507142D01*
X124676428Y-97435714D01*
X124605000Y-97292857D01*
X124605000Y-97007142D01*
X124676428Y-96864285D01*
X124747857Y-96792857D01*
X124890714Y-96721428D01*
X124105000Y-98150000D02*
X124033571Y-98078571D01*
X123890714Y-97864285D01*
X123819285Y-97721428D01*
X123747857Y-97507142D01*
X123676428Y-97150000D01*
X123676428Y-96864285D01*
X123747857Y-96507142D01*
X123819285Y-96292857D01*
X123890714Y-96150000D01*
X124033571Y-95935714D01*
X124105000Y-95864285D01*
X137962142Y-100128571D02*
X138819285Y-100128571D01*
X138390714Y-100128571D02*
X138390714Y-98628571D01*
X138533571Y-98842857D01*
X138676428Y-98985714D01*
X138819285Y-99057142D01*
X137319285Y-99985714D02*
X137247857Y-100057142D01*
X137319285Y-100128571D01*
X137390714Y-100057142D01*
X137319285Y-99985714D01*
X137319285Y-100128571D01*
X137319285Y-99200000D02*
X137247857Y-99271428D01*
X137319285Y-99342857D01*
X137390714Y-99271428D01*
X137319285Y-99200000D01*
X137319285Y-99342857D01*
X135676428Y-98628571D02*
X135176428Y-100128571D01*
X134676428Y-98628571D01*
X133319285Y-99985714D02*
X133390714Y-100057142D01*
X133605000Y-100128571D01*
X133747857Y-100128571D01*
X133962142Y-100057142D01*
X134105000Y-99914285D01*
X134176428Y-99771428D01*
X134247857Y-99485714D01*
X134247857Y-99271428D01*
X134176428Y-98985714D01*
X134105000Y-98842857D01*
X133962142Y-98700000D01*
X133747857Y-98628571D01*
X133605000Y-98628571D01*
X133390714Y-98700000D01*
X133319285Y-98771428D01*
X131819285Y-99985714D02*
X131890714Y-100057142D01*
X132105000Y-100128571D01*
X132247857Y-100128571D01*
X132462142Y-100057142D01*
X132605000Y-99914285D01*
X132676428Y-99771428D01*
X132747857Y-99485714D01*
X132747857Y-99271428D01*
X132676428Y-98985714D01*
X132605000Y-98842857D01*
X132462142Y-98700000D01*
X132247857Y-98628571D01*
X132105000Y-98628571D01*
X131890714Y-98700000D01*
X131819285Y-98771428D01*
X138819285Y-101321428D02*
X138747857Y-101250000D01*
X138605000Y-101178571D01*
X138247857Y-101178571D01*
X138105000Y-101250000D01*
X138033571Y-101321428D01*
X137962142Y-101464285D01*
X137962142Y-101607142D01*
X138033571Y-101821428D01*
X138890714Y-102678571D01*
X137962142Y-102678571D01*
X137319285Y-102535714D02*
X137247857Y-102607142D01*
X137319285Y-102678571D01*
X137390714Y-102607142D01*
X137319285Y-102535714D01*
X137319285Y-102678571D01*
X137319285Y-101750000D02*
X137247857Y-101821428D01*
X137319285Y-101892857D01*
X137390714Y-101821428D01*
X137319285Y-101750000D01*
X137319285Y-101892857D01*
X134676428Y-101250000D02*
X134819285Y-101178571D01*
X135033571Y-101178571D01*
X135247857Y-101250000D01*
X135390714Y-101392857D01*
X135462142Y-101535714D01*
X135533571Y-101821428D01*
X135533571Y-102035714D01*
X135462142Y-102321428D01*
X135390714Y-102464285D01*
X135247857Y-102607142D01*
X135033571Y-102678571D01*
X134890714Y-102678571D01*
X134676428Y-102607142D01*
X134605000Y-102535714D01*
X134605000Y-102035714D01*
X134890714Y-102035714D01*
X133962142Y-102678571D02*
X133962142Y-101178571D01*
X133105000Y-102678571D01*
X133105000Y-101178571D01*
X132390714Y-102678571D02*
X132390714Y-101178571D01*
X132033571Y-101178571D01*
X131819285Y-101250000D01*
X131676428Y-101392857D01*
X131605000Y-101535714D01*
X131533571Y-101821428D01*
X131533571Y-102035714D01*
X131605000Y-102321428D01*
X131676428Y-102464285D01*
X131819285Y-102607142D01*
X132033571Y-102678571D01*
X132390714Y-102678571D01*
X138890714Y-103728571D02*
X137962142Y-103728571D01*
X138462142Y-104300000D01*
X138247857Y-104300000D01*
X138105000Y-104371428D01*
X138033571Y-104442857D01*
X137962142Y-104585714D01*
X137962142Y-104942857D01*
X138033571Y-105085714D01*
X138105000Y-105157142D01*
X138247857Y-105228571D01*
X138676428Y-105228571D01*
X138819285Y-105157142D01*
X138890714Y-105085714D01*
X137319285Y-105085714D02*
X137247857Y-105157142D01*
X137319285Y-105228571D01*
X137390714Y-105157142D01*
X137319285Y-105085714D01*
X137319285Y-105228571D01*
X137319285Y-104300000D02*
X137247857Y-104371428D01*
X137319285Y-104442857D01*
X137390714Y-104371428D01*
X137319285Y-104300000D01*
X137319285Y-104442857D01*
X135533571Y-105157142D02*
X135319285Y-105228571D01*
X134962142Y-105228571D01*
X134819285Y-105157142D01*
X134747857Y-105085714D01*
X134676428Y-104942857D01*
X134676428Y-104800000D01*
X134747857Y-104657142D01*
X134819285Y-104585714D01*
X134962142Y-104514285D01*
X135247857Y-104442857D01*
X135390714Y-104371428D01*
X135462142Y-104300000D01*
X135533571Y-104157142D01*
X135533571Y-104014285D01*
X135462142Y-103871428D01*
X135390714Y-103800000D01*
X135247857Y-103728571D01*
X134890714Y-103728571D01*
X134676428Y-103800000D01*
X133176428Y-105085714D02*
X133247857Y-105157142D01*
X133462142Y-105228571D01*
X133605000Y-105228571D01*
X133819285Y-105157142D01*
X133962142Y-105014285D01*
X134033571Y-104871428D01*
X134105000Y-104585714D01*
X134105000Y-104371428D01*
X134033571Y-104085714D01*
X133962142Y-103942857D01*
X133819285Y-103800000D01*
X133605000Y-103728571D01*
X133462142Y-103728571D01*
X133247857Y-103800000D01*
X133176428Y-103871428D01*
X132533571Y-105228571D02*
X132533571Y-103728571D01*
X131676428Y-105228571D02*
X132319285Y-104371428D01*
X131676428Y-103728571D02*
X132533571Y-104585714D01*
X138105000Y-106778571D02*
X138105000Y-107778571D01*
X138462142Y-106207142D02*
X138819285Y-107278571D01*
X137890714Y-107278571D01*
X137319285Y-107635714D02*
X137247857Y-107707142D01*
X137319285Y-107778571D01*
X137390714Y-107707142D01*
X137319285Y-107635714D01*
X137319285Y-107778571D01*
X137319285Y-106850000D02*
X137247857Y-106921428D01*
X137319285Y-106992857D01*
X137390714Y-106921428D01*
X137319285Y-106850000D01*
X137319285Y-106992857D01*
X135462142Y-107778571D02*
X135462142Y-106278571D01*
X134962142Y-107350000D01*
X134462142Y-106278571D01*
X134462142Y-107778571D01*
X133462142Y-106278571D02*
X133176428Y-106278571D01*
X133033571Y-106350000D01*
X132890714Y-106492857D01*
X132819285Y-106778571D01*
X132819285Y-107278571D01*
X132890714Y-107564285D01*
X133033571Y-107707142D01*
X133176428Y-107778571D01*
X133462142Y-107778571D01*
X133605000Y-107707142D01*
X133747857Y-107564285D01*
X133819285Y-107278571D01*
X133819285Y-106778571D01*
X133747857Y-106492857D01*
X133605000Y-106350000D01*
X133462142Y-106278571D01*
X132247857Y-107707142D02*
X132033571Y-107778571D01*
X131676428Y-107778571D01*
X131533571Y-107707142D01*
X131462142Y-107635714D01*
X131390714Y-107492857D01*
X131390714Y-107350000D01*
X131462142Y-107207142D01*
X131533571Y-107135714D01*
X131676428Y-107064285D01*
X131962142Y-106992857D01*
X132105000Y-106921428D01*
X132176428Y-106850000D01*
X132247857Y-106707142D01*
X132247857Y-106564285D01*
X132176428Y-106421428D01*
X132105000Y-106350000D01*
X131962142Y-106278571D01*
X131605000Y-106278571D01*
X131390714Y-106350000D01*
X130747857Y-107778571D02*
X130747857Y-106278571D01*
X138033571Y-108828571D02*
X138747857Y-108828571D01*
X138819285Y-109542857D01*
X138747857Y-109471428D01*
X138605000Y-109400000D01*
X138247857Y-109400000D01*
X138105000Y-109471428D01*
X138033571Y-109542857D01*
X137962142Y-109685714D01*
X137962142Y-110042857D01*
X138033571Y-110185714D01*
X138105000Y-110257142D01*
X138247857Y-110328571D01*
X138605000Y-110328571D01*
X138747857Y-110257142D01*
X138819285Y-110185714D01*
X137319285Y-110185714D02*
X137247857Y-110257142D01*
X137319285Y-110328571D01*
X137390714Y-110257142D01*
X137319285Y-110185714D01*
X137319285Y-110328571D01*
X137319285Y-109400000D02*
X137247857Y-109471428D01*
X137319285Y-109542857D01*
X137390714Y-109471428D01*
X137319285Y-109400000D01*
X137319285Y-109542857D01*
X135462142Y-110328571D02*
X135462142Y-108828571D01*
X134962142Y-109900000D01*
X134462142Y-108828571D01*
X134462142Y-110328571D01*
X133747857Y-110328571D02*
X133747857Y-108828571D01*
X133105000Y-110257142D02*
X132890714Y-110328571D01*
X132533571Y-110328571D01*
X132390714Y-110257142D01*
X132319285Y-110185714D01*
X132247857Y-110042857D01*
X132247857Y-109900000D01*
X132319285Y-109757142D01*
X132390714Y-109685714D01*
X132533571Y-109614285D01*
X132819285Y-109542857D01*
X132962142Y-109471428D01*
X133033571Y-109400000D01*
X133105000Y-109257142D01*
X133105000Y-109114285D01*
X133033571Y-108971428D01*
X132962142Y-108900000D01*
X132819285Y-108828571D01*
X132462142Y-108828571D01*
X132247857Y-108900000D01*
X131319285Y-108828571D02*
X131033571Y-108828571D01*
X130890714Y-108900000D01*
X130747857Y-109042857D01*
X130676428Y-109328571D01*
X130676428Y-109828571D01*
X130747857Y-110114285D01*
X130890714Y-110257142D01*
X131033571Y-110328571D01*
X131319285Y-110328571D01*
X131462142Y-110257142D01*
X131605000Y-110114285D01*
X131676428Y-109828571D01*
X131676428Y-109328571D01*
X131605000Y-109042857D01*
X131462142Y-108900000D01*
X131319285Y-108828571D01*
X138105000Y-111378571D02*
X138390714Y-111378571D01*
X138533571Y-111450000D01*
X138605000Y-111521428D01*
X138747857Y-111735714D01*
X138819285Y-112021428D01*
X138819285Y-112592857D01*
X138747857Y-112735714D01*
X138676428Y-112807142D01*
X138533571Y-112878571D01*
X138247857Y-112878571D01*
X138105000Y-112807142D01*
X138033571Y-112735714D01*
X137962142Y-112592857D01*
X137962142Y-112235714D01*
X138033571Y-112092857D01*
X138105000Y-112021428D01*
X138247857Y-111950000D01*
X138533571Y-111950000D01*
X138676428Y-112021428D01*
X138747857Y-112092857D01*
X138819285Y-112235714D01*
X137319285Y-112735714D02*
X137247857Y-112807142D01*
X137319285Y-112878571D01*
X137390714Y-112807142D01*
X137319285Y-112735714D01*
X137319285Y-112878571D01*
X137319285Y-111950000D02*
X137247857Y-112021428D01*
X137319285Y-112092857D01*
X137390714Y-112021428D01*
X137319285Y-111950000D01*
X137319285Y-112092857D01*
X134605000Y-112735714D02*
X134676428Y-112807142D01*
X134890714Y-112878571D01*
X135033571Y-112878571D01*
X135247857Y-112807142D01*
X135390714Y-112664285D01*
X135462142Y-112521428D01*
X135533571Y-112235714D01*
X135533571Y-112021428D01*
X135462142Y-111735714D01*
X135390714Y-111592857D01*
X135247857Y-111450000D01*
X135033571Y-111378571D01*
X134890714Y-111378571D01*
X134676428Y-111450000D01*
X134605000Y-111521428D01*
X134033571Y-112807142D02*
X133819285Y-112878571D01*
X133462142Y-112878571D01*
X133319285Y-112807142D01*
X133247857Y-112735714D01*
X133176428Y-112592857D01*
X133176428Y-112450000D01*
X133247857Y-112307142D01*
X133319285Y-112235714D01*
X133462142Y-112164285D01*
X133747857Y-112092857D01*
X133890714Y-112021428D01*
X133962142Y-111950000D01*
X134033571Y-111807142D01*
X134033571Y-111664285D01*
X133962142Y-111521428D01*
X133890714Y-111450000D01*
X133747857Y-111378571D01*
X133390714Y-111378571D01*
X133176428Y-111450000D01*
X138890714Y-113928571D02*
X137890714Y-113928571D01*
X138533571Y-115428571D01*
X137319285Y-115285714D02*
X137247857Y-115357142D01*
X137319285Y-115428571D01*
X137390714Y-115357142D01*
X137319285Y-115285714D01*
X137319285Y-115428571D01*
X137319285Y-114500000D02*
X137247857Y-114571428D01*
X137319285Y-114642857D01*
X137390714Y-114571428D01*
X137319285Y-114500000D01*
X137319285Y-114642857D01*
X135462142Y-115428571D02*
X135462142Y-113928571D01*
X134747857Y-115428571D02*
X134747857Y-113928571D01*
X133890714Y-115428571D01*
X133890714Y-113928571D01*
X133390714Y-113928571D02*
X132533571Y-113928571D01*
X132962142Y-115428571D02*
X132962142Y-113928571D01*
X131247857Y-115428571D02*
X132105000Y-115428571D01*
X131676428Y-115428571D02*
X131676428Y-113928571D01*
X131819285Y-114142857D01*
X131962142Y-114285714D01*
X132105000Y-114357142D01*
X138533571Y-117121428D02*
X138676428Y-117050000D01*
X138747857Y-116978571D01*
X138819285Y-116835714D01*
X138819285Y-116764285D01*
X138747857Y-116621428D01*
X138676428Y-116550000D01*
X138533571Y-116478571D01*
X138247857Y-116478571D01*
X138105000Y-116550000D01*
X138033571Y-116621428D01*
X137962142Y-116764285D01*
X137962142Y-116835714D01*
X138033571Y-116978571D01*
X138105000Y-117050000D01*
X138247857Y-117121428D01*
X138533571Y-117121428D01*
X138676428Y-117192857D01*
X138747857Y-117264285D01*
X138819285Y-117407142D01*
X138819285Y-117692857D01*
X138747857Y-117835714D01*
X138676428Y-117907142D01*
X138533571Y-117978571D01*
X138247857Y-117978571D01*
X138105000Y-117907142D01*
X138033571Y-117835714D01*
X137962142Y-117692857D01*
X137962142Y-117407142D01*
X138033571Y-117264285D01*
X138105000Y-117192857D01*
X138247857Y-117121428D01*
X137319285Y-117835714D02*
X137247857Y-117907142D01*
X137319285Y-117978571D01*
X137390714Y-117907142D01*
X137319285Y-117835714D01*
X137319285Y-117978571D01*
X137319285Y-117050000D02*
X137247857Y-117121428D01*
X137319285Y-117192857D01*
X137390714Y-117121428D01*
X137319285Y-117050000D01*
X137319285Y-117192857D01*
X135462142Y-117978571D02*
X135462142Y-116478571D01*
X134747857Y-117978571D02*
X134747857Y-116478571D01*
X133890714Y-117978571D01*
X133890714Y-116478571D01*
X133390714Y-116478571D02*
X132533571Y-116478571D01*
X132962142Y-117978571D02*
X132962142Y-116478571D01*
X132105000Y-116621428D02*
X132033571Y-116550000D01*
X131890714Y-116478571D01*
X131533571Y-116478571D01*
X131390714Y-116550000D01*
X131319285Y-116621428D01*
X131247857Y-116764285D01*
X131247857Y-116907142D01*
X131319285Y-117121428D01*
X132176428Y-117978571D01*
X131247857Y-117978571D01*
X111519285Y-97357142D02*
X111305000Y-97428571D01*
X110947857Y-97428571D01*
X110805000Y-97357142D01*
X110733571Y-97285714D01*
X110662142Y-97142857D01*
X110662142Y-97000000D01*
X110733571Y-96857142D01*
X110805000Y-96785714D01*
X110947857Y-96714285D01*
X111233571Y-96642857D01*
X111376428Y-96571428D01*
X111447857Y-96500000D01*
X111519285Y-96357142D01*
X111519285Y-96214285D01*
X111447857Y-96071428D01*
X111376428Y-96000000D01*
X111233571Y-95928571D01*
X110876428Y-95928571D01*
X110662142Y-96000000D01*
X110162142Y-95928571D02*
X109805000Y-97428571D01*
X109519285Y-96357142D01*
X109233571Y-97428571D01*
X108876428Y-95928571D01*
X108304999Y-97428571D02*
X108304999Y-95928571D01*
X107947857Y-95928571D01*
X107733571Y-96000000D01*
X107590714Y-96142857D01*
X107519285Y-96285714D01*
X107447857Y-96571428D01*
X107447857Y-96785714D01*
X107519285Y-97071428D01*
X107590714Y-97214285D01*
X107733571Y-97357142D01*
X107947857Y-97428571D01*
X108304999Y-97428571D01*
X105233571Y-98000000D02*
X105304999Y-97928571D01*
X105447857Y-97714285D01*
X105519285Y-97571428D01*
X105590714Y-97357142D01*
X105662142Y-97000000D01*
X105662142Y-96714285D01*
X105590714Y-96357142D01*
X105519285Y-96142857D01*
X105447857Y-96000000D01*
X105304999Y-95785714D01*
X105233571Y-95714285D01*
X104233571Y-95928571D02*
X104233571Y-97000000D01*
X104304999Y-97214285D01*
X104447857Y-97357142D01*
X104662142Y-97428571D01*
X104804999Y-97428571D01*
X102733571Y-97428571D02*
X103590714Y-97428571D01*
X103162142Y-97428571D02*
X103162142Y-95928571D01*
X103304999Y-96142857D01*
X103447857Y-96285714D01*
X103590714Y-96357142D01*
X102233571Y-98000000D02*
X102162142Y-97928571D01*
X102019285Y-97714285D01*
X101947857Y-97571428D01*
X101876428Y-97357142D01*
X101804999Y-97000000D01*
X101804999Y-96714285D01*
X101876428Y-96357142D01*
X101947857Y-96142857D01*
X102019285Y-96000000D01*
X102162142Y-95785714D01*
X102233571Y-95714285D01*
X110662142Y-99978571D02*
X111519285Y-99978571D01*
X111090714Y-99978571D02*
X111090714Y-98478571D01*
X111233571Y-98692857D01*
X111376428Y-98835714D01*
X111519285Y-98907142D01*
X110019285Y-99835714D02*
X109947857Y-99907142D01*
X110019285Y-99978571D01*
X110090714Y-99907142D01*
X110019285Y-99835714D01*
X110019285Y-99978571D01*
X110019285Y-99050000D02*
X109947857Y-99121428D01*
X110019285Y-99192857D01*
X110090714Y-99121428D01*
X110019285Y-99050000D01*
X110019285Y-99192857D01*
X108376428Y-98478571D02*
X107876428Y-99978571D01*
X107376428Y-98478571D01*
X106019285Y-99835714D02*
X106090714Y-99907142D01*
X106305000Y-99978571D01*
X106447857Y-99978571D01*
X106662142Y-99907142D01*
X106805000Y-99764285D01*
X106876428Y-99621428D01*
X106947857Y-99335714D01*
X106947857Y-99121428D01*
X106876428Y-98835714D01*
X106805000Y-98692857D01*
X106662142Y-98550000D01*
X106447857Y-98478571D01*
X106305000Y-98478571D01*
X106090714Y-98550000D01*
X106019285Y-98621428D01*
X104519285Y-99835714D02*
X104590714Y-99907142D01*
X104805000Y-99978571D01*
X104947857Y-99978571D01*
X105162142Y-99907142D01*
X105305000Y-99764285D01*
X105376428Y-99621428D01*
X105447857Y-99335714D01*
X105447857Y-99121428D01*
X105376428Y-98835714D01*
X105305000Y-98692857D01*
X105162142Y-98550000D01*
X104947857Y-98478571D01*
X104805000Y-98478571D01*
X104590714Y-98550000D01*
X104519285Y-98621428D01*
X111519285Y-101171428D02*
X111447857Y-101100000D01*
X111305000Y-101028571D01*
X110947857Y-101028571D01*
X110805000Y-101100000D01*
X110733571Y-101171428D01*
X110662142Y-101314285D01*
X110662142Y-101457142D01*
X110733571Y-101671428D01*
X111590714Y-102528571D01*
X110662142Y-102528571D01*
X110019285Y-102385714D02*
X109947857Y-102457142D01*
X110019285Y-102528571D01*
X110090714Y-102457142D01*
X110019285Y-102385714D01*
X110019285Y-102528571D01*
X110019285Y-101600000D02*
X109947857Y-101671428D01*
X110019285Y-101742857D01*
X110090714Y-101671428D01*
X110019285Y-101600000D01*
X110019285Y-101742857D01*
X108233571Y-102457142D02*
X108019285Y-102528571D01*
X107662142Y-102528571D01*
X107519285Y-102457142D01*
X107447857Y-102385714D01*
X107376428Y-102242857D01*
X107376428Y-102100000D01*
X107447857Y-101957142D01*
X107519285Y-101885714D01*
X107662142Y-101814285D01*
X107947857Y-101742857D01*
X108090714Y-101671428D01*
X108162142Y-101600000D01*
X108233571Y-101457142D01*
X108233571Y-101314285D01*
X108162142Y-101171428D01*
X108090714Y-101100000D01*
X107947857Y-101028571D01*
X107590714Y-101028571D01*
X107376428Y-101100000D01*
X106876428Y-101028571D02*
X106519285Y-102528571D01*
X106233571Y-101457142D01*
X105947857Y-102528571D01*
X105590714Y-101028571D01*
X104162142Y-102385714D02*
X104233571Y-102457142D01*
X104447857Y-102528571D01*
X104590714Y-102528571D01*
X104805000Y-102457142D01*
X104947857Y-102314285D01*
X105019285Y-102171428D01*
X105090714Y-101885714D01*
X105090714Y-101671428D01*
X105019285Y-101385714D01*
X104947857Y-101242857D01*
X104805000Y-101100000D01*
X104590714Y-101028571D01*
X104447857Y-101028571D01*
X104233571Y-101100000D01*
X104162142Y-101171428D01*
X102805000Y-102528571D02*
X103519285Y-102528571D01*
X103519285Y-101028571D01*
X102305000Y-102528571D02*
X102305000Y-101028571D01*
X101447857Y-102528571D02*
X102090714Y-101671428D01*
X101447857Y-101028571D02*
X102305000Y-101885714D01*
X111590714Y-103578571D02*
X110662142Y-103578571D01*
X111162142Y-104150000D01*
X110947857Y-104150000D01*
X110805000Y-104221428D01*
X110733571Y-104292857D01*
X110662142Y-104435714D01*
X110662142Y-104792857D01*
X110733571Y-104935714D01*
X110805000Y-105007142D01*
X110947857Y-105078571D01*
X111376428Y-105078571D01*
X111519285Y-105007142D01*
X111590714Y-104935714D01*
X110019285Y-104935714D02*
X109947857Y-105007142D01*
X110019285Y-105078571D01*
X110090714Y-105007142D01*
X110019285Y-104935714D01*
X110019285Y-105078571D01*
X110019285Y-104150000D02*
X109947857Y-104221428D01*
X110019285Y-104292857D01*
X110090714Y-104221428D01*
X110019285Y-104150000D01*
X110019285Y-104292857D01*
X107376428Y-103650000D02*
X107519285Y-103578571D01*
X107733571Y-103578571D01*
X107947857Y-103650000D01*
X108090714Y-103792857D01*
X108162142Y-103935714D01*
X108233571Y-104221428D01*
X108233571Y-104435714D01*
X108162142Y-104721428D01*
X108090714Y-104864285D01*
X107947857Y-105007142D01*
X107733571Y-105078571D01*
X107590714Y-105078571D01*
X107376428Y-105007142D01*
X107305000Y-104935714D01*
X107305000Y-104435714D01*
X107590714Y-104435714D01*
X106662142Y-105078571D02*
X106662142Y-103578571D01*
X105805000Y-105078571D01*
X105805000Y-103578571D01*
X105090714Y-105078571D02*
X105090714Y-103578571D01*
X104733571Y-103578571D01*
X104519285Y-103650000D01*
X104376428Y-103792857D01*
X104305000Y-103935714D01*
X104233571Y-104221428D01*
X104233571Y-104435714D01*
X104305000Y-104721428D01*
X104376428Y-104864285D01*
X104519285Y-105007142D01*
X104733571Y-105078571D01*
X105090714Y-105078571D01*
X110805000Y-106628571D02*
X110805000Y-107628571D01*
X111162142Y-106057142D02*
X111519285Y-107128571D01*
X110590714Y-107128571D01*
X110019285Y-107485714D02*
X109947857Y-107557142D01*
X110019285Y-107628571D01*
X110090714Y-107557142D01*
X110019285Y-107485714D01*
X110019285Y-107628571D01*
X110019285Y-106700000D02*
X109947857Y-106771428D01*
X110019285Y-106842857D01*
X110090714Y-106771428D01*
X110019285Y-106700000D01*
X110019285Y-106842857D01*
X108233571Y-107557142D02*
X108019285Y-107628571D01*
X107662142Y-107628571D01*
X107519285Y-107557142D01*
X107447857Y-107485714D01*
X107376428Y-107342857D01*
X107376428Y-107200000D01*
X107447857Y-107057142D01*
X107519285Y-106985714D01*
X107662142Y-106914285D01*
X107947857Y-106842857D01*
X108090714Y-106771428D01*
X108162142Y-106700000D01*
X108233571Y-106557142D01*
X108233571Y-106414285D01*
X108162142Y-106271428D01*
X108090714Y-106200000D01*
X107947857Y-106128571D01*
X107590714Y-106128571D01*
X107376428Y-106200000D01*
X106876428Y-106128571D02*
X106519285Y-107628571D01*
X106233571Y-106557142D01*
X105947857Y-107628571D01*
X105590714Y-106128571D01*
X105019285Y-107628571D02*
X105019285Y-106128571D01*
X104662142Y-106128571D01*
X104447857Y-106200000D01*
X104305000Y-106342857D01*
X104233571Y-106485714D01*
X104162142Y-106771428D01*
X104162142Y-106985714D01*
X104233571Y-107271428D01*
X104305000Y-107414285D01*
X104447857Y-107557142D01*
X104662142Y-107628571D01*
X105019285Y-107628571D01*
X103519285Y-107628571D02*
X103519285Y-106128571D01*
X102519285Y-106128571D02*
X102233571Y-106128571D01*
X102090714Y-106200000D01*
X101947857Y-106342857D01*
X101876428Y-106628571D01*
X101876428Y-107128571D01*
X101947857Y-107414285D01*
X102090714Y-107557142D01*
X102233571Y-107628571D01*
X102519285Y-107628571D01*
X102662142Y-107557142D01*
X102805000Y-107414285D01*
X102876428Y-107128571D01*
X102876428Y-106628571D01*
X102805000Y-106342857D01*
X102662142Y-106200000D01*
X102519285Y-106128571D01*
X110733571Y-108678571D02*
X111447857Y-108678571D01*
X111519285Y-109392857D01*
X111447857Y-109321428D01*
X111305000Y-109250000D01*
X110947857Y-109250000D01*
X110805000Y-109321428D01*
X110733571Y-109392857D01*
X110662142Y-109535714D01*
X110662142Y-109892857D01*
X110733571Y-110035714D01*
X110805000Y-110107142D01*
X110947857Y-110178571D01*
X111305000Y-110178571D01*
X111447857Y-110107142D01*
X111519285Y-110035714D01*
X110019285Y-110035714D02*
X109947857Y-110107142D01*
X110019285Y-110178571D01*
X110090714Y-110107142D01*
X110019285Y-110035714D01*
X110019285Y-110178571D01*
X110019285Y-109250000D02*
X109947857Y-109321428D01*
X110019285Y-109392857D01*
X110090714Y-109321428D01*
X110019285Y-109250000D01*
X110019285Y-109392857D01*
X108162142Y-110178571D02*
X108162142Y-108678571D01*
X107305000Y-110178571D01*
X107305000Y-108678571D01*
X105733571Y-110178571D02*
X106233571Y-109464285D01*
X106590714Y-110178571D02*
X106590714Y-108678571D01*
X106019285Y-108678571D01*
X105876428Y-108750000D01*
X105805000Y-108821428D01*
X105733571Y-108964285D01*
X105733571Y-109178571D01*
X105805000Y-109321428D01*
X105876428Y-109392857D01*
X106019285Y-109464285D01*
X106590714Y-109464285D01*
X105162142Y-110107142D02*
X104947857Y-110178571D01*
X104590714Y-110178571D01*
X104447857Y-110107142D01*
X104376428Y-110035714D01*
X104305000Y-109892857D01*
X104305000Y-109750000D01*
X104376428Y-109607142D01*
X104447857Y-109535714D01*
X104590714Y-109464285D01*
X104876428Y-109392857D01*
X105019285Y-109321428D01*
X105090714Y-109250000D01*
X105162142Y-109107142D01*
X105162142Y-108964285D01*
X105090714Y-108821428D01*
X105019285Y-108750000D01*
X104876428Y-108678571D01*
X104519285Y-108678571D01*
X104305000Y-108750000D01*
X103876428Y-108678571D02*
X103019285Y-108678571D01*
X103447857Y-110178571D02*
X103447857Y-108678571D01*
X110805000Y-111228571D02*
X111090714Y-111228571D01*
X111233571Y-111300000D01*
X111305000Y-111371428D01*
X111447857Y-111585714D01*
X111519285Y-111871428D01*
X111519285Y-112442857D01*
X111447857Y-112585714D01*
X111376428Y-112657142D01*
X111233571Y-112728571D01*
X110947857Y-112728571D01*
X110805000Y-112657142D01*
X110733571Y-112585714D01*
X110662142Y-112442857D01*
X110662142Y-112085714D01*
X110733571Y-111942857D01*
X110805000Y-111871428D01*
X110947857Y-111800000D01*
X111233571Y-111800000D01*
X111376428Y-111871428D01*
X111447857Y-111942857D01*
X111519285Y-112085714D01*
X110019285Y-112585714D02*
X109947857Y-112657142D01*
X110019285Y-112728571D01*
X110090714Y-112657142D01*
X110019285Y-112585714D01*
X110019285Y-112728571D01*
X110019285Y-111800000D02*
X109947857Y-111871428D01*
X110019285Y-111942857D01*
X110090714Y-111871428D01*
X110019285Y-111800000D01*
X110019285Y-111942857D01*
X108233571Y-112657142D02*
X108019285Y-112728571D01*
X107662142Y-112728571D01*
X107519285Y-112657142D01*
X107447857Y-112585714D01*
X107376428Y-112442857D01*
X107376428Y-112300000D01*
X107447857Y-112157142D01*
X107519285Y-112085714D01*
X107662142Y-112014285D01*
X107947857Y-111942857D01*
X108090714Y-111871428D01*
X108162142Y-111800000D01*
X108233571Y-111657142D01*
X108233571Y-111514285D01*
X108162142Y-111371428D01*
X108090714Y-111300000D01*
X107947857Y-111228571D01*
X107590714Y-111228571D01*
X107376428Y-111300000D01*
X106876428Y-111228571D02*
X106519285Y-112728571D01*
X106233571Y-111657142D01*
X105947857Y-112728571D01*
X105590714Y-111228571D01*
X104733571Y-111228571D02*
X104447857Y-111228571D01*
X104305000Y-111300000D01*
X104162142Y-111442857D01*
X104090714Y-111728571D01*
X104090714Y-112228571D01*
X104162142Y-112514285D01*
X104305000Y-112657142D01*
X104447857Y-112728571D01*
X104733571Y-112728571D01*
X104876428Y-112657142D01*
X105019285Y-112514285D01*
X105090714Y-112228571D01*
X105090714Y-111728571D01*
X105019285Y-111442857D01*
X104876428Y-111300000D01*
X104733571Y-111228571D01*
X90000000Y-55000000D02*
X90000000Y-120000000D01*
X210000000Y-55000000D02*
X90000000Y-55000000D01*
X210000000Y-120000000D02*
X210000000Y-55000000D01*
X90000000Y-120000000D02*
X210000000Y-120000000D01*
M02*
