G04 #@! TF.GenerationSoftware,KiCad,Pcbnew,5.0.2-bee76a0~70~ubuntu18.04.1*
G04 #@! TF.CreationDate,2019-02-06T18:27:39+01:00*
G04 #@! TF.ProjectId,g-track,672d7472-6163-46b2-9e6b-696361645f70,rev?*
G04 #@! TF.SameCoordinates,Original*
G04 #@! TF.FileFunction,Soldermask,Bot*
G04 #@! TF.FilePolarity,Negative*
%FSLAX46Y46*%
G04 Gerber Fmt 4.6, Leading zero omitted, Abs format (unit mm)*
G04 Created by KiCad (PCBNEW 5.0.2-bee76a0~70~ubuntu18.04.1) date 2019. febr. 6., szerda, 18:27:39 CET*
%MOMM*%
%LPD*%
G01*
G04 APERTURE LIST*
%ADD10C,0.300000*%
%ADD11C,0.100000*%
G04 APERTURE END LIST*
D10*
X90000000Y-55000000D02*
X90000000Y-120000000D01*
X210000000Y-55000000D02*
X90000000Y-55000000D01*
X210000000Y-120000000D02*
X210000000Y-55000000D01*
X90000000Y-120000000D02*
X210000000Y-120000000D01*
D11*
G36*
X205634239Y-111811467D02*
X205948282Y-111873934D01*
X206539926Y-112119001D01*
X206829523Y-112312504D01*
X207072395Y-112474786D01*
X207525214Y-112927605D01*
X207525216Y-112927608D01*
X207880999Y-113460074D01*
X208068481Y-113912696D01*
X208126066Y-114051719D01*
X208251000Y-114679803D01*
X208251000Y-115320197D01*
X208220532Y-115473370D01*
X208126066Y-115948282D01*
X207880999Y-116539926D01*
X207633265Y-116910685D01*
X207525214Y-117072395D01*
X207072395Y-117525214D01*
X207072392Y-117525216D01*
X206539926Y-117880999D01*
X205948282Y-118126066D01*
X205634239Y-118188533D01*
X205320197Y-118251000D01*
X204679803Y-118251000D01*
X204365761Y-118188533D01*
X204051718Y-118126066D01*
X203460074Y-117880999D01*
X202927608Y-117525216D01*
X202927605Y-117525214D01*
X202474786Y-117072395D01*
X202366735Y-116910685D01*
X202119001Y-116539926D01*
X201873934Y-115948282D01*
X201779468Y-115473370D01*
X201749000Y-115320197D01*
X201749000Y-114679803D01*
X201873934Y-114051719D01*
X201931519Y-113912696D01*
X202119001Y-113460074D01*
X202474784Y-112927608D01*
X202474786Y-112927605D01*
X202927605Y-112474786D01*
X203170477Y-112312504D01*
X203460074Y-112119001D01*
X204051718Y-111873934D01*
X204365761Y-111811467D01*
X204679803Y-111749000D01*
X205320197Y-111749000D01*
X205634239Y-111811467D01*
X205634239Y-111811467D01*
G37*
G36*
X152605080Y-113434496D02*
X152871177Y-113487426D01*
X153289932Y-113660880D01*
X153666802Y-113912696D01*
X153987304Y-114233198D01*
X154239120Y-114610068D01*
X154412574Y-115028823D01*
X154412574Y-115028824D01*
X154476523Y-115350314D01*
X154501000Y-115473371D01*
X154501000Y-115926629D01*
X154412574Y-116371177D01*
X154239120Y-116789932D01*
X153987304Y-117166802D01*
X153666802Y-117487304D01*
X153289932Y-117739120D01*
X152871177Y-117912574D01*
X152648903Y-117956787D01*
X152426630Y-118001000D01*
X151973370Y-118001000D01*
X151751097Y-117956787D01*
X151528823Y-117912574D01*
X151110068Y-117739120D01*
X150733198Y-117487304D01*
X150412696Y-117166802D01*
X150160880Y-116789932D01*
X149987426Y-116371177D01*
X149899000Y-115926629D01*
X149899000Y-115473371D01*
X149923478Y-115350314D01*
X149987426Y-115028824D01*
X149987426Y-115028823D01*
X150160880Y-114610068D01*
X150412696Y-114233198D01*
X150733198Y-113912696D01*
X151110068Y-113660880D01*
X151528823Y-113487426D01*
X151794920Y-113434496D01*
X151973370Y-113399000D01*
X152426630Y-113399000D01*
X152605080Y-113434496D01*
X152605080Y-113434496D01*
G37*
G36*
X94605080Y-113434496D02*
X94871177Y-113487426D01*
X95289932Y-113660880D01*
X95666802Y-113912696D01*
X95987304Y-114233198D01*
X96239120Y-114610068D01*
X96412574Y-115028823D01*
X96412574Y-115028824D01*
X96476523Y-115350314D01*
X96501000Y-115473371D01*
X96501000Y-115926629D01*
X96412574Y-116371177D01*
X96239120Y-116789932D01*
X95987304Y-117166802D01*
X95666802Y-117487304D01*
X95289932Y-117739120D01*
X94871177Y-117912574D01*
X94648903Y-117956787D01*
X94426630Y-118001000D01*
X93973370Y-118001000D01*
X93751097Y-117956787D01*
X93528823Y-117912574D01*
X93110068Y-117739120D01*
X92733198Y-117487304D01*
X92412696Y-117166802D01*
X92160880Y-116789932D01*
X91987426Y-116371177D01*
X91899000Y-115926629D01*
X91899000Y-115473371D01*
X91923478Y-115350314D01*
X91987426Y-115028824D01*
X91987426Y-115028823D01*
X92160880Y-114610068D01*
X92412696Y-114233198D01*
X92733198Y-113912696D01*
X93110068Y-113660880D01*
X93528823Y-113487426D01*
X93794920Y-113434496D01*
X93973370Y-113399000D01*
X94426630Y-113399000D01*
X94605080Y-113434496D01*
X94605080Y-113434496D01*
G37*
G36*
X177433643Y-113029781D02*
X177579415Y-113090162D01*
X177710611Y-113177824D01*
X177822176Y-113289389D01*
X177909838Y-113420585D01*
X177970219Y-113566357D01*
X178001000Y-113721107D01*
X178001000Y-113878893D01*
X177970219Y-114033643D01*
X177909838Y-114179415D01*
X177822176Y-114310611D01*
X177710611Y-114422176D01*
X177579415Y-114509838D01*
X177433643Y-114570219D01*
X177278893Y-114601000D01*
X177121107Y-114601000D01*
X176966357Y-114570219D01*
X176820585Y-114509838D01*
X176689389Y-114422176D01*
X176577824Y-114310611D01*
X176490162Y-114179415D01*
X176429781Y-114033643D01*
X176399000Y-113878893D01*
X176399000Y-113721107D01*
X176429781Y-113566357D01*
X176490162Y-113420585D01*
X176577824Y-113289389D01*
X176689389Y-113177824D01*
X176820585Y-113090162D01*
X176966357Y-113029781D01*
X177121107Y-112999000D01*
X177278893Y-112999000D01*
X177433643Y-113029781D01*
X177433643Y-113029781D01*
G37*
G36*
X182313643Y-113029781D02*
X182459415Y-113090162D01*
X182590611Y-113177824D01*
X182702176Y-113289389D01*
X182789838Y-113420585D01*
X182850219Y-113566357D01*
X182881000Y-113721107D01*
X182881000Y-113878893D01*
X182850219Y-114033643D01*
X182789838Y-114179415D01*
X182702176Y-114310611D01*
X182590611Y-114422176D01*
X182459415Y-114509838D01*
X182313643Y-114570219D01*
X182158893Y-114601000D01*
X182001107Y-114601000D01*
X181846357Y-114570219D01*
X181700585Y-114509838D01*
X181569389Y-114422176D01*
X181457824Y-114310611D01*
X181370162Y-114179415D01*
X181309781Y-114033643D01*
X181279000Y-113878893D01*
X181279000Y-113721107D01*
X181309781Y-113566357D01*
X181370162Y-113420585D01*
X181457824Y-113289389D01*
X181569389Y-113177824D01*
X181700585Y-113090162D01*
X181846357Y-113029781D01*
X182001107Y-112999000D01*
X182158893Y-112999000D01*
X182313643Y-113029781D01*
X182313643Y-113029781D01*
G37*
G36*
X172760721Y-107610174D02*
X172860995Y-107651709D01*
X172951245Y-107712012D01*
X173027988Y-107788755D01*
X173088291Y-107879005D01*
X173129826Y-107979279D01*
X173151000Y-108085730D01*
X173151000Y-108194270D01*
X173129826Y-108300721D01*
X173088291Y-108400995D01*
X173027988Y-108491245D01*
X172951245Y-108567988D01*
X172860995Y-108628291D01*
X172760721Y-108669826D01*
X172654270Y-108691000D01*
X172545730Y-108691000D01*
X172439279Y-108669826D01*
X172339005Y-108628291D01*
X172248755Y-108567988D01*
X172172012Y-108491245D01*
X172111709Y-108400995D01*
X172070174Y-108300721D01*
X172049000Y-108194270D01*
X172049000Y-108085730D01*
X172070174Y-107979279D01*
X172111709Y-107879005D01*
X172172012Y-107788755D01*
X172248755Y-107712012D01*
X172339005Y-107651709D01*
X172439279Y-107610174D01*
X172545730Y-107589000D01*
X172654270Y-107589000D01*
X172760721Y-107610174D01*
X172760721Y-107610174D01*
G37*
G36*
X172760721Y-105070174D02*
X172860995Y-105111709D01*
X172951245Y-105172012D01*
X173027988Y-105248755D01*
X173088291Y-105339005D01*
X173129826Y-105439279D01*
X173151000Y-105545730D01*
X173151000Y-105654270D01*
X173129826Y-105760721D01*
X173088291Y-105860995D01*
X173027988Y-105951245D01*
X172951245Y-106027988D01*
X172860995Y-106088291D01*
X172760721Y-106129826D01*
X172654270Y-106151000D01*
X172545730Y-106151000D01*
X172439279Y-106129826D01*
X172339005Y-106088291D01*
X172248755Y-106027988D01*
X172172012Y-105951245D01*
X172111709Y-105860995D01*
X172070174Y-105760721D01*
X172049000Y-105654270D01*
X172049000Y-105545730D01*
X172070174Y-105439279D01*
X172111709Y-105339005D01*
X172172012Y-105248755D01*
X172248755Y-105172012D01*
X172339005Y-105111709D01*
X172439279Y-105070174D01*
X172545730Y-105049000D01*
X172654270Y-105049000D01*
X172760721Y-105070174D01*
X172760721Y-105070174D01*
G37*
G36*
X208501000Y-101901000D02*
X206699000Y-101901000D01*
X206699000Y-100099000D01*
X208501000Y-100099000D01*
X208501000Y-101901000D01*
X208501000Y-101901000D01*
G37*
G36*
X165010443Y-99705519D02*
X165076627Y-99712037D01*
X165189853Y-99746384D01*
X165246467Y-99763557D01*
X165385087Y-99837652D01*
X165402991Y-99847222D01*
X165438729Y-99876552D01*
X165540186Y-99959814D01*
X165623448Y-100061271D01*
X165652778Y-100097009D01*
X165652779Y-100097011D01*
X165736443Y-100253533D01*
X165736443Y-100253534D01*
X165787963Y-100423373D01*
X165805359Y-100600000D01*
X165787963Y-100776627D01*
X165753616Y-100889853D01*
X165736443Y-100946467D01*
X165662348Y-101085087D01*
X165652778Y-101102991D01*
X165623448Y-101138729D01*
X165540186Y-101240186D01*
X165438729Y-101323448D01*
X165402991Y-101352778D01*
X165402989Y-101352779D01*
X165246467Y-101436443D01*
X165189853Y-101453616D01*
X165076627Y-101487963D01*
X165010443Y-101494481D01*
X164944260Y-101501000D01*
X164855740Y-101501000D01*
X164789557Y-101494481D01*
X164723373Y-101487963D01*
X164610147Y-101453616D01*
X164553533Y-101436443D01*
X164397011Y-101352779D01*
X164397009Y-101352778D01*
X164361271Y-101323448D01*
X164259814Y-101240186D01*
X164176552Y-101138729D01*
X164147222Y-101102991D01*
X164137652Y-101085087D01*
X164063557Y-100946467D01*
X164046384Y-100889853D01*
X164012037Y-100776627D01*
X163994641Y-100600000D01*
X164012037Y-100423373D01*
X164063557Y-100253534D01*
X164063557Y-100253533D01*
X164147221Y-100097011D01*
X164147222Y-100097009D01*
X164176552Y-100061271D01*
X164259814Y-99959814D01*
X164361271Y-99876552D01*
X164397009Y-99847222D01*
X164414913Y-99837652D01*
X164553533Y-99763557D01*
X164610147Y-99746384D01*
X164723373Y-99712037D01*
X164789557Y-99705519D01*
X164855740Y-99699000D01*
X164944260Y-99699000D01*
X165010443Y-99705519D01*
X165010443Y-99705519D01*
G37*
G36*
X207710442Y-97565518D02*
X207776627Y-97572037D01*
X207889853Y-97606384D01*
X207946467Y-97623557D01*
X208085087Y-97697652D01*
X208102991Y-97707222D01*
X208110682Y-97713534D01*
X208240186Y-97819814D01*
X208292348Y-97883375D01*
X208352778Y-97957009D01*
X208352779Y-97957011D01*
X208436443Y-98113533D01*
X208436443Y-98113534D01*
X208487963Y-98283373D01*
X208505359Y-98460000D01*
X208487963Y-98636627D01*
X208453616Y-98749853D01*
X208436443Y-98806467D01*
X208433069Y-98812779D01*
X208352778Y-98962991D01*
X208323448Y-98998729D01*
X208240186Y-99100186D01*
X208138729Y-99183448D01*
X208102991Y-99212778D01*
X208102989Y-99212779D01*
X207946467Y-99296443D01*
X207889853Y-99313616D01*
X207776627Y-99347963D01*
X207710443Y-99354481D01*
X207644260Y-99361000D01*
X207555740Y-99361000D01*
X207489557Y-99354481D01*
X207423373Y-99347963D01*
X207310147Y-99313616D01*
X207253533Y-99296443D01*
X207097011Y-99212779D01*
X207097009Y-99212778D01*
X207061271Y-99183448D01*
X206959814Y-99100186D01*
X206876552Y-98998729D01*
X206847222Y-98962991D01*
X206766931Y-98812779D01*
X206763557Y-98806467D01*
X206746384Y-98749853D01*
X206712037Y-98636627D01*
X206694641Y-98460000D01*
X206712037Y-98283373D01*
X206763557Y-98113534D01*
X206763557Y-98113533D01*
X206847221Y-97957011D01*
X206847222Y-97957009D01*
X206907652Y-97883375D01*
X206959814Y-97819814D01*
X207089318Y-97713534D01*
X207097009Y-97707222D01*
X207114913Y-97697652D01*
X207253533Y-97623557D01*
X207310147Y-97606384D01*
X207423373Y-97572037D01*
X207489557Y-97565519D01*
X207555740Y-97559000D01*
X207644260Y-97559000D01*
X207710442Y-97565518D01*
X207710442Y-97565518D01*
G37*
G36*
X165010442Y-97165518D02*
X165076627Y-97172037D01*
X165189853Y-97206384D01*
X165246467Y-97223557D01*
X165385087Y-97297652D01*
X165402991Y-97307222D01*
X165438729Y-97336552D01*
X165540186Y-97419814D01*
X165623448Y-97521271D01*
X165652778Y-97557009D01*
X165652779Y-97557011D01*
X165736443Y-97713533D01*
X165736443Y-97713534D01*
X165787963Y-97883373D01*
X165805359Y-98060000D01*
X165787963Y-98236627D01*
X165773782Y-98283375D01*
X165736443Y-98406467D01*
X165662348Y-98545087D01*
X165652778Y-98562991D01*
X165623448Y-98598729D01*
X165540186Y-98700186D01*
X165438729Y-98783448D01*
X165402991Y-98812778D01*
X165402989Y-98812779D01*
X165246467Y-98896443D01*
X165189853Y-98913616D01*
X165076627Y-98947963D01*
X165010443Y-98954481D01*
X164944260Y-98961000D01*
X164855740Y-98961000D01*
X164789558Y-98954482D01*
X164723373Y-98947963D01*
X164610147Y-98913616D01*
X164553533Y-98896443D01*
X164397011Y-98812779D01*
X164397009Y-98812778D01*
X164361271Y-98783448D01*
X164259814Y-98700186D01*
X164176552Y-98598729D01*
X164147222Y-98562991D01*
X164137652Y-98545087D01*
X164063557Y-98406467D01*
X164026218Y-98283375D01*
X164012037Y-98236627D01*
X163994641Y-98060000D01*
X164012037Y-97883373D01*
X164063557Y-97713534D01*
X164063557Y-97713533D01*
X164147221Y-97557011D01*
X164147222Y-97557009D01*
X164176552Y-97521271D01*
X164259814Y-97419814D01*
X164361271Y-97336552D01*
X164397009Y-97307222D01*
X164414913Y-97297652D01*
X164553533Y-97223557D01*
X164610147Y-97206384D01*
X164723373Y-97172037D01*
X164789558Y-97165518D01*
X164855740Y-97159000D01*
X164944260Y-97159000D01*
X165010442Y-97165518D01*
X165010442Y-97165518D01*
G37*
G36*
X207710443Y-95025519D02*
X207776627Y-95032037D01*
X207889853Y-95066384D01*
X207946467Y-95083557D01*
X208085087Y-95157652D01*
X208102991Y-95167222D01*
X208110682Y-95173534D01*
X208240186Y-95279814D01*
X208292348Y-95343375D01*
X208352778Y-95417009D01*
X208352779Y-95417011D01*
X208436443Y-95573533D01*
X208436443Y-95573534D01*
X208487963Y-95743373D01*
X208505359Y-95920000D01*
X208487963Y-96096627D01*
X208453616Y-96209853D01*
X208436443Y-96266467D01*
X208433069Y-96272779D01*
X208352778Y-96422991D01*
X208323448Y-96458729D01*
X208240186Y-96560186D01*
X208138729Y-96643448D01*
X208102991Y-96672778D01*
X208102989Y-96672779D01*
X207946467Y-96756443D01*
X207889853Y-96773616D01*
X207776627Y-96807963D01*
X207710442Y-96814482D01*
X207644260Y-96821000D01*
X207555740Y-96821000D01*
X207489558Y-96814482D01*
X207423373Y-96807963D01*
X207310147Y-96773616D01*
X207253533Y-96756443D01*
X207097011Y-96672779D01*
X207097009Y-96672778D01*
X207061271Y-96643448D01*
X206959814Y-96560186D01*
X206876552Y-96458729D01*
X206847222Y-96422991D01*
X206766931Y-96272779D01*
X206763557Y-96266467D01*
X206746384Y-96209853D01*
X206712037Y-96096627D01*
X206694641Y-95920000D01*
X206712037Y-95743373D01*
X206763557Y-95573534D01*
X206763557Y-95573533D01*
X206847221Y-95417011D01*
X206847222Y-95417009D01*
X206907652Y-95343375D01*
X206959814Y-95279814D01*
X207089318Y-95173534D01*
X207097009Y-95167222D01*
X207114913Y-95157652D01*
X207253533Y-95083557D01*
X207310147Y-95066384D01*
X207423373Y-95032037D01*
X207489557Y-95025519D01*
X207555740Y-95019000D01*
X207644260Y-95019000D01*
X207710443Y-95025519D01*
X207710443Y-95025519D01*
G37*
G36*
X165010443Y-94625519D02*
X165076627Y-94632037D01*
X165150196Y-94654354D01*
X165246467Y-94683557D01*
X165300753Y-94712574D01*
X165402991Y-94767222D01*
X165438729Y-94796552D01*
X165540186Y-94879814D01*
X165594810Y-94946375D01*
X165652778Y-95017009D01*
X165652779Y-95017011D01*
X165736443Y-95173533D01*
X165736443Y-95173534D01*
X165787963Y-95343373D01*
X165805359Y-95520000D01*
X165787963Y-95696627D01*
X165773782Y-95743375D01*
X165736443Y-95866467D01*
X165662348Y-96005087D01*
X165652778Y-96022991D01*
X165623448Y-96058729D01*
X165540186Y-96160186D01*
X165438729Y-96243448D01*
X165402991Y-96272778D01*
X165402989Y-96272779D01*
X165246467Y-96356443D01*
X165189853Y-96373616D01*
X165076627Y-96407963D01*
X165010442Y-96414482D01*
X164944260Y-96421000D01*
X164855740Y-96421000D01*
X164789557Y-96414481D01*
X164723373Y-96407963D01*
X164610147Y-96373616D01*
X164553533Y-96356443D01*
X164397011Y-96272779D01*
X164397009Y-96272778D01*
X164361271Y-96243448D01*
X164259814Y-96160186D01*
X164176552Y-96058729D01*
X164147222Y-96022991D01*
X164137652Y-96005087D01*
X164063557Y-95866467D01*
X164026218Y-95743375D01*
X164012037Y-95696627D01*
X163994641Y-95520000D01*
X164012037Y-95343373D01*
X164063557Y-95173534D01*
X164063557Y-95173533D01*
X164147221Y-95017011D01*
X164147222Y-95017009D01*
X164205190Y-94946375D01*
X164259814Y-94879814D01*
X164361271Y-94796552D01*
X164397009Y-94767222D01*
X164499247Y-94712574D01*
X164553533Y-94683557D01*
X164649804Y-94654354D01*
X164723373Y-94632037D01*
X164789558Y-94625518D01*
X164855740Y-94619000D01*
X164944260Y-94619000D01*
X165010443Y-94625519D01*
X165010443Y-94625519D01*
G37*
G36*
X119752812Y-93213624D02*
X119916784Y-93281544D01*
X120064354Y-93380147D01*
X120189853Y-93505646D01*
X120288456Y-93653216D01*
X120356376Y-93817188D01*
X120391000Y-93991259D01*
X120391000Y-94168741D01*
X120356376Y-94342812D01*
X120288456Y-94506784D01*
X120189853Y-94654354D01*
X120064354Y-94779853D01*
X119916784Y-94878456D01*
X119752812Y-94946376D01*
X119578741Y-94981000D01*
X119401259Y-94981000D01*
X119227188Y-94946376D01*
X119063216Y-94878456D01*
X118915646Y-94779853D01*
X118790147Y-94654354D01*
X118691544Y-94506784D01*
X118623624Y-94342812D01*
X118589000Y-94168741D01*
X118589000Y-93991259D01*
X118623624Y-93817188D01*
X118691544Y-93653216D01*
X118790147Y-93505646D01*
X118915646Y-93380147D01*
X119063216Y-93281544D01*
X119227188Y-93213624D01*
X119401259Y-93179000D01*
X119578741Y-93179000D01*
X119752812Y-93213624D01*
X119752812Y-93213624D01*
G37*
G36*
X99432812Y-93213624D02*
X99596784Y-93281544D01*
X99744354Y-93380147D01*
X99869853Y-93505646D01*
X99968456Y-93653216D01*
X100036376Y-93817188D01*
X100071000Y-93991259D01*
X100071000Y-94168741D01*
X100036376Y-94342812D01*
X99968456Y-94506784D01*
X99869853Y-94654354D01*
X99744354Y-94779853D01*
X99596784Y-94878456D01*
X99432812Y-94946376D01*
X99258741Y-94981000D01*
X99081259Y-94981000D01*
X98907188Y-94946376D01*
X98743216Y-94878456D01*
X98595646Y-94779853D01*
X98470147Y-94654354D01*
X98371544Y-94506784D01*
X98303624Y-94342812D01*
X98269000Y-94168741D01*
X98269000Y-93991259D01*
X98303624Y-93817188D01*
X98371544Y-93653216D01*
X98470147Y-93505646D01*
X98595646Y-93380147D01*
X98743216Y-93281544D01*
X98907188Y-93213624D01*
X99081259Y-93179000D01*
X99258741Y-93179000D01*
X99432812Y-93213624D01*
X99432812Y-93213624D01*
G37*
G36*
X101972812Y-93213624D02*
X102136784Y-93281544D01*
X102284354Y-93380147D01*
X102409853Y-93505646D01*
X102508456Y-93653216D01*
X102576376Y-93817188D01*
X102611000Y-93991259D01*
X102611000Y-94168741D01*
X102576376Y-94342812D01*
X102508456Y-94506784D01*
X102409853Y-94654354D01*
X102284354Y-94779853D01*
X102136784Y-94878456D01*
X101972812Y-94946376D01*
X101798741Y-94981000D01*
X101621259Y-94981000D01*
X101447188Y-94946376D01*
X101283216Y-94878456D01*
X101135646Y-94779853D01*
X101010147Y-94654354D01*
X100911544Y-94506784D01*
X100843624Y-94342812D01*
X100809000Y-94168741D01*
X100809000Y-93991259D01*
X100843624Y-93817188D01*
X100911544Y-93653216D01*
X101010147Y-93505646D01*
X101135646Y-93380147D01*
X101283216Y-93281544D01*
X101447188Y-93213624D01*
X101621259Y-93179000D01*
X101798741Y-93179000D01*
X101972812Y-93213624D01*
X101972812Y-93213624D01*
G37*
G36*
X104512812Y-93213624D02*
X104676784Y-93281544D01*
X104824354Y-93380147D01*
X104949853Y-93505646D01*
X105048456Y-93653216D01*
X105116376Y-93817188D01*
X105151000Y-93991259D01*
X105151000Y-94168741D01*
X105116376Y-94342812D01*
X105048456Y-94506784D01*
X104949853Y-94654354D01*
X104824354Y-94779853D01*
X104676784Y-94878456D01*
X104512812Y-94946376D01*
X104338741Y-94981000D01*
X104161259Y-94981000D01*
X103987188Y-94946376D01*
X103823216Y-94878456D01*
X103675646Y-94779853D01*
X103550147Y-94654354D01*
X103451544Y-94506784D01*
X103383624Y-94342812D01*
X103349000Y-94168741D01*
X103349000Y-93991259D01*
X103383624Y-93817188D01*
X103451544Y-93653216D01*
X103550147Y-93505646D01*
X103675646Y-93380147D01*
X103823216Y-93281544D01*
X103987188Y-93213624D01*
X104161259Y-93179000D01*
X104338741Y-93179000D01*
X104512812Y-93213624D01*
X104512812Y-93213624D01*
G37*
G36*
X107052812Y-93213624D02*
X107216784Y-93281544D01*
X107364354Y-93380147D01*
X107489853Y-93505646D01*
X107588456Y-93653216D01*
X107656376Y-93817188D01*
X107691000Y-93991259D01*
X107691000Y-94168741D01*
X107656376Y-94342812D01*
X107588456Y-94506784D01*
X107489853Y-94654354D01*
X107364354Y-94779853D01*
X107216784Y-94878456D01*
X107052812Y-94946376D01*
X106878741Y-94981000D01*
X106701259Y-94981000D01*
X106527188Y-94946376D01*
X106363216Y-94878456D01*
X106215646Y-94779853D01*
X106090147Y-94654354D01*
X105991544Y-94506784D01*
X105923624Y-94342812D01*
X105889000Y-94168741D01*
X105889000Y-93991259D01*
X105923624Y-93817188D01*
X105991544Y-93653216D01*
X106090147Y-93505646D01*
X106215646Y-93380147D01*
X106363216Y-93281544D01*
X106527188Y-93213624D01*
X106701259Y-93179000D01*
X106878741Y-93179000D01*
X107052812Y-93213624D01*
X107052812Y-93213624D01*
G37*
G36*
X109592812Y-93213624D02*
X109756784Y-93281544D01*
X109904354Y-93380147D01*
X110029853Y-93505646D01*
X110128456Y-93653216D01*
X110196376Y-93817188D01*
X110231000Y-93991259D01*
X110231000Y-94168741D01*
X110196376Y-94342812D01*
X110128456Y-94506784D01*
X110029853Y-94654354D01*
X109904354Y-94779853D01*
X109756784Y-94878456D01*
X109592812Y-94946376D01*
X109418741Y-94981000D01*
X109241259Y-94981000D01*
X109067188Y-94946376D01*
X108903216Y-94878456D01*
X108755646Y-94779853D01*
X108630147Y-94654354D01*
X108531544Y-94506784D01*
X108463624Y-94342812D01*
X108429000Y-94168741D01*
X108429000Y-93991259D01*
X108463624Y-93817188D01*
X108531544Y-93653216D01*
X108630147Y-93505646D01*
X108755646Y-93380147D01*
X108903216Y-93281544D01*
X109067188Y-93213624D01*
X109241259Y-93179000D01*
X109418741Y-93179000D01*
X109592812Y-93213624D01*
X109592812Y-93213624D01*
G37*
G36*
X112132812Y-93213624D02*
X112296784Y-93281544D01*
X112444354Y-93380147D01*
X112569853Y-93505646D01*
X112668456Y-93653216D01*
X112736376Y-93817188D01*
X112771000Y-93991259D01*
X112771000Y-94168741D01*
X112736376Y-94342812D01*
X112668456Y-94506784D01*
X112569853Y-94654354D01*
X112444354Y-94779853D01*
X112296784Y-94878456D01*
X112132812Y-94946376D01*
X111958741Y-94981000D01*
X111781259Y-94981000D01*
X111607188Y-94946376D01*
X111443216Y-94878456D01*
X111295646Y-94779853D01*
X111170147Y-94654354D01*
X111071544Y-94506784D01*
X111003624Y-94342812D01*
X110969000Y-94168741D01*
X110969000Y-93991259D01*
X111003624Y-93817188D01*
X111071544Y-93653216D01*
X111170147Y-93505646D01*
X111295646Y-93380147D01*
X111443216Y-93281544D01*
X111607188Y-93213624D01*
X111781259Y-93179000D01*
X111958741Y-93179000D01*
X112132812Y-93213624D01*
X112132812Y-93213624D01*
G37*
G36*
X114672812Y-93213624D02*
X114836784Y-93281544D01*
X114984354Y-93380147D01*
X115109853Y-93505646D01*
X115208456Y-93653216D01*
X115276376Y-93817188D01*
X115311000Y-93991259D01*
X115311000Y-94168741D01*
X115276376Y-94342812D01*
X115208456Y-94506784D01*
X115109853Y-94654354D01*
X114984354Y-94779853D01*
X114836784Y-94878456D01*
X114672812Y-94946376D01*
X114498741Y-94981000D01*
X114321259Y-94981000D01*
X114147188Y-94946376D01*
X113983216Y-94878456D01*
X113835646Y-94779853D01*
X113710147Y-94654354D01*
X113611544Y-94506784D01*
X113543624Y-94342812D01*
X113509000Y-94168741D01*
X113509000Y-93991259D01*
X113543624Y-93817188D01*
X113611544Y-93653216D01*
X113710147Y-93505646D01*
X113835646Y-93380147D01*
X113983216Y-93281544D01*
X114147188Y-93213624D01*
X114321259Y-93179000D01*
X114498741Y-93179000D01*
X114672812Y-93213624D01*
X114672812Y-93213624D01*
G37*
G36*
X117212812Y-93213624D02*
X117376784Y-93281544D01*
X117524354Y-93380147D01*
X117649853Y-93505646D01*
X117748456Y-93653216D01*
X117816376Y-93817188D01*
X117851000Y-93991259D01*
X117851000Y-94168741D01*
X117816376Y-94342812D01*
X117748456Y-94506784D01*
X117649853Y-94654354D01*
X117524354Y-94779853D01*
X117376784Y-94878456D01*
X117212812Y-94946376D01*
X117038741Y-94981000D01*
X116861259Y-94981000D01*
X116687188Y-94946376D01*
X116523216Y-94878456D01*
X116375646Y-94779853D01*
X116250147Y-94654354D01*
X116151544Y-94506784D01*
X116083624Y-94342812D01*
X116049000Y-94168741D01*
X116049000Y-93991259D01*
X116083624Y-93817188D01*
X116151544Y-93653216D01*
X116250147Y-93505646D01*
X116375646Y-93380147D01*
X116523216Y-93281544D01*
X116687188Y-93213624D01*
X116861259Y-93179000D01*
X117038741Y-93179000D01*
X117212812Y-93213624D01*
X117212812Y-93213624D01*
G37*
G36*
X124832812Y-93213624D02*
X124996784Y-93281544D01*
X125144354Y-93380147D01*
X125269853Y-93505646D01*
X125368456Y-93653216D01*
X125436376Y-93817188D01*
X125471000Y-93991259D01*
X125471000Y-94168741D01*
X125436376Y-94342812D01*
X125368456Y-94506784D01*
X125269853Y-94654354D01*
X125144354Y-94779853D01*
X124996784Y-94878456D01*
X124832812Y-94946376D01*
X124658741Y-94981000D01*
X124481259Y-94981000D01*
X124307188Y-94946376D01*
X124143216Y-94878456D01*
X123995646Y-94779853D01*
X123870147Y-94654354D01*
X123771544Y-94506784D01*
X123703624Y-94342812D01*
X123669000Y-94168741D01*
X123669000Y-93991259D01*
X123703624Y-93817188D01*
X123771544Y-93653216D01*
X123870147Y-93505646D01*
X123995646Y-93380147D01*
X124143216Y-93281544D01*
X124307188Y-93213624D01*
X124481259Y-93179000D01*
X124658741Y-93179000D01*
X124832812Y-93213624D01*
X124832812Y-93213624D01*
G37*
G36*
X127372812Y-93213624D02*
X127536784Y-93281544D01*
X127684354Y-93380147D01*
X127809853Y-93505646D01*
X127908456Y-93653216D01*
X127976376Y-93817188D01*
X128011000Y-93991259D01*
X128011000Y-94168741D01*
X127976376Y-94342812D01*
X127908456Y-94506784D01*
X127809853Y-94654354D01*
X127684354Y-94779853D01*
X127536784Y-94878456D01*
X127372812Y-94946376D01*
X127198741Y-94981000D01*
X127021259Y-94981000D01*
X126847188Y-94946376D01*
X126683216Y-94878456D01*
X126535646Y-94779853D01*
X126410147Y-94654354D01*
X126311544Y-94506784D01*
X126243624Y-94342812D01*
X126209000Y-94168741D01*
X126209000Y-93991259D01*
X126243624Y-93817188D01*
X126311544Y-93653216D01*
X126410147Y-93505646D01*
X126535646Y-93380147D01*
X126683216Y-93281544D01*
X126847188Y-93213624D01*
X127021259Y-93179000D01*
X127198741Y-93179000D01*
X127372812Y-93213624D01*
X127372812Y-93213624D01*
G37*
G36*
X142612812Y-93213624D02*
X142776784Y-93281544D01*
X142924354Y-93380147D01*
X143049853Y-93505646D01*
X143148456Y-93653216D01*
X143216376Y-93817188D01*
X143251000Y-93991259D01*
X143251000Y-94168741D01*
X143216376Y-94342812D01*
X143148456Y-94506784D01*
X143049853Y-94654354D01*
X142924354Y-94779853D01*
X142776784Y-94878456D01*
X142612812Y-94946376D01*
X142438741Y-94981000D01*
X142261259Y-94981000D01*
X142087188Y-94946376D01*
X141923216Y-94878456D01*
X141775646Y-94779853D01*
X141650147Y-94654354D01*
X141551544Y-94506784D01*
X141483624Y-94342812D01*
X141449000Y-94168741D01*
X141449000Y-93991259D01*
X141483624Y-93817188D01*
X141551544Y-93653216D01*
X141650147Y-93505646D01*
X141775646Y-93380147D01*
X141923216Y-93281544D01*
X142087188Y-93213624D01*
X142261259Y-93179000D01*
X142438741Y-93179000D01*
X142612812Y-93213624D01*
X142612812Y-93213624D01*
G37*
G36*
X140072812Y-93213624D02*
X140236784Y-93281544D01*
X140384354Y-93380147D01*
X140509853Y-93505646D01*
X140608456Y-93653216D01*
X140676376Y-93817188D01*
X140711000Y-93991259D01*
X140711000Y-94168741D01*
X140676376Y-94342812D01*
X140608456Y-94506784D01*
X140509853Y-94654354D01*
X140384354Y-94779853D01*
X140236784Y-94878456D01*
X140072812Y-94946376D01*
X139898741Y-94981000D01*
X139721259Y-94981000D01*
X139547188Y-94946376D01*
X139383216Y-94878456D01*
X139235646Y-94779853D01*
X139110147Y-94654354D01*
X139011544Y-94506784D01*
X138943624Y-94342812D01*
X138909000Y-94168741D01*
X138909000Y-93991259D01*
X138943624Y-93817188D01*
X139011544Y-93653216D01*
X139110147Y-93505646D01*
X139235646Y-93380147D01*
X139383216Y-93281544D01*
X139547188Y-93213624D01*
X139721259Y-93179000D01*
X139898741Y-93179000D01*
X140072812Y-93213624D01*
X140072812Y-93213624D01*
G37*
G36*
X122292812Y-93213624D02*
X122456784Y-93281544D01*
X122604354Y-93380147D01*
X122729853Y-93505646D01*
X122828456Y-93653216D01*
X122896376Y-93817188D01*
X122931000Y-93991259D01*
X122931000Y-94168741D01*
X122896376Y-94342812D01*
X122828456Y-94506784D01*
X122729853Y-94654354D01*
X122604354Y-94779853D01*
X122456784Y-94878456D01*
X122292812Y-94946376D01*
X122118741Y-94981000D01*
X121941259Y-94981000D01*
X121767188Y-94946376D01*
X121603216Y-94878456D01*
X121455646Y-94779853D01*
X121330147Y-94654354D01*
X121231544Y-94506784D01*
X121163624Y-94342812D01*
X121129000Y-94168741D01*
X121129000Y-93991259D01*
X121163624Y-93817188D01*
X121231544Y-93653216D01*
X121330147Y-93505646D01*
X121455646Y-93380147D01*
X121603216Y-93281544D01*
X121767188Y-93213624D01*
X121941259Y-93179000D01*
X122118741Y-93179000D01*
X122292812Y-93213624D01*
X122292812Y-93213624D01*
G37*
G36*
X145152812Y-93213624D02*
X145316784Y-93281544D01*
X145464354Y-93380147D01*
X145589853Y-93505646D01*
X145688456Y-93653216D01*
X145756376Y-93817188D01*
X145791000Y-93991259D01*
X145791000Y-94168741D01*
X145756376Y-94342812D01*
X145688456Y-94506784D01*
X145589853Y-94654354D01*
X145464354Y-94779853D01*
X145316784Y-94878456D01*
X145152812Y-94946376D01*
X144978741Y-94981000D01*
X144801259Y-94981000D01*
X144627188Y-94946376D01*
X144463216Y-94878456D01*
X144315646Y-94779853D01*
X144190147Y-94654354D01*
X144091544Y-94506784D01*
X144023624Y-94342812D01*
X143989000Y-94168741D01*
X143989000Y-93991259D01*
X144023624Y-93817188D01*
X144091544Y-93653216D01*
X144190147Y-93505646D01*
X144315646Y-93380147D01*
X144463216Y-93281544D01*
X144627188Y-93213624D01*
X144801259Y-93179000D01*
X144978741Y-93179000D01*
X145152812Y-93213624D01*
X145152812Y-93213624D01*
G37*
G36*
X147692812Y-93213624D02*
X147856784Y-93281544D01*
X148004354Y-93380147D01*
X148129853Y-93505646D01*
X148228456Y-93653216D01*
X148296376Y-93817188D01*
X148331000Y-93991259D01*
X148331000Y-94168741D01*
X148296376Y-94342812D01*
X148228456Y-94506784D01*
X148129853Y-94654354D01*
X148004354Y-94779853D01*
X147856784Y-94878456D01*
X147692812Y-94946376D01*
X147518741Y-94981000D01*
X147341259Y-94981000D01*
X147167188Y-94946376D01*
X147003216Y-94878456D01*
X146855646Y-94779853D01*
X146730147Y-94654354D01*
X146631544Y-94506784D01*
X146563624Y-94342812D01*
X146529000Y-94168741D01*
X146529000Y-93991259D01*
X146563624Y-93817188D01*
X146631544Y-93653216D01*
X146730147Y-93505646D01*
X146855646Y-93380147D01*
X147003216Y-93281544D01*
X147167188Y-93213624D01*
X147341259Y-93179000D01*
X147518741Y-93179000D01*
X147692812Y-93213624D01*
X147692812Y-93213624D01*
G37*
G36*
X137532812Y-93213624D02*
X137696784Y-93281544D01*
X137844354Y-93380147D01*
X137969853Y-93505646D01*
X138068456Y-93653216D01*
X138136376Y-93817188D01*
X138171000Y-93991259D01*
X138171000Y-94168741D01*
X138136376Y-94342812D01*
X138068456Y-94506784D01*
X137969853Y-94654354D01*
X137844354Y-94779853D01*
X137696784Y-94878456D01*
X137532812Y-94946376D01*
X137358741Y-94981000D01*
X137181259Y-94981000D01*
X137007188Y-94946376D01*
X136843216Y-94878456D01*
X136695646Y-94779853D01*
X136570147Y-94654354D01*
X136471544Y-94506784D01*
X136403624Y-94342812D01*
X136369000Y-94168741D01*
X136369000Y-93991259D01*
X136403624Y-93817188D01*
X136471544Y-93653216D01*
X136570147Y-93505646D01*
X136695646Y-93380147D01*
X136843216Y-93281544D01*
X137007188Y-93213624D01*
X137181259Y-93179000D01*
X137358741Y-93179000D01*
X137532812Y-93213624D01*
X137532812Y-93213624D01*
G37*
G36*
X134992812Y-93213624D02*
X135156784Y-93281544D01*
X135304354Y-93380147D01*
X135429853Y-93505646D01*
X135528456Y-93653216D01*
X135596376Y-93817188D01*
X135631000Y-93991259D01*
X135631000Y-94168741D01*
X135596376Y-94342812D01*
X135528456Y-94506784D01*
X135429853Y-94654354D01*
X135304354Y-94779853D01*
X135156784Y-94878456D01*
X134992812Y-94946376D01*
X134818741Y-94981000D01*
X134641259Y-94981000D01*
X134467188Y-94946376D01*
X134303216Y-94878456D01*
X134155646Y-94779853D01*
X134030147Y-94654354D01*
X133931544Y-94506784D01*
X133863624Y-94342812D01*
X133829000Y-94168741D01*
X133829000Y-93991259D01*
X133863624Y-93817188D01*
X133931544Y-93653216D01*
X134030147Y-93505646D01*
X134155646Y-93380147D01*
X134303216Y-93281544D01*
X134467188Y-93213624D01*
X134641259Y-93179000D01*
X134818741Y-93179000D01*
X134992812Y-93213624D01*
X134992812Y-93213624D01*
G37*
G36*
X132452812Y-93213624D02*
X132616784Y-93281544D01*
X132764354Y-93380147D01*
X132889853Y-93505646D01*
X132988456Y-93653216D01*
X133056376Y-93817188D01*
X133091000Y-93991259D01*
X133091000Y-94168741D01*
X133056376Y-94342812D01*
X132988456Y-94506784D01*
X132889853Y-94654354D01*
X132764354Y-94779853D01*
X132616784Y-94878456D01*
X132452812Y-94946376D01*
X132278741Y-94981000D01*
X132101259Y-94981000D01*
X131927188Y-94946376D01*
X131763216Y-94878456D01*
X131615646Y-94779853D01*
X131490147Y-94654354D01*
X131391544Y-94506784D01*
X131323624Y-94342812D01*
X131289000Y-94168741D01*
X131289000Y-93991259D01*
X131323624Y-93817188D01*
X131391544Y-93653216D01*
X131490147Y-93505646D01*
X131615646Y-93380147D01*
X131763216Y-93281544D01*
X131927188Y-93213624D01*
X132101259Y-93179000D01*
X132278741Y-93179000D01*
X132452812Y-93213624D01*
X132452812Y-93213624D01*
G37*
G36*
X129912812Y-93213624D02*
X130076784Y-93281544D01*
X130224354Y-93380147D01*
X130349853Y-93505646D01*
X130448456Y-93653216D01*
X130516376Y-93817188D01*
X130551000Y-93991259D01*
X130551000Y-94168741D01*
X130516376Y-94342812D01*
X130448456Y-94506784D01*
X130349853Y-94654354D01*
X130224354Y-94779853D01*
X130076784Y-94878456D01*
X129912812Y-94946376D01*
X129738741Y-94981000D01*
X129561259Y-94981000D01*
X129387188Y-94946376D01*
X129223216Y-94878456D01*
X129075646Y-94779853D01*
X128950147Y-94654354D01*
X128851544Y-94506784D01*
X128783624Y-94342812D01*
X128749000Y-94168741D01*
X128749000Y-93991259D01*
X128783624Y-93817188D01*
X128851544Y-93653216D01*
X128950147Y-93505646D01*
X129075646Y-93380147D01*
X129223216Y-93281544D01*
X129387188Y-93213624D01*
X129561259Y-93179000D01*
X129738741Y-93179000D01*
X129912812Y-93213624D01*
X129912812Y-93213624D01*
G37*
G36*
X203876000Y-92876000D02*
X203850028Y-92876000D01*
X203825642Y-92878402D01*
X203802193Y-92885515D01*
X203780582Y-92897066D01*
X203761640Y-92912612D01*
X203746094Y-92931554D01*
X203734543Y-92953165D01*
X203727430Y-92976614D01*
X203725028Y-93001000D01*
X203727430Y-93025386D01*
X203734543Y-93048835D01*
X203753399Y-93080295D01*
X203797694Y-93134269D01*
X203841894Y-93216961D01*
X203869113Y-93306688D01*
X203878303Y-93400000D01*
X203869113Y-93493312D01*
X203841894Y-93583039D01*
X203797694Y-93665731D01*
X203738211Y-93738211D01*
X203665731Y-93797694D01*
X203665725Y-93797697D01*
X203658809Y-93803373D01*
X203641482Y-93820700D01*
X203627868Y-93841075D01*
X203618491Y-93863714D01*
X203613710Y-93887747D01*
X203613710Y-93912251D01*
X203618490Y-93936285D01*
X203627867Y-93958924D01*
X203641481Y-93979299D01*
X203658809Y-93996627D01*
X203665725Y-94002303D01*
X203665731Y-94002306D01*
X203738211Y-94061789D01*
X203797694Y-94134269D01*
X203841894Y-94216961D01*
X203869113Y-94306688D01*
X203878303Y-94400000D01*
X203869113Y-94493312D01*
X203841894Y-94583039D01*
X203797694Y-94665731D01*
X203738211Y-94738211D01*
X203665731Y-94797694D01*
X203583039Y-94841894D01*
X203493312Y-94869113D01*
X203423384Y-94876000D01*
X203376616Y-94876000D01*
X203306688Y-94869113D01*
X203216961Y-94841894D01*
X203134269Y-94797694D01*
X203061789Y-94738211D01*
X203002306Y-94665731D01*
X202958106Y-94583039D01*
X202930887Y-94493312D01*
X202921697Y-94400000D01*
X202930887Y-94306688D01*
X202958106Y-94216961D01*
X203002306Y-94134269D01*
X203061789Y-94061789D01*
X203134269Y-94002306D01*
X203134275Y-94002303D01*
X203141191Y-93996627D01*
X203158518Y-93979300D01*
X203172132Y-93958925D01*
X203181509Y-93936286D01*
X203186290Y-93912253D01*
X203186290Y-93887749D01*
X203181510Y-93863715D01*
X203172133Y-93841076D01*
X203158519Y-93820701D01*
X203141191Y-93803373D01*
X203134275Y-93797697D01*
X203134269Y-93797694D01*
X203061789Y-93738211D01*
X203002306Y-93665731D01*
X202958106Y-93583039D01*
X202930887Y-93493312D01*
X202921697Y-93400000D01*
X202930887Y-93306688D01*
X202958106Y-93216961D01*
X203002306Y-93134269D01*
X203046603Y-93080294D01*
X203060212Y-93059924D01*
X203069590Y-93037285D01*
X203074370Y-93013252D01*
X203074370Y-92988747D01*
X203069589Y-92964714D01*
X203060212Y-92942075D01*
X203046598Y-92921700D01*
X203029271Y-92904373D01*
X203008896Y-92890760D01*
X202986257Y-92881382D01*
X202949972Y-92876000D01*
X202924000Y-92876000D01*
X202924000Y-91924000D01*
X203876000Y-91924000D01*
X203876000Y-92876000D01*
X203876000Y-92876000D01*
G37*
G36*
X152648903Y-90243213D02*
X152871177Y-90287426D01*
X153289932Y-90460880D01*
X153666802Y-90712696D01*
X153987304Y-91033198D01*
X154239120Y-91410068D01*
X154412574Y-91828823D01*
X154412574Y-91828824D01*
X154501000Y-92273370D01*
X154501000Y-92726630D01*
X154498377Y-92739815D01*
X154412574Y-93171177D01*
X154239120Y-93589932D01*
X153987304Y-93966802D01*
X153666802Y-94287304D01*
X153289932Y-94539120D01*
X152871177Y-94712574D01*
X152742291Y-94738211D01*
X152426630Y-94801000D01*
X151973370Y-94801000D01*
X151657709Y-94738211D01*
X151528823Y-94712574D01*
X151110068Y-94539120D01*
X150733198Y-94287304D01*
X150412696Y-93966802D01*
X150160880Y-93589932D01*
X149987426Y-93171177D01*
X149901623Y-92739815D01*
X149899000Y-92726630D01*
X149899000Y-92273370D01*
X149987426Y-91828824D01*
X149987426Y-91828823D01*
X150160880Y-91410068D01*
X150412696Y-91033198D01*
X150733198Y-90712696D01*
X151110068Y-90460880D01*
X151528823Y-90287426D01*
X151751097Y-90243213D01*
X151973370Y-90199000D01*
X152426630Y-90199000D01*
X152648903Y-90243213D01*
X152648903Y-90243213D01*
G37*
G36*
X94648903Y-90243213D02*
X94871177Y-90287426D01*
X95289932Y-90460880D01*
X95666802Y-90712696D01*
X95987304Y-91033198D01*
X96239120Y-91410068D01*
X96412574Y-91828823D01*
X96412574Y-91828824D01*
X96501000Y-92273370D01*
X96501000Y-92726630D01*
X96498377Y-92739815D01*
X96412574Y-93171177D01*
X96239120Y-93589932D01*
X95987304Y-93966802D01*
X95666802Y-94287304D01*
X95289932Y-94539120D01*
X94871177Y-94712574D01*
X94742291Y-94738211D01*
X94426630Y-94801000D01*
X93973370Y-94801000D01*
X93657709Y-94738211D01*
X93528823Y-94712574D01*
X93110068Y-94539120D01*
X92733198Y-94287304D01*
X92412696Y-93966802D01*
X92160880Y-93589932D01*
X91987426Y-93171177D01*
X91901623Y-92739815D01*
X91899000Y-92726630D01*
X91899000Y-92273370D01*
X91987426Y-91828824D01*
X91987426Y-91828823D01*
X92160880Y-91410068D01*
X92412696Y-91033198D01*
X92733198Y-90712696D01*
X93110068Y-90460880D01*
X93528823Y-90287426D01*
X93751097Y-90243213D01*
X93973370Y-90199000D01*
X94426630Y-90199000D01*
X94648903Y-90243213D01*
X94648903Y-90243213D01*
G37*
G36*
X207710442Y-92485518D02*
X207776627Y-92492037D01*
X207889853Y-92526384D01*
X207946467Y-92543557D01*
X208085087Y-92617652D01*
X208102991Y-92627222D01*
X208110682Y-92633534D01*
X208240186Y-92739814D01*
X208292348Y-92803375D01*
X208352778Y-92877009D01*
X208352779Y-92877011D01*
X208436443Y-93033533D01*
X208444448Y-93059924D01*
X208487963Y-93203373D01*
X208505359Y-93380000D01*
X208487963Y-93556627D01*
X208458663Y-93653216D01*
X208436443Y-93726467D01*
X208386073Y-93820701D01*
X208352778Y-93882991D01*
X208348873Y-93887749D01*
X208240186Y-94020186D01*
X208138729Y-94103448D01*
X208102991Y-94132778D01*
X208100194Y-94134273D01*
X207946467Y-94216443D01*
X207889853Y-94233616D01*
X207776627Y-94267963D01*
X207710443Y-94274481D01*
X207644260Y-94281000D01*
X207555740Y-94281000D01*
X207489558Y-94274482D01*
X207423373Y-94267963D01*
X207310147Y-94233616D01*
X207253533Y-94216443D01*
X207099806Y-94134273D01*
X207097009Y-94132778D01*
X207061271Y-94103448D01*
X206959814Y-94020186D01*
X206851127Y-93887749D01*
X206847222Y-93882991D01*
X206813927Y-93820701D01*
X206763557Y-93726467D01*
X206741337Y-93653216D01*
X206712037Y-93556627D01*
X206694641Y-93380000D01*
X206712037Y-93203373D01*
X206755552Y-93059924D01*
X206763557Y-93033533D01*
X206847221Y-92877011D01*
X206847222Y-92877009D01*
X206907652Y-92803375D01*
X206959814Y-92739814D01*
X207089318Y-92633534D01*
X207097009Y-92627222D01*
X207114913Y-92617652D01*
X207253533Y-92543557D01*
X207310147Y-92526384D01*
X207423373Y-92492037D01*
X207489557Y-92485519D01*
X207555740Y-92479000D01*
X207644260Y-92479000D01*
X207710442Y-92485518D01*
X207710442Y-92485518D01*
G37*
G36*
X165010442Y-92085518D02*
X165076627Y-92092037D01*
X165150196Y-92114354D01*
X165246467Y-92143557D01*
X165385087Y-92217652D01*
X165402991Y-92227222D01*
X165438729Y-92256552D01*
X165540186Y-92339814D01*
X165594810Y-92406375D01*
X165652778Y-92477009D01*
X165652779Y-92477011D01*
X165736443Y-92633533D01*
X165736443Y-92633534D01*
X165787963Y-92803373D01*
X165805359Y-92980000D01*
X165787963Y-93156627D01*
X165753616Y-93269853D01*
X165736443Y-93326467D01*
X165707750Y-93380147D01*
X165652778Y-93482991D01*
X165634188Y-93505643D01*
X165540186Y-93620186D01*
X165438729Y-93703448D01*
X165402991Y-93732778D01*
X165402989Y-93732779D01*
X165246467Y-93816443D01*
X165189853Y-93833616D01*
X165076627Y-93867963D01*
X165010443Y-93874481D01*
X164944260Y-93881000D01*
X164855740Y-93881000D01*
X164789557Y-93874481D01*
X164723373Y-93867963D01*
X164610147Y-93833616D01*
X164553533Y-93816443D01*
X164397011Y-93732779D01*
X164397009Y-93732778D01*
X164361271Y-93703448D01*
X164259814Y-93620186D01*
X164165812Y-93505643D01*
X164147222Y-93482991D01*
X164092250Y-93380147D01*
X164063557Y-93326467D01*
X164046384Y-93269853D01*
X164012037Y-93156627D01*
X163994641Y-92980000D01*
X164012037Y-92803373D01*
X164063557Y-92633534D01*
X164063557Y-92633533D01*
X164147221Y-92477011D01*
X164147222Y-92477009D01*
X164205190Y-92406375D01*
X164259814Y-92339814D01*
X164361271Y-92256552D01*
X164397009Y-92227222D01*
X164414913Y-92217652D01*
X164553533Y-92143557D01*
X164649804Y-92114354D01*
X164723373Y-92092037D01*
X164789557Y-92085519D01*
X164855740Y-92079000D01*
X164944260Y-92079000D01*
X165010442Y-92085518D01*
X165010442Y-92085518D01*
G37*
G36*
X122292812Y-90673624D02*
X122456784Y-90741544D01*
X122604354Y-90840147D01*
X122729853Y-90965646D01*
X122828456Y-91113216D01*
X122896376Y-91277188D01*
X122931000Y-91451259D01*
X122931000Y-91628741D01*
X122896376Y-91802812D01*
X122828456Y-91966784D01*
X122729853Y-92114354D01*
X122604354Y-92239853D01*
X122456784Y-92338456D01*
X122292812Y-92406376D01*
X122118741Y-92441000D01*
X121941259Y-92441000D01*
X121767188Y-92406376D01*
X121603216Y-92338456D01*
X121455646Y-92239853D01*
X121330147Y-92114354D01*
X121231544Y-91966784D01*
X121163624Y-91802812D01*
X121129000Y-91628741D01*
X121129000Y-91451259D01*
X121163624Y-91277188D01*
X121231544Y-91113216D01*
X121330147Y-90965646D01*
X121455646Y-90840147D01*
X121603216Y-90741544D01*
X121767188Y-90673624D01*
X121941259Y-90639000D01*
X122118741Y-90639000D01*
X122292812Y-90673624D01*
X122292812Y-90673624D01*
G37*
G36*
X147692812Y-90673624D02*
X147856784Y-90741544D01*
X148004354Y-90840147D01*
X148129853Y-90965646D01*
X148228456Y-91113216D01*
X148296376Y-91277188D01*
X148331000Y-91451259D01*
X148331000Y-91628741D01*
X148296376Y-91802812D01*
X148228456Y-91966784D01*
X148129853Y-92114354D01*
X148004354Y-92239853D01*
X147856784Y-92338456D01*
X147692812Y-92406376D01*
X147518741Y-92441000D01*
X147341259Y-92441000D01*
X147167188Y-92406376D01*
X147003216Y-92338456D01*
X146855646Y-92239853D01*
X146730147Y-92114354D01*
X146631544Y-91966784D01*
X146563624Y-91802812D01*
X146529000Y-91628741D01*
X146529000Y-91451259D01*
X146563624Y-91277188D01*
X146631544Y-91113216D01*
X146730147Y-90965646D01*
X146855646Y-90840147D01*
X147003216Y-90741544D01*
X147167188Y-90673624D01*
X147341259Y-90639000D01*
X147518741Y-90639000D01*
X147692812Y-90673624D01*
X147692812Y-90673624D01*
G37*
G36*
X145152812Y-90673624D02*
X145316784Y-90741544D01*
X145464354Y-90840147D01*
X145589853Y-90965646D01*
X145688456Y-91113216D01*
X145756376Y-91277188D01*
X145791000Y-91451259D01*
X145791000Y-91628741D01*
X145756376Y-91802812D01*
X145688456Y-91966784D01*
X145589853Y-92114354D01*
X145464354Y-92239853D01*
X145316784Y-92338456D01*
X145152812Y-92406376D01*
X144978741Y-92441000D01*
X144801259Y-92441000D01*
X144627188Y-92406376D01*
X144463216Y-92338456D01*
X144315646Y-92239853D01*
X144190147Y-92114354D01*
X144091544Y-91966784D01*
X144023624Y-91802812D01*
X143989000Y-91628741D01*
X143989000Y-91451259D01*
X144023624Y-91277188D01*
X144091544Y-91113216D01*
X144190147Y-90965646D01*
X144315646Y-90840147D01*
X144463216Y-90741544D01*
X144627188Y-90673624D01*
X144801259Y-90639000D01*
X144978741Y-90639000D01*
X145152812Y-90673624D01*
X145152812Y-90673624D01*
G37*
G36*
X142612812Y-90673624D02*
X142776784Y-90741544D01*
X142924354Y-90840147D01*
X143049853Y-90965646D01*
X143148456Y-91113216D01*
X143216376Y-91277188D01*
X143251000Y-91451259D01*
X143251000Y-91628741D01*
X143216376Y-91802812D01*
X143148456Y-91966784D01*
X143049853Y-92114354D01*
X142924354Y-92239853D01*
X142776784Y-92338456D01*
X142612812Y-92406376D01*
X142438741Y-92441000D01*
X142261259Y-92441000D01*
X142087188Y-92406376D01*
X141923216Y-92338456D01*
X141775646Y-92239853D01*
X141650147Y-92114354D01*
X141551544Y-91966784D01*
X141483624Y-91802812D01*
X141449000Y-91628741D01*
X141449000Y-91451259D01*
X141483624Y-91277188D01*
X141551544Y-91113216D01*
X141650147Y-90965646D01*
X141775646Y-90840147D01*
X141923216Y-90741544D01*
X142087188Y-90673624D01*
X142261259Y-90639000D01*
X142438741Y-90639000D01*
X142612812Y-90673624D01*
X142612812Y-90673624D01*
G37*
G36*
X134992812Y-90673624D02*
X135156784Y-90741544D01*
X135304354Y-90840147D01*
X135429853Y-90965646D01*
X135528456Y-91113216D01*
X135596376Y-91277188D01*
X135631000Y-91451259D01*
X135631000Y-91628741D01*
X135596376Y-91802812D01*
X135528456Y-91966784D01*
X135429853Y-92114354D01*
X135304354Y-92239853D01*
X135156784Y-92338456D01*
X134992812Y-92406376D01*
X134818741Y-92441000D01*
X134641259Y-92441000D01*
X134467188Y-92406376D01*
X134303216Y-92338456D01*
X134155646Y-92239853D01*
X134030147Y-92114354D01*
X133931544Y-91966784D01*
X133863624Y-91802812D01*
X133829000Y-91628741D01*
X133829000Y-91451259D01*
X133863624Y-91277188D01*
X133931544Y-91113216D01*
X134030147Y-90965646D01*
X134155646Y-90840147D01*
X134303216Y-90741544D01*
X134467188Y-90673624D01*
X134641259Y-90639000D01*
X134818741Y-90639000D01*
X134992812Y-90673624D01*
X134992812Y-90673624D01*
G37*
G36*
X140072812Y-90673624D02*
X140236784Y-90741544D01*
X140384354Y-90840147D01*
X140509853Y-90965646D01*
X140608456Y-91113216D01*
X140676376Y-91277188D01*
X140711000Y-91451259D01*
X140711000Y-91628741D01*
X140676376Y-91802812D01*
X140608456Y-91966784D01*
X140509853Y-92114354D01*
X140384354Y-92239853D01*
X140236784Y-92338456D01*
X140072812Y-92406376D01*
X139898741Y-92441000D01*
X139721259Y-92441000D01*
X139547188Y-92406376D01*
X139383216Y-92338456D01*
X139235646Y-92239853D01*
X139110147Y-92114354D01*
X139011544Y-91966784D01*
X138943624Y-91802812D01*
X138909000Y-91628741D01*
X138909000Y-91451259D01*
X138943624Y-91277188D01*
X139011544Y-91113216D01*
X139110147Y-90965646D01*
X139235646Y-90840147D01*
X139383216Y-90741544D01*
X139547188Y-90673624D01*
X139721259Y-90639000D01*
X139898741Y-90639000D01*
X140072812Y-90673624D01*
X140072812Y-90673624D01*
G37*
G36*
X99432812Y-90673624D02*
X99596784Y-90741544D01*
X99744354Y-90840147D01*
X99869853Y-90965646D01*
X99968456Y-91113216D01*
X100036376Y-91277188D01*
X100071000Y-91451259D01*
X100071000Y-91628741D01*
X100036376Y-91802812D01*
X99968456Y-91966784D01*
X99869853Y-92114354D01*
X99744354Y-92239853D01*
X99596784Y-92338456D01*
X99432812Y-92406376D01*
X99258741Y-92441000D01*
X99081259Y-92441000D01*
X98907188Y-92406376D01*
X98743216Y-92338456D01*
X98595646Y-92239853D01*
X98470147Y-92114354D01*
X98371544Y-91966784D01*
X98303624Y-91802812D01*
X98269000Y-91628741D01*
X98269000Y-91451259D01*
X98303624Y-91277188D01*
X98371544Y-91113216D01*
X98470147Y-90965646D01*
X98595646Y-90840147D01*
X98743216Y-90741544D01*
X98907188Y-90673624D01*
X99081259Y-90639000D01*
X99258741Y-90639000D01*
X99432812Y-90673624D01*
X99432812Y-90673624D01*
G37*
G36*
X137532812Y-90673624D02*
X137696784Y-90741544D01*
X137844354Y-90840147D01*
X137969853Y-90965646D01*
X138068456Y-91113216D01*
X138136376Y-91277188D01*
X138171000Y-91451259D01*
X138171000Y-91628741D01*
X138136376Y-91802812D01*
X138068456Y-91966784D01*
X137969853Y-92114354D01*
X137844354Y-92239853D01*
X137696784Y-92338456D01*
X137532812Y-92406376D01*
X137358741Y-92441000D01*
X137181259Y-92441000D01*
X137007188Y-92406376D01*
X136843216Y-92338456D01*
X136695646Y-92239853D01*
X136570147Y-92114354D01*
X136471544Y-91966784D01*
X136403624Y-91802812D01*
X136369000Y-91628741D01*
X136369000Y-91451259D01*
X136403624Y-91277188D01*
X136471544Y-91113216D01*
X136570147Y-90965646D01*
X136695646Y-90840147D01*
X136843216Y-90741544D01*
X137007188Y-90673624D01*
X137181259Y-90639000D01*
X137358741Y-90639000D01*
X137532812Y-90673624D01*
X137532812Y-90673624D01*
G37*
G36*
X101972812Y-90673624D02*
X102136784Y-90741544D01*
X102284354Y-90840147D01*
X102409853Y-90965646D01*
X102508456Y-91113216D01*
X102576376Y-91277188D01*
X102611000Y-91451259D01*
X102611000Y-91628741D01*
X102576376Y-91802812D01*
X102508456Y-91966784D01*
X102409853Y-92114354D01*
X102284354Y-92239853D01*
X102136784Y-92338456D01*
X101972812Y-92406376D01*
X101798741Y-92441000D01*
X101621259Y-92441000D01*
X101447188Y-92406376D01*
X101283216Y-92338456D01*
X101135646Y-92239853D01*
X101010147Y-92114354D01*
X100911544Y-91966784D01*
X100843624Y-91802812D01*
X100809000Y-91628741D01*
X100809000Y-91451259D01*
X100843624Y-91277188D01*
X100911544Y-91113216D01*
X101010147Y-90965646D01*
X101135646Y-90840147D01*
X101283216Y-90741544D01*
X101447188Y-90673624D01*
X101621259Y-90639000D01*
X101798741Y-90639000D01*
X101972812Y-90673624D01*
X101972812Y-90673624D01*
G37*
G36*
X112132812Y-90673624D02*
X112296784Y-90741544D01*
X112444354Y-90840147D01*
X112569853Y-90965646D01*
X112668456Y-91113216D01*
X112736376Y-91277188D01*
X112771000Y-91451259D01*
X112771000Y-91628741D01*
X112736376Y-91802812D01*
X112668456Y-91966784D01*
X112569853Y-92114354D01*
X112444354Y-92239853D01*
X112296784Y-92338456D01*
X112132812Y-92406376D01*
X111958741Y-92441000D01*
X111781259Y-92441000D01*
X111607188Y-92406376D01*
X111443216Y-92338456D01*
X111295646Y-92239853D01*
X111170147Y-92114354D01*
X111071544Y-91966784D01*
X111003624Y-91802812D01*
X110969000Y-91628741D01*
X110969000Y-91451259D01*
X111003624Y-91277188D01*
X111071544Y-91113216D01*
X111170147Y-90965646D01*
X111295646Y-90840147D01*
X111443216Y-90741544D01*
X111607188Y-90673624D01*
X111781259Y-90639000D01*
X111958741Y-90639000D01*
X112132812Y-90673624D01*
X112132812Y-90673624D01*
G37*
G36*
X132452812Y-90673624D02*
X132616784Y-90741544D01*
X132764354Y-90840147D01*
X132889853Y-90965646D01*
X132988456Y-91113216D01*
X133056376Y-91277188D01*
X133091000Y-91451259D01*
X133091000Y-91628741D01*
X133056376Y-91802812D01*
X132988456Y-91966784D01*
X132889853Y-92114354D01*
X132764354Y-92239853D01*
X132616784Y-92338456D01*
X132452812Y-92406376D01*
X132278741Y-92441000D01*
X132101259Y-92441000D01*
X131927188Y-92406376D01*
X131763216Y-92338456D01*
X131615646Y-92239853D01*
X131490147Y-92114354D01*
X131391544Y-91966784D01*
X131323624Y-91802812D01*
X131289000Y-91628741D01*
X131289000Y-91451259D01*
X131323624Y-91277188D01*
X131391544Y-91113216D01*
X131490147Y-90965646D01*
X131615646Y-90840147D01*
X131763216Y-90741544D01*
X131927188Y-90673624D01*
X132101259Y-90639000D01*
X132278741Y-90639000D01*
X132452812Y-90673624D01*
X132452812Y-90673624D01*
G37*
G36*
X107052812Y-90673624D02*
X107216784Y-90741544D01*
X107364354Y-90840147D01*
X107489853Y-90965646D01*
X107588456Y-91113216D01*
X107656376Y-91277188D01*
X107691000Y-91451259D01*
X107691000Y-91628741D01*
X107656376Y-91802812D01*
X107588456Y-91966784D01*
X107489853Y-92114354D01*
X107364354Y-92239853D01*
X107216784Y-92338456D01*
X107052812Y-92406376D01*
X106878741Y-92441000D01*
X106701259Y-92441000D01*
X106527188Y-92406376D01*
X106363216Y-92338456D01*
X106215646Y-92239853D01*
X106090147Y-92114354D01*
X105991544Y-91966784D01*
X105923624Y-91802812D01*
X105889000Y-91628741D01*
X105889000Y-91451259D01*
X105923624Y-91277188D01*
X105991544Y-91113216D01*
X106090147Y-90965646D01*
X106215646Y-90840147D01*
X106363216Y-90741544D01*
X106527188Y-90673624D01*
X106701259Y-90639000D01*
X106878741Y-90639000D01*
X107052812Y-90673624D01*
X107052812Y-90673624D01*
G37*
G36*
X129912812Y-90673624D02*
X130076784Y-90741544D01*
X130224354Y-90840147D01*
X130349853Y-90965646D01*
X130448456Y-91113216D01*
X130516376Y-91277188D01*
X130551000Y-91451259D01*
X130551000Y-91628741D01*
X130516376Y-91802812D01*
X130448456Y-91966784D01*
X130349853Y-92114354D01*
X130224354Y-92239853D01*
X130076784Y-92338456D01*
X129912812Y-92406376D01*
X129738741Y-92441000D01*
X129561259Y-92441000D01*
X129387188Y-92406376D01*
X129223216Y-92338456D01*
X129075646Y-92239853D01*
X128950147Y-92114354D01*
X128851544Y-91966784D01*
X128783624Y-91802812D01*
X128749000Y-91628741D01*
X128749000Y-91451259D01*
X128783624Y-91277188D01*
X128851544Y-91113216D01*
X128950147Y-90965646D01*
X129075646Y-90840147D01*
X129223216Y-90741544D01*
X129387188Y-90673624D01*
X129561259Y-90639000D01*
X129738741Y-90639000D01*
X129912812Y-90673624D01*
X129912812Y-90673624D01*
G37*
G36*
X109592812Y-90673624D02*
X109756784Y-90741544D01*
X109904354Y-90840147D01*
X110029853Y-90965646D01*
X110128456Y-91113216D01*
X110196376Y-91277188D01*
X110231000Y-91451259D01*
X110231000Y-91628741D01*
X110196376Y-91802812D01*
X110128456Y-91966784D01*
X110029853Y-92114354D01*
X109904354Y-92239853D01*
X109756784Y-92338456D01*
X109592812Y-92406376D01*
X109418741Y-92441000D01*
X109241259Y-92441000D01*
X109067188Y-92406376D01*
X108903216Y-92338456D01*
X108755646Y-92239853D01*
X108630147Y-92114354D01*
X108531544Y-91966784D01*
X108463624Y-91802812D01*
X108429000Y-91628741D01*
X108429000Y-91451259D01*
X108463624Y-91277188D01*
X108531544Y-91113216D01*
X108630147Y-90965646D01*
X108755646Y-90840147D01*
X108903216Y-90741544D01*
X109067188Y-90673624D01*
X109241259Y-90639000D01*
X109418741Y-90639000D01*
X109592812Y-90673624D01*
X109592812Y-90673624D01*
G37*
G36*
X127372812Y-90673624D02*
X127536784Y-90741544D01*
X127684354Y-90840147D01*
X127809853Y-90965646D01*
X127908456Y-91113216D01*
X127976376Y-91277188D01*
X128011000Y-91451259D01*
X128011000Y-91628741D01*
X127976376Y-91802812D01*
X127908456Y-91966784D01*
X127809853Y-92114354D01*
X127684354Y-92239853D01*
X127536784Y-92338456D01*
X127372812Y-92406376D01*
X127198741Y-92441000D01*
X127021259Y-92441000D01*
X126847188Y-92406376D01*
X126683216Y-92338456D01*
X126535646Y-92239853D01*
X126410147Y-92114354D01*
X126311544Y-91966784D01*
X126243624Y-91802812D01*
X126209000Y-91628741D01*
X126209000Y-91451259D01*
X126243624Y-91277188D01*
X126311544Y-91113216D01*
X126410147Y-90965646D01*
X126535646Y-90840147D01*
X126683216Y-90741544D01*
X126847188Y-90673624D01*
X127021259Y-90639000D01*
X127198741Y-90639000D01*
X127372812Y-90673624D01*
X127372812Y-90673624D01*
G37*
G36*
X124832812Y-90673624D02*
X124996784Y-90741544D01*
X125144354Y-90840147D01*
X125269853Y-90965646D01*
X125368456Y-91113216D01*
X125436376Y-91277188D01*
X125471000Y-91451259D01*
X125471000Y-91628741D01*
X125436376Y-91802812D01*
X125368456Y-91966784D01*
X125269853Y-92114354D01*
X125144354Y-92239853D01*
X124996784Y-92338456D01*
X124832812Y-92406376D01*
X124658741Y-92441000D01*
X124481259Y-92441000D01*
X124307188Y-92406376D01*
X124143216Y-92338456D01*
X123995646Y-92239853D01*
X123870147Y-92114354D01*
X123771544Y-91966784D01*
X123703624Y-91802812D01*
X123669000Y-91628741D01*
X123669000Y-91451259D01*
X123703624Y-91277188D01*
X123771544Y-91113216D01*
X123870147Y-90965646D01*
X123995646Y-90840147D01*
X124143216Y-90741544D01*
X124307188Y-90673624D01*
X124481259Y-90639000D01*
X124658741Y-90639000D01*
X124832812Y-90673624D01*
X124832812Y-90673624D01*
G37*
G36*
X114672812Y-90673624D02*
X114836784Y-90741544D01*
X114984354Y-90840147D01*
X115109853Y-90965646D01*
X115208456Y-91113216D01*
X115276376Y-91277188D01*
X115311000Y-91451259D01*
X115311000Y-91628741D01*
X115276376Y-91802812D01*
X115208456Y-91966784D01*
X115109853Y-92114354D01*
X114984354Y-92239853D01*
X114836784Y-92338456D01*
X114672812Y-92406376D01*
X114498741Y-92441000D01*
X114321259Y-92441000D01*
X114147188Y-92406376D01*
X113983216Y-92338456D01*
X113835646Y-92239853D01*
X113710147Y-92114354D01*
X113611544Y-91966784D01*
X113543624Y-91802812D01*
X113509000Y-91628741D01*
X113509000Y-91451259D01*
X113543624Y-91277188D01*
X113611544Y-91113216D01*
X113710147Y-90965646D01*
X113835646Y-90840147D01*
X113983216Y-90741544D01*
X114147188Y-90673624D01*
X114321259Y-90639000D01*
X114498741Y-90639000D01*
X114672812Y-90673624D01*
X114672812Y-90673624D01*
G37*
G36*
X119752812Y-90673624D02*
X119916784Y-90741544D01*
X120064354Y-90840147D01*
X120189853Y-90965646D01*
X120288456Y-91113216D01*
X120356376Y-91277188D01*
X120391000Y-91451259D01*
X120391000Y-91628741D01*
X120356376Y-91802812D01*
X120288456Y-91966784D01*
X120189853Y-92114354D01*
X120064354Y-92239853D01*
X119916784Y-92338456D01*
X119752812Y-92406376D01*
X119578741Y-92441000D01*
X119401259Y-92441000D01*
X119227188Y-92406376D01*
X119063216Y-92338456D01*
X118915646Y-92239853D01*
X118790147Y-92114354D01*
X118691544Y-91966784D01*
X118623624Y-91802812D01*
X118589000Y-91628741D01*
X118589000Y-91451259D01*
X118623624Y-91277188D01*
X118691544Y-91113216D01*
X118790147Y-90965646D01*
X118915646Y-90840147D01*
X119063216Y-90741544D01*
X119227188Y-90673624D01*
X119401259Y-90639000D01*
X119578741Y-90639000D01*
X119752812Y-90673624D01*
X119752812Y-90673624D01*
G37*
G36*
X117212812Y-90673624D02*
X117376784Y-90741544D01*
X117524354Y-90840147D01*
X117649853Y-90965646D01*
X117748456Y-91113216D01*
X117816376Y-91277188D01*
X117851000Y-91451259D01*
X117851000Y-91628741D01*
X117816376Y-91802812D01*
X117748456Y-91966784D01*
X117649853Y-92114354D01*
X117524354Y-92239853D01*
X117376784Y-92338456D01*
X117212812Y-92406376D01*
X117038741Y-92441000D01*
X116861259Y-92441000D01*
X116687188Y-92406376D01*
X116523216Y-92338456D01*
X116375646Y-92239853D01*
X116250147Y-92114354D01*
X116151544Y-91966784D01*
X116083624Y-91802812D01*
X116049000Y-91628741D01*
X116049000Y-91451259D01*
X116083624Y-91277188D01*
X116151544Y-91113216D01*
X116250147Y-90965646D01*
X116375646Y-90840147D01*
X116523216Y-90741544D01*
X116687188Y-90673624D01*
X116861259Y-90639000D01*
X117038741Y-90639000D01*
X117212812Y-90673624D01*
X117212812Y-90673624D01*
G37*
G36*
X104512812Y-90673624D02*
X104676784Y-90741544D01*
X104824354Y-90840147D01*
X104949853Y-90965646D01*
X105048456Y-91113216D01*
X105116376Y-91277188D01*
X105151000Y-91451259D01*
X105151000Y-91628741D01*
X105116376Y-91802812D01*
X105048456Y-91966784D01*
X104949853Y-92114354D01*
X104824354Y-92239853D01*
X104676784Y-92338456D01*
X104512812Y-92406376D01*
X104338741Y-92441000D01*
X104161259Y-92441000D01*
X103987188Y-92406376D01*
X103823216Y-92338456D01*
X103675646Y-92239853D01*
X103550147Y-92114354D01*
X103451544Y-91966784D01*
X103383624Y-91802812D01*
X103349000Y-91628741D01*
X103349000Y-91451259D01*
X103383624Y-91277188D01*
X103451544Y-91113216D01*
X103550147Y-90965646D01*
X103675646Y-90840147D01*
X103823216Y-90741544D01*
X103987188Y-90673624D01*
X104161259Y-90639000D01*
X104338741Y-90639000D01*
X104512812Y-90673624D01*
X104512812Y-90673624D01*
G37*
G36*
X207710442Y-89945518D02*
X207776627Y-89952037D01*
X207889853Y-89986384D01*
X207946467Y-90003557D01*
X208085087Y-90077652D01*
X208102991Y-90087222D01*
X208110682Y-90093534D01*
X208240186Y-90199814D01*
X208292348Y-90263375D01*
X208352778Y-90337009D01*
X208352779Y-90337011D01*
X208436443Y-90493533D01*
X208436443Y-90493534D01*
X208487963Y-90663373D01*
X208505359Y-90840000D01*
X208487963Y-91016627D01*
X208458663Y-91113216D01*
X208436443Y-91186467D01*
X208433069Y-91192779D01*
X208352778Y-91342991D01*
X208323448Y-91378729D01*
X208240186Y-91480186D01*
X208138729Y-91563448D01*
X208102991Y-91592778D01*
X208102989Y-91592779D01*
X207946467Y-91676443D01*
X207889853Y-91693616D01*
X207776627Y-91727963D01*
X207710442Y-91734482D01*
X207644260Y-91741000D01*
X207555740Y-91741000D01*
X207489558Y-91734482D01*
X207423373Y-91727963D01*
X207310147Y-91693616D01*
X207253533Y-91676443D01*
X207097011Y-91592779D01*
X207097009Y-91592778D01*
X207061271Y-91563448D01*
X206959814Y-91480186D01*
X206876552Y-91378729D01*
X206847222Y-91342991D01*
X206766931Y-91192779D01*
X206763557Y-91186467D01*
X206741337Y-91113216D01*
X206712037Y-91016627D01*
X206694641Y-90840000D01*
X206712037Y-90663373D01*
X206763557Y-90493534D01*
X206763557Y-90493533D01*
X206847221Y-90337011D01*
X206847222Y-90337009D01*
X206907652Y-90263375D01*
X206959814Y-90199814D01*
X207089318Y-90093534D01*
X207097009Y-90087222D01*
X207114913Y-90077652D01*
X207253533Y-90003557D01*
X207310147Y-89986384D01*
X207423373Y-89952037D01*
X207489558Y-89945518D01*
X207555740Y-89939000D01*
X207644260Y-89939000D01*
X207710442Y-89945518D01*
X207710442Y-89945518D01*
G37*
G36*
X165010443Y-89545519D02*
X165076627Y-89552037D01*
X165189853Y-89586384D01*
X165246467Y-89603557D01*
X165385087Y-89677652D01*
X165402991Y-89687222D01*
X165438729Y-89716552D01*
X165540186Y-89799814D01*
X165623448Y-89901271D01*
X165652778Y-89937009D01*
X165652779Y-89937011D01*
X165736443Y-90093533D01*
X165736443Y-90093534D01*
X165787963Y-90263373D01*
X165805359Y-90440000D01*
X165787963Y-90616627D01*
X165773782Y-90663375D01*
X165736443Y-90786467D01*
X165707750Y-90840147D01*
X165652778Y-90942991D01*
X165634188Y-90965643D01*
X165540186Y-91080186D01*
X165438729Y-91163448D01*
X165402991Y-91192778D01*
X165402989Y-91192779D01*
X165246467Y-91276443D01*
X165189853Y-91293616D01*
X165076627Y-91327963D01*
X165010442Y-91334482D01*
X164944260Y-91341000D01*
X164855740Y-91341000D01*
X164789558Y-91334482D01*
X164723373Y-91327963D01*
X164610147Y-91293616D01*
X164553533Y-91276443D01*
X164397011Y-91192779D01*
X164397009Y-91192778D01*
X164361271Y-91163448D01*
X164259814Y-91080186D01*
X164165812Y-90965643D01*
X164147222Y-90942991D01*
X164092250Y-90840147D01*
X164063557Y-90786467D01*
X164026218Y-90663375D01*
X164012037Y-90616627D01*
X163994641Y-90440000D01*
X164012037Y-90263373D01*
X164063557Y-90093534D01*
X164063557Y-90093533D01*
X164147221Y-89937011D01*
X164147222Y-89937009D01*
X164176552Y-89901271D01*
X164259814Y-89799814D01*
X164361271Y-89716552D01*
X164397009Y-89687222D01*
X164414913Y-89677652D01*
X164553533Y-89603557D01*
X164610147Y-89586384D01*
X164723373Y-89552037D01*
X164789558Y-89545518D01*
X164855740Y-89539000D01*
X164944260Y-89539000D01*
X165010443Y-89545519D01*
X165010443Y-89545519D01*
G37*
G36*
X207710442Y-87405518D02*
X207776627Y-87412037D01*
X207889853Y-87446384D01*
X207946467Y-87463557D01*
X208085087Y-87537652D01*
X208102991Y-87547222D01*
X208138729Y-87576552D01*
X208240186Y-87659814D01*
X208323448Y-87761271D01*
X208352778Y-87797009D01*
X208352779Y-87797011D01*
X208436443Y-87953533D01*
X208436443Y-87953534D01*
X208487963Y-88123373D01*
X208505359Y-88300000D01*
X208487963Y-88476627D01*
X208453616Y-88589853D01*
X208436443Y-88646467D01*
X208362348Y-88785087D01*
X208352778Y-88802991D01*
X208323448Y-88838729D01*
X208240186Y-88940186D01*
X208138729Y-89023448D01*
X208102991Y-89052778D01*
X208102989Y-89052779D01*
X207946467Y-89136443D01*
X207889853Y-89153616D01*
X207776627Y-89187963D01*
X207710443Y-89194481D01*
X207644260Y-89201000D01*
X207555740Y-89201000D01*
X207489557Y-89194481D01*
X207423373Y-89187963D01*
X207310147Y-89153616D01*
X207253533Y-89136443D01*
X207097011Y-89052779D01*
X207097009Y-89052778D01*
X207061271Y-89023448D01*
X206959814Y-88940186D01*
X206876552Y-88838729D01*
X206847222Y-88802991D01*
X206837652Y-88785087D01*
X206763557Y-88646467D01*
X206746384Y-88589853D01*
X206712037Y-88476627D01*
X206694641Y-88300000D01*
X206712037Y-88123373D01*
X206763557Y-87953534D01*
X206763557Y-87953533D01*
X206847221Y-87797011D01*
X206847222Y-87797009D01*
X206876552Y-87761271D01*
X206959814Y-87659814D01*
X207061271Y-87576552D01*
X207097009Y-87547222D01*
X207114913Y-87537652D01*
X207253533Y-87463557D01*
X207310147Y-87446384D01*
X207423373Y-87412037D01*
X207489558Y-87405518D01*
X207555740Y-87399000D01*
X207644260Y-87399000D01*
X207710442Y-87405518D01*
X207710442Y-87405518D01*
G37*
G36*
X165801000Y-88801000D02*
X163999000Y-88801000D01*
X163999000Y-86999000D01*
X165801000Y-86999000D01*
X165801000Y-88801000D01*
X165801000Y-88801000D01*
G37*
G36*
X207710443Y-84865519D02*
X207776627Y-84872037D01*
X207889853Y-84906384D01*
X207946467Y-84923557D01*
X208085087Y-84997652D01*
X208102991Y-85007222D01*
X208138729Y-85036552D01*
X208240186Y-85119814D01*
X208323448Y-85221271D01*
X208352778Y-85257009D01*
X208352779Y-85257011D01*
X208436443Y-85413533D01*
X208436443Y-85413534D01*
X208487963Y-85583373D01*
X208505359Y-85760000D01*
X208487963Y-85936627D01*
X208453616Y-86049853D01*
X208436443Y-86106467D01*
X208362348Y-86245087D01*
X208352778Y-86262991D01*
X208323448Y-86298729D01*
X208240186Y-86400186D01*
X208138729Y-86483448D01*
X208102991Y-86512778D01*
X208102989Y-86512779D01*
X207946467Y-86596443D01*
X207889853Y-86613616D01*
X207776627Y-86647963D01*
X207710443Y-86654481D01*
X207644260Y-86661000D01*
X207555740Y-86661000D01*
X207489558Y-86654482D01*
X207423373Y-86647963D01*
X207310147Y-86613616D01*
X207253533Y-86596443D01*
X207097011Y-86512779D01*
X207097009Y-86512778D01*
X207061271Y-86483448D01*
X206959814Y-86400186D01*
X206876552Y-86298729D01*
X206847222Y-86262991D01*
X206837652Y-86245087D01*
X206763557Y-86106467D01*
X206746384Y-86049853D01*
X206712037Y-85936627D01*
X206694641Y-85760000D01*
X206712037Y-85583373D01*
X206763557Y-85413534D01*
X206763557Y-85413533D01*
X206847221Y-85257011D01*
X206847222Y-85257009D01*
X206876552Y-85221271D01*
X206959814Y-85119814D01*
X207061271Y-85036552D01*
X207097009Y-85007222D01*
X207114913Y-84997652D01*
X207253533Y-84923557D01*
X207310147Y-84906384D01*
X207423373Y-84872037D01*
X207489557Y-84865519D01*
X207555740Y-84859000D01*
X207644260Y-84859000D01*
X207710443Y-84865519D01*
X207710443Y-84865519D01*
G37*
G36*
X207710443Y-82325519D02*
X207776627Y-82332037D01*
X207889853Y-82366384D01*
X207946467Y-82383557D01*
X208085087Y-82457652D01*
X208102991Y-82467222D01*
X208138729Y-82496552D01*
X208240186Y-82579814D01*
X208323448Y-82681271D01*
X208352778Y-82717009D01*
X208352779Y-82717011D01*
X208436443Y-82873533D01*
X208436443Y-82873534D01*
X208487963Y-83043373D01*
X208505359Y-83220000D01*
X208487963Y-83396627D01*
X208453616Y-83509853D01*
X208436443Y-83566467D01*
X208362348Y-83705087D01*
X208352778Y-83722991D01*
X208323448Y-83758729D01*
X208240186Y-83860186D01*
X208138729Y-83943448D01*
X208102991Y-83972778D01*
X208102989Y-83972779D01*
X207946467Y-84056443D01*
X207889853Y-84073616D01*
X207776627Y-84107963D01*
X207710443Y-84114481D01*
X207644260Y-84121000D01*
X207555740Y-84121000D01*
X207489557Y-84114481D01*
X207423373Y-84107963D01*
X207310147Y-84073616D01*
X207253533Y-84056443D01*
X207097011Y-83972779D01*
X207097009Y-83972778D01*
X207061271Y-83943448D01*
X206959814Y-83860186D01*
X206876552Y-83758729D01*
X206847222Y-83722991D01*
X206837652Y-83705087D01*
X206763557Y-83566467D01*
X206746384Y-83509853D01*
X206712037Y-83396627D01*
X206694641Y-83220000D01*
X206712037Y-83043373D01*
X206763557Y-82873534D01*
X206763557Y-82873533D01*
X206847221Y-82717011D01*
X206847222Y-82717009D01*
X206876552Y-82681271D01*
X206959814Y-82579814D01*
X207061271Y-82496552D01*
X207097009Y-82467222D01*
X207114913Y-82457652D01*
X207253533Y-82383557D01*
X207310147Y-82366384D01*
X207423373Y-82332037D01*
X207489557Y-82325519D01*
X207555740Y-82319000D01*
X207644260Y-82319000D01*
X207710443Y-82325519D01*
X207710443Y-82325519D01*
G37*
G36*
X203151000Y-79751000D02*
X200849000Y-79751000D01*
X200849000Y-77449000D01*
X203151000Y-77449000D01*
X203151000Y-79751000D01*
X203151000Y-79751000D01*
G37*
G36*
X202335734Y-73683232D02*
X202545202Y-73769996D01*
X202733723Y-73895962D01*
X202894038Y-74056277D01*
X203020004Y-74244798D01*
X203106768Y-74454266D01*
X203151000Y-74676635D01*
X203151000Y-74903365D01*
X203106768Y-75125734D01*
X203020004Y-75335202D01*
X202894038Y-75523723D01*
X202733723Y-75684038D01*
X202545202Y-75810004D01*
X202335734Y-75896768D01*
X202113365Y-75941000D01*
X201886635Y-75941000D01*
X201664266Y-75896768D01*
X201454798Y-75810004D01*
X201266277Y-75684038D01*
X201105962Y-75523723D01*
X200979996Y-75335202D01*
X200893232Y-75125734D01*
X200849000Y-74903365D01*
X200849000Y-74676635D01*
X200893232Y-74454266D01*
X200979996Y-74244798D01*
X201105962Y-74056277D01*
X201266277Y-73895962D01*
X201454798Y-73769996D01*
X201664266Y-73683232D01*
X201886635Y-73639000D01*
X202113365Y-73639000D01*
X202335734Y-73683232D01*
X202335734Y-73683232D01*
G37*
G36*
X154501000Y-72701000D02*
X152699000Y-72701000D01*
X152699000Y-70899000D01*
X154501000Y-70899000D01*
X154501000Y-72701000D01*
X154501000Y-72701000D01*
G37*
G36*
X148630443Y-70905519D02*
X148696627Y-70912037D01*
X148809853Y-70946384D01*
X148866467Y-70963557D01*
X149005087Y-71037652D01*
X149022991Y-71047222D01*
X149058729Y-71076552D01*
X149160186Y-71159814D01*
X149243448Y-71261271D01*
X149272778Y-71297009D01*
X149272779Y-71297011D01*
X149356443Y-71453533D01*
X149356443Y-71453534D01*
X149407963Y-71623373D01*
X149425359Y-71800000D01*
X149407963Y-71976627D01*
X149374552Y-72086768D01*
X149356443Y-72146467D01*
X149282348Y-72285087D01*
X149272778Y-72302991D01*
X149243448Y-72338729D01*
X149160186Y-72440186D01*
X149058729Y-72523448D01*
X149022991Y-72552778D01*
X149022989Y-72552779D01*
X148866467Y-72636443D01*
X148809853Y-72653616D01*
X148696627Y-72687963D01*
X148630443Y-72694481D01*
X148564260Y-72701000D01*
X148475740Y-72701000D01*
X148409557Y-72694481D01*
X148343373Y-72687963D01*
X148230147Y-72653616D01*
X148173533Y-72636443D01*
X148017011Y-72552779D01*
X148017009Y-72552778D01*
X147981271Y-72523448D01*
X147879814Y-72440186D01*
X147796552Y-72338729D01*
X147767222Y-72302991D01*
X147757652Y-72285087D01*
X147683557Y-72146467D01*
X147665448Y-72086768D01*
X147632037Y-71976627D01*
X147614641Y-71800000D01*
X147632037Y-71623373D01*
X147683557Y-71453534D01*
X147683557Y-71453533D01*
X147767221Y-71297011D01*
X147767222Y-71297009D01*
X147796552Y-71261271D01*
X147879814Y-71159814D01*
X147981271Y-71076552D01*
X148017009Y-71047222D01*
X148034913Y-71037652D01*
X148173533Y-70963557D01*
X148230147Y-70946384D01*
X148343373Y-70912037D01*
X148409557Y-70905519D01*
X148475740Y-70899000D01*
X148564260Y-70899000D01*
X148630443Y-70905519D01*
X148630443Y-70905519D01*
G37*
G36*
X151170443Y-70905519D02*
X151236627Y-70912037D01*
X151349853Y-70946384D01*
X151406467Y-70963557D01*
X151545087Y-71037652D01*
X151562991Y-71047222D01*
X151598729Y-71076552D01*
X151700186Y-71159814D01*
X151783448Y-71261271D01*
X151812778Y-71297009D01*
X151812779Y-71297011D01*
X151896443Y-71453533D01*
X151896443Y-71453534D01*
X151947963Y-71623373D01*
X151965359Y-71800000D01*
X151947963Y-71976627D01*
X151914552Y-72086768D01*
X151896443Y-72146467D01*
X151822348Y-72285087D01*
X151812778Y-72302991D01*
X151783448Y-72338729D01*
X151700186Y-72440186D01*
X151598729Y-72523448D01*
X151562991Y-72552778D01*
X151562989Y-72552779D01*
X151406467Y-72636443D01*
X151349853Y-72653616D01*
X151236627Y-72687963D01*
X151170443Y-72694481D01*
X151104260Y-72701000D01*
X151015740Y-72701000D01*
X150949557Y-72694481D01*
X150883373Y-72687963D01*
X150770147Y-72653616D01*
X150713533Y-72636443D01*
X150557011Y-72552779D01*
X150557009Y-72552778D01*
X150521271Y-72523448D01*
X150419814Y-72440186D01*
X150336552Y-72338729D01*
X150307222Y-72302991D01*
X150297652Y-72285087D01*
X150223557Y-72146467D01*
X150205448Y-72086768D01*
X150172037Y-71976627D01*
X150154641Y-71800000D01*
X150172037Y-71623373D01*
X150223557Y-71453534D01*
X150223557Y-71453533D01*
X150307221Y-71297011D01*
X150307222Y-71297009D01*
X150336552Y-71261271D01*
X150419814Y-71159814D01*
X150521271Y-71076552D01*
X150557009Y-71047222D01*
X150574913Y-71037652D01*
X150713533Y-70963557D01*
X150770147Y-70946384D01*
X150883373Y-70912037D01*
X150949557Y-70905519D01*
X151015740Y-70899000D01*
X151104260Y-70899000D01*
X151170443Y-70905519D01*
X151170443Y-70905519D01*
G37*
G36*
X202335734Y-69873232D02*
X202545202Y-69959996D01*
X202733723Y-70085962D01*
X202894038Y-70246277D01*
X203020004Y-70434798D01*
X203106768Y-70644266D01*
X203151000Y-70866635D01*
X203151000Y-71093365D01*
X203106768Y-71315734D01*
X203020004Y-71525202D01*
X202894038Y-71713723D01*
X202733723Y-71874038D01*
X202545202Y-72000004D01*
X202335734Y-72086768D01*
X202113365Y-72131000D01*
X201886635Y-72131000D01*
X201664266Y-72086768D01*
X201454798Y-72000004D01*
X201266277Y-71874038D01*
X201105962Y-71713723D01*
X200979996Y-71525202D01*
X200893232Y-71315734D01*
X200849000Y-71093365D01*
X200849000Y-70866635D01*
X200893232Y-70644266D01*
X200979996Y-70434798D01*
X201105962Y-70246277D01*
X201266277Y-70085962D01*
X201454798Y-69959996D01*
X201664266Y-69873232D01*
X201886635Y-69829000D01*
X202113365Y-69829000D01*
X202335734Y-69873232D01*
X202335734Y-69873232D01*
G37*
G36*
X202335734Y-66063232D02*
X202545202Y-66149996D01*
X202733723Y-66275962D01*
X202894038Y-66436277D01*
X203020004Y-66624798D01*
X203106768Y-66834266D01*
X203151000Y-67056635D01*
X203151000Y-67283365D01*
X203106768Y-67505734D01*
X203020004Y-67715202D01*
X202894038Y-67903723D01*
X202733723Y-68064038D01*
X202545202Y-68190004D01*
X202335734Y-68276768D01*
X202113365Y-68321000D01*
X201886635Y-68321000D01*
X201664266Y-68276768D01*
X201454798Y-68190004D01*
X201266277Y-68064038D01*
X201105962Y-67903723D01*
X200979996Y-67715202D01*
X200893232Y-67505734D01*
X200849000Y-67283365D01*
X200849000Y-67056635D01*
X200893232Y-66834266D01*
X200979996Y-66624798D01*
X201105962Y-66436277D01*
X201266277Y-66275962D01*
X201454798Y-66149996D01*
X201664266Y-66063232D01*
X201886635Y-66019000D01*
X202113365Y-66019000D01*
X202335734Y-66063232D01*
X202335734Y-66063232D01*
G37*
G36*
X113975734Y-61893232D02*
X114185202Y-61979996D01*
X114373723Y-62105962D01*
X114534038Y-62266277D01*
X114660004Y-62454798D01*
X114746768Y-62664266D01*
X114791000Y-62886635D01*
X114791000Y-63113365D01*
X114746768Y-63335734D01*
X114660004Y-63545202D01*
X114534038Y-63733723D01*
X114373723Y-63894038D01*
X114185202Y-64020004D01*
X113975734Y-64106768D01*
X113753365Y-64151000D01*
X113526635Y-64151000D01*
X113304266Y-64106768D01*
X113094798Y-64020004D01*
X112906277Y-63894038D01*
X112745962Y-63733723D01*
X112619996Y-63545202D01*
X112533232Y-63335734D01*
X112489000Y-63113365D01*
X112489000Y-62886635D01*
X112533232Y-62664266D01*
X112619996Y-62454798D01*
X112745962Y-62266277D01*
X112906277Y-62105962D01*
X113094798Y-61979996D01*
X113304266Y-61893232D01*
X113526635Y-61849000D01*
X113753365Y-61849000D01*
X113975734Y-61893232D01*
X113975734Y-61893232D01*
G37*
G36*
X110165734Y-61893232D02*
X110375202Y-61979996D01*
X110563723Y-62105962D01*
X110724038Y-62266277D01*
X110850004Y-62454798D01*
X110936768Y-62664266D01*
X110981000Y-62886635D01*
X110981000Y-63113365D01*
X110936768Y-63335734D01*
X110850004Y-63545202D01*
X110724038Y-63733723D01*
X110563723Y-63894038D01*
X110375202Y-64020004D01*
X110165734Y-64106768D01*
X109943365Y-64151000D01*
X109716635Y-64151000D01*
X109494266Y-64106768D01*
X109284798Y-64020004D01*
X109096277Y-63894038D01*
X108935962Y-63733723D01*
X108809996Y-63545202D01*
X108723232Y-63335734D01*
X108679000Y-63113365D01*
X108679000Y-62886635D01*
X108723232Y-62664266D01*
X108809996Y-62454798D01*
X108935962Y-62266277D01*
X109096277Y-62105962D01*
X109284798Y-61979996D01*
X109494266Y-61893232D01*
X109716635Y-61849000D01*
X109943365Y-61849000D01*
X110165734Y-61893232D01*
X110165734Y-61893232D01*
G37*
G36*
X106355734Y-61893232D02*
X106565202Y-61979996D01*
X106753723Y-62105962D01*
X106914038Y-62266277D01*
X107040004Y-62454798D01*
X107126768Y-62664266D01*
X107171000Y-62886635D01*
X107171000Y-63113365D01*
X107126768Y-63335734D01*
X107040004Y-63545202D01*
X106914038Y-63733723D01*
X106753723Y-63894038D01*
X106565202Y-64020004D01*
X106355734Y-64106768D01*
X106133365Y-64151000D01*
X105906635Y-64151000D01*
X105684266Y-64106768D01*
X105474798Y-64020004D01*
X105286277Y-63894038D01*
X105125962Y-63733723D01*
X104999996Y-63545202D01*
X104913232Y-63335734D01*
X104869000Y-63113365D01*
X104869000Y-62886635D01*
X104913232Y-62664266D01*
X104999996Y-62454798D01*
X105125962Y-62266277D01*
X105286277Y-62105962D01*
X105474798Y-61979996D01*
X105684266Y-61893232D01*
X105906635Y-61849000D01*
X106133365Y-61849000D01*
X106355734Y-61893232D01*
X106355734Y-61893232D01*
G37*
G36*
X102545734Y-61893232D02*
X102755202Y-61979996D01*
X102943723Y-62105962D01*
X103104038Y-62266277D01*
X103230004Y-62454798D01*
X103316768Y-62664266D01*
X103361000Y-62886635D01*
X103361000Y-63113365D01*
X103316768Y-63335734D01*
X103230004Y-63545202D01*
X103104038Y-63733723D01*
X102943723Y-63894038D01*
X102755202Y-64020004D01*
X102545734Y-64106768D01*
X102323365Y-64151000D01*
X102096635Y-64151000D01*
X101874266Y-64106768D01*
X101664798Y-64020004D01*
X101476277Y-63894038D01*
X101315962Y-63733723D01*
X101189996Y-63545202D01*
X101103232Y-63335734D01*
X101059000Y-63113365D01*
X101059000Y-62886635D01*
X101103232Y-62664266D01*
X101189996Y-62454798D01*
X101315962Y-62266277D01*
X101476277Y-62105962D01*
X101664798Y-61979996D01*
X101874266Y-61893232D01*
X102096635Y-61849000D01*
X102323365Y-61849000D01*
X102545734Y-61893232D01*
X102545734Y-61893232D01*
G37*
G36*
X125405734Y-61893232D02*
X125615202Y-61979996D01*
X125803723Y-62105962D01*
X125964038Y-62266277D01*
X126090004Y-62454798D01*
X126176768Y-62664266D01*
X126221000Y-62886635D01*
X126221000Y-63113365D01*
X126176768Y-63335734D01*
X126090004Y-63545202D01*
X125964038Y-63733723D01*
X125803723Y-63894038D01*
X125615202Y-64020004D01*
X125405734Y-64106768D01*
X125183365Y-64151000D01*
X124956635Y-64151000D01*
X124734266Y-64106768D01*
X124524798Y-64020004D01*
X124336277Y-63894038D01*
X124175962Y-63733723D01*
X124049996Y-63545202D01*
X123963232Y-63335734D01*
X123919000Y-63113365D01*
X123919000Y-62886635D01*
X123963232Y-62664266D01*
X124049996Y-62454798D01*
X124175962Y-62266277D01*
X124336277Y-62105962D01*
X124524798Y-61979996D01*
X124734266Y-61893232D01*
X124956635Y-61849000D01*
X125183365Y-61849000D01*
X125405734Y-61893232D01*
X125405734Y-61893232D01*
G37*
G36*
X117785734Y-61893232D02*
X117995202Y-61979996D01*
X118183723Y-62105962D01*
X118344038Y-62266277D01*
X118470004Y-62454798D01*
X118556768Y-62664266D01*
X118601000Y-62886635D01*
X118601000Y-63113365D01*
X118556768Y-63335734D01*
X118470004Y-63545202D01*
X118344038Y-63733723D01*
X118183723Y-63894038D01*
X117995202Y-64020004D01*
X117785734Y-64106768D01*
X117563365Y-64151000D01*
X117336635Y-64151000D01*
X117114266Y-64106768D01*
X116904798Y-64020004D01*
X116716277Y-63894038D01*
X116555962Y-63733723D01*
X116429996Y-63545202D01*
X116343232Y-63335734D01*
X116299000Y-63113365D01*
X116299000Y-62886635D01*
X116343232Y-62664266D01*
X116429996Y-62454798D01*
X116555962Y-62266277D01*
X116716277Y-62105962D01*
X116904798Y-61979996D01*
X117114266Y-61893232D01*
X117336635Y-61849000D01*
X117563365Y-61849000D01*
X117785734Y-61893232D01*
X117785734Y-61893232D01*
G37*
G36*
X121595734Y-61893232D02*
X121805202Y-61979996D01*
X121993723Y-62105962D01*
X122154038Y-62266277D01*
X122280004Y-62454798D01*
X122366768Y-62664266D01*
X122411000Y-62886635D01*
X122411000Y-63113365D01*
X122366768Y-63335734D01*
X122280004Y-63545202D01*
X122154038Y-63733723D01*
X121993723Y-63894038D01*
X121805202Y-64020004D01*
X121595734Y-64106768D01*
X121373365Y-64151000D01*
X121146635Y-64151000D01*
X120924266Y-64106768D01*
X120714798Y-64020004D01*
X120526277Y-63894038D01*
X120365962Y-63733723D01*
X120239996Y-63545202D01*
X120153232Y-63335734D01*
X120109000Y-63113365D01*
X120109000Y-62886635D01*
X120153232Y-62664266D01*
X120239996Y-62454798D01*
X120365962Y-62266277D01*
X120526277Y-62105962D01*
X120714798Y-61979996D01*
X120924266Y-61893232D01*
X121146635Y-61849000D01*
X121373365Y-61849000D01*
X121595734Y-61893232D01*
X121595734Y-61893232D01*
G37*
G36*
X129215734Y-61893232D02*
X129425202Y-61979996D01*
X129613723Y-62105962D01*
X129774038Y-62266277D01*
X129900004Y-62454798D01*
X129986768Y-62664266D01*
X130031000Y-62886635D01*
X130031000Y-63113365D01*
X129986768Y-63335734D01*
X129900004Y-63545202D01*
X129774038Y-63733723D01*
X129613723Y-63894038D01*
X129425202Y-64020004D01*
X129215734Y-64106768D01*
X128993365Y-64151000D01*
X128766635Y-64151000D01*
X128544266Y-64106768D01*
X128334798Y-64020004D01*
X128146277Y-63894038D01*
X127985962Y-63733723D01*
X127859996Y-63545202D01*
X127773232Y-63335734D01*
X127729000Y-63113365D01*
X127729000Y-62886635D01*
X127773232Y-62664266D01*
X127859996Y-62454798D01*
X127985962Y-62266277D01*
X128146277Y-62105962D01*
X128334798Y-61979996D01*
X128544266Y-61893232D01*
X128766635Y-61849000D01*
X128993365Y-61849000D01*
X129215734Y-61893232D01*
X129215734Y-61893232D01*
G37*
G36*
X133025734Y-61893232D02*
X133235202Y-61979996D01*
X133423723Y-62105962D01*
X133584038Y-62266277D01*
X133710004Y-62454798D01*
X133796768Y-62664266D01*
X133841000Y-62886635D01*
X133841000Y-63113365D01*
X133796768Y-63335734D01*
X133710004Y-63545202D01*
X133584038Y-63733723D01*
X133423723Y-63894038D01*
X133235202Y-64020004D01*
X133025734Y-64106768D01*
X132803365Y-64151000D01*
X132576635Y-64151000D01*
X132354266Y-64106768D01*
X132144798Y-64020004D01*
X131956277Y-63894038D01*
X131795962Y-63733723D01*
X131669996Y-63545202D01*
X131583232Y-63335734D01*
X131539000Y-63113365D01*
X131539000Y-62886635D01*
X131583232Y-62664266D01*
X131669996Y-62454798D01*
X131795962Y-62266277D01*
X131956277Y-62105962D01*
X132144798Y-61979996D01*
X132354266Y-61893232D01*
X132576635Y-61849000D01*
X132803365Y-61849000D01*
X133025734Y-61893232D01*
X133025734Y-61893232D01*
G37*
G36*
X137651000Y-64151000D02*
X135349000Y-64151000D01*
X135349000Y-61849000D01*
X137651000Y-61849000D01*
X137651000Y-64151000D01*
X137651000Y-64151000D01*
G37*
G36*
X95634239Y-56811467D02*
X95948282Y-56873934D01*
X96539926Y-57119001D01*
X96829523Y-57312504D01*
X97072395Y-57474786D01*
X97525214Y-57927605D01*
X97525216Y-57927608D01*
X97880999Y-58460074D01*
X98002724Y-58753944D01*
X98126066Y-59051719D01*
X98251000Y-59679803D01*
X98251000Y-60320197D01*
X98188533Y-60634239D01*
X98126066Y-60948282D01*
X97880999Y-61539926D01*
X97644927Y-61893232D01*
X97525214Y-62072395D01*
X97072395Y-62525214D01*
X97072392Y-62525216D01*
X96539926Y-62880999D01*
X95948282Y-63126066D01*
X95634239Y-63188533D01*
X95320197Y-63251000D01*
X94679803Y-63251000D01*
X94365761Y-63188533D01*
X94051718Y-63126066D01*
X93460074Y-62880999D01*
X92927608Y-62525216D01*
X92927605Y-62525214D01*
X92474786Y-62072395D01*
X92355073Y-61893232D01*
X92119001Y-61539926D01*
X91873934Y-60948282D01*
X91811467Y-60634239D01*
X91749000Y-60320197D01*
X91749000Y-59679803D01*
X91873934Y-59051719D01*
X91997276Y-58753944D01*
X92119001Y-58460074D01*
X92474784Y-57927608D01*
X92474786Y-57927605D01*
X92927605Y-57474786D01*
X93170477Y-57312504D01*
X93460074Y-57119001D01*
X94051718Y-56873934D01*
X94365761Y-56811467D01*
X94679803Y-56749000D01*
X95320197Y-56749000D01*
X95634239Y-56811467D01*
X95634239Y-56811467D01*
G37*
G36*
X205634239Y-56811467D02*
X205948282Y-56873934D01*
X206539926Y-57119001D01*
X206829523Y-57312504D01*
X207072395Y-57474786D01*
X207525214Y-57927605D01*
X207525216Y-57927608D01*
X207880999Y-58460074D01*
X208002724Y-58753944D01*
X208126066Y-59051719D01*
X208251000Y-59679803D01*
X208251000Y-60320197D01*
X208188533Y-60634239D01*
X208126066Y-60948282D01*
X207880999Y-61539926D01*
X207644927Y-61893232D01*
X207525214Y-62072395D01*
X207072395Y-62525214D01*
X207072392Y-62525216D01*
X206539926Y-62880999D01*
X205948282Y-63126066D01*
X205634239Y-63188533D01*
X205320197Y-63251000D01*
X204679803Y-63251000D01*
X204365761Y-63188533D01*
X204051718Y-63126066D01*
X203460074Y-62880999D01*
X202927608Y-62525216D01*
X202927605Y-62525214D01*
X202474786Y-62072395D01*
X202355073Y-61893232D01*
X202119001Y-61539926D01*
X201873934Y-60948282D01*
X201811467Y-60634239D01*
X201749000Y-60320197D01*
X201749000Y-59679803D01*
X201873934Y-59051719D01*
X201997276Y-58753944D01*
X202119001Y-58460074D01*
X202474784Y-57927608D01*
X202474786Y-57927605D01*
X202927605Y-57474786D01*
X203170477Y-57312504D01*
X203460074Y-57119001D01*
X204051718Y-56873934D01*
X204365761Y-56811467D01*
X204679803Y-56749000D01*
X205320197Y-56749000D01*
X205634239Y-56811467D01*
X205634239Y-56811467D01*
G37*
G36*
X149060721Y-60870174D02*
X149160995Y-60911709D01*
X149251245Y-60972012D01*
X149327988Y-61048755D01*
X149388291Y-61139005D01*
X149429826Y-61239279D01*
X149451000Y-61345730D01*
X149451000Y-61454270D01*
X149429826Y-61560721D01*
X149388291Y-61660995D01*
X149327988Y-61751245D01*
X149251245Y-61827988D01*
X149160995Y-61888291D01*
X149060721Y-61929826D01*
X148954270Y-61951000D01*
X148845730Y-61951000D01*
X148739279Y-61929826D01*
X148639005Y-61888291D01*
X148548755Y-61827988D01*
X148472012Y-61751245D01*
X148411709Y-61660995D01*
X148370174Y-61560721D01*
X148349000Y-61454270D01*
X148349000Y-61345730D01*
X148370174Y-61239279D01*
X148411709Y-61139005D01*
X148472012Y-61048755D01*
X148548755Y-60972012D01*
X148639005Y-60911709D01*
X148739279Y-60870174D01*
X148845730Y-60849000D01*
X148954270Y-60849000D01*
X149060721Y-60870174D01*
X149060721Y-60870174D01*
G37*
G36*
X153460721Y-60870174D02*
X153560995Y-60911709D01*
X153651245Y-60972012D01*
X153727988Y-61048755D01*
X153788291Y-61139005D01*
X153829826Y-61239279D01*
X153851000Y-61345730D01*
X153851000Y-61454270D01*
X153829826Y-61560721D01*
X153788291Y-61660995D01*
X153727988Y-61751245D01*
X153651245Y-61827988D01*
X153560995Y-61888291D01*
X153460721Y-61929826D01*
X153354270Y-61951000D01*
X153245730Y-61951000D01*
X153139279Y-61929826D01*
X153039005Y-61888291D01*
X152948755Y-61827988D01*
X152872012Y-61751245D01*
X152811709Y-61660995D01*
X152770174Y-61560721D01*
X152749000Y-61454270D01*
X152749000Y-61345730D01*
X152770174Y-61239279D01*
X152811709Y-61139005D01*
X152872012Y-61048755D01*
X152948755Y-60972012D01*
X153039005Y-60911709D01*
X153139279Y-60870174D01*
X153245730Y-60849000D01*
X153354270Y-60849000D01*
X153460721Y-60870174D01*
X153460721Y-60870174D01*
G37*
M02*
