M48
;DRILL file {KiCad 5.0.2-bee76a0~70~ubuntu18.04.1} date 2019. febr. 6., szerda, 18:27:46 CET
;FORMAT={-:-/ absolute / metric / decimal}
FMAT,2
METRIC,TZ
T1C0.400
T2C0.500
T3C0.800
T4C1.000
T5C1.100
T6C1.500
T7C3.000
T8C3.200
T9C1.000
%
G90
G05
T1
X97.5Y-73.6
X97.6Y-89.7
X98.5Y-83.
X100.Y-100.
X100.Y-110.
X102.4Y-69.4
X107.2Y-73.6
X109.475Y-83.1
X110.Y-58.
X112.5Y-110.
X115.5Y-63.6
X116.9Y-73.6
X118.3Y-81.9
X119.2Y-67.1
X119.3Y-63.7
X120.Y-58.
X120.Y-100.
X120.Y-110.
X120.9Y-88.4
X123.2Y-63.7
X123.6Y-80.6
X123.7Y-87.5
X125.4Y-76.3
X125.4Y-77.8
X127.Y-63.7
X127.Y-76.3
X127.Y-77.8
X127.4Y-85.7
X127.4Y-87.5
X128.6Y-76.3
X128.6Y-77.8
X130.Y-100.
X130.Y-110.
X130.5Y-58.
X130.7Y-74.4
X130.7Y-81.6
X137.Y-67.
X137.Y-73.2
X137.9Y-85.7
X140.Y-60.
X140.Y-80.
X140.Y-100.
X140.Y-110.
X143.1Y-58.6
X143.1Y-63.9
X150.Y-100.
X150.Y-110.
X152.1Y-88.1
X152.8Y-58.55
X152.9Y-65.9
X152.9Y-67.7
X153.8Y-64.1
X155.1Y-79.9
X155.9Y-74.8
X157.1Y-61.4
X158.2Y-67.7
X158.3Y-65.6
X158.8Y-69.5
X160.Y-100.
X160.8Y-65.6
X160.8Y-70.
X161.2Y-60.6
X161.7Y-79.1
X162.4Y-67.4
X163.3Y-83.9
X163.4Y-66.6
X163.8Y-68.9
X164.1Y-78.2
X165.7Y-68.9
X166.3Y-75.9
X166.4Y-73.1
X167.7Y-90.9
X168.5Y-92.
X168.575Y-86.925
X169.4Y-98.9
X170.925Y-60.225
X170.925Y-102.
X171.5Y-106.8
X171.6Y-65.9
X171.6Y-71.
X171.6Y-76.
X171.7Y-80.2
X172.9Y-81.5
X173.2Y-87.912
X173.3Y-57.8
X173.6Y-112.6
X173.6Y-115.
X174.Y-82.5
X174.Y-101.8
X174.3Y-91.4
X174.5Y-110.1
X175.3Y-116.7
X175.9Y-68.9
X175.9Y-70.48
X175.9Y-93.3
X176.Y-96.5
X176.Y-99.
X176.3Y-80.2
X177.2Y-68.3
X177.2Y-74.5
X178.2Y-69.4
X178.2Y-73.1
X179.2Y-101.
X179.7Y-104.8
X179.7Y-116.7
X180.Y-60.
X180.Y-93.4
X180.Y-96.5
X180.Y-106.6
X180.1Y-69.
X180.1Y-73.3
X181.2Y-66.6
X182.5Y-103.8
X184.Y-116.7
X184.1Y-93.4
X184.1Y-96.5
X184.1Y-98.9
X184.2Y-100.2
X184.3Y-109.4
X184.6Y-78.3
X184.7Y-77.1
X184.8Y-89.
X185.6Y-89.7
X185.7Y-112.6
X185.7Y-115.
X185.8Y-74.3
X186.Y-82.2
X186.4Y-88.9
X186.7Y-84.1
X187.2Y-89.7
X187.4Y-81.4
X187.9Y-67.2
X188.Y-88.9
X188.775Y-102.265
X188.8Y-81.4
X188.8Y-89.7
X188.8Y-103.898
X188.8Y-105.5
X189.Y-84.1
X189.5Y-104.7
X189.5Y-106.3
X189.503Y-103.098
X189.6Y-88.9
X190.1Y-82.2
X190.6Y-86.5
X190.6Y-99.3
X191.1Y-71.
X191.5Y-91.1
X191.5Y-100.7
X191.9Y-62.2
X192.3Y-74.3
X192.3Y-97.8
X193.8Y-96.2
X194.Y-103.8
X194.2Y-101.
X194.6Y-73.4
X194.9Y-90.5
X195.Y-88.2
X198.5Y-80.1
X198.5Y-82.2
X198.51Y-76.316
X199.3Y-100.5
X199.7Y-91.8
X200.2Y-61.7
X201.4Y-87.5
X201.4Y-95.6
X201.4Y-98.4
X201.9Y-101.
X202.4Y-86.7
X202.4Y-95.6
X204.1Y-100.2
X204.4Y-89.1
X204.4Y-98.4
X205.2Y-88.3
X205.2Y-99.2
T2
X172.6Y-105.6
X172.6Y-108.14
X92.6Y-60.
X93.303Y-58.303
X93.303Y-61.697
X95.Y-57.6
X95.Y-62.4
X96.697Y-58.303
X96.697Y-61.697
X97.4Y-60.
X203.4Y-92.4
X203.4Y-93.4
X203.4Y-94.4
X202.6Y-60.
X203.303Y-58.303
X203.303Y-61.697
X205.Y-57.6
X205.Y-62.4
X206.697Y-58.303
X206.697Y-61.697
X207.4Y-60.
X202.6Y-115.
X203.303Y-113.303
X203.303Y-116.697
X205.Y-112.6
X205.Y-117.4
X206.697Y-113.303
X206.697Y-116.697
X207.4Y-115.
T3
X177.2Y-113.8
X182.08Y-113.8
T4
X207.6Y-83.22
X207.6Y-85.76
X207.6Y-88.3
X207.6Y-90.84
X207.6Y-93.38
X207.6Y-95.92
X207.6Y-98.46
X207.6Y-101.
X148.52Y-71.8
X151.06Y-71.8
X153.6Y-71.8
X164.9Y-87.9
X164.9Y-90.44
X164.9Y-92.98
X164.9Y-95.52
X164.9Y-98.06
X164.9Y-100.6
T5
X99.17Y-91.54
X99.17Y-94.08
X101.71Y-91.54
X101.71Y-94.08
X104.25Y-91.54
X104.25Y-94.08
X106.79Y-91.54
X106.79Y-94.08
X109.33Y-91.54
X109.33Y-94.08
X111.87Y-91.54
X111.87Y-94.08
X114.41Y-91.54
X114.41Y-94.08
X116.95Y-91.54
X116.95Y-94.08
X119.49Y-91.54
X119.49Y-94.08
X122.03Y-91.54
X122.03Y-94.08
X124.57Y-91.54
X124.57Y-94.08
X127.11Y-91.54
X127.11Y-94.08
X129.65Y-91.54
X129.65Y-94.08
X132.19Y-91.54
X132.19Y-94.08
X134.73Y-91.54
X134.73Y-94.08
X137.27Y-91.54
X137.27Y-94.08
X139.81Y-91.54
X139.81Y-94.08
X142.35Y-91.54
X142.35Y-94.08
X144.89Y-91.54
X144.89Y-94.08
X147.43Y-91.54
X147.43Y-94.08
T6
X202.Y-67.17
X202.Y-70.98
X202.Y-74.79
X202.Y-78.6
X102.21Y-63.
X106.02Y-63.
X109.83Y-63.
X113.64Y-63.
X117.45Y-63.
X121.26Y-63.
X125.07Y-63.
X128.88Y-63.
X132.69Y-63.
X136.5Y-63.
T7
X94.2Y-92.5
X94.2Y-115.7
X152.2Y-92.5
X152.2Y-115.7
T8
X95.Y-60.
X205.Y-60.
X205.Y-115.
T9
X148.9Y-61.4
X153.3Y-61.4
T0
M30
