G04 #@! TF.GenerationSoftware,KiCad,Pcbnew,5.0.2-bee76a0~70~ubuntu18.04.1*
G04 #@! TF.CreationDate,2019-02-06T18:27:39+01:00*
G04 #@! TF.ProjectId,g-track,672d7472-6163-46b2-9e6b-696361645f70,rev?*
G04 #@! TF.SameCoordinates,Original*
G04 #@! TF.FileFunction,Copper,L2,Bot*
G04 #@! TF.FilePolarity,Positive*
%FSLAX46Y46*%
G04 Gerber Fmt 4.6, Leading zero omitted, Abs format (unit mm)*
G04 Created by KiCad (PCBNEW 5.0.2-bee76a0~70~ubuntu18.04.1) date 2019. febr. 6., szerda, 18:27:39 CET*
%MOMM*%
%LPD*%
G01*
G04 APERTURE LIST*
G04 #@! TA.AperFunction,NonConductor*
%ADD10C,0.300000*%
G04 #@! TD*
G04 #@! TA.AperFunction,ComponentPad*
%ADD11C,2.200000*%
G04 #@! TD*
G04 #@! TA.AperFunction,ComponentPad*
%ADD12R,2.200000X2.200000*%
G04 #@! TD*
G04 #@! TA.AperFunction,ComponentPad*
%ADD13R,1.700000X1.700000*%
G04 #@! TD*
G04 #@! TA.AperFunction,ComponentPad*
%ADD14O,1.700000X1.700000*%
G04 #@! TD*
G04 #@! TA.AperFunction,ComponentPad*
%ADD15R,0.850000X0.850000*%
G04 #@! TD*
G04 #@! TA.AperFunction,ComponentPad*
%ADD16O,0.850000X0.850000*%
G04 #@! TD*
G04 #@! TA.AperFunction,ComponentPad*
%ADD17C,1.700000*%
G04 #@! TD*
G04 #@! TA.AperFunction,ComponentPad*
%ADD18C,4.500000*%
G04 #@! TD*
G04 #@! TA.AperFunction,ComponentPad*
%ADD19C,1.000000*%
G04 #@! TD*
G04 #@! TA.AperFunction,ComponentPad*
%ADD20C,1.500000*%
G04 #@! TD*
G04 #@! TA.AperFunction,ComponentPad*
%ADD21C,0.800000*%
G04 #@! TD*
G04 #@! TA.AperFunction,ComponentPad*
%ADD22C,6.400000*%
G04 #@! TD*
G04 #@! TA.AperFunction,ViaPad*
%ADD23C,0.800000*%
G04 #@! TD*
G04 #@! TA.AperFunction,Conductor*
%ADD24C,0.250000*%
G04 #@! TD*
G04 #@! TA.AperFunction,Conductor*
%ADD25C,0.380000*%
G04 #@! TD*
G04 #@! TA.AperFunction,Conductor*
%ADD26C,0.500000*%
G04 #@! TD*
G04 #@! TA.AperFunction,Conductor*
%ADD27C,0.254000*%
G04 #@! TD*
G04 APERTURE END LIST*
D10*
X90000000Y-55000000D02*
X90000000Y-120000000D01*
X210000000Y-55000000D02*
X90000000Y-55000000D01*
X210000000Y-120000000D02*
X210000000Y-55000000D01*
X90000000Y-120000000D02*
X210000000Y-120000000D01*
D11*
G04 #@! TO.P,J5,10*
G04 #@! TO.N,/External/LED_ANODE*
X102210000Y-63000000D03*
G04 #@! TO.P,J5,9*
G04 #@! TO.N,/External/LED_CATHODE*
X106020000Y-63000000D03*
G04 #@! TO.P,J5,8*
G04 #@! TO.N,Net-(J5-Pad8)*
X109830000Y-63000000D03*
G04 #@! TO.P,J5,7*
G04 #@! TO.N,+BATT*
X113640000Y-63000000D03*
G04 #@! TO.P,J5,6*
G04 #@! TO.N,/External/SW-1*
X117450000Y-63000000D03*
G04 #@! TO.P,J5,5*
G04 #@! TO.N,+BATT*
X121260000Y-63000000D03*
G04 #@! TO.P,J5,4*
G04 #@! TO.N,/External/SW-2*
X125070000Y-63000000D03*
G04 #@! TO.P,J5,3*
G04 #@! TO.N,/External/IGNITION*
X128880000Y-63000000D03*
G04 #@! TO.P,J5,2*
G04 #@! TO.N,+BATT*
X132690000Y-63000000D03*
D12*
G04 #@! TO.P,J5,1*
G04 #@! TO.N,-BATT*
X136500000Y-63000000D03*
G04 #@! TD*
D11*
G04 #@! TO.P,J4,4*
G04 #@! TO.N,Net-(J4-Pad4)*
X202000000Y-67170000D03*
G04 #@! TO.P,J4,3*
G04 #@! TO.N,Net-(J4-Pad3)*
X202000000Y-70980000D03*
G04 #@! TO.P,J4,2*
G04 #@! TO.N,Net-(J4-Pad2)*
X202000000Y-74790000D03*
D12*
G04 #@! TO.P,J4,1*
G04 #@! TO.N,Net-(J4-Pad1)*
X202000000Y-78600000D03*
G04 #@! TD*
D13*
G04 #@! TO.P,J8,1*
G04 #@! TO.N,+3V3*
X207600000Y-101000000D03*
D14*
G04 #@! TO.P,J8,2*
G04 #@! TO.N,-BATT*
X207600000Y-98460000D03*
G04 #@! TO.P,J8,3*
G04 #@! TO.N,/Peripherals/ACC_SCK*
X207600000Y-95920000D03*
G04 #@! TO.P,J8,4*
G04 #@! TO.N,/Peripherals/ACC_MOSI*
X207600000Y-93380000D03*
G04 #@! TO.P,J8,5*
G04 #@! TO.N,/Peripherals/ACC_MISO*
X207600000Y-90840000D03*
G04 #@! TO.P,J8,6*
G04 #@! TO.N,Net-(J8-Pad6)*
X207600000Y-88300000D03*
G04 #@! TO.P,J8,7*
G04 #@! TO.N,/Peripherals/ACC_INT1*
X207600000Y-85760000D03*
G04 #@! TO.P,J8,8*
G04 #@! TO.N,/Peripherals/ACC_INT2*
X207600000Y-83220000D03*
G04 #@! TD*
D15*
G04 #@! TO.P,JP3,1*
G04 #@! TO.N,Net-(J8-Pad6)*
X203400000Y-92400000D03*
D16*
G04 #@! TO.P,JP3,2*
G04 #@! TO.N,/Peripherals/ACC_CS*
X203400000Y-93400000D03*
G04 #@! TO.P,JP3,3*
G04 #@! TO.N,Net-(JP3-Pad3)*
X203400000Y-94400000D03*
G04 #@! TD*
D17*
G04 #@! TO.P,J6,40*
G04 #@! TO.N,Net-(J6-Pad40)*
X147430000Y-91540000D03*
G04 #@! TO.P,J6,39*
G04 #@! TO.N,-BATT*
X147430000Y-94080000D03*
G04 #@! TO.P,J6,38*
G04 #@! TO.N,Net-(J6-Pad38)*
X144890000Y-91540000D03*
G04 #@! TO.P,J6,37*
G04 #@! TO.N,Net-(J6-Pad37)*
X144890000Y-94080000D03*
G04 #@! TO.P,J6,36*
G04 #@! TO.N,Net-(J6-Pad36)*
X142350000Y-91540000D03*
G04 #@! TO.P,J6,35*
G04 #@! TO.N,Net-(J6-Pad35)*
X142350000Y-94080000D03*
G04 #@! TO.P,J6,34*
G04 #@! TO.N,-BATT*
X139810000Y-91540000D03*
G04 #@! TO.P,J6,33*
G04 #@! TO.N,Net-(J6-Pad33)*
X139810000Y-94080000D03*
G04 #@! TO.P,J6,32*
G04 #@! TO.N,Net-(J6-Pad32)*
X137270000Y-91540000D03*
G04 #@! TO.P,J6,31*
G04 #@! TO.N,Net-(J6-Pad31)*
X137270000Y-94080000D03*
G04 #@! TO.P,J6,30*
G04 #@! TO.N,-BATT*
X134730000Y-91540000D03*
G04 #@! TO.P,J6,29*
G04 #@! TO.N,Net-(J6-Pad29)*
X134730000Y-94080000D03*
G04 #@! TO.P,J6,28*
G04 #@! TO.N,Net-(J6-Pad28)*
X132190000Y-91540000D03*
G04 #@! TO.P,J6,27*
G04 #@! TO.N,Net-(J6-Pad27)*
X132190000Y-94080000D03*
G04 #@! TO.P,J6,26*
G04 #@! TO.N,Net-(J6-Pad26)*
X129650000Y-91540000D03*
G04 #@! TO.P,J6,25*
G04 #@! TO.N,-BATT*
X129650000Y-94080000D03*
G04 #@! TO.P,J6,24*
G04 #@! TO.N,Net-(J6-Pad24)*
X127110000Y-91540000D03*
G04 #@! TO.P,J6,23*
G04 #@! TO.N,Net-(J6-Pad23)*
X127110000Y-94080000D03*
G04 #@! TO.P,J6,22*
G04 #@! TO.N,Net-(J6-Pad22)*
X124570000Y-91540000D03*
G04 #@! TO.P,J6,21*
G04 #@! TO.N,Net-(J6-Pad21)*
X124570000Y-94080000D03*
G04 #@! TO.P,J6,20*
G04 #@! TO.N,-BATT*
X122030000Y-91540000D03*
G04 #@! TO.P,J6,19*
G04 #@! TO.N,Net-(J6-Pad19)*
X122030000Y-94080000D03*
G04 #@! TO.P,J6,18*
G04 #@! TO.N,Net-(J6-Pad18)*
X119490000Y-91540000D03*
G04 #@! TO.P,J6,17*
G04 #@! TO.N,+3V3*
X119490000Y-94080000D03*
G04 #@! TO.P,J6,16*
G04 #@! TO.N,Net-(J6-Pad16)*
X116950000Y-91540000D03*
G04 #@! TO.P,J6,15*
G04 #@! TO.N,Net-(J6-Pad15)*
X116950000Y-94080000D03*
G04 #@! TO.P,J6,14*
G04 #@! TO.N,-BATT*
X114410000Y-91540000D03*
G04 #@! TO.P,J6,13*
G04 #@! TO.N,Net-(J6-Pad13)*
X114410000Y-94080000D03*
G04 #@! TO.P,J6,12*
G04 #@! TO.N,Net-(J6-Pad12)*
X111870000Y-91540000D03*
G04 #@! TO.P,J6,11*
G04 #@! TO.N,Net-(J6-Pad11)*
X111870000Y-94080000D03*
G04 #@! TO.P,J6,10*
G04 #@! TO.N,/Peripherals/RPI_UART_RX*
X109330000Y-91540000D03*
G04 #@! TO.P,J6,9*
G04 #@! TO.N,-BATT*
X109330000Y-94080000D03*
G04 #@! TO.P,J6,8*
G04 #@! TO.N,/Peripherals/RPI_UART_TX*
X106790000Y-91540000D03*
G04 #@! TO.P,J6,7*
G04 #@! TO.N,/Peripherals/WAVESHARE_POWER*
X106790000Y-94080000D03*
G04 #@! TO.P,J6,6*
G04 #@! TO.N,-BATT*
X104250000Y-91540000D03*
G04 #@! TO.P,J6,5*
G04 #@! TO.N,Net-(J6-Pad5)*
X104250000Y-94080000D03*
G04 #@! TO.P,J6,4*
G04 #@! TO.N,+5V*
X101710000Y-91540000D03*
G04 #@! TO.P,J6,3*
G04 #@! TO.N,Net-(J6-Pad3)*
X101710000Y-94080000D03*
G04 #@! TO.P,J6,2*
G04 #@! TO.N,+5V*
X99170000Y-91540000D03*
G04 #@! TO.P,J6,1*
G04 #@! TO.N,+3V3*
X99170000Y-94080000D03*
D18*
G04 #@! TO.P,J6,*
G04 #@! TO.N,*
X94200000Y-115700000D03*
X94200000Y-92500000D03*
X152200000Y-115700000D03*
X152200000Y-92500000D03*
G04 #@! TD*
D13*
G04 #@! TO.P,J1,1*
G04 #@! TO.N,+3V3*
X164900000Y-87900000D03*
D14*
G04 #@! TO.P,J1,2*
G04 #@! TO.N,/mcu/PA14*
X164900000Y-90440000D03*
G04 #@! TO.P,J1,3*
G04 #@! TO.N,-BATT*
X164900000Y-92980000D03*
G04 #@! TO.P,J1,4*
G04 #@! TO.N,/Peripherals/USB_LED*
X164900000Y-95520000D03*
G04 #@! TO.P,J1,5*
G04 #@! TO.N,/mcu/NRST*
X164900000Y-98060000D03*
G04 #@! TO.P,J1,6*
G04 #@! TO.N,/mcu/PB3*
X164900000Y-100600000D03*
G04 #@! TD*
D13*
G04 #@! TO.P,JP1,1*
G04 #@! TO.N,+5V_USB*
X153600000Y-71800000D03*
D14*
G04 #@! TO.P,JP1,2*
G04 #@! TO.N,+5V*
X151060000Y-71800000D03*
G04 #@! TO.P,JP1,3*
G04 #@! TO.N,Net-(C6-Pad1)*
X148520000Y-71800000D03*
G04 #@! TD*
D19*
G04 #@! TO.P,Y1,1*
G04 #@! TO.N,/mcu/PC14*
X172600000Y-105600000D03*
G04 #@! TO.P,Y1,2*
G04 #@! TO.N,/mcu/PC15*
X172600000Y-108140000D03*
G04 #@! TD*
D20*
G04 #@! TO.P,Y2,1*
G04 #@! TO.N,Net-(C11-Pad1)*
X177200000Y-113800000D03*
G04 #@! TO.P,Y2,2*
G04 #@! TO.N,Net-(C12-Pad1)*
X182080000Y-113800000D03*
G04 #@! TD*
D21*
G04 #@! TO.P,REF\002A\002A,1*
G04 #@! TO.N,N/C*
X96697056Y-58302944D03*
X95000000Y-57600000D03*
X93302944Y-58302944D03*
X92600000Y-60000000D03*
X93302944Y-61697056D03*
X95000000Y-62400000D03*
X96697056Y-61697056D03*
X97400000Y-60000000D03*
D22*
X95000000Y-60000000D03*
G04 #@! TD*
D21*
G04 #@! TO.P,REF\002A\002A,1*
G04 #@! TO.N,N/C*
X206697056Y-58302944D03*
X205000000Y-57600000D03*
X203302944Y-58302944D03*
X202600000Y-60000000D03*
X203302944Y-61697056D03*
X205000000Y-62400000D03*
X206697056Y-61697056D03*
X207400000Y-60000000D03*
D22*
X205000000Y-60000000D03*
G04 #@! TD*
D21*
G04 #@! TO.P,REF\002A\002A,1*
G04 #@! TO.N,N/C*
X206697056Y-113302944D03*
X205000000Y-112600000D03*
X203302944Y-113302944D03*
X202600000Y-115000000D03*
X203302944Y-116697056D03*
X205000000Y-117400000D03*
X206697056Y-116697056D03*
X207400000Y-115000000D03*
D22*
X205000000Y-115000000D03*
G04 #@! TD*
D23*
G04 #@! TO.N,-BATT*
X137000000Y-73200000D03*
X160000000Y-100000000D03*
X100000000Y-110000000D03*
X112500000Y-110000000D03*
X120000000Y-110000000D03*
X130000000Y-110000000D03*
X140000000Y-110000000D03*
X150000000Y-110000000D03*
X150000000Y-100000000D03*
X140000000Y-100000000D03*
X130000000Y-100000000D03*
X120000000Y-100000000D03*
X110000000Y-58000000D03*
X120000000Y-58000000D03*
X130500000Y-58000000D03*
X140000000Y-60000000D03*
X180000000Y-60000000D03*
X200200000Y-61700000D03*
X140000000Y-80000000D03*
X179200000Y-101000000D03*
X176000000Y-96500000D03*
X180000000Y-96500000D03*
X180000000Y-93400000D03*
X125400000Y-76300000D03*
X127000000Y-76300000D03*
X128600000Y-76300000D03*
X125400000Y-77800000D03*
X127000000Y-77800000D03*
X128600000Y-77800000D03*
X107200000Y-73600000D03*
X98500000Y-83000000D03*
X171600000Y-65900000D03*
X171600000Y-71000000D03*
X171600000Y-76000000D03*
X184600000Y-78300000D03*
X201400000Y-98400000D03*
X204100000Y-100200000D03*
X174500000Y-110100000D03*
X179700000Y-116700000D03*
X173600000Y-112600000D03*
X173600000Y-115000000D03*
X175300000Y-116700000D03*
X184000000Y-116700000D03*
X185700000Y-115000000D03*
X185700000Y-112600000D03*
X184300000Y-109400000D03*
X180000000Y-106600000D03*
X171500000Y-106800000D03*
X123700000Y-87500000D03*
X152800000Y-58550000D03*
X157100000Y-61400000D03*
X158200000Y-67700000D03*
X170925000Y-60225000D03*
X173300000Y-57800000D03*
X181200000Y-66600000D03*
X191900000Y-62200000D03*
X184100000Y-98900000D03*
X175900000Y-93300000D03*
X174300000Y-91400000D03*
X167700000Y-90900000D03*
X170925000Y-102000000D03*
X198500000Y-82200000D03*
X188800000Y-81400000D03*
X193800000Y-96200000D03*
X194900000Y-90500000D03*
X191100000Y-71000000D03*
X187900000Y-67200000D03*
X155900000Y-74800000D03*
X152100000Y-88100000D03*
X155100000Y-79900000D03*
X100000000Y-100000000D03*
X166400000Y-73100000D03*
X160800000Y-65600000D03*
X158300000Y-65600000D03*
X161200000Y-60600000D03*
X172900000Y-81500000D03*
X161700000Y-79100000D03*
X171700000Y-80200000D03*
X163300000Y-83900000D03*
X176000000Y-99000000D03*
X184100000Y-93400000D03*
X143100000Y-63900000D03*
X143100000Y-58600000D03*
X184100000Y-96500000D03*
X116900000Y-73600000D03*
X97500000Y-73600000D03*
X127400000Y-87500000D03*
X198500000Y-80100000D03*
X198509990Y-76315929D03*
X199300000Y-100500000D03*
X168575000Y-86925000D03*
X169400000Y-98900000D03*
X194200000Y-101000000D03*
X109475000Y-83100000D03*
X137000000Y-67000000D03*
X127400000Y-85700000D03*
X137900000Y-85700000D03*
X194000000Y-103800000D03*
X115500000Y-63600000D03*
X119300000Y-63700000D03*
X123200000Y-63700000D03*
X127000000Y-63700000D03*
X118300000Y-81900000D03*
X123600000Y-80600000D03*
X187400000Y-81400000D03*
X186700000Y-84100000D03*
X189000000Y-84100000D03*
G04 #@! TO.N,+BATT*
X119200000Y-67100000D03*
G04 #@! TO.N,Net-(C5-Pad1)*
X130700000Y-74400000D03*
X130700000Y-81600000D03*
G04 #@! TO.N,+5V*
X120900000Y-88400000D03*
G04 #@! TO.N,+3V3*
X173200000Y-87912500D03*
X174000000Y-101800000D03*
X182500000Y-103800000D03*
X164100000Y-78200000D03*
X166300000Y-75900000D03*
X190600000Y-86500000D03*
X190600000Y-99300000D03*
X162400000Y-67400000D03*
X165700000Y-68900000D03*
G04 #@! TO.N,/Peripherals/ACC_INT1*
X201400000Y-95600000D03*
X201400000Y-87500000D03*
G04 #@! TO.N,/mcu/NRST*
X192300000Y-97800000D03*
X179700000Y-104800000D03*
X195000000Y-88200000D03*
G04 #@! TO.N,/Peripherals/BUZZER_PWM*
X191500000Y-91100000D03*
X191500000Y-100700000D03*
G04 #@! TO.N,/Peripherals/SDC_CARD_DETECT*
X177200000Y-74500000D03*
X177200000Y-68300000D03*
G04 #@! TO.N,/Peripherals/USB_LED*
X168500000Y-92000000D03*
X163400000Y-66600000D03*
X158800000Y-69500000D03*
G04 #@! TO.N,/Peripherals/USB_VBUS_SENSE*
X163800000Y-68900000D03*
X160800000Y-70000000D03*
G04 #@! TO.N,/DC motor driver/DCM_BIN2*
X189500000Y-104700000D03*
X187200000Y-89700000D03*
G04 #@! TO.N,/Peripherals/SDC_CS*
X180100000Y-73300000D03*
X180099992Y-69000000D03*
X175900000Y-68899942D03*
X175900000Y-70479953D03*
G04 #@! TO.N,/Peripherals/SDC_MISO*
X178200000Y-73100000D03*
X178200000Y-69400000D03*
G04 #@! TO.N,/Peripherals/ACC_MOSI*
X205200000Y-99200000D03*
X205200000Y-88300000D03*
G04 #@! TO.N,/Peripherals/ACC_MISO*
X204400000Y-98400000D03*
X204400000Y-89100000D03*
G04 #@! TO.N,/Peripherals/ACC_SCK*
X199700000Y-91800000D03*
X201900000Y-101000000D03*
G04 #@! TO.N,/Peripherals/ACC_INT2*
X202400000Y-95600000D03*
X202400000Y-86700000D03*
G04 #@! TO.N,Net-(JP2-Pad2)*
X152900000Y-65900000D03*
X152900000Y-67700000D03*
G04 #@! TO.N,/Sheet5C1D43B5/ADC_VBAT*
X184800000Y-89000000D03*
X184200000Y-100200000D03*
G04 #@! TO.N,/DC motor driver/DCM_FAULT*
X189503245Y-103097837D03*
X185800000Y-74300000D03*
X185600000Y-89700000D03*
X192300000Y-74300000D03*
G04 #@! TO.N,/DC motor driver/DCM_SLEEP*
X188800000Y-103897837D03*
X189600000Y-88900000D03*
X190100000Y-82200000D03*
X186000000Y-82200000D03*
G04 #@! TO.N,/DC motor driver/DCM_AIN1*
X189500000Y-106300000D03*
X188800000Y-89700000D03*
G04 #@! TO.N,/DC motor driver/DCM_AIN2*
X188000000Y-88900000D03*
X188800000Y-105500000D03*
G04 #@! TO.N,/DC motor driver/DCM_BIN1*
X188774990Y-102264905D03*
X186400000Y-88900000D03*
G04 #@! TO.N,/External/EXT_LED*
X97600000Y-89700000D03*
X102400000Y-69400000D03*
G04 #@! TO.N,+12V*
X194600000Y-73400000D03*
X184700000Y-77100000D03*
G04 #@! TO.N,/mcu/PA8*
X176300000Y-80200000D03*
X174000000Y-82500000D03*
G04 #@! TO.N,+5V_USB*
X153800000Y-64100000D03*
G04 #@! TD*
D24*
G04 #@! TO.N,-BATT*
X98500000Y-83000000D02*
X98500000Y-74600000D01*
D25*
X171600000Y-71000000D02*
X171600000Y-76000000D01*
D24*
X201400000Y-98400000D02*
X202300000Y-98400000D01*
X202300000Y-98400000D02*
X204100000Y-100200000D01*
D25*
X114400000Y-91530000D02*
X114410000Y-91540000D01*
X122000000Y-91510000D02*
X122030000Y-91540000D01*
X122000000Y-89700000D02*
X122000000Y-91510000D01*
X122000000Y-89700000D02*
X122000000Y-87500000D01*
D24*
X152800000Y-58550000D02*
X154250000Y-58550000D01*
X154250000Y-58550000D02*
X157100000Y-61400000D01*
X158200000Y-62500000D02*
X157100000Y-61400000D01*
D25*
X170925000Y-60225000D02*
X170925000Y-60175000D01*
X170925000Y-60175000D02*
X173300000Y-57800000D01*
X181200000Y-66600000D02*
X180500000Y-65900000D01*
X180500000Y-65900000D02*
X171600000Y-65900000D01*
D24*
X167700000Y-90900000D02*
X167700000Y-91600000D01*
X166320000Y-92980000D02*
X164900000Y-92980000D01*
X167700000Y-91600000D02*
X166320000Y-92980000D01*
X139810000Y-89410000D02*
X139810000Y-91540000D01*
X137900000Y-87500000D02*
X139810000Y-89410000D01*
X134730000Y-89430000D02*
X132800000Y-87500000D01*
X134730000Y-91540000D02*
X134730000Y-89430000D01*
X132800000Y-87500000D02*
X137900000Y-87500000D01*
D25*
X120200000Y-89700000D02*
X122000000Y-89700000D01*
X104250000Y-91540000D02*
X104250000Y-89950000D01*
X104250000Y-89950000D02*
X104500000Y-89700000D01*
X114410000Y-89710000D02*
X114400000Y-89700000D01*
X114410000Y-91540000D02*
X114410000Y-89710000D01*
X104500000Y-89700000D02*
X114400000Y-89700000D01*
X114400000Y-89700000D02*
X120200000Y-89700000D01*
X109300000Y-94050000D02*
X109330000Y-94080000D01*
X109300000Y-92800000D02*
X109300000Y-94050000D01*
X114410000Y-91540000D02*
X113150000Y-92800000D01*
X113150000Y-92800000D02*
X109300000Y-92800000D01*
X188800000Y-81400000D02*
X188700000Y-81400000D01*
X188700000Y-81400000D02*
X185600000Y-78300000D01*
X185600000Y-78300000D02*
X184600000Y-78300000D01*
D24*
X193800000Y-96200000D02*
X193800000Y-90400000D01*
X191100000Y-70400000D02*
X191100000Y-71000000D01*
X187900000Y-67200000D02*
X191100000Y-70400000D01*
X171300000Y-65600000D02*
X171600000Y-65900000D01*
X158200000Y-65600000D02*
X158300000Y-65600000D01*
X158200000Y-65600000D02*
X158200000Y-62500000D01*
X158200000Y-67700000D02*
X158200000Y-65600000D01*
X155900000Y-70000000D02*
X158200000Y-67700000D01*
X155900000Y-74800000D02*
X155900000Y-70000000D01*
X155100000Y-85100000D02*
X155100000Y-79900000D01*
X152100000Y-88100000D02*
X155100000Y-85100000D01*
X160800000Y-65600000D02*
X171300000Y-65600000D01*
X158300000Y-65600000D02*
X160800000Y-65600000D01*
D26*
X143100000Y-63900000D02*
X143100000Y-58600000D01*
D24*
X175900000Y-93000000D02*
X175900000Y-93300000D01*
X174300000Y-91400000D02*
X175900000Y-93000000D01*
X98500000Y-74600000D02*
X97500000Y-73600000D01*
X127400000Y-87500000D02*
X132800000Y-87500000D01*
X171600000Y-65900000D02*
X171600000Y-71000000D01*
X198500000Y-82200000D02*
X198500000Y-80100000D01*
X195600000Y-71000000D02*
X191100000Y-71000000D01*
X198509990Y-76315929D02*
X198509990Y-73909990D01*
X198509990Y-73909990D02*
X195600000Y-71000000D01*
D25*
X198509990Y-76315929D02*
X198509990Y-79409984D01*
D24*
X167700000Y-87800000D02*
X168575000Y-86925000D01*
X167700000Y-90900000D02*
X167700000Y-87800000D01*
X169400000Y-98900000D02*
X170925000Y-100425000D01*
X170925000Y-100425000D02*
X170925000Y-102000000D01*
X194200000Y-101000000D02*
X194200000Y-96600000D01*
X195700000Y-99500000D02*
X198300000Y-99500000D01*
X194200000Y-96600000D02*
X193800000Y-96200000D01*
X198300000Y-99500000D02*
X199300000Y-100500000D01*
X194200000Y-101000000D02*
X195700000Y-99500000D01*
X107200000Y-80825000D02*
X107200000Y-73600000D01*
X109475000Y-83100000D02*
X107200000Y-80825000D01*
X127400000Y-87500000D02*
X127400000Y-85700000D01*
X137900000Y-87500000D02*
X137900000Y-85700000D01*
X202300000Y-102000000D02*
X204100000Y-100200000D01*
X197400000Y-102000000D02*
X202300000Y-102000000D01*
X195600000Y-103800000D02*
X197400000Y-102000000D01*
X194000000Y-103800000D02*
X195600000Y-103800000D01*
G04 #@! TO.N,+BATT*
X119200000Y-65060000D02*
X121260000Y-63000000D01*
X119200000Y-67100000D02*
X119200000Y-65060000D01*
G04 #@! TO.N,Net-(C5-Pad1)*
X130700000Y-81600000D02*
X130700000Y-74400000D01*
D25*
G04 #@! TO.N,+5V*
X99170000Y-91540000D02*
X101710000Y-91540000D01*
X104850000Y-88400000D02*
X101710000Y-91540000D01*
X120900000Y-88400000D02*
X104850000Y-88400000D01*
D26*
G04 #@! TO.N,+3V3*
X173200000Y-87912500D02*
X173200000Y-101000000D01*
X173200000Y-101000000D02*
X174000000Y-101800000D01*
X176000000Y-103800000D02*
X174000000Y-101800000D01*
X182500000Y-103800000D02*
X176000000Y-103800000D01*
X164100000Y-78200000D02*
X166300000Y-76000000D01*
X166300000Y-76000000D02*
X166300000Y-75900000D01*
X174612500Y-86500000D02*
X173200000Y-87912500D01*
X190600000Y-86500000D02*
X190600000Y-99300000D01*
D25*
X99170000Y-94080000D02*
X101390000Y-96300000D01*
X117270000Y-96300000D02*
X119490000Y-94080000D01*
X101390000Y-96300000D02*
X117270000Y-96300000D01*
D26*
X190600000Y-86500000D02*
X174612500Y-86500000D01*
D24*
X164200000Y-67400000D02*
X162400000Y-67400000D01*
X165700000Y-68900000D02*
X164200000Y-67400000D01*
G04 #@! TO.N,/Peripherals/ACC_INT1*
X201400000Y-87500000D02*
X201400000Y-95600000D01*
G04 #@! TO.N,/mcu/NRST*
X192300000Y-105400000D02*
X190100000Y-107600000D01*
X192300000Y-97800000D02*
X192300000Y-105400000D01*
X190100000Y-107600000D02*
X188900000Y-107600000D01*
X188900000Y-107600000D02*
X186100000Y-104800000D01*
X186100000Y-104800000D02*
X179700000Y-104800000D01*
X172300000Y-101400000D02*
X175700000Y-104800000D01*
X172300000Y-99600000D02*
X172300000Y-101400000D01*
X175700000Y-104800000D02*
X179700000Y-104800000D01*
X170760000Y-98060000D02*
X172300000Y-99600000D01*
X164900000Y-98060000D02*
X170760000Y-98060000D01*
X192300000Y-97800000D02*
X192300000Y-90900000D01*
X192300000Y-90900000D02*
X195000000Y-88200000D01*
G04 #@! TO.N,/Peripherals/BUZZER_PWM*
X191500000Y-91100000D02*
X191500000Y-92000000D01*
X191500000Y-92000000D02*
X191500000Y-100700000D01*
G04 #@! TO.N,/Peripherals/SDC_CARD_DETECT*
X177200000Y-74500000D02*
X177200000Y-68300000D01*
G04 #@! TO.N,/Peripherals/USB_LED*
X164900000Y-95520000D02*
X168420000Y-92000000D01*
X168420000Y-92000000D02*
X168500000Y-92000000D01*
X163400000Y-66600000D02*
X161700000Y-66600000D01*
X161700000Y-66600000D02*
X158800000Y-69500000D01*
G04 #@! TO.N,/Peripherals/USB_VBUS_SENSE*
X161900000Y-68900000D02*
X163800000Y-68900000D01*
X160800000Y-70000000D02*
X161900000Y-68900000D01*
G04 #@! TO.N,/DC motor driver/DCM_BIN2*
X187200000Y-90600000D02*
X187200000Y-89700000D01*
X187900000Y-91300000D02*
X187200000Y-90600000D01*
X190300000Y-102700000D02*
X187900000Y-100300000D01*
X187900000Y-100300000D02*
X187900000Y-91300000D01*
X189500000Y-104700000D02*
X190300000Y-103900000D01*
X190300000Y-103900000D02*
X190300000Y-102700000D01*
G04 #@! TO.N,/Peripherals/SDC_CS*
X175900000Y-68899942D02*
X175800000Y-68799942D01*
X180100000Y-73300000D02*
X180100000Y-69000008D01*
X180100000Y-69000008D02*
X180099992Y-69000000D01*
X175900000Y-69100000D02*
X175900000Y-68899942D01*
X175900000Y-69100000D02*
X175900000Y-70479953D01*
G04 #@! TO.N,/Peripherals/SDC_MISO*
X178200000Y-73100000D02*
X178200000Y-69400000D01*
G04 #@! TO.N,/Peripherals/ACC_MOSI*
X205780000Y-93380000D02*
X205200000Y-92800000D01*
X205200000Y-99200000D02*
X205200000Y-92800000D01*
X207600000Y-93380000D02*
X205780000Y-93380000D01*
X205200000Y-92800000D02*
X205200000Y-88300000D01*
G04 #@! TO.N,/Peripherals/ACC_MISO*
X204400000Y-89100000D02*
X204400000Y-98400000D01*
G04 #@! TO.N,/Peripherals/ACC_SCK*
X199700000Y-98800000D02*
X199700000Y-91800000D01*
X199700000Y-98800000D02*
X201900000Y-101000000D01*
G04 #@! TO.N,/Peripherals/ACC_INT2*
X202400000Y-86700000D02*
X202400000Y-95600000D01*
G04 #@! TO.N,Net-(JP2-Pad2)*
X152900000Y-65900000D02*
X152900000Y-67700000D01*
G04 #@! TO.N,/Sheet5C1D43B5/ADC_VBAT*
X184800000Y-90300000D02*
X184800000Y-89000000D01*
X186400000Y-91900000D02*
X184800000Y-90300000D01*
X184200000Y-100200000D02*
X186400000Y-98000000D01*
X186400000Y-98000000D02*
X186400000Y-91900000D01*
G04 #@! TO.N,/DC motor driver/DCM_FAULT*
X185600000Y-90400000D02*
X185600000Y-89700000D01*
X186900000Y-91700000D02*
X185600000Y-90400000D01*
X186900000Y-101700000D02*
X186900000Y-91700000D01*
X189503245Y-103097837D02*
X188297837Y-103097837D01*
X188297837Y-103097837D02*
X186900000Y-101700000D01*
X185800000Y-74300000D02*
X192300000Y-74300000D01*
G04 #@! TO.N,/DC motor driver/DCM_SLEEP*
X189100000Y-107100000D02*
X188000000Y-106000000D01*
X189800000Y-107100000D02*
X189100000Y-107100000D01*
X189400000Y-90800000D02*
X189400000Y-99700000D01*
X189400000Y-99700000D02*
X191800000Y-102100000D01*
X191800000Y-102100000D02*
X191800000Y-105100000D01*
X189600000Y-88900000D02*
X189600000Y-90600000D01*
X189600000Y-90600000D02*
X189400000Y-90800000D01*
X191800000Y-105100000D02*
X189800000Y-107100000D01*
X188000000Y-104697837D02*
X188800000Y-103897837D01*
X188000000Y-105100000D02*
X188000000Y-104697837D01*
X188000000Y-106000000D02*
X188000000Y-105100000D01*
X190100000Y-82200000D02*
X186000000Y-82200000D01*
G04 #@! TO.N,/DC motor driver/DCM_AIN1*
X191300000Y-104700000D02*
X189700000Y-106300000D01*
X189700000Y-106300000D02*
X189500000Y-106300000D01*
X188900000Y-99900000D02*
X191300000Y-102300000D01*
X191300000Y-102300000D02*
X191300000Y-104700000D01*
X188900000Y-89800000D02*
X188800000Y-89700000D01*
X188900000Y-99900000D02*
X188900000Y-89800000D01*
G04 #@! TO.N,/DC motor driver/DCM_AIN2*
X189800000Y-105500000D02*
X190800000Y-104500000D01*
X188800000Y-105500000D02*
X189800000Y-105500000D01*
X190800000Y-104500000D02*
X190800000Y-102500000D01*
X190800000Y-102500000D02*
X188400000Y-100100000D01*
X188000000Y-90000000D02*
X188000000Y-88900000D01*
X188400000Y-90400000D02*
X188000000Y-90000000D01*
X188400000Y-100100000D02*
X188400000Y-90400000D01*
G04 #@! TO.N,/DC motor driver/DCM_BIN1*
X187400000Y-91500000D02*
X186400000Y-90500000D01*
X186400000Y-90500000D02*
X186400000Y-88900000D01*
X188774990Y-102264905D02*
X187400000Y-100889915D01*
X187400000Y-100889915D02*
X187400000Y-91500000D01*
G04 #@! TO.N,/External/EXT_LED*
X102400000Y-84900000D02*
X97600000Y-89700000D01*
X102400000Y-69400000D02*
X102400000Y-84900000D01*
D25*
G04 #@! TO.N,+12V*
X190900000Y-77100000D02*
X194600000Y-73400000D01*
X184700000Y-77100000D02*
X190900000Y-77100000D01*
D24*
G04 #@! TO.N,/mcu/PA8*
X176300000Y-80200000D02*
X174000000Y-82500000D01*
D25*
G04 #@! TO.N,+5V_USB*
X153800000Y-71600000D02*
X153600000Y-71800000D01*
X153800000Y-64100000D02*
X153800000Y-71600000D01*
D24*
G04 #@! TO.N,Net-(J8-Pad6)*
X207500000Y-88200000D02*
X207600000Y-88300000D01*
X206600000Y-87300000D02*
X207600000Y-88300000D01*
X203400000Y-92400000D02*
X203400000Y-88500000D01*
X204600000Y-87300000D02*
X206600000Y-87300000D01*
X203400000Y-88500000D02*
X204600000Y-87300000D01*
G04 #@! TD*
D27*
G04 #@! TO.N,-BATT*
G36*
X208873000Y-97696347D02*
X208871645Y-97693076D01*
X208481358Y-97264817D01*
X208078809Y-97075770D01*
X208484617Y-96804617D01*
X208755808Y-96398752D01*
X208851038Y-95920000D01*
X208755808Y-95441248D01*
X208484617Y-95035383D01*
X208078752Y-94764192D01*
X207720847Y-94693000D01*
X207479153Y-94693000D01*
X207121248Y-94764192D01*
X206715383Y-95035383D01*
X206444192Y-95441248D01*
X206348962Y-95920000D01*
X206444192Y-96398752D01*
X206715383Y-96804617D01*
X207121191Y-97075770D01*
X206718642Y-97264817D01*
X206328355Y-97693076D01*
X206158524Y-98103110D01*
X206279845Y-98333000D01*
X207473000Y-98333000D01*
X207473000Y-98313000D01*
X207727000Y-98313000D01*
X207727000Y-98333000D01*
X207747000Y-98333000D01*
X207747000Y-98587000D01*
X207727000Y-98587000D01*
X207727000Y-98607000D01*
X207473000Y-98607000D01*
X207473000Y-98587000D01*
X206279845Y-98587000D01*
X206158524Y-98816890D01*
X206328355Y-99226924D01*
X206718642Y-99655183D01*
X206953791Y-99765615D01*
X206750000Y-99765615D01*
X206602902Y-99794875D01*
X206478199Y-99878199D01*
X206394875Y-100002902D01*
X206365615Y-100150000D01*
X206365615Y-101850000D01*
X206394875Y-101997098D01*
X206478199Y-102121801D01*
X206602902Y-102205125D01*
X206750000Y-102234385D01*
X208450000Y-102234385D01*
X208597098Y-102205125D01*
X208721801Y-102121801D01*
X208805125Y-101997098D01*
X208834385Y-101850000D01*
X208834385Y-100150000D01*
X208805125Y-100002902D01*
X208721801Y-99878199D01*
X208597098Y-99794875D01*
X208450000Y-99765615D01*
X208246209Y-99765615D01*
X208481358Y-99655183D01*
X208871645Y-99226924D01*
X208873000Y-99223653D01*
X208873000Y-118873000D01*
X91127000Y-118873000D01*
X91127000Y-115177457D01*
X91573000Y-115177457D01*
X91573000Y-116222543D01*
X91972937Y-117188076D01*
X92711924Y-117927063D01*
X93677457Y-118327000D01*
X94722543Y-118327000D01*
X95688076Y-117927063D01*
X96427063Y-117188076D01*
X96827000Y-116222543D01*
X96827000Y-115177457D01*
X149573000Y-115177457D01*
X149573000Y-116222543D01*
X149972937Y-117188076D01*
X150711924Y-117927063D01*
X151677457Y-118327000D01*
X152722543Y-118327000D01*
X153688076Y-117927063D01*
X154427063Y-117188076D01*
X154827000Y-116222543D01*
X154827000Y-115177457D01*
X154427063Y-114211924D01*
X153688076Y-113472937D01*
X152722543Y-113073000D01*
X151677457Y-113073000D01*
X150711924Y-113472937D01*
X149972937Y-114211924D01*
X149573000Y-115177457D01*
X96827000Y-115177457D01*
X96427063Y-114211924D01*
X95688076Y-113472937D01*
X94722543Y-113073000D01*
X93677457Y-113073000D01*
X92711924Y-113472937D01*
X91972937Y-114211924D01*
X91573000Y-115177457D01*
X91127000Y-115177457D01*
X91127000Y-100600000D01*
X163648962Y-100600000D01*
X163744192Y-101078752D01*
X164015383Y-101484617D01*
X164421248Y-101755808D01*
X164779153Y-101827000D01*
X165020847Y-101827000D01*
X165378752Y-101755808D01*
X165784617Y-101484617D01*
X166055808Y-101078752D01*
X166151038Y-100600000D01*
X166055808Y-100121248D01*
X165784617Y-99715383D01*
X165378752Y-99444192D01*
X165020847Y-99373000D01*
X164779153Y-99373000D01*
X164421248Y-99444192D01*
X164015383Y-99715383D01*
X163744192Y-100121248D01*
X163648962Y-100600000D01*
X91127000Y-100600000D01*
X91127000Y-98060000D01*
X163648962Y-98060000D01*
X163744192Y-98538752D01*
X164015383Y-98944617D01*
X164421248Y-99215808D01*
X164779153Y-99287000D01*
X165020847Y-99287000D01*
X165378752Y-99215808D01*
X165784617Y-98944617D01*
X166040274Y-98562000D01*
X170552066Y-98562000D01*
X171798000Y-99807935D01*
X171798001Y-101350561D01*
X171788167Y-101400000D01*
X171827128Y-101595870D01*
X171910074Y-101720008D01*
X171910076Y-101720010D01*
X171938080Y-101761921D01*
X171979991Y-101789925D01*
X174163065Y-103973000D01*
X171400000Y-103973000D01*
X171359312Y-103979694D01*
X171316370Y-104004423D01*
X170516370Y-104704423D01*
X170482667Y-104751399D01*
X170473000Y-104800000D01*
X170473000Y-108800000D01*
X170482667Y-108848601D01*
X170510197Y-108889803D01*
X172673000Y-111052606D01*
X172673000Y-115300000D01*
X172682667Y-115348601D01*
X172710197Y-115389803D01*
X174910197Y-117589803D01*
X174951399Y-117617333D01*
X175000000Y-117627000D01*
X184300000Y-117627000D01*
X184348601Y-117617333D01*
X184389803Y-117589803D01*
X186589803Y-115389803D01*
X186617333Y-115348601D01*
X186627000Y-115300000D01*
X186627000Y-114288490D01*
X201423000Y-114288490D01*
X201423000Y-115711510D01*
X201967565Y-117026208D01*
X202973792Y-118032435D01*
X204288490Y-118577000D01*
X205711510Y-118577000D01*
X207026208Y-118032435D01*
X208032435Y-117026208D01*
X208577000Y-115711510D01*
X208577000Y-114288490D01*
X208032435Y-112973792D01*
X207026208Y-111967565D01*
X205711510Y-111423000D01*
X204288490Y-111423000D01*
X202973792Y-111967565D01*
X201967565Y-112973792D01*
X201423000Y-114288490D01*
X186627000Y-114288490D01*
X186627000Y-112300000D01*
X186617333Y-112251399D01*
X186589803Y-112210197D01*
X185227000Y-110847394D01*
X185227000Y-109100000D01*
X185217333Y-109051399D01*
X185189803Y-109010197D01*
X181989803Y-105810197D01*
X181948601Y-105782667D01*
X181900000Y-105773000D01*
X180000000Y-105773000D01*
X179951399Y-105782667D01*
X179910197Y-105810197D01*
X179882667Y-105851399D01*
X179873000Y-105900000D01*
X179873000Y-106600000D01*
X179882667Y-106648601D01*
X179910197Y-106689803D01*
X179951399Y-106717333D01*
X180000000Y-106727000D01*
X181447394Y-106727000D01*
X184173000Y-109452606D01*
X184173000Y-111200000D01*
X184182667Y-111248601D01*
X184210197Y-111289803D01*
X185573000Y-112652606D01*
X185573000Y-114947394D01*
X183947394Y-116573000D01*
X175352606Y-116573000D01*
X173727000Y-114947394D01*
X173727000Y-113575826D01*
X176073000Y-113575826D01*
X176073000Y-114024174D01*
X176244576Y-114438394D01*
X176561606Y-114755424D01*
X176975826Y-114927000D01*
X177424174Y-114927000D01*
X177838394Y-114755424D01*
X178155424Y-114438394D01*
X178327000Y-114024174D01*
X178327000Y-113575826D01*
X180953000Y-113575826D01*
X180953000Y-114024174D01*
X181124576Y-114438394D01*
X181441606Y-114755424D01*
X181855826Y-114927000D01*
X182304174Y-114927000D01*
X182718394Y-114755424D01*
X183035424Y-114438394D01*
X183207000Y-114024174D01*
X183207000Y-113575826D01*
X183035424Y-113161606D01*
X182718394Y-112844576D01*
X182304174Y-112673000D01*
X181855826Y-112673000D01*
X181441606Y-112844576D01*
X181124576Y-113161606D01*
X180953000Y-113575826D01*
X178327000Y-113575826D01*
X178155424Y-113161606D01*
X177838394Y-112844576D01*
X177424174Y-112673000D01*
X176975826Y-112673000D01*
X176561606Y-112844576D01*
X176244576Y-113161606D01*
X176073000Y-113575826D01*
X173727000Y-113575826D01*
X173727000Y-110600000D01*
X173717333Y-110551399D01*
X173689803Y-110510197D01*
X171627000Y-108447394D01*
X171627000Y-107965554D01*
X171723000Y-107965554D01*
X171723000Y-108314446D01*
X171856516Y-108636780D01*
X172103220Y-108883484D01*
X172425554Y-109017000D01*
X172774446Y-109017000D01*
X173096780Y-108883484D01*
X173343484Y-108636780D01*
X173477000Y-108314446D01*
X173477000Y-107965554D01*
X173343484Y-107643220D01*
X173096780Y-107396516D01*
X172774446Y-107263000D01*
X172425554Y-107263000D01*
X172103220Y-107396516D01*
X171856516Y-107643220D01*
X171723000Y-107965554D01*
X171627000Y-107965554D01*
X171627000Y-105425554D01*
X171723000Y-105425554D01*
X171723000Y-105774446D01*
X171856516Y-106096780D01*
X172103220Y-106343484D01*
X172425554Y-106477000D01*
X172774446Y-106477000D01*
X173096780Y-106343484D01*
X173343484Y-106096780D01*
X173477000Y-105774446D01*
X173477000Y-105425554D01*
X173343484Y-105103220D01*
X173096780Y-104856516D01*
X172774446Y-104723000D01*
X172425554Y-104723000D01*
X172103220Y-104856516D01*
X171856516Y-105103220D01*
X171723000Y-105425554D01*
X171627000Y-105425554D01*
X171627000Y-105252606D01*
X172252606Y-104627000D01*
X174300000Y-104627000D01*
X174348601Y-104617333D01*
X174389803Y-104589803D01*
X174417333Y-104548601D01*
X174427000Y-104500000D01*
X174427000Y-104236935D01*
X175310077Y-105120013D01*
X175338079Y-105161921D01*
X175379987Y-105189923D01*
X175379990Y-105189926D01*
X175455134Y-105240135D01*
X175504130Y-105272873D01*
X175650561Y-105302000D01*
X175650565Y-105302000D01*
X175699999Y-105311833D01*
X175749433Y-105302000D01*
X179103156Y-105302000D01*
X179259865Y-105458709D01*
X179545445Y-105577000D01*
X179854555Y-105577000D01*
X180140135Y-105458709D01*
X180296844Y-105302000D01*
X185892066Y-105302000D01*
X188510075Y-107920010D01*
X188538079Y-107961921D01*
X188704130Y-108072873D01*
X188850561Y-108102000D01*
X188850566Y-108102000D01*
X188900000Y-108111833D01*
X188949434Y-108102000D01*
X190050566Y-108102000D01*
X190100000Y-108111833D01*
X190149434Y-108102000D01*
X190149439Y-108102000D01*
X190295870Y-108072873D01*
X190461921Y-107961921D01*
X190489927Y-107920007D01*
X192620010Y-105789925D01*
X192661921Y-105761921D01*
X192772873Y-105595870D01*
X192802000Y-105449439D01*
X192802000Y-105449434D01*
X192811833Y-105400000D01*
X192802000Y-105350566D01*
X192802000Y-98396844D01*
X192958709Y-98240135D01*
X193077000Y-97954555D01*
X193077000Y-97645445D01*
X192958709Y-97359865D01*
X192802000Y-97203156D01*
X192802000Y-91645445D01*
X198923000Y-91645445D01*
X198923000Y-91954555D01*
X199041291Y-92240135D01*
X199198001Y-92396845D01*
X199198000Y-98750566D01*
X199188167Y-98800000D01*
X199198000Y-98849434D01*
X199198000Y-98849438D01*
X199227127Y-98995869D01*
X199338079Y-99161921D01*
X199379993Y-99189927D01*
X201123000Y-100932935D01*
X201123000Y-101154555D01*
X201241291Y-101440135D01*
X201459865Y-101658709D01*
X201745445Y-101777000D01*
X202054555Y-101777000D01*
X202340135Y-101658709D01*
X202558709Y-101440135D01*
X202677000Y-101154555D01*
X202677000Y-100845445D01*
X202558709Y-100559865D01*
X202340135Y-100341291D01*
X202054555Y-100223000D01*
X201832935Y-100223000D01*
X200202000Y-98592066D01*
X200202000Y-92396844D01*
X200358709Y-92240135D01*
X200477000Y-91954555D01*
X200477000Y-91645445D01*
X200358709Y-91359865D01*
X200140135Y-91141291D01*
X199854555Y-91023000D01*
X199545445Y-91023000D01*
X199259865Y-91141291D01*
X199041291Y-91359865D01*
X198923000Y-91645445D01*
X192802000Y-91645445D01*
X192802000Y-91107934D01*
X194932935Y-88977000D01*
X195154555Y-88977000D01*
X195440135Y-88858709D01*
X195658709Y-88640135D01*
X195777000Y-88354555D01*
X195777000Y-88045445D01*
X195658709Y-87759865D01*
X195440135Y-87541291D01*
X195154555Y-87423000D01*
X194845445Y-87423000D01*
X194559865Y-87541291D01*
X194341291Y-87759865D01*
X194223000Y-88045445D01*
X194223000Y-88267065D01*
X191994455Y-90495611D01*
X191940135Y-90441291D01*
X191654555Y-90323000D01*
X191345445Y-90323000D01*
X191227000Y-90372061D01*
X191227000Y-87345445D01*
X200623000Y-87345445D01*
X200623000Y-87654555D01*
X200741291Y-87940135D01*
X200898000Y-88096844D01*
X200898001Y-95003155D01*
X200741291Y-95159865D01*
X200623000Y-95445445D01*
X200623000Y-95754555D01*
X200741291Y-96040135D01*
X200959865Y-96258709D01*
X201245445Y-96377000D01*
X201554555Y-96377000D01*
X201840135Y-96258709D01*
X201900000Y-96198844D01*
X201959865Y-96258709D01*
X202245445Y-96377000D01*
X202554555Y-96377000D01*
X202840135Y-96258709D01*
X203058709Y-96040135D01*
X203177000Y-95754555D01*
X203177000Y-95445445D01*
X203058709Y-95159865D01*
X202988336Y-95089492D01*
X203087075Y-95155467D01*
X203321011Y-95202000D01*
X203478989Y-95202000D01*
X203712925Y-95155467D01*
X203898001Y-95031804D01*
X203898001Y-97803155D01*
X203741291Y-97959865D01*
X203623000Y-98245445D01*
X203623000Y-98554555D01*
X203741291Y-98840135D01*
X203959865Y-99058709D01*
X204245445Y-99177000D01*
X204423000Y-99177000D01*
X204423000Y-99354555D01*
X204541291Y-99640135D01*
X204759865Y-99858709D01*
X205045445Y-99977000D01*
X205354555Y-99977000D01*
X205640135Y-99858709D01*
X205858709Y-99640135D01*
X205977000Y-99354555D01*
X205977000Y-99045445D01*
X205858709Y-98759865D01*
X205702000Y-98603156D01*
X205702000Y-93876319D01*
X205730561Y-93882000D01*
X205730566Y-93882000D01*
X205780000Y-93891833D01*
X205829434Y-93882000D01*
X206459726Y-93882000D01*
X206715383Y-94264617D01*
X207121248Y-94535808D01*
X207479153Y-94607000D01*
X207720847Y-94607000D01*
X208078752Y-94535808D01*
X208484617Y-94264617D01*
X208755808Y-93858752D01*
X208851038Y-93380000D01*
X208755808Y-92901248D01*
X208484617Y-92495383D01*
X208078752Y-92224192D01*
X207720847Y-92153000D01*
X207479153Y-92153000D01*
X207121248Y-92224192D01*
X206715383Y-92495383D01*
X206459726Y-92878000D01*
X205987935Y-92878000D01*
X205702000Y-92592066D01*
X205702000Y-90840000D01*
X206348962Y-90840000D01*
X206444192Y-91318752D01*
X206715383Y-91724617D01*
X207121248Y-91995808D01*
X207479153Y-92067000D01*
X207720847Y-92067000D01*
X208078752Y-91995808D01*
X208484617Y-91724617D01*
X208755808Y-91318752D01*
X208851038Y-90840000D01*
X208755808Y-90361248D01*
X208484617Y-89955383D01*
X208078752Y-89684192D01*
X207720847Y-89613000D01*
X207479153Y-89613000D01*
X207121248Y-89684192D01*
X206715383Y-89955383D01*
X206444192Y-90361248D01*
X206348962Y-90840000D01*
X205702000Y-90840000D01*
X205702000Y-88896844D01*
X205858709Y-88740135D01*
X205977000Y-88454555D01*
X205977000Y-88145445D01*
X205858709Y-87859865D01*
X205800844Y-87802000D01*
X206392066Y-87802000D01*
X206438737Y-87848671D01*
X206348962Y-88300000D01*
X206444192Y-88778752D01*
X206715383Y-89184617D01*
X207121248Y-89455808D01*
X207479153Y-89527000D01*
X207720847Y-89527000D01*
X208078752Y-89455808D01*
X208484617Y-89184617D01*
X208755808Y-88778752D01*
X208851038Y-88300000D01*
X208755808Y-87821248D01*
X208484617Y-87415383D01*
X208078752Y-87144192D01*
X207720847Y-87073000D01*
X207479153Y-87073000D01*
X207148671Y-87138737D01*
X206989927Y-86979993D01*
X206961921Y-86938079D01*
X206795870Y-86827127D01*
X206649439Y-86798000D01*
X206649434Y-86798000D01*
X206600000Y-86788167D01*
X206550566Y-86798000D01*
X204649433Y-86798000D01*
X204599999Y-86788167D01*
X204550565Y-86798000D01*
X204550561Y-86798000D01*
X204404130Y-86827127D01*
X204404128Y-86827128D01*
X204404129Y-86827128D01*
X204279990Y-86910074D01*
X204279987Y-86910077D01*
X204238079Y-86938079D01*
X204210076Y-86979988D01*
X203079991Y-88110075D01*
X203038080Y-88138079D01*
X203010076Y-88179990D01*
X203010074Y-88179992D01*
X202927128Y-88304130D01*
X202902000Y-88430457D01*
X202902000Y-87296844D01*
X203058709Y-87140135D01*
X203177000Y-86854555D01*
X203177000Y-86545445D01*
X203058709Y-86259865D01*
X202840135Y-86041291D01*
X202554555Y-85923000D01*
X202245445Y-85923000D01*
X201959865Y-86041291D01*
X201741291Y-86259865D01*
X201623000Y-86545445D01*
X201623000Y-86751351D01*
X201554555Y-86723000D01*
X201245445Y-86723000D01*
X200959865Y-86841291D01*
X200741291Y-87059865D01*
X200623000Y-87345445D01*
X191227000Y-87345445D01*
X191227000Y-86971844D01*
X191258709Y-86940135D01*
X191377000Y-86654555D01*
X191377000Y-86345445D01*
X191258709Y-86059865D01*
X191040135Y-85841291D01*
X190843881Y-85760000D01*
X206348962Y-85760000D01*
X206444192Y-86238752D01*
X206715383Y-86644617D01*
X207121248Y-86915808D01*
X207479153Y-86987000D01*
X207720847Y-86987000D01*
X208078752Y-86915808D01*
X208484617Y-86644617D01*
X208755808Y-86238752D01*
X208851038Y-85760000D01*
X208755808Y-85281248D01*
X208484617Y-84875383D01*
X208078752Y-84604192D01*
X207720847Y-84533000D01*
X207479153Y-84533000D01*
X207121248Y-84604192D01*
X206715383Y-84875383D01*
X206444192Y-85281248D01*
X206348962Y-85760000D01*
X190843881Y-85760000D01*
X190754555Y-85723000D01*
X190445445Y-85723000D01*
X190159865Y-85841291D01*
X190128156Y-85873000D01*
X174674246Y-85873000D01*
X174612500Y-85860718D01*
X174550754Y-85873000D01*
X174550750Y-85873000D01*
X174367857Y-85909380D01*
X174212808Y-86012980D01*
X174212807Y-86012981D01*
X174160459Y-86047959D01*
X174125481Y-86100307D01*
X173090289Y-87135500D01*
X173045445Y-87135500D01*
X172759865Y-87253791D01*
X172541291Y-87472365D01*
X172423000Y-87757945D01*
X172423000Y-88067055D01*
X172541291Y-88352635D01*
X172573000Y-88384344D01*
X172573001Y-99163066D01*
X171149927Y-97739993D01*
X171121921Y-97698079D01*
X170955870Y-97587127D01*
X170809439Y-97558000D01*
X170809434Y-97558000D01*
X170760000Y-97548167D01*
X170710566Y-97558000D01*
X166040274Y-97558000D01*
X165784617Y-97175383D01*
X165378752Y-96904192D01*
X165020847Y-96833000D01*
X164779153Y-96833000D01*
X164421248Y-96904192D01*
X164015383Y-97175383D01*
X163744192Y-97581248D01*
X163648962Y-98060000D01*
X91127000Y-98060000D01*
X91127000Y-91977457D01*
X91573000Y-91977457D01*
X91573000Y-93022543D01*
X91972937Y-93988076D01*
X92711924Y-94727063D01*
X93677457Y-95127000D01*
X94722543Y-95127000D01*
X95688076Y-94727063D01*
X96427063Y-93988076D01*
X96490081Y-93835935D01*
X97943000Y-93835935D01*
X97943000Y-94324065D01*
X98129800Y-94775039D01*
X98474961Y-95120200D01*
X98925935Y-95307000D01*
X99414065Y-95307000D01*
X99542105Y-95253964D01*
X100949583Y-96661442D01*
X100981216Y-96708784D01*
X101168768Y-96834102D01*
X101334157Y-96867000D01*
X101334161Y-96867000D01*
X101389999Y-96878107D01*
X101445838Y-96867000D01*
X117214162Y-96867000D01*
X117270000Y-96878107D01*
X117325838Y-96867000D01*
X117325843Y-96867000D01*
X117491232Y-96834102D01*
X117678784Y-96708784D01*
X117710419Y-96661440D01*
X119117895Y-95253964D01*
X119245935Y-95307000D01*
X119734065Y-95307000D01*
X120185039Y-95120200D01*
X120530200Y-94775039D01*
X120717000Y-94324065D01*
X120717000Y-93835935D01*
X120803000Y-93835935D01*
X120803000Y-94324065D01*
X120989800Y-94775039D01*
X121334961Y-95120200D01*
X121785935Y-95307000D01*
X122274065Y-95307000D01*
X122725039Y-95120200D01*
X123070200Y-94775039D01*
X123257000Y-94324065D01*
X123257000Y-93835935D01*
X123343000Y-93835935D01*
X123343000Y-94324065D01*
X123529800Y-94775039D01*
X123874961Y-95120200D01*
X124325935Y-95307000D01*
X124814065Y-95307000D01*
X125265039Y-95120200D01*
X125610200Y-94775039D01*
X125797000Y-94324065D01*
X125797000Y-93835935D01*
X125883000Y-93835935D01*
X125883000Y-94324065D01*
X126069800Y-94775039D01*
X126414961Y-95120200D01*
X126865935Y-95307000D01*
X127354065Y-95307000D01*
X127795966Y-95123958D01*
X128785647Y-95123958D01*
X128865920Y-95375259D01*
X129421279Y-95576718D01*
X130011458Y-95550315D01*
X130434080Y-95375259D01*
X130514353Y-95123958D01*
X129650000Y-94259605D01*
X128785647Y-95123958D01*
X127795966Y-95123958D01*
X127805039Y-95120200D01*
X128150200Y-94775039D01*
X128234030Y-94572657D01*
X128354741Y-94864080D01*
X128606042Y-94944353D01*
X129470395Y-94080000D01*
X129829605Y-94080000D01*
X130693958Y-94944353D01*
X130945259Y-94864080D01*
X131057976Y-94553356D01*
X131149800Y-94775039D01*
X131494961Y-95120200D01*
X131945935Y-95307000D01*
X132434065Y-95307000D01*
X132885039Y-95120200D01*
X133230200Y-94775039D01*
X133417000Y-94324065D01*
X133417000Y-93835935D01*
X133503000Y-93835935D01*
X133503000Y-94324065D01*
X133689800Y-94775039D01*
X134034961Y-95120200D01*
X134485935Y-95307000D01*
X134974065Y-95307000D01*
X135425039Y-95120200D01*
X135770200Y-94775039D01*
X135957000Y-94324065D01*
X135957000Y-93835935D01*
X136043000Y-93835935D01*
X136043000Y-94324065D01*
X136229800Y-94775039D01*
X136574961Y-95120200D01*
X137025935Y-95307000D01*
X137514065Y-95307000D01*
X137965039Y-95120200D01*
X138310200Y-94775039D01*
X138497000Y-94324065D01*
X138497000Y-93835935D01*
X138583000Y-93835935D01*
X138583000Y-94324065D01*
X138769800Y-94775039D01*
X139114961Y-95120200D01*
X139565935Y-95307000D01*
X140054065Y-95307000D01*
X140505039Y-95120200D01*
X140850200Y-94775039D01*
X141037000Y-94324065D01*
X141037000Y-93835935D01*
X141123000Y-93835935D01*
X141123000Y-94324065D01*
X141309800Y-94775039D01*
X141654961Y-95120200D01*
X142105935Y-95307000D01*
X142594065Y-95307000D01*
X143045039Y-95120200D01*
X143390200Y-94775039D01*
X143577000Y-94324065D01*
X143577000Y-93835935D01*
X143663000Y-93835935D01*
X143663000Y-94324065D01*
X143849800Y-94775039D01*
X144194961Y-95120200D01*
X144645935Y-95307000D01*
X145134065Y-95307000D01*
X145575966Y-95123958D01*
X146565647Y-95123958D01*
X146645920Y-95375259D01*
X147201279Y-95576718D01*
X147791458Y-95550315D01*
X148214080Y-95375259D01*
X148294353Y-95123958D01*
X147430000Y-94259605D01*
X146565647Y-95123958D01*
X145575966Y-95123958D01*
X145585039Y-95120200D01*
X145930200Y-94775039D01*
X146014030Y-94572657D01*
X146134741Y-94864080D01*
X146386042Y-94944353D01*
X147250395Y-94080000D01*
X147609605Y-94080000D01*
X148473958Y-94944353D01*
X148725259Y-94864080D01*
X148926718Y-94308721D01*
X148900315Y-93718542D01*
X148725259Y-93295920D01*
X148473958Y-93215647D01*
X147609605Y-94080000D01*
X147250395Y-94080000D01*
X146386042Y-93215647D01*
X146134741Y-93295920D01*
X146022024Y-93606644D01*
X145930200Y-93384961D01*
X145585039Y-93039800D01*
X145134065Y-92853000D01*
X144645935Y-92853000D01*
X144194961Y-93039800D01*
X143849800Y-93384961D01*
X143663000Y-93835935D01*
X143577000Y-93835935D01*
X143390200Y-93384961D01*
X143045039Y-93039800D01*
X142594065Y-92853000D01*
X142105935Y-92853000D01*
X141654961Y-93039800D01*
X141309800Y-93384961D01*
X141123000Y-93835935D01*
X141037000Y-93835935D01*
X140850200Y-93384961D01*
X140505039Y-93039800D01*
X140302657Y-92955970D01*
X140594080Y-92835259D01*
X140674353Y-92583958D01*
X139810000Y-91719605D01*
X138945647Y-92583958D01*
X139025920Y-92835259D01*
X139336644Y-92947976D01*
X139114961Y-93039800D01*
X138769800Y-93384961D01*
X138583000Y-93835935D01*
X138497000Y-93835935D01*
X138310200Y-93384961D01*
X137965039Y-93039800D01*
X137514065Y-92853000D01*
X137025935Y-92853000D01*
X136574961Y-93039800D01*
X136229800Y-93384961D01*
X136043000Y-93835935D01*
X135957000Y-93835935D01*
X135770200Y-93384961D01*
X135425039Y-93039800D01*
X135222657Y-92955970D01*
X135514080Y-92835259D01*
X135594353Y-92583958D01*
X134730000Y-91719605D01*
X133865647Y-92583958D01*
X133945920Y-92835259D01*
X134256644Y-92947976D01*
X134034961Y-93039800D01*
X133689800Y-93384961D01*
X133503000Y-93835935D01*
X133417000Y-93835935D01*
X133230200Y-93384961D01*
X132885039Y-93039800D01*
X132434065Y-92853000D01*
X131945935Y-92853000D01*
X131494961Y-93039800D01*
X131149800Y-93384961D01*
X131065970Y-93587343D01*
X130945259Y-93295920D01*
X130693958Y-93215647D01*
X129829605Y-94080000D01*
X129470395Y-94080000D01*
X128606042Y-93215647D01*
X128354741Y-93295920D01*
X128242024Y-93606644D01*
X128150200Y-93384961D01*
X127805039Y-93039800D01*
X127354065Y-92853000D01*
X126865935Y-92853000D01*
X126414961Y-93039800D01*
X126069800Y-93384961D01*
X125883000Y-93835935D01*
X125797000Y-93835935D01*
X125610200Y-93384961D01*
X125265039Y-93039800D01*
X124814065Y-92853000D01*
X124325935Y-92853000D01*
X123874961Y-93039800D01*
X123529800Y-93384961D01*
X123343000Y-93835935D01*
X123257000Y-93835935D01*
X123070200Y-93384961D01*
X122725039Y-93039800D01*
X122522657Y-92955970D01*
X122814080Y-92835259D01*
X122894353Y-92583958D01*
X122030000Y-91719605D01*
X121165647Y-92583958D01*
X121245920Y-92835259D01*
X121556644Y-92947976D01*
X121334961Y-93039800D01*
X120989800Y-93384961D01*
X120803000Y-93835935D01*
X120717000Y-93835935D01*
X120530200Y-93384961D01*
X120185039Y-93039800D01*
X119734065Y-92853000D01*
X119245935Y-92853000D01*
X118794961Y-93039800D01*
X118449800Y-93384961D01*
X118263000Y-93835935D01*
X118263000Y-94324065D01*
X118316036Y-94452105D01*
X117035142Y-95733000D01*
X101624859Y-95733000D01*
X100343964Y-94452105D01*
X100397000Y-94324065D01*
X100397000Y-93835935D01*
X100483000Y-93835935D01*
X100483000Y-94324065D01*
X100669800Y-94775039D01*
X101014961Y-95120200D01*
X101465935Y-95307000D01*
X101954065Y-95307000D01*
X102405039Y-95120200D01*
X102750200Y-94775039D01*
X102937000Y-94324065D01*
X102937000Y-93835935D01*
X103023000Y-93835935D01*
X103023000Y-94324065D01*
X103209800Y-94775039D01*
X103554961Y-95120200D01*
X104005935Y-95307000D01*
X104494065Y-95307000D01*
X104945039Y-95120200D01*
X105290200Y-94775039D01*
X105477000Y-94324065D01*
X105477000Y-93835935D01*
X105563000Y-93835935D01*
X105563000Y-94324065D01*
X105749800Y-94775039D01*
X106094961Y-95120200D01*
X106545935Y-95307000D01*
X107034065Y-95307000D01*
X107475966Y-95123958D01*
X108465647Y-95123958D01*
X108545920Y-95375259D01*
X109101279Y-95576718D01*
X109691458Y-95550315D01*
X110114080Y-95375259D01*
X110194353Y-95123958D01*
X109330000Y-94259605D01*
X108465647Y-95123958D01*
X107475966Y-95123958D01*
X107485039Y-95120200D01*
X107830200Y-94775039D01*
X107914030Y-94572657D01*
X108034741Y-94864080D01*
X108286042Y-94944353D01*
X109150395Y-94080000D01*
X109509605Y-94080000D01*
X110373958Y-94944353D01*
X110625259Y-94864080D01*
X110737976Y-94553356D01*
X110829800Y-94775039D01*
X111174961Y-95120200D01*
X111625935Y-95307000D01*
X112114065Y-95307000D01*
X112565039Y-95120200D01*
X112910200Y-94775039D01*
X113097000Y-94324065D01*
X113097000Y-93835935D01*
X113183000Y-93835935D01*
X113183000Y-94324065D01*
X113369800Y-94775039D01*
X113714961Y-95120200D01*
X114165935Y-95307000D01*
X114654065Y-95307000D01*
X115105039Y-95120200D01*
X115450200Y-94775039D01*
X115637000Y-94324065D01*
X115637000Y-93835935D01*
X115723000Y-93835935D01*
X115723000Y-94324065D01*
X115909800Y-94775039D01*
X116254961Y-95120200D01*
X116705935Y-95307000D01*
X117194065Y-95307000D01*
X117645039Y-95120200D01*
X117990200Y-94775039D01*
X118177000Y-94324065D01*
X118177000Y-93835935D01*
X117990200Y-93384961D01*
X117645039Y-93039800D01*
X117194065Y-92853000D01*
X116705935Y-92853000D01*
X116254961Y-93039800D01*
X115909800Y-93384961D01*
X115723000Y-93835935D01*
X115637000Y-93835935D01*
X115450200Y-93384961D01*
X115105039Y-93039800D01*
X114902657Y-92955970D01*
X115194080Y-92835259D01*
X115274353Y-92583958D01*
X114410000Y-91719605D01*
X113545647Y-92583958D01*
X113625920Y-92835259D01*
X113936644Y-92947976D01*
X113714961Y-93039800D01*
X113369800Y-93384961D01*
X113183000Y-93835935D01*
X113097000Y-93835935D01*
X112910200Y-93384961D01*
X112565039Y-93039800D01*
X112114065Y-92853000D01*
X111625935Y-92853000D01*
X111174961Y-93039800D01*
X110829800Y-93384961D01*
X110745970Y-93587343D01*
X110625259Y-93295920D01*
X110373958Y-93215647D01*
X109509605Y-94080000D01*
X109150395Y-94080000D01*
X108286042Y-93215647D01*
X108034741Y-93295920D01*
X107922024Y-93606644D01*
X107830200Y-93384961D01*
X107485039Y-93039800D01*
X107034065Y-92853000D01*
X106545935Y-92853000D01*
X106094961Y-93039800D01*
X105749800Y-93384961D01*
X105563000Y-93835935D01*
X105477000Y-93835935D01*
X105290200Y-93384961D01*
X104945039Y-93039800D01*
X104742657Y-92955970D01*
X105034080Y-92835259D01*
X105114353Y-92583958D01*
X104250000Y-91719605D01*
X103385647Y-92583958D01*
X103465920Y-92835259D01*
X103776644Y-92947976D01*
X103554961Y-93039800D01*
X103209800Y-93384961D01*
X103023000Y-93835935D01*
X102937000Y-93835935D01*
X102750200Y-93384961D01*
X102405039Y-93039800D01*
X101954065Y-92853000D01*
X101465935Y-92853000D01*
X101014961Y-93039800D01*
X100669800Y-93384961D01*
X100483000Y-93835935D01*
X100397000Y-93835935D01*
X100210200Y-93384961D01*
X99865039Y-93039800D01*
X99414065Y-92853000D01*
X98925935Y-92853000D01*
X98474961Y-93039800D01*
X98129800Y-93384961D01*
X97943000Y-93835935D01*
X96490081Y-93835935D01*
X96827000Y-93022543D01*
X96827000Y-91977457D01*
X96544705Y-91295935D01*
X97943000Y-91295935D01*
X97943000Y-91784065D01*
X98129800Y-92235039D01*
X98474961Y-92580200D01*
X98925935Y-92767000D01*
X99414065Y-92767000D01*
X99865039Y-92580200D01*
X100210200Y-92235039D01*
X100263236Y-92107000D01*
X100616764Y-92107000D01*
X100669800Y-92235039D01*
X101014961Y-92580200D01*
X101465935Y-92767000D01*
X101954065Y-92767000D01*
X102405039Y-92580200D01*
X102750200Y-92235039D01*
X102834030Y-92032657D01*
X102954741Y-92324080D01*
X103206042Y-92404353D01*
X104070395Y-91540000D01*
X104429605Y-91540000D01*
X105293958Y-92404353D01*
X105545259Y-92324080D01*
X105657976Y-92013356D01*
X105749800Y-92235039D01*
X106094961Y-92580200D01*
X106545935Y-92767000D01*
X107034065Y-92767000D01*
X107485039Y-92580200D01*
X107830200Y-92235039D01*
X108017000Y-91784065D01*
X108017000Y-91295935D01*
X108103000Y-91295935D01*
X108103000Y-91784065D01*
X108289800Y-92235039D01*
X108634961Y-92580200D01*
X108837343Y-92664030D01*
X108545920Y-92784741D01*
X108465647Y-93036042D01*
X109330000Y-93900395D01*
X110194353Y-93036042D01*
X110114080Y-92784741D01*
X109803356Y-92672024D01*
X110025039Y-92580200D01*
X110370200Y-92235039D01*
X110557000Y-91784065D01*
X110557000Y-91295935D01*
X110643000Y-91295935D01*
X110643000Y-91784065D01*
X110829800Y-92235039D01*
X111174961Y-92580200D01*
X111625935Y-92767000D01*
X112114065Y-92767000D01*
X112565039Y-92580200D01*
X112910200Y-92235039D01*
X112994030Y-92032657D01*
X113114741Y-92324080D01*
X113366042Y-92404353D01*
X114230395Y-91540000D01*
X114589605Y-91540000D01*
X115453958Y-92404353D01*
X115705259Y-92324080D01*
X115817976Y-92013356D01*
X115909800Y-92235039D01*
X116254961Y-92580200D01*
X116705935Y-92767000D01*
X117194065Y-92767000D01*
X117645039Y-92580200D01*
X117990200Y-92235039D01*
X118177000Y-91784065D01*
X118177000Y-91295935D01*
X118263000Y-91295935D01*
X118263000Y-91784065D01*
X118449800Y-92235039D01*
X118794961Y-92580200D01*
X119245935Y-92767000D01*
X119734065Y-92767000D01*
X120185039Y-92580200D01*
X120530200Y-92235039D01*
X120614030Y-92032657D01*
X120734741Y-92324080D01*
X120986042Y-92404353D01*
X121850395Y-91540000D01*
X122209605Y-91540000D01*
X123073958Y-92404353D01*
X123325259Y-92324080D01*
X123437976Y-92013356D01*
X123529800Y-92235039D01*
X123874961Y-92580200D01*
X124325935Y-92767000D01*
X124814065Y-92767000D01*
X125265039Y-92580200D01*
X125610200Y-92235039D01*
X125797000Y-91784065D01*
X125797000Y-91295935D01*
X125883000Y-91295935D01*
X125883000Y-91784065D01*
X126069800Y-92235039D01*
X126414961Y-92580200D01*
X126865935Y-92767000D01*
X127354065Y-92767000D01*
X127805039Y-92580200D01*
X128150200Y-92235039D01*
X128337000Y-91784065D01*
X128337000Y-91295935D01*
X128423000Y-91295935D01*
X128423000Y-91784065D01*
X128609800Y-92235039D01*
X128954961Y-92580200D01*
X129157343Y-92664030D01*
X128865920Y-92784741D01*
X128785647Y-93036042D01*
X129650000Y-93900395D01*
X130514353Y-93036042D01*
X130434080Y-92784741D01*
X130123356Y-92672024D01*
X130345039Y-92580200D01*
X130690200Y-92235039D01*
X130877000Y-91784065D01*
X130877000Y-91295935D01*
X130963000Y-91295935D01*
X130963000Y-91784065D01*
X131149800Y-92235039D01*
X131494961Y-92580200D01*
X131945935Y-92767000D01*
X132434065Y-92767000D01*
X132885039Y-92580200D01*
X133230200Y-92235039D01*
X133314030Y-92032657D01*
X133434741Y-92324080D01*
X133686042Y-92404353D01*
X134550395Y-91540000D01*
X134909605Y-91540000D01*
X135773958Y-92404353D01*
X136025259Y-92324080D01*
X136137976Y-92013356D01*
X136229800Y-92235039D01*
X136574961Y-92580200D01*
X137025935Y-92767000D01*
X137514065Y-92767000D01*
X137965039Y-92580200D01*
X138310200Y-92235039D01*
X138394030Y-92032657D01*
X138514741Y-92324080D01*
X138766042Y-92404353D01*
X139630395Y-91540000D01*
X139989605Y-91540000D01*
X140853958Y-92404353D01*
X141105259Y-92324080D01*
X141217976Y-92013356D01*
X141309800Y-92235039D01*
X141654961Y-92580200D01*
X142105935Y-92767000D01*
X142594065Y-92767000D01*
X143045039Y-92580200D01*
X143390200Y-92235039D01*
X143577000Y-91784065D01*
X143577000Y-91295935D01*
X143663000Y-91295935D01*
X143663000Y-91784065D01*
X143849800Y-92235039D01*
X144194961Y-92580200D01*
X144645935Y-92767000D01*
X145134065Y-92767000D01*
X145585039Y-92580200D01*
X145930200Y-92235039D01*
X146117000Y-91784065D01*
X146117000Y-91295935D01*
X146203000Y-91295935D01*
X146203000Y-91784065D01*
X146389800Y-92235039D01*
X146734961Y-92580200D01*
X146937343Y-92664030D01*
X146645920Y-92784741D01*
X146565647Y-93036042D01*
X147430000Y-93900395D01*
X148294353Y-93036042D01*
X148214080Y-92784741D01*
X147903356Y-92672024D01*
X148125039Y-92580200D01*
X148470200Y-92235039D01*
X148576894Y-91977457D01*
X149573000Y-91977457D01*
X149573000Y-93022543D01*
X149972937Y-93988076D01*
X150711924Y-94727063D01*
X151677457Y-95127000D01*
X152722543Y-95127000D01*
X153688076Y-94727063D01*
X154427063Y-93988076D01*
X154696793Y-93336890D01*
X163458524Y-93336890D01*
X163628355Y-93746924D01*
X164018642Y-94175183D01*
X164421191Y-94364230D01*
X164015383Y-94635383D01*
X163744192Y-95041248D01*
X163648962Y-95520000D01*
X163744192Y-95998752D01*
X164015383Y-96404617D01*
X164421248Y-96675808D01*
X164779153Y-96747000D01*
X165020847Y-96747000D01*
X165378752Y-96675808D01*
X165784617Y-96404617D01*
X166055808Y-95998752D01*
X166151038Y-95520000D01*
X166061263Y-95068671D01*
X168352935Y-92777000D01*
X168654555Y-92777000D01*
X168940135Y-92658709D01*
X169158709Y-92440135D01*
X169277000Y-92154555D01*
X169277000Y-91845445D01*
X169158709Y-91559865D01*
X168940135Y-91341291D01*
X168654555Y-91223000D01*
X168345445Y-91223000D01*
X168059865Y-91341291D01*
X167841291Y-91559865D01*
X167723000Y-91845445D01*
X167723000Y-91987065D01*
X166319063Y-93391002D01*
X166341476Y-93336890D01*
X166220155Y-93107000D01*
X165027000Y-93107000D01*
X165027000Y-93127000D01*
X164773000Y-93127000D01*
X164773000Y-93107000D01*
X163579845Y-93107000D01*
X163458524Y-93336890D01*
X154696793Y-93336890D01*
X154827000Y-93022543D01*
X154827000Y-92623110D01*
X163458524Y-92623110D01*
X163579845Y-92853000D01*
X164773000Y-92853000D01*
X164773000Y-92833000D01*
X165027000Y-92833000D01*
X165027000Y-92853000D01*
X166220155Y-92853000D01*
X166341476Y-92623110D01*
X166171645Y-92213076D01*
X165781358Y-91784817D01*
X165378809Y-91595770D01*
X165784617Y-91324617D01*
X166055808Y-90918752D01*
X166151038Y-90440000D01*
X166055808Y-89961248D01*
X165784617Y-89555383D01*
X165378752Y-89284192D01*
X165020847Y-89213000D01*
X164779153Y-89213000D01*
X164421248Y-89284192D01*
X164015383Y-89555383D01*
X163744192Y-89961248D01*
X163648962Y-90440000D01*
X163744192Y-90918752D01*
X164015383Y-91324617D01*
X164421191Y-91595770D01*
X164018642Y-91784817D01*
X163628355Y-92213076D01*
X163458524Y-92623110D01*
X154827000Y-92623110D01*
X154827000Y-91977457D01*
X154427063Y-91011924D01*
X153688076Y-90272937D01*
X152722543Y-89873000D01*
X151677457Y-89873000D01*
X150711924Y-90272937D01*
X149972937Y-91011924D01*
X149573000Y-91977457D01*
X148576894Y-91977457D01*
X148657000Y-91784065D01*
X148657000Y-91295935D01*
X148470200Y-90844961D01*
X148125039Y-90499800D01*
X147674065Y-90313000D01*
X147185935Y-90313000D01*
X146734961Y-90499800D01*
X146389800Y-90844961D01*
X146203000Y-91295935D01*
X146117000Y-91295935D01*
X145930200Y-90844961D01*
X145585039Y-90499800D01*
X145134065Y-90313000D01*
X144645935Y-90313000D01*
X144194961Y-90499800D01*
X143849800Y-90844961D01*
X143663000Y-91295935D01*
X143577000Y-91295935D01*
X143390200Y-90844961D01*
X143045039Y-90499800D01*
X142594065Y-90313000D01*
X142105935Y-90313000D01*
X141654961Y-90499800D01*
X141309800Y-90844961D01*
X141225970Y-91047343D01*
X141105259Y-90755920D01*
X140853958Y-90675647D01*
X139989605Y-91540000D01*
X139630395Y-91540000D01*
X138766042Y-90675647D01*
X138514741Y-90755920D01*
X138402024Y-91066644D01*
X138310200Y-90844961D01*
X137965039Y-90499800D01*
X137955967Y-90496042D01*
X138945647Y-90496042D01*
X139810000Y-91360395D01*
X140674353Y-90496042D01*
X140594080Y-90244741D01*
X140038721Y-90043282D01*
X139448542Y-90069685D01*
X139025920Y-90244741D01*
X138945647Y-90496042D01*
X137955967Y-90496042D01*
X137514065Y-90313000D01*
X137025935Y-90313000D01*
X136574961Y-90499800D01*
X136229800Y-90844961D01*
X136145970Y-91047343D01*
X136025259Y-90755920D01*
X135773958Y-90675647D01*
X134909605Y-91540000D01*
X134550395Y-91540000D01*
X133686042Y-90675647D01*
X133434741Y-90755920D01*
X133322024Y-91066644D01*
X133230200Y-90844961D01*
X132885039Y-90499800D01*
X132875967Y-90496042D01*
X133865647Y-90496042D01*
X134730000Y-91360395D01*
X135594353Y-90496042D01*
X135514080Y-90244741D01*
X134958721Y-90043282D01*
X134368542Y-90069685D01*
X133945920Y-90244741D01*
X133865647Y-90496042D01*
X132875967Y-90496042D01*
X132434065Y-90313000D01*
X131945935Y-90313000D01*
X131494961Y-90499800D01*
X131149800Y-90844961D01*
X130963000Y-91295935D01*
X130877000Y-91295935D01*
X130690200Y-90844961D01*
X130345039Y-90499800D01*
X129894065Y-90313000D01*
X129405935Y-90313000D01*
X128954961Y-90499800D01*
X128609800Y-90844961D01*
X128423000Y-91295935D01*
X128337000Y-91295935D01*
X128150200Y-90844961D01*
X127805039Y-90499800D01*
X127354065Y-90313000D01*
X126865935Y-90313000D01*
X126414961Y-90499800D01*
X126069800Y-90844961D01*
X125883000Y-91295935D01*
X125797000Y-91295935D01*
X125610200Y-90844961D01*
X125265039Y-90499800D01*
X124814065Y-90313000D01*
X124325935Y-90313000D01*
X123874961Y-90499800D01*
X123529800Y-90844961D01*
X123445970Y-91047343D01*
X123325259Y-90755920D01*
X123073958Y-90675647D01*
X122209605Y-91540000D01*
X121850395Y-91540000D01*
X120986042Y-90675647D01*
X120734741Y-90755920D01*
X120622024Y-91066644D01*
X120530200Y-90844961D01*
X120185039Y-90499800D01*
X120175967Y-90496042D01*
X121165647Y-90496042D01*
X122030000Y-91360395D01*
X122894353Y-90496042D01*
X122814080Y-90244741D01*
X122258721Y-90043282D01*
X121668542Y-90069685D01*
X121245920Y-90244741D01*
X121165647Y-90496042D01*
X120175967Y-90496042D01*
X119734065Y-90313000D01*
X119245935Y-90313000D01*
X118794961Y-90499800D01*
X118449800Y-90844961D01*
X118263000Y-91295935D01*
X118177000Y-91295935D01*
X117990200Y-90844961D01*
X117645039Y-90499800D01*
X117194065Y-90313000D01*
X116705935Y-90313000D01*
X116254961Y-90499800D01*
X115909800Y-90844961D01*
X115825970Y-91047343D01*
X115705259Y-90755920D01*
X115453958Y-90675647D01*
X114589605Y-91540000D01*
X114230395Y-91540000D01*
X113366042Y-90675647D01*
X113114741Y-90755920D01*
X113002024Y-91066644D01*
X112910200Y-90844961D01*
X112565039Y-90499800D01*
X112555967Y-90496042D01*
X113545647Y-90496042D01*
X114410000Y-91360395D01*
X115274353Y-90496042D01*
X115194080Y-90244741D01*
X114638721Y-90043282D01*
X114048542Y-90069685D01*
X113625920Y-90244741D01*
X113545647Y-90496042D01*
X112555967Y-90496042D01*
X112114065Y-90313000D01*
X111625935Y-90313000D01*
X111174961Y-90499800D01*
X110829800Y-90844961D01*
X110643000Y-91295935D01*
X110557000Y-91295935D01*
X110370200Y-90844961D01*
X110025039Y-90499800D01*
X109574065Y-90313000D01*
X109085935Y-90313000D01*
X108634961Y-90499800D01*
X108289800Y-90844961D01*
X108103000Y-91295935D01*
X108017000Y-91295935D01*
X107830200Y-90844961D01*
X107485039Y-90499800D01*
X107034065Y-90313000D01*
X106545935Y-90313000D01*
X106094961Y-90499800D01*
X105749800Y-90844961D01*
X105665970Y-91047343D01*
X105545259Y-90755920D01*
X105293958Y-90675647D01*
X104429605Y-91540000D01*
X104070395Y-91540000D01*
X104056253Y-91525858D01*
X104235858Y-91346253D01*
X104250000Y-91360395D01*
X105114353Y-90496042D01*
X105034080Y-90244741D01*
X104478721Y-90043282D01*
X103986559Y-90065300D01*
X105084859Y-88967000D01*
X120368156Y-88967000D01*
X120459865Y-89058709D01*
X120745445Y-89177000D01*
X121054555Y-89177000D01*
X121340135Y-89058709D01*
X121558709Y-88840135D01*
X121677000Y-88554555D01*
X121677000Y-88245445D01*
X121558709Y-87959865D01*
X121340135Y-87741291D01*
X121054555Y-87623000D01*
X120745445Y-87623000D01*
X120459865Y-87741291D01*
X120368156Y-87833000D01*
X104905843Y-87833000D01*
X104850000Y-87821892D01*
X104628767Y-87865898D01*
X104559023Y-87912500D01*
X104441216Y-87991216D01*
X104409583Y-88038558D01*
X102082106Y-90366036D01*
X101954065Y-90313000D01*
X101465935Y-90313000D01*
X101014961Y-90499800D01*
X100669800Y-90844961D01*
X100616764Y-90973000D01*
X100263236Y-90973000D01*
X100210200Y-90844961D01*
X99865039Y-90499800D01*
X99414065Y-90313000D01*
X98925935Y-90313000D01*
X98474961Y-90499800D01*
X98129800Y-90844961D01*
X97943000Y-91295935D01*
X96544705Y-91295935D01*
X96427063Y-91011924D01*
X95688076Y-90272937D01*
X94722543Y-89873000D01*
X93677457Y-89873000D01*
X92711924Y-90272937D01*
X91972937Y-91011924D01*
X91573000Y-91977457D01*
X91127000Y-91977457D01*
X91127000Y-89545445D01*
X96823000Y-89545445D01*
X96823000Y-89854555D01*
X96941291Y-90140135D01*
X97159865Y-90358709D01*
X97445445Y-90477000D01*
X97754555Y-90477000D01*
X98040135Y-90358709D01*
X98258709Y-90140135D01*
X98377000Y-89854555D01*
X98377000Y-89632934D01*
X100959935Y-87050000D01*
X163665615Y-87050000D01*
X163665615Y-88750000D01*
X163694875Y-88897098D01*
X163778199Y-89021801D01*
X163902902Y-89105125D01*
X164050000Y-89134385D01*
X165750000Y-89134385D01*
X165897098Y-89105125D01*
X166021801Y-89021801D01*
X166105125Y-88897098D01*
X166134385Y-88750000D01*
X166134385Y-87050000D01*
X166105125Y-86902902D01*
X166021801Y-86778199D01*
X165897098Y-86694875D01*
X165750000Y-86665615D01*
X164050000Y-86665615D01*
X163902902Y-86694875D01*
X163778199Y-86778199D01*
X163694875Y-86902902D01*
X163665615Y-87050000D01*
X100959935Y-87050000D01*
X102720013Y-85289923D01*
X102761921Y-85261921D01*
X102789923Y-85220013D01*
X102789926Y-85220010D01*
X102872872Y-85095871D01*
X102872873Y-85095870D01*
X102902000Y-84949439D01*
X102902000Y-84949435D01*
X102911833Y-84900001D01*
X102902000Y-84850567D01*
X102902000Y-74245445D01*
X129923000Y-74245445D01*
X129923000Y-74554555D01*
X130041291Y-74840135D01*
X130198001Y-74996845D01*
X130198000Y-81003156D01*
X130041291Y-81159865D01*
X129923000Y-81445445D01*
X129923000Y-81754555D01*
X130041291Y-82040135D01*
X130259865Y-82258709D01*
X130545445Y-82377000D01*
X130854555Y-82377000D01*
X130930735Y-82345445D01*
X173223000Y-82345445D01*
X173223000Y-82654555D01*
X173341291Y-82940135D01*
X173559865Y-83158709D01*
X173845445Y-83277000D01*
X174154555Y-83277000D01*
X174292165Y-83220000D01*
X206348962Y-83220000D01*
X206444192Y-83698752D01*
X206715383Y-84104617D01*
X207121248Y-84375808D01*
X207479153Y-84447000D01*
X207720847Y-84447000D01*
X208078752Y-84375808D01*
X208484617Y-84104617D01*
X208755808Y-83698752D01*
X208851038Y-83220000D01*
X208755808Y-82741248D01*
X208484617Y-82335383D01*
X208078752Y-82064192D01*
X207720847Y-81993000D01*
X207479153Y-81993000D01*
X207121248Y-82064192D01*
X206715383Y-82335383D01*
X206444192Y-82741248D01*
X206348962Y-83220000D01*
X174292165Y-83220000D01*
X174440135Y-83158709D01*
X174658709Y-82940135D01*
X174777000Y-82654555D01*
X174777000Y-82432934D01*
X175164489Y-82045445D01*
X185223000Y-82045445D01*
X185223000Y-82354555D01*
X185341291Y-82640135D01*
X185559865Y-82858709D01*
X185845445Y-82977000D01*
X186154555Y-82977000D01*
X186440135Y-82858709D01*
X186596844Y-82702000D01*
X189503156Y-82702000D01*
X189659865Y-82858709D01*
X189945445Y-82977000D01*
X190254555Y-82977000D01*
X190540135Y-82858709D01*
X190758709Y-82640135D01*
X190877000Y-82354555D01*
X190877000Y-82045445D01*
X190758709Y-81759865D01*
X190540135Y-81541291D01*
X190254555Y-81423000D01*
X189945445Y-81423000D01*
X189659865Y-81541291D01*
X189503156Y-81698000D01*
X186596844Y-81698000D01*
X186440135Y-81541291D01*
X186154555Y-81423000D01*
X185845445Y-81423000D01*
X185559865Y-81541291D01*
X185341291Y-81759865D01*
X185223000Y-82045445D01*
X175164489Y-82045445D01*
X176232936Y-80977000D01*
X176454555Y-80977000D01*
X176740135Y-80858709D01*
X176958709Y-80640135D01*
X177077000Y-80354555D01*
X177077000Y-80045445D01*
X176958709Y-79759865D01*
X176740135Y-79541291D01*
X176454555Y-79423000D01*
X176145445Y-79423000D01*
X175859865Y-79541291D01*
X175641291Y-79759865D01*
X175523000Y-80045445D01*
X175523000Y-80267064D01*
X174067066Y-81723000D01*
X173845445Y-81723000D01*
X173559865Y-81841291D01*
X173341291Y-82059865D01*
X173223000Y-82345445D01*
X130930735Y-82345445D01*
X131140135Y-82258709D01*
X131358709Y-82040135D01*
X131477000Y-81754555D01*
X131477000Y-81445445D01*
X131358709Y-81159865D01*
X131202000Y-81003156D01*
X131202000Y-78045445D01*
X163323000Y-78045445D01*
X163323000Y-78354555D01*
X163441291Y-78640135D01*
X163659865Y-78858709D01*
X163945445Y-78977000D01*
X164254555Y-78977000D01*
X164540135Y-78858709D01*
X164758709Y-78640135D01*
X164877000Y-78354555D01*
X164877000Y-78309711D01*
X166241266Y-76945445D01*
X183923000Y-76945445D01*
X183923000Y-77254555D01*
X184041291Y-77540135D01*
X184259865Y-77758709D01*
X184545445Y-77877000D01*
X184854555Y-77877000D01*
X185140135Y-77758709D01*
X185231844Y-77667000D01*
X190844162Y-77667000D01*
X190900000Y-77678107D01*
X190955838Y-77667000D01*
X190955843Y-77667000D01*
X191121232Y-77634102D01*
X191308784Y-77508784D01*
X191314653Y-77500000D01*
X200515615Y-77500000D01*
X200515615Y-79700000D01*
X200544875Y-79847098D01*
X200628199Y-79971801D01*
X200752902Y-80055125D01*
X200900000Y-80084385D01*
X203100000Y-80084385D01*
X203247098Y-80055125D01*
X203371801Y-79971801D01*
X203455125Y-79847098D01*
X203484385Y-79700000D01*
X203484385Y-77500000D01*
X203455125Y-77352902D01*
X203371801Y-77228199D01*
X203247098Y-77144875D01*
X203100000Y-77115615D01*
X200900000Y-77115615D01*
X200752902Y-77144875D01*
X200628199Y-77228199D01*
X200544875Y-77352902D01*
X200515615Y-77500000D01*
X191314653Y-77500000D01*
X191340419Y-77461439D01*
X194305652Y-74496206D01*
X200523000Y-74496206D01*
X200523000Y-75083794D01*
X200747860Y-75626653D01*
X201163347Y-76042140D01*
X201706206Y-76267000D01*
X202293794Y-76267000D01*
X202836653Y-76042140D01*
X203252140Y-75626653D01*
X203477000Y-75083794D01*
X203477000Y-74496206D01*
X203252140Y-73953347D01*
X202836653Y-73537860D01*
X202293794Y-73313000D01*
X201706206Y-73313000D01*
X201163347Y-73537860D01*
X200747860Y-73953347D01*
X200523000Y-74496206D01*
X194305652Y-74496206D01*
X194624859Y-74177000D01*
X194754555Y-74177000D01*
X195040135Y-74058709D01*
X195258709Y-73840135D01*
X195377000Y-73554555D01*
X195377000Y-73245445D01*
X195258709Y-72959865D01*
X195040135Y-72741291D01*
X194754555Y-72623000D01*
X194445445Y-72623000D01*
X194159865Y-72741291D01*
X193941291Y-72959865D01*
X193823000Y-73245445D01*
X193823000Y-73375141D01*
X193069882Y-74128260D01*
X192958709Y-73859865D01*
X192740135Y-73641291D01*
X192454555Y-73523000D01*
X192145445Y-73523000D01*
X191859865Y-73641291D01*
X191703156Y-73798000D01*
X186396844Y-73798000D01*
X186240135Y-73641291D01*
X185954555Y-73523000D01*
X185645445Y-73523000D01*
X185359865Y-73641291D01*
X185141291Y-73859865D01*
X185023000Y-74145445D01*
X185023000Y-74454555D01*
X185141291Y-74740135D01*
X185359865Y-74958709D01*
X185645445Y-75077000D01*
X185954555Y-75077000D01*
X186240135Y-74958709D01*
X186396844Y-74802000D01*
X191703156Y-74802000D01*
X191859865Y-74958709D01*
X192128260Y-75069882D01*
X190665142Y-76533000D01*
X185231844Y-76533000D01*
X185140135Y-76441291D01*
X184854555Y-76323000D01*
X184545445Y-76323000D01*
X184259865Y-76441291D01*
X184041291Y-76659865D01*
X183923000Y-76945445D01*
X166241266Y-76945445D01*
X166548712Y-76637999D01*
X166740135Y-76558709D01*
X166958709Y-76340135D01*
X167077000Y-76054555D01*
X167077000Y-75745445D01*
X166958709Y-75459865D01*
X166740135Y-75241291D01*
X166454555Y-75123000D01*
X166145445Y-75123000D01*
X165859865Y-75241291D01*
X165641291Y-75459865D01*
X165523000Y-75745445D01*
X165523000Y-75890289D01*
X163990289Y-77423000D01*
X163945445Y-77423000D01*
X163659865Y-77541291D01*
X163441291Y-77759865D01*
X163323000Y-78045445D01*
X131202000Y-78045445D01*
X131202000Y-74996844D01*
X131358709Y-74840135D01*
X131477000Y-74554555D01*
X131477000Y-74245445D01*
X131358709Y-73959865D01*
X131140135Y-73741291D01*
X130854555Y-73623000D01*
X130545445Y-73623000D01*
X130259865Y-73741291D01*
X130041291Y-73959865D01*
X129923000Y-74245445D01*
X102902000Y-74245445D01*
X102902000Y-71800000D01*
X147268962Y-71800000D01*
X147364192Y-72278752D01*
X147635383Y-72684617D01*
X148041248Y-72955808D01*
X148399153Y-73027000D01*
X148640847Y-73027000D01*
X148998752Y-72955808D01*
X149404617Y-72684617D01*
X149675808Y-72278752D01*
X149771038Y-71800000D01*
X149808962Y-71800000D01*
X149904192Y-72278752D01*
X150175383Y-72684617D01*
X150581248Y-72955808D01*
X150939153Y-73027000D01*
X151180847Y-73027000D01*
X151538752Y-72955808D01*
X151944617Y-72684617D01*
X152215808Y-72278752D01*
X152311038Y-71800000D01*
X152215808Y-71321248D01*
X151944617Y-70915383D01*
X151538752Y-70644192D01*
X151180847Y-70573000D01*
X150939153Y-70573000D01*
X150581248Y-70644192D01*
X150175383Y-70915383D01*
X149904192Y-71321248D01*
X149808962Y-71800000D01*
X149771038Y-71800000D01*
X149675808Y-71321248D01*
X149404617Y-70915383D01*
X148998752Y-70644192D01*
X148640847Y-70573000D01*
X148399153Y-70573000D01*
X148041248Y-70644192D01*
X147635383Y-70915383D01*
X147364192Y-71321248D01*
X147268962Y-71800000D01*
X102902000Y-71800000D01*
X102902000Y-69996844D01*
X103058709Y-69840135D01*
X103177000Y-69554555D01*
X103177000Y-69245445D01*
X103058709Y-68959865D01*
X102840135Y-68741291D01*
X102554555Y-68623000D01*
X102245445Y-68623000D01*
X101959865Y-68741291D01*
X101741291Y-68959865D01*
X101623000Y-69245445D01*
X101623000Y-69554555D01*
X101741291Y-69840135D01*
X101898000Y-69996844D01*
X101898001Y-84692063D01*
X97667066Y-88923000D01*
X97445445Y-88923000D01*
X97159865Y-89041291D01*
X96941291Y-89259865D01*
X96823000Y-89545445D01*
X91127000Y-89545445D01*
X91127000Y-66945445D01*
X118423000Y-66945445D01*
X118423000Y-67254555D01*
X118541291Y-67540135D01*
X118759865Y-67758709D01*
X119045445Y-67877000D01*
X119354555Y-67877000D01*
X119640135Y-67758709D01*
X119858709Y-67540135D01*
X119977000Y-67254555D01*
X119977000Y-66945445D01*
X119858709Y-66659865D01*
X119702000Y-66503156D01*
X119702000Y-65745445D01*
X152123000Y-65745445D01*
X152123000Y-66054555D01*
X152241291Y-66340135D01*
X152398000Y-66496844D01*
X152398001Y-67103155D01*
X152241291Y-67259865D01*
X152123000Y-67545445D01*
X152123000Y-67854555D01*
X152241291Y-68140135D01*
X152459865Y-68358709D01*
X152745445Y-68477000D01*
X153054555Y-68477000D01*
X153233001Y-68403085D01*
X153233001Y-70565615D01*
X152750000Y-70565615D01*
X152602902Y-70594875D01*
X152478199Y-70678199D01*
X152394875Y-70802902D01*
X152365615Y-70950000D01*
X152365615Y-72650000D01*
X152394875Y-72797098D01*
X152478199Y-72921801D01*
X152602902Y-73005125D01*
X152750000Y-73034385D01*
X154450000Y-73034385D01*
X154597098Y-73005125D01*
X154721801Y-72921801D01*
X154805125Y-72797098D01*
X154834385Y-72650000D01*
X154834385Y-70950000D01*
X154805125Y-70802902D01*
X154721801Y-70678199D01*
X154597098Y-70594875D01*
X154450000Y-70565615D01*
X154367000Y-70565615D01*
X154367000Y-69345445D01*
X158023000Y-69345445D01*
X158023000Y-69654555D01*
X158141291Y-69940135D01*
X158359865Y-70158709D01*
X158645445Y-70277000D01*
X158954555Y-70277000D01*
X159240135Y-70158709D01*
X159458709Y-69940135D01*
X159497930Y-69845445D01*
X160023000Y-69845445D01*
X160023000Y-70154555D01*
X160141291Y-70440135D01*
X160359865Y-70658709D01*
X160645445Y-70777000D01*
X160954555Y-70777000D01*
X161240135Y-70658709D01*
X161458709Y-70440135D01*
X161577000Y-70154555D01*
X161577000Y-69932934D01*
X162107935Y-69402000D01*
X163203156Y-69402000D01*
X163359865Y-69558709D01*
X163645445Y-69677000D01*
X163954555Y-69677000D01*
X164240135Y-69558709D01*
X164458709Y-69340135D01*
X164577000Y-69054555D01*
X164577000Y-68745445D01*
X164458709Y-68459865D01*
X164240135Y-68241291D01*
X163954555Y-68123000D01*
X163645445Y-68123000D01*
X163359865Y-68241291D01*
X163203156Y-68398000D01*
X161949434Y-68398000D01*
X161900000Y-68388167D01*
X161850566Y-68398000D01*
X161850561Y-68398000D01*
X161704130Y-68427127D01*
X161538079Y-68538079D01*
X161510075Y-68579990D01*
X160867066Y-69223000D01*
X160645445Y-69223000D01*
X160359865Y-69341291D01*
X160141291Y-69559865D01*
X160023000Y-69845445D01*
X159497930Y-69845445D01*
X159577000Y-69654555D01*
X159577000Y-69432934D01*
X161623000Y-67386936D01*
X161623000Y-67554555D01*
X161741291Y-67840135D01*
X161959865Y-68058709D01*
X162245445Y-68177000D01*
X162554555Y-68177000D01*
X162840135Y-68058709D01*
X162996844Y-67902000D01*
X163992066Y-67902000D01*
X164923000Y-68832935D01*
X164923000Y-69054555D01*
X165041291Y-69340135D01*
X165259865Y-69558709D01*
X165545445Y-69677000D01*
X165854555Y-69677000D01*
X166140135Y-69558709D01*
X166358709Y-69340135D01*
X166477000Y-69054555D01*
X166477000Y-68745445D01*
X166476976Y-68745387D01*
X175123000Y-68745387D01*
X175123000Y-69054497D01*
X175241291Y-69340077D01*
X175398000Y-69496786D01*
X175398001Y-69883108D01*
X175241291Y-70039818D01*
X175123000Y-70325398D01*
X175123000Y-70634508D01*
X175241291Y-70920088D01*
X175459865Y-71138662D01*
X175745445Y-71256953D01*
X176054555Y-71256953D01*
X176340135Y-71138662D01*
X176558709Y-70920088D01*
X176677000Y-70634508D01*
X176677000Y-70325398D01*
X176558709Y-70039818D01*
X176402000Y-69883109D01*
X176402000Y-69496786D01*
X176558709Y-69340077D01*
X176677000Y-69054497D01*
X176677000Y-68875844D01*
X176698001Y-68896845D01*
X176698000Y-73903156D01*
X176541291Y-74059865D01*
X176423000Y-74345445D01*
X176423000Y-74654555D01*
X176541291Y-74940135D01*
X176759865Y-75158709D01*
X177045445Y-75277000D01*
X177354555Y-75277000D01*
X177640135Y-75158709D01*
X177858709Y-74940135D01*
X177977000Y-74654555D01*
X177977000Y-74345445D01*
X177858709Y-74059865D01*
X177702000Y-73903156D01*
X177702000Y-73700844D01*
X177759865Y-73758709D01*
X178045445Y-73877000D01*
X178354555Y-73877000D01*
X178640135Y-73758709D01*
X178858709Y-73540135D01*
X178977000Y-73254555D01*
X178977000Y-72945445D01*
X178858709Y-72659865D01*
X178702000Y-72503156D01*
X178702000Y-69996844D01*
X178858709Y-69840135D01*
X178977000Y-69554555D01*
X178977000Y-69245445D01*
X178858709Y-68959865D01*
X178744289Y-68845445D01*
X179322992Y-68845445D01*
X179322992Y-69154555D01*
X179441283Y-69440135D01*
X179598001Y-69596853D01*
X179598000Y-72703156D01*
X179441291Y-72859865D01*
X179323000Y-73145445D01*
X179323000Y-73454555D01*
X179441291Y-73740135D01*
X179659865Y-73958709D01*
X179945445Y-74077000D01*
X180254555Y-74077000D01*
X180540135Y-73958709D01*
X180758709Y-73740135D01*
X180877000Y-73454555D01*
X180877000Y-73145445D01*
X180758709Y-72859865D01*
X180602000Y-72703156D01*
X180602000Y-70686206D01*
X200523000Y-70686206D01*
X200523000Y-71273794D01*
X200747860Y-71816653D01*
X201163347Y-72232140D01*
X201706206Y-72457000D01*
X202293794Y-72457000D01*
X202836653Y-72232140D01*
X203252140Y-71816653D01*
X203477000Y-71273794D01*
X203477000Y-70686206D01*
X203252140Y-70143347D01*
X202836653Y-69727860D01*
X202293794Y-69503000D01*
X201706206Y-69503000D01*
X201163347Y-69727860D01*
X200747860Y-70143347D01*
X200523000Y-70686206D01*
X180602000Y-70686206D01*
X180602000Y-69596836D01*
X180758701Y-69440135D01*
X180876992Y-69154555D01*
X180876992Y-68845445D01*
X180758701Y-68559865D01*
X180540127Y-68341291D01*
X180254547Y-68223000D01*
X179945437Y-68223000D01*
X179659857Y-68341291D01*
X179441283Y-68559865D01*
X179322992Y-68845445D01*
X178744289Y-68845445D01*
X178640135Y-68741291D01*
X178354555Y-68623000D01*
X178045445Y-68623000D01*
X177878602Y-68692108D01*
X177977000Y-68454555D01*
X177977000Y-68145445D01*
X177858709Y-67859865D01*
X177640135Y-67641291D01*
X177354555Y-67523000D01*
X177045445Y-67523000D01*
X176759865Y-67641291D01*
X176541291Y-67859865D01*
X176423000Y-68145445D01*
X176423000Y-68324098D01*
X176340135Y-68241233D01*
X176054555Y-68122942D01*
X175745445Y-68122942D01*
X175459865Y-68241233D01*
X175241291Y-68459807D01*
X175123000Y-68745387D01*
X166476976Y-68745387D01*
X166358709Y-68459865D01*
X166140135Y-68241291D01*
X165854555Y-68123000D01*
X165632935Y-68123000D01*
X164589927Y-67079993D01*
X164561921Y-67038079D01*
X164395870Y-66927127D01*
X164249439Y-66898000D01*
X164249434Y-66898000D01*
X164200000Y-66888167D01*
X164150566Y-66898000D01*
X164117583Y-66898000D01*
X164126610Y-66876206D01*
X200523000Y-66876206D01*
X200523000Y-67463794D01*
X200747860Y-68006653D01*
X201163347Y-68422140D01*
X201706206Y-68647000D01*
X202293794Y-68647000D01*
X202836653Y-68422140D01*
X203252140Y-68006653D01*
X203477000Y-67463794D01*
X203477000Y-66876206D01*
X203252140Y-66333347D01*
X202836653Y-65917860D01*
X202293794Y-65693000D01*
X201706206Y-65693000D01*
X201163347Y-65917860D01*
X200747860Y-66333347D01*
X200523000Y-66876206D01*
X164126610Y-66876206D01*
X164177000Y-66754555D01*
X164177000Y-66445445D01*
X164058709Y-66159865D01*
X163840135Y-65941291D01*
X163554555Y-65823000D01*
X163245445Y-65823000D01*
X162959865Y-65941291D01*
X162803156Y-66098000D01*
X161749433Y-66098000D01*
X161699999Y-66088167D01*
X161650565Y-66098000D01*
X161650561Y-66098000D01*
X161504130Y-66127127D01*
X161504128Y-66127128D01*
X161504129Y-66127128D01*
X161379990Y-66210074D01*
X161379987Y-66210077D01*
X161338079Y-66238079D01*
X161310077Y-66279987D01*
X158867066Y-68723000D01*
X158645445Y-68723000D01*
X158359865Y-68841291D01*
X158141291Y-69059865D01*
X158023000Y-69345445D01*
X154367000Y-69345445D01*
X154367000Y-64631844D01*
X154458709Y-64540135D01*
X154577000Y-64254555D01*
X154577000Y-63945445D01*
X154458709Y-63659865D01*
X154240135Y-63441291D01*
X153954555Y-63323000D01*
X153645445Y-63323000D01*
X153359865Y-63441291D01*
X153141291Y-63659865D01*
X153023000Y-63945445D01*
X153023000Y-64254555D01*
X153141291Y-64540135D01*
X153233000Y-64631844D01*
X153233000Y-65196914D01*
X153054555Y-65123000D01*
X152745445Y-65123000D01*
X152459865Y-65241291D01*
X152241291Y-65459865D01*
X152123000Y-65745445D01*
X119702000Y-65745445D01*
X119702000Y-65267934D01*
X120631553Y-64338382D01*
X120966206Y-64477000D01*
X121553794Y-64477000D01*
X122096653Y-64252140D01*
X122512140Y-63836653D01*
X122737000Y-63293794D01*
X122737000Y-62706206D01*
X123593000Y-62706206D01*
X123593000Y-63293794D01*
X123817860Y-63836653D01*
X124233347Y-64252140D01*
X124776206Y-64477000D01*
X125363794Y-64477000D01*
X125906653Y-64252140D01*
X126322140Y-63836653D01*
X126547000Y-63293794D01*
X126547000Y-62706206D01*
X127403000Y-62706206D01*
X127403000Y-63293794D01*
X127627860Y-63836653D01*
X128043347Y-64252140D01*
X128586206Y-64477000D01*
X129173794Y-64477000D01*
X129716653Y-64252140D01*
X130132140Y-63836653D01*
X130357000Y-63293794D01*
X130357000Y-62706206D01*
X131213000Y-62706206D01*
X131213000Y-63293794D01*
X131437860Y-63836653D01*
X131853347Y-64252140D01*
X132396206Y-64477000D01*
X132983794Y-64477000D01*
X133526653Y-64252140D01*
X133942140Y-63836653D01*
X134167000Y-63293794D01*
X134167000Y-63285750D01*
X134765000Y-63285750D01*
X134765000Y-64226310D01*
X134861673Y-64459699D01*
X135040302Y-64638327D01*
X135273691Y-64735000D01*
X136214250Y-64735000D01*
X136373000Y-64576250D01*
X136373000Y-63127000D01*
X136627000Y-63127000D01*
X136627000Y-64576250D01*
X136785750Y-64735000D01*
X137726309Y-64735000D01*
X137959698Y-64638327D01*
X138138327Y-64459699D01*
X138235000Y-64226310D01*
X138235000Y-63285750D01*
X138076250Y-63127000D01*
X136627000Y-63127000D01*
X136373000Y-63127000D01*
X134923750Y-63127000D01*
X134765000Y-63285750D01*
X134167000Y-63285750D01*
X134167000Y-62706206D01*
X133942140Y-62163347D01*
X133552483Y-61773690D01*
X134765000Y-61773690D01*
X134765000Y-62714250D01*
X134923750Y-62873000D01*
X136373000Y-62873000D01*
X136373000Y-61423750D01*
X136627000Y-61423750D01*
X136627000Y-62873000D01*
X138076250Y-62873000D01*
X138235000Y-62714250D01*
X138235000Y-61773690D01*
X138138327Y-61540301D01*
X137959698Y-61361673D01*
X137726309Y-61265000D01*
X136785750Y-61265000D01*
X136627000Y-61423750D01*
X136373000Y-61423750D01*
X136214250Y-61265000D01*
X135273691Y-61265000D01*
X135040302Y-61361673D01*
X134861673Y-61540301D01*
X134765000Y-61773690D01*
X133552483Y-61773690D01*
X133526653Y-61747860D01*
X132983794Y-61523000D01*
X132396206Y-61523000D01*
X131853347Y-61747860D01*
X131437860Y-62163347D01*
X131213000Y-62706206D01*
X130357000Y-62706206D01*
X130132140Y-62163347D01*
X129716653Y-61747860D01*
X129173794Y-61523000D01*
X128586206Y-61523000D01*
X128043347Y-61747860D01*
X127627860Y-62163347D01*
X127403000Y-62706206D01*
X126547000Y-62706206D01*
X126322140Y-62163347D01*
X125906653Y-61747860D01*
X125363794Y-61523000D01*
X124776206Y-61523000D01*
X124233347Y-61747860D01*
X123817860Y-62163347D01*
X123593000Y-62706206D01*
X122737000Y-62706206D01*
X122512140Y-62163347D01*
X122096653Y-61747860D01*
X121553794Y-61523000D01*
X120966206Y-61523000D01*
X120423347Y-61747860D01*
X120007860Y-62163347D01*
X119783000Y-62706206D01*
X119783000Y-63293794D01*
X119921618Y-63628447D01*
X118879991Y-64670075D01*
X118838080Y-64698079D01*
X118810076Y-64739990D01*
X118810074Y-64739992D01*
X118727128Y-64864130D01*
X118688167Y-65060000D01*
X118698001Y-65109439D01*
X118698000Y-66503156D01*
X118541291Y-66659865D01*
X118423000Y-66945445D01*
X91127000Y-66945445D01*
X91127000Y-59288490D01*
X91423000Y-59288490D01*
X91423000Y-60711510D01*
X91967565Y-62026208D01*
X92973792Y-63032435D01*
X94288490Y-63577000D01*
X95711510Y-63577000D01*
X97026208Y-63032435D01*
X97352437Y-62706206D01*
X100733000Y-62706206D01*
X100733000Y-63293794D01*
X100957860Y-63836653D01*
X101373347Y-64252140D01*
X101916206Y-64477000D01*
X102503794Y-64477000D01*
X103046653Y-64252140D01*
X103462140Y-63836653D01*
X103687000Y-63293794D01*
X103687000Y-62706206D01*
X104543000Y-62706206D01*
X104543000Y-63293794D01*
X104767860Y-63836653D01*
X105183347Y-64252140D01*
X105726206Y-64477000D01*
X106313794Y-64477000D01*
X106856653Y-64252140D01*
X107272140Y-63836653D01*
X107497000Y-63293794D01*
X107497000Y-62706206D01*
X108353000Y-62706206D01*
X108353000Y-63293794D01*
X108577860Y-63836653D01*
X108993347Y-64252140D01*
X109536206Y-64477000D01*
X110123794Y-64477000D01*
X110666653Y-64252140D01*
X111082140Y-63836653D01*
X111307000Y-63293794D01*
X111307000Y-62706206D01*
X112163000Y-62706206D01*
X112163000Y-63293794D01*
X112387860Y-63836653D01*
X112803347Y-64252140D01*
X113346206Y-64477000D01*
X113933794Y-64477000D01*
X114476653Y-64252140D01*
X114892140Y-63836653D01*
X115117000Y-63293794D01*
X115117000Y-62706206D01*
X115973000Y-62706206D01*
X115973000Y-63293794D01*
X116197860Y-63836653D01*
X116613347Y-64252140D01*
X117156206Y-64477000D01*
X117743794Y-64477000D01*
X118286653Y-64252140D01*
X118702140Y-63836653D01*
X118927000Y-63293794D01*
X118927000Y-62706206D01*
X118702140Y-62163347D01*
X118286653Y-61747860D01*
X117743794Y-61523000D01*
X117156206Y-61523000D01*
X116613347Y-61747860D01*
X116197860Y-62163347D01*
X115973000Y-62706206D01*
X115117000Y-62706206D01*
X114892140Y-62163347D01*
X114476653Y-61747860D01*
X113933794Y-61523000D01*
X113346206Y-61523000D01*
X112803347Y-61747860D01*
X112387860Y-62163347D01*
X112163000Y-62706206D01*
X111307000Y-62706206D01*
X111082140Y-62163347D01*
X110666653Y-61747860D01*
X110123794Y-61523000D01*
X109536206Y-61523000D01*
X108993347Y-61747860D01*
X108577860Y-62163347D01*
X108353000Y-62706206D01*
X107497000Y-62706206D01*
X107272140Y-62163347D01*
X106856653Y-61747860D01*
X106313794Y-61523000D01*
X105726206Y-61523000D01*
X105183347Y-61747860D01*
X104767860Y-62163347D01*
X104543000Y-62706206D01*
X103687000Y-62706206D01*
X103462140Y-62163347D01*
X103046653Y-61747860D01*
X102503794Y-61523000D01*
X101916206Y-61523000D01*
X101373347Y-61747860D01*
X100957860Y-62163347D01*
X100733000Y-62706206D01*
X97352437Y-62706206D01*
X98032435Y-62026208D01*
X98364076Y-61225554D01*
X148023000Y-61225554D01*
X148023000Y-61574446D01*
X148156516Y-61896780D01*
X148403220Y-62143484D01*
X148725554Y-62277000D01*
X149074446Y-62277000D01*
X149396780Y-62143484D01*
X149643484Y-61896780D01*
X149777000Y-61574446D01*
X149777000Y-61225554D01*
X152423000Y-61225554D01*
X152423000Y-61574446D01*
X152556516Y-61896780D01*
X152803220Y-62143484D01*
X153125554Y-62277000D01*
X153474446Y-62277000D01*
X153796780Y-62143484D01*
X154043484Y-61896780D01*
X154177000Y-61574446D01*
X154177000Y-61225554D01*
X154043484Y-60903220D01*
X153796780Y-60656516D01*
X153474446Y-60523000D01*
X153125554Y-60523000D01*
X152803220Y-60656516D01*
X152556516Y-60903220D01*
X152423000Y-61225554D01*
X149777000Y-61225554D01*
X149643484Y-60903220D01*
X149396780Y-60656516D01*
X149074446Y-60523000D01*
X148725554Y-60523000D01*
X148403220Y-60656516D01*
X148156516Y-60903220D01*
X148023000Y-61225554D01*
X98364076Y-61225554D01*
X98577000Y-60711510D01*
X98577000Y-59288490D01*
X201423000Y-59288490D01*
X201423000Y-60711510D01*
X201967565Y-62026208D01*
X202973792Y-63032435D01*
X204288490Y-63577000D01*
X205711510Y-63577000D01*
X207026208Y-63032435D01*
X208032435Y-62026208D01*
X208577000Y-60711510D01*
X208577000Y-59288490D01*
X208032435Y-57973792D01*
X207026208Y-56967565D01*
X205711510Y-56423000D01*
X204288490Y-56423000D01*
X202973792Y-56967565D01*
X201967565Y-57973792D01*
X201423000Y-59288490D01*
X98577000Y-59288490D01*
X98032435Y-57973792D01*
X97026208Y-56967565D01*
X95711510Y-56423000D01*
X94288490Y-56423000D01*
X92973792Y-56967565D01*
X91967565Y-57973792D01*
X91423000Y-59288490D01*
X91127000Y-59288490D01*
X91127000Y-56127000D01*
X208873000Y-56127000D01*
X208873000Y-97696347D01*
X208873000Y-97696347D01*
G37*
X208873000Y-97696347D02*
X208871645Y-97693076D01*
X208481358Y-97264817D01*
X208078809Y-97075770D01*
X208484617Y-96804617D01*
X208755808Y-96398752D01*
X208851038Y-95920000D01*
X208755808Y-95441248D01*
X208484617Y-95035383D01*
X208078752Y-94764192D01*
X207720847Y-94693000D01*
X207479153Y-94693000D01*
X207121248Y-94764192D01*
X206715383Y-95035383D01*
X206444192Y-95441248D01*
X206348962Y-95920000D01*
X206444192Y-96398752D01*
X206715383Y-96804617D01*
X207121191Y-97075770D01*
X206718642Y-97264817D01*
X206328355Y-97693076D01*
X206158524Y-98103110D01*
X206279845Y-98333000D01*
X207473000Y-98333000D01*
X207473000Y-98313000D01*
X207727000Y-98313000D01*
X207727000Y-98333000D01*
X207747000Y-98333000D01*
X207747000Y-98587000D01*
X207727000Y-98587000D01*
X207727000Y-98607000D01*
X207473000Y-98607000D01*
X207473000Y-98587000D01*
X206279845Y-98587000D01*
X206158524Y-98816890D01*
X206328355Y-99226924D01*
X206718642Y-99655183D01*
X206953791Y-99765615D01*
X206750000Y-99765615D01*
X206602902Y-99794875D01*
X206478199Y-99878199D01*
X206394875Y-100002902D01*
X206365615Y-100150000D01*
X206365615Y-101850000D01*
X206394875Y-101997098D01*
X206478199Y-102121801D01*
X206602902Y-102205125D01*
X206750000Y-102234385D01*
X208450000Y-102234385D01*
X208597098Y-102205125D01*
X208721801Y-102121801D01*
X208805125Y-101997098D01*
X208834385Y-101850000D01*
X208834385Y-100150000D01*
X208805125Y-100002902D01*
X208721801Y-99878199D01*
X208597098Y-99794875D01*
X208450000Y-99765615D01*
X208246209Y-99765615D01*
X208481358Y-99655183D01*
X208871645Y-99226924D01*
X208873000Y-99223653D01*
X208873000Y-118873000D01*
X91127000Y-118873000D01*
X91127000Y-115177457D01*
X91573000Y-115177457D01*
X91573000Y-116222543D01*
X91972937Y-117188076D01*
X92711924Y-117927063D01*
X93677457Y-118327000D01*
X94722543Y-118327000D01*
X95688076Y-117927063D01*
X96427063Y-117188076D01*
X96827000Y-116222543D01*
X96827000Y-115177457D01*
X149573000Y-115177457D01*
X149573000Y-116222543D01*
X149972937Y-117188076D01*
X150711924Y-117927063D01*
X151677457Y-118327000D01*
X152722543Y-118327000D01*
X153688076Y-117927063D01*
X154427063Y-117188076D01*
X154827000Y-116222543D01*
X154827000Y-115177457D01*
X154427063Y-114211924D01*
X153688076Y-113472937D01*
X152722543Y-113073000D01*
X151677457Y-113073000D01*
X150711924Y-113472937D01*
X149972937Y-114211924D01*
X149573000Y-115177457D01*
X96827000Y-115177457D01*
X96427063Y-114211924D01*
X95688076Y-113472937D01*
X94722543Y-113073000D01*
X93677457Y-113073000D01*
X92711924Y-113472937D01*
X91972937Y-114211924D01*
X91573000Y-115177457D01*
X91127000Y-115177457D01*
X91127000Y-100600000D01*
X163648962Y-100600000D01*
X163744192Y-101078752D01*
X164015383Y-101484617D01*
X164421248Y-101755808D01*
X164779153Y-101827000D01*
X165020847Y-101827000D01*
X165378752Y-101755808D01*
X165784617Y-101484617D01*
X166055808Y-101078752D01*
X166151038Y-100600000D01*
X166055808Y-100121248D01*
X165784617Y-99715383D01*
X165378752Y-99444192D01*
X165020847Y-99373000D01*
X164779153Y-99373000D01*
X164421248Y-99444192D01*
X164015383Y-99715383D01*
X163744192Y-100121248D01*
X163648962Y-100600000D01*
X91127000Y-100600000D01*
X91127000Y-98060000D01*
X163648962Y-98060000D01*
X163744192Y-98538752D01*
X164015383Y-98944617D01*
X164421248Y-99215808D01*
X164779153Y-99287000D01*
X165020847Y-99287000D01*
X165378752Y-99215808D01*
X165784617Y-98944617D01*
X166040274Y-98562000D01*
X170552066Y-98562000D01*
X171798000Y-99807935D01*
X171798001Y-101350561D01*
X171788167Y-101400000D01*
X171827128Y-101595870D01*
X171910074Y-101720008D01*
X171910076Y-101720010D01*
X171938080Y-101761921D01*
X171979991Y-101789925D01*
X174163065Y-103973000D01*
X171400000Y-103973000D01*
X171359312Y-103979694D01*
X171316370Y-104004423D01*
X170516370Y-104704423D01*
X170482667Y-104751399D01*
X170473000Y-104800000D01*
X170473000Y-108800000D01*
X170482667Y-108848601D01*
X170510197Y-108889803D01*
X172673000Y-111052606D01*
X172673000Y-115300000D01*
X172682667Y-115348601D01*
X172710197Y-115389803D01*
X174910197Y-117589803D01*
X174951399Y-117617333D01*
X175000000Y-117627000D01*
X184300000Y-117627000D01*
X184348601Y-117617333D01*
X184389803Y-117589803D01*
X186589803Y-115389803D01*
X186617333Y-115348601D01*
X186627000Y-115300000D01*
X186627000Y-114288490D01*
X201423000Y-114288490D01*
X201423000Y-115711510D01*
X201967565Y-117026208D01*
X202973792Y-118032435D01*
X204288490Y-118577000D01*
X205711510Y-118577000D01*
X207026208Y-118032435D01*
X208032435Y-117026208D01*
X208577000Y-115711510D01*
X208577000Y-114288490D01*
X208032435Y-112973792D01*
X207026208Y-111967565D01*
X205711510Y-111423000D01*
X204288490Y-111423000D01*
X202973792Y-111967565D01*
X201967565Y-112973792D01*
X201423000Y-114288490D01*
X186627000Y-114288490D01*
X186627000Y-112300000D01*
X186617333Y-112251399D01*
X186589803Y-112210197D01*
X185227000Y-110847394D01*
X185227000Y-109100000D01*
X185217333Y-109051399D01*
X185189803Y-109010197D01*
X181989803Y-105810197D01*
X181948601Y-105782667D01*
X181900000Y-105773000D01*
X180000000Y-105773000D01*
X179951399Y-105782667D01*
X179910197Y-105810197D01*
X179882667Y-105851399D01*
X179873000Y-105900000D01*
X179873000Y-106600000D01*
X179882667Y-106648601D01*
X179910197Y-106689803D01*
X179951399Y-106717333D01*
X180000000Y-106727000D01*
X181447394Y-106727000D01*
X184173000Y-109452606D01*
X184173000Y-111200000D01*
X184182667Y-111248601D01*
X184210197Y-111289803D01*
X185573000Y-112652606D01*
X185573000Y-114947394D01*
X183947394Y-116573000D01*
X175352606Y-116573000D01*
X173727000Y-114947394D01*
X173727000Y-113575826D01*
X176073000Y-113575826D01*
X176073000Y-114024174D01*
X176244576Y-114438394D01*
X176561606Y-114755424D01*
X176975826Y-114927000D01*
X177424174Y-114927000D01*
X177838394Y-114755424D01*
X178155424Y-114438394D01*
X178327000Y-114024174D01*
X178327000Y-113575826D01*
X180953000Y-113575826D01*
X180953000Y-114024174D01*
X181124576Y-114438394D01*
X181441606Y-114755424D01*
X181855826Y-114927000D01*
X182304174Y-114927000D01*
X182718394Y-114755424D01*
X183035424Y-114438394D01*
X183207000Y-114024174D01*
X183207000Y-113575826D01*
X183035424Y-113161606D01*
X182718394Y-112844576D01*
X182304174Y-112673000D01*
X181855826Y-112673000D01*
X181441606Y-112844576D01*
X181124576Y-113161606D01*
X180953000Y-113575826D01*
X178327000Y-113575826D01*
X178155424Y-113161606D01*
X177838394Y-112844576D01*
X177424174Y-112673000D01*
X176975826Y-112673000D01*
X176561606Y-112844576D01*
X176244576Y-113161606D01*
X176073000Y-113575826D01*
X173727000Y-113575826D01*
X173727000Y-110600000D01*
X173717333Y-110551399D01*
X173689803Y-110510197D01*
X171627000Y-108447394D01*
X171627000Y-107965554D01*
X171723000Y-107965554D01*
X171723000Y-108314446D01*
X171856516Y-108636780D01*
X172103220Y-108883484D01*
X172425554Y-109017000D01*
X172774446Y-109017000D01*
X173096780Y-108883484D01*
X173343484Y-108636780D01*
X173477000Y-108314446D01*
X173477000Y-107965554D01*
X173343484Y-107643220D01*
X173096780Y-107396516D01*
X172774446Y-107263000D01*
X172425554Y-107263000D01*
X172103220Y-107396516D01*
X171856516Y-107643220D01*
X171723000Y-107965554D01*
X171627000Y-107965554D01*
X171627000Y-105425554D01*
X171723000Y-105425554D01*
X171723000Y-105774446D01*
X171856516Y-106096780D01*
X172103220Y-106343484D01*
X172425554Y-106477000D01*
X172774446Y-106477000D01*
X173096780Y-106343484D01*
X173343484Y-106096780D01*
X173477000Y-105774446D01*
X173477000Y-105425554D01*
X173343484Y-105103220D01*
X173096780Y-104856516D01*
X172774446Y-104723000D01*
X172425554Y-104723000D01*
X172103220Y-104856516D01*
X171856516Y-105103220D01*
X171723000Y-105425554D01*
X171627000Y-105425554D01*
X171627000Y-105252606D01*
X172252606Y-104627000D01*
X174300000Y-104627000D01*
X174348601Y-104617333D01*
X174389803Y-104589803D01*
X174417333Y-104548601D01*
X174427000Y-104500000D01*
X174427000Y-104236935D01*
X175310077Y-105120013D01*
X175338079Y-105161921D01*
X175379987Y-105189923D01*
X175379990Y-105189926D01*
X175455134Y-105240135D01*
X175504130Y-105272873D01*
X175650561Y-105302000D01*
X175650565Y-105302000D01*
X175699999Y-105311833D01*
X175749433Y-105302000D01*
X179103156Y-105302000D01*
X179259865Y-105458709D01*
X179545445Y-105577000D01*
X179854555Y-105577000D01*
X180140135Y-105458709D01*
X180296844Y-105302000D01*
X185892066Y-105302000D01*
X188510075Y-107920010D01*
X188538079Y-107961921D01*
X188704130Y-108072873D01*
X188850561Y-108102000D01*
X188850566Y-108102000D01*
X188900000Y-108111833D01*
X188949434Y-108102000D01*
X190050566Y-108102000D01*
X190100000Y-108111833D01*
X190149434Y-108102000D01*
X190149439Y-108102000D01*
X190295870Y-108072873D01*
X190461921Y-107961921D01*
X190489927Y-107920007D01*
X192620010Y-105789925D01*
X192661921Y-105761921D01*
X192772873Y-105595870D01*
X192802000Y-105449439D01*
X192802000Y-105449434D01*
X192811833Y-105400000D01*
X192802000Y-105350566D01*
X192802000Y-98396844D01*
X192958709Y-98240135D01*
X193077000Y-97954555D01*
X193077000Y-97645445D01*
X192958709Y-97359865D01*
X192802000Y-97203156D01*
X192802000Y-91645445D01*
X198923000Y-91645445D01*
X198923000Y-91954555D01*
X199041291Y-92240135D01*
X199198001Y-92396845D01*
X199198000Y-98750566D01*
X199188167Y-98800000D01*
X199198000Y-98849434D01*
X199198000Y-98849438D01*
X199227127Y-98995869D01*
X199338079Y-99161921D01*
X199379993Y-99189927D01*
X201123000Y-100932935D01*
X201123000Y-101154555D01*
X201241291Y-101440135D01*
X201459865Y-101658709D01*
X201745445Y-101777000D01*
X202054555Y-101777000D01*
X202340135Y-101658709D01*
X202558709Y-101440135D01*
X202677000Y-101154555D01*
X202677000Y-100845445D01*
X202558709Y-100559865D01*
X202340135Y-100341291D01*
X202054555Y-100223000D01*
X201832935Y-100223000D01*
X200202000Y-98592066D01*
X200202000Y-92396844D01*
X200358709Y-92240135D01*
X200477000Y-91954555D01*
X200477000Y-91645445D01*
X200358709Y-91359865D01*
X200140135Y-91141291D01*
X199854555Y-91023000D01*
X199545445Y-91023000D01*
X199259865Y-91141291D01*
X199041291Y-91359865D01*
X198923000Y-91645445D01*
X192802000Y-91645445D01*
X192802000Y-91107934D01*
X194932935Y-88977000D01*
X195154555Y-88977000D01*
X195440135Y-88858709D01*
X195658709Y-88640135D01*
X195777000Y-88354555D01*
X195777000Y-88045445D01*
X195658709Y-87759865D01*
X195440135Y-87541291D01*
X195154555Y-87423000D01*
X194845445Y-87423000D01*
X194559865Y-87541291D01*
X194341291Y-87759865D01*
X194223000Y-88045445D01*
X194223000Y-88267065D01*
X191994455Y-90495611D01*
X191940135Y-90441291D01*
X191654555Y-90323000D01*
X191345445Y-90323000D01*
X191227000Y-90372061D01*
X191227000Y-87345445D01*
X200623000Y-87345445D01*
X200623000Y-87654555D01*
X200741291Y-87940135D01*
X200898000Y-88096844D01*
X200898001Y-95003155D01*
X200741291Y-95159865D01*
X200623000Y-95445445D01*
X200623000Y-95754555D01*
X200741291Y-96040135D01*
X200959865Y-96258709D01*
X201245445Y-96377000D01*
X201554555Y-96377000D01*
X201840135Y-96258709D01*
X201900000Y-96198844D01*
X201959865Y-96258709D01*
X202245445Y-96377000D01*
X202554555Y-96377000D01*
X202840135Y-96258709D01*
X203058709Y-96040135D01*
X203177000Y-95754555D01*
X203177000Y-95445445D01*
X203058709Y-95159865D01*
X202988336Y-95089492D01*
X203087075Y-95155467D01*
X203321011Y-95202000D01*
X203478989Y-95202000D01*
X203712925Y-95155467D01*
X203898001Y-95031804D01*
X203898001Y-97803155D01*
X203741291Y-97959865D01*
X203623000Y-98245445D01*
X203623000Y-98554555D01*
X203741291Y-98840135D01*
X203959865Y-99058709D01*
X204245445Y-99177000D01*
X204423000Y-99177000D01*
X204423000Y-99354555D01*
X204541291Y-99640135D01*
X204759865Y-99858709D01*
X205045445Y-99977000D01*
X205354555Y-99977000D01*
X205640135Y-99858709D01*
X205858709Y-99640135D01*
X205977000Y-99354555D01*
X205977000Y-99045445D01*
X205858709Y-98759865D01*
X205702000Y-98603156D01*
X205702000Y-93876319D01*
X205730561Y-93882000D01*
X205730566Y-93882000D01*
X205780000Y-93891833D01*
X205829434Y-93882000D01*
X206459726Y-93882000D01*
X206715383Y-94264617D01*
X207121248Y-94535808D01*
X207479153Y-94607000D01*
X207720847Y-94607000D01*
X208078752Y-94535808D01*
X208484617Y-94264617D01*
X208755808Y-93858752D01*
X208851038Y-93380000D01*
X208755808Y-92901248D01*
X208484617Y-92495383D01*
X208078752Y-92224192D01*
X207720847Y-92153000D01*
X207479153Y-92153000D01*
X207121248Y-92224192D01*
X206715383Y-92495383D01*
X206459726Y-92878000D01*
X205987935Y-92878000D01*
X205702000Y-92592066D01*
X205702000Y-90840000D01*
X206348962Y-90840000D01*
X206444192Y-91318752D01*
X206715383Y-91724617D01*
X207121248Y-91995808D01*
X207479153Y-92067000D01*
X207720847Y-92067000D01*
X208078752Y-91995808D01*
X208484617Y-91724617D01*
X208755808Y-91318752D01*
X208851038Y-90840000D01*
X208755808Y-90361248D01*
X208484617Y-89955383D01*
X208078752Y-89684192D01*
X207720847Y-89613000D01*
X207479153Y-89613000D01*
X207121248Y-89684192D01*
X206715383Y-89955383D01*
X206444192Y-90361248D01*
X206348962Y-90840000D01*
X205702000Y-90840000D01*
X205702000Y-88896844D01*
X205858709Y-88740135D01*
X205977000Y-88454555D01*
X205977000Y-88145445D01*
X205858709Y-87859865D01*
X205800844Y-87802000D01*
X206392066Y-87802000D01*
X206438737Y-87848671D01*
X206348962Y-88300000D01*
X206444192Y-88778752D01*
X206715383Y-89184617D01*
X207121248Y-89455808D01*
X207479153Y-89527000D01*
X207720847Y-89527000D01*
X208078752Y-89455808D01*
X208484617Y-89184617D01*
X208755808Y-88778752D01*
X208851038Y-88300000D01*
X208755808Y-87821248D01*
X208484617Y-87415383D01*
X208078752Y-87144192D01*
X207720847Y-87073000D01*
X207479153Y-87073000D01*
X207148671Y-87138737D01*
X206989927Y-86979993D01*
X206961921Y-86938079D01*
X206795870Y-86827127D01*
X206649439Y-86798000D01*
X206649434Y-86798000D01*
X206600000Y-86788167D01*
X206550566Y-86798000D01*
X204649433Y-86798000D01*
X204599999Y-86788167D01*
X204550565Y-86798000D01*
X204550561Y-86798000D01*
X204404130Y-86827127D01*
X204404128Y-86827128D01*
X204404129Y-86827128D01*
X204279990Y-86910074D01*
X204279987Y-86910077D01*
X204238079Y-86938079D01*
X204210076Y-86979988D01*
X203079991Y-88110075D01*
X203038080Y-88138079D01*
X203010076Y-88179990D01*
X203010074Y-88179992D01*
X202927128Y-88304130D01*
X202902000Y-88430457D01*
X202902000Y-87296844D01*
X203058709Y-87140135D01*
X203177000Y-86854555D01*
X203177000Y-86545445D01*
X203058709Y-86259865D01*
X202840135Y-86041291D01*
X202554555Y-85923000D01*
X202245445Y-85923000D01*
X201959865Y-86041291D01*
X201741291Y-86259865D01*
X201623000Y-86545445D01*
X201623000Y-86751351D01*
X201554555Y-86723000D01*
X201245445Y-86723000D01*
X200959865Y-86841291D01*
X200741291Y-87059865D01*
X200623000Y-87345445D01*
X191227000Y-87345445D01*
X191227000Y-86971844D01*
X191258709Y-86940135D01*
X191377000Y-86654555D01*
X191377000Y-86345445D01*
X191258709Y-86059865D01*
X191040135Y-85841291D01*
X190843881Y-85760000D01*
X206348962Y-85760000D01*
X206444192Y-86238752D01*
X206715383Y-86644617D01*
X207121248Y-86915808D01*
X207479153Y-86987000D01*
X207720847Y-86987000D01*
X208078752Y-86915808D01*
X208484617Y-86644617D01*
X208755808Y-86238752D01*
X208851038Y-85760000D01*
X208755808Y-85281248D01*
X208484617Y-84875383D01*
X208078752Y-84604192D01*
X207720847Y-84533000D01*
X207479153Y-84533000D01*
X207121248Y-84604192D01*
X206715383Y-84875383D01*
X206444192Y-85281248D01*
X206348962Y-85760000D01*
X190843881Y-85760000D01*
X190754555Y-85723000D01*
X190445445Y-85723000D01*
X190159865Y-85841291D01*
X190128156Y-85873000D01*
X174674246Y-85873000D01*
X174612500Y-85860718D01*
X174550754Y-85873000D01*
X174550750Y-85873000D01*
X174367857Y-85909380D01*
X174212808Y-86012980D01*
X174212807Y-86012981D01*
X174160459Y-86047959D01*
X174125481Y-86100307D01*
X173090289Y-87135500D01*
X173045445Y-87135500D01*
X172759865Y-87253791D01*
X172541291Y-87472365D01*
X172423000Y-87757945D01*
X172423000Y-88067055D01*
X172541291Y-88352635D01*
X172573000Y-88384344D01*
X172573001Y-99163066D01*
X171149927Y-97739993D01*
X171121921Y-97698079D01*
X170955870Y-97587127D01*
X170809439Y-97558000D01*
X170809434Y-97558000D01*
X170760000Y-97548167D01*
X170710566Y-97558000D01*
X166040274Y-97558000D01*
X165784617Y-97175383D01*
X165378752Y-96904192D01*
X165020847Y-96833000D01*
X164779153Y-96833000D01*
X164421248Y-96904192D01*
X164015383Y-97175383D01*
X163744192Y-97581248D01*
X163648962Y-98060000D01*
X91127000Y-98060000D01*
X91127000Y-91977457D01*
X91573000Y-91977457D01*
X91573000Y-93022543D01*
X91972937Y-93988076D01*
X92711924Y-94727063D01*
X93677457Y-95127000D01*
X94722543Y-95127000D01*
X95688076Y-94727063D01*
X96427063Y-93988076D01*
X96490081Y-93835935D01*
X97943000Y-93835935D01*
X97943000Y-94324065D01*
X98129800Y-94775039D01*
X98474961Y-95120200D01*
X98925935Y-95307000D01*
X99414065Y-95307000D01*
X99542105Y-95253964D01*
X100949583Y-96661442D01*
X100981216Y-96708784D01*
X101168768Y-96834102D01*
X101334157Y-96867000D01*
X101334161Y-96867000D01*
X101389999Y-96878107D01*
X101445838Y-96867000D01*
X117214162Y-96867000D01*
X117270000Y-96878107D01*
X117325838Y-96867000D01*
X117325843Y-96867000D01*
X117491232Y-96834102D01*
X117678784Y-96708784D01*
X117710419Y-96661440D01*
X119117895Y-95253964D01*
X119245935Y-95307000D01*
X119734065Y-95307000D01*
X120185039Y-95120200D01*
X120530200Y-94775039D01*
X120717000Y-94324065D01*
X120717000Y-93835935D01*
X120803000Y-93835935D01*
X120803000Y-94324065D01*
X120989800Y-94775039D01*
X121334961Y-95120200D01*
X121785935Y-95307000D01*
X122274065Y-95307000D01*
X122725039Y-95120200D01*
X123070200Y-94775039D01*
X123257000Y-94324065D01*
X123257000Y-93835935D01*
X123343000Y-93835935D01*
X123343000Y-94324065D01*
X123529800Y-94775039D01*
X123874961Y-95120200D01*
X124325935Y-95307000D01*
X124814065Y-95307000D01*
X125265039Y-95120200D01*
X125610200Y-94775039D01*
X125797000Y-94324065D01*
X125797000Y-93835935D01*
X125883000Y-93835935D01*
X125883000Y-94324065D01*
X126069800Y-94775039D01*
X126414961Y-95120200D01*
X126865935Y-95307000D01*
X127354065Y-95307000D01*
X127795966Y-95123958D01*
X128785647Y-95123958D01*
X128865920Y-95375259D01*
X129421279Y-95576718D01*
X130011458Y-95550315D01*
X130434080Y-95375259D01*
X130514353Y-95123958D01*
X129650000Y-94259605D01*
X128785647Y-95123958D01*
X127795966Y-95123958D01*
X127805039Y-95120200D01*
X128150200Y-94775039D01*
X128234030Y-94572657D01*
X128354741Y-94864080D01*
X128606042Y-94944353D01*
X129470395Y-94080000D01*
X129829605Y-94080000D01*
X130693958Y-94944353D01*
X130945259Y-94864080D01*
X131057976Y-94553356D01*
X131149800Y-94775039D01*
X131494961Y-95120200D01*
X131945935Y-95307000D01*
X132434065Y-95307000D01*
X132885039Y-95120200D01*
X133230200Y-94775039D01*
X133417000Y-94324065D01*
X133417000Y-93835935D01*
X133503000Y-93835935D01*
X133503000Y-94324065D01*
X133689800Y-94775039D01*
X134034961Y-95120200D01*
X134485935Y-95307000D01*
X134974065Y-95307000D01*
X135425039Y-95120200D01*
X135770200Y-94775039D01*
X135957000Y-94324065D01*
X135957000Y-93835935D01*
X136043000Y-93835935D01*
X136043000Y-94324065D01*
X136229800Y-94775039D01*
X136574961Y-95120200D01*
X137025935Y-95307000D01*
X137514065Y-95307000D01*
X137965039Y-95120200D01*
X138310200Y-94775039D01*
X138497000Y-94324065D01*
X138497000Y-93835935D01*
X138583000Y-93835935D01*
X138583000Y-94324065D01*
X138769800Y-94775039D01*
X139114961Y-95120200D01*
X139565935Y-95307000D01*
X140054065Y-95307000D01*
X140505039Y-95120200D01*
X140850200Y-94775039D01*
X141037000Y-94324065D01*
X141037000Y-93835935D01*
X141123000Y-93835935D01*
X141123000Y-94324065D01*
X141309800Y-94775039D01*
X141654961Y-95120200D01*
X142105935Y-95307000D01*
X142594065Y-95307000D01*
X143045039Y-95120200D01*
X143390200Y-94775039D01*
X143577000Y-94324065D01*
X143577000Y-93835935D01*
X143663000Y-93835935D01*
X143663000Y-94324065D01*
X143849800Y-94775039D01*
X144194961Y-95120200D01*
X144645935Y-95307000D01*
X145134065Y-95307000D01*
X145575966Y-95123958D01*
X146565647Y-95123958D01*
X146645920Y-95375259D01*
X147201279Y-95576718D01*
X147791458Y-95550315D01*
X148214080Y-95375259D01*
X148294353Y-95123958D01*
X147430000Y-94259605D01*
X146565647Y-95123958D01*
X145575966Y-95123958D01*
X145585039Y-95120200D01*
X145930200Y-94775039D01*
X146014030Y-94572657D01*
X146134741Y-94864080D01*
X146386042Y-94944353D01*
X147250395Y-94080000D01*
X147609605Y-94080000D01*
X148473958Y-94944353D01*
X148725259Y-94864080D01*
X148926718Y-94308721D01*
X148900315Y-93718542D01*
X148725259Y-93295920D01*
X148473958Y-93215647D01*
X147609605Y-94080000D01*
X147250395Y-94080000D01*
X146386042Y-93215647D01*
X146134741Y-93295920D01*
X146022024Y-93606644D01*
X145930200Y-93384961D01*
X145585039Y-93039800D01*
X145134065Y-92853000D01*
X144645935Y-92853000D01*
X144194961Y-93039800D01*
X143849800Y-93384961D01*
X143663000Y-93835935D01*
X143577000Y-93835935D01*
X143390200Y-93384961D01*
X143045039Y-93039800D01*
X142594065Y-92853000D01*
X142105935Y-92853000D01*
X141654961Y-93039800D01*
X141309800Y-93384961D01*
X141123000Y-93835935D01*
X141037000Y-93835935D01*
X140850200Y-93384961D01*
X140505039Y-93039800D01*
X140302657Y-92955970D01*
X140594080Y-92835259D01*
X140674353Y-92583958D01*
X139810000Y-91719605D01*
X138945647Y-92583958D01*
X139025920Y-92835259D01*
X139336644Y-92947976D01*
X139114961Y-93039800D01*
X138769800Y-93384961D01*
X138583000Y-93835935D01*
X138497000Y-93835935D01*
X138310200Y-93384961D01*
X137965039Y-93039800D01*
X137514065Y-92853000D01*
X137025935Y-92853000D01*
X136574961Y-93039800D01*
X136229800Y-93384961D01*
X136043000Y-93835935D01*
X135957000Y-93835935D01*
X135770200Y-93384961D01*
X135425039Y-93039800D01*
X135222657Y-92955970D01*
X135514080Y-92835259D01*
X135594353Y-92583958D01*
X134730000Y-91719605D01*
X133865647Y-92583958D01*
X133945920Y-92835259D01*
X134256644Y-92947976D01*
X134034961Y-93039800D01*
X133689800Y-93384961D01*
X133503000Y-93835935D01*
X133417000Y-93835935D01*
X133230200Y-93384961D01*
X132885039Y-93039800D01*
X132434065Y-92853000D01*
X131945935Y-92853000D01*
X131494961Y-93039800D01*
X131149800Y-93384961D01*
X131065970Y-93587343D01*
X130945259Y-93295920D01*
X130693958Y-93215647D01*
X129829605Y-94080000D01*
X129470395Y-94080000D01*
X128606042Y-93215647D01*
X128354741Y-93295920D01*
X128242024Y-93606644D01*
X128150200Y-93384961D01*
X127805039Y-93039800D01*
X127354065Y-92853000D01*
X126865935Y-92853000D01*
X126414961Y-93039800D01*
X126069800Y-93384961D01*
X125883000Y-93835935D01*
X125797000Y-93835935D01*
X125610200Y-93384961D01*
X125265039Y-93039800D01*
X124814065Y-92853000D01*
X124325935Y-92853000D01*
X123874961Y-93039800D01*
X123529800Y-93384961D01*
X123343000Y-93835935D01*
X123257000Y-93835935D01*
X123070200Y-93384961D01*
X122725039Y-93039800D01*
X122522657Y-92955970D01*
X122814080Y-92835259D01*
X122894353Y-92583958D01*
X122030000Y-91719605D01*
X121165647Y-92583958D01*
X121245920Y-92835259D01*
X121556644Y-92947976D01*
X121334961Y-93039800D01*
X120989800Y-93384961D01*
X120803000Y-93835935D01*
X120717000Y-93835935D01*
X120530200Y-93384961D01*
X120185039Y-93039800D01*
X119734065Y-92853000D01*
X119245935Y-92853000D01*
X118794961Y-93039800D01*
X118449800Y-93384961D01*
X118263000Y-93835935D01*
X118263000Y-94324065D01*
X118316036Y-94452105D01*
X117035142Y-95733000D01*
X101624859Y-95733000D01*
X100343964Y-94452105D01*
X100397000Y-94324065D01*
X100397000Y-93835935D01*
X100483000Y-93835935D01*
X100483000Y-94324065D01*
X100669800Y-94775039D01*
X101014961Y-95120200D01*
X101465935Y-95307000D01*
X101954065Y-95307000D01*
X102405039Y-95120200D01*
X102750200Y-94775039D01*
X102937000Y-94324065D01*
X102937000Y-93835935D01*
X103023000Y-93835935D01*
X103023000Y-94324065D01*
X103209800Y-94775039D01*
X103554961Y-95120200D01*
X104005935Y-95307000D01*
X104494065Y-95307000D01*
X104945039Y-95120200D01*
X105290200Y-94775039D01*
X105477000Y-94324065D01*
X105477000Y-93835935D01*
X105563000Y-93835935D01*
X105563000Y-94324065D01*
X105749800Y-94775039D01*
X106094961Y-95120200D01*
X106545935Y-95307000D01*
X107034065Y-95307000D01*
X107475966Y-95123958D01*
X108465647Y-95123958D01*
X108545920Y-95375259D01*
X109101279Y-95576718D01*
X109691458Y-95550315D01*
X110114080Y-95375259D01*
X110194353Y-95123958D01*
X109330000Y-94259605D01*
X108465647Y-95123958D01*
X107475966Y-95123958D01*
X107485039Y-95120200D01*
X107830200Y-94775039D01*
X107914030Y-94572657D01*
X108034741Y-94864080D01*
X108286042Y-94944353D01*
X109150395Y-94080000D01*
X109509605Y-94080000D01*
X110373958Y-94944353D01*
X110625259Y-94864080D01*
X110737976Y-94553356D01*
X110829800Y-94775039D01*
X111174961Y-95120200D01*
X111625935Y-95307000D01*
X112114065Y-95307000D01*
X112565039Y-95120200D01*
X112910200Y-94775039D01*
X113097000Y-94324065D01*
X113097000Y-93835935D01*
X113183000Y-93835935D01*
X113183000Y-94324065D01*
X113369800Y-94775039D01*
X113714961Y-95120200D01*
X114165935Y-95307000D01*
X114654065Y-95307000D01*
X115105039Y-95120200D01*
X115450200Y-94775039D01*
X115637000Y-94324065D01*
X115637000Y-93835935D01*
X115723000Y-93835935D01*
X115723000Y-94324065D01*
X115909800Y-94775039D01*
X116254961Y-95120200D01*
X116705935Y-95307000D01*
X117194065Y-95307000D01*
X117645039Y-95120200D01*
X117990200Y-94775039D01*
X118177000Y-94324065D01*
X118177000Y-93835935D01*
X117990200Y-93384961D01*
X117645039Y-93039800D01*
X117194065Y-92853000D01*
X116705935Y-92853000D01*
X116254961Y-93039800D01*
X115909800Y-93384961D01*
X115723000Y-93835935D01*
X115637000Y-93835935D01*
X115450200Y-93384961D01*
X115105039Y-93039800D01*
X114902657Y-92955970D01*
X115194080Y-92835259D01*
X115274353Y-92583958D01*
X114410000Y-91719605D01*
X113545647Y-92583958D01*
X113625920Y-92835259D01*
X113936644Y-92947976D01*
X113714961Y-93039800D01*
X113369800Y-93384961D01*
X113183000Y-93835935D01*
X113097000Y-93835935D01*
X112910200Y-93384961D01*
X112565039Y-93039800D01*
X112114065Y-92853000D01*
X111625935Y-92853000D01*
X111174961Y-93039800D01*
X110829800Y-93384961D01*
X110745970Y-93587343D01*
X110625259Y-93295920D01*
X110373958Y-93215647D01*
X109509605Y-94080000D01*
X109150395Y-94080000D01*
X108286042Y-93215647D01*
X108034741Y-93295920D01*
X107922024Y-93606644D01*
X107830200Y-93384961D01*
X107485039Y-93039800D01*
X107034065Y-92853000D01*
X106545935Y-92853000D01*
X106094961Y-93039800D01*
X105749800Y-93384961D01*
X105563000Y-93835935D01*
X105477000Y-93835935D01*
X105290200Y-93384961D01*
X104945039Y-93039800D01*
X104742657Y-92955970D01*
X105034080Y-92835259D01*
X105114353Y-92583958D01*
X104250000Y-91719605D01*
X103385647Y-92583958D01*
X103465920Y-92835259D01*
X103776644Y-92947976D01*
X103554961Y-93039800D01*
X103209800Y-93384961D01*
X103023000Y-93835935D01*
X102937000Y-93835935D01*
X102750200Y-93384961D01*
X102405039Y-93039800D01*
X101954065Y-92853000D01*
X101465935Y-92853000D01*
X101014961Y-93039800D01*
X100669800Y-93384961D01*
X100483000Y-93835935D01*
X100397000Y-93835935D01*
X100210200Y-93384961D01*
X99865039Y-93039800D01*
X99414065Y-92853000D01*
X98925935Y-92853000D01*
X98474961Y-93039800D01*
X98129800Y-93384961D01*
X97943000Y-93835935D01*
X96490081Y-93835935D01*
X96827000Y-93022543D01*
X96827000Y-91977457D01*
X96544705Y-91295935D01*
X97943000Y-91295935D01*
X97943000Y-91784065D01*
X98129800Y-92235039D01*
X98474961Y-92580200D01*
X98925935Y-92767000D01*
X99414065Y-92767000D01*
X99865039Y-92580200D01*
X100210200Y-92235039D01*
X100263236Y-92107000D01*
X100616764Y-92107000D01*
X100669800Y-92235039D01*
X101014961Y-92580200D01*
X101465935Y-92767000D01*
X101954065Y-92767000D01*
X102405039Y-92580200D01*
X102750200Y-92235039D01*
X102834030Y-92032657D01*
X102954741Y-92324080D01*
X103206042Y-92404353D01*
X104070395Y-91540000D01*
X104429605Y-91540000D01*
X105293958Y-92404353D01*
X105545259Y-92324080D01*
X105657976Y-92013356D01*
X105749800Y-92235039D01*
X106094961Y-92580200D01*
X106545935Y-92767000D01*
X107034065Y-92767000D01*
X107485039Y-92580200D01*
X107830200Y-92235039D01*
X108017000Y-91784065D01*
X108017000Y-91295935D01*
X108103000Y-91295935D01*
X108103000Y-91784065D01*
X108289800Y-92235039D01*
X108634961Y-92580200D01*
X108837343Y-92664030D01*
X108545920Y-92784741D01*
X108465647Y-93036042D01*
X109330000Y-93900395D01*
X110194353Y-93036042D01*
X110114080Y-92784741D01*
X109803356Y-92672024D01*
X110025039Y-92580200D01*
X110370200Y-92235039D01*
X110557000Y-91784065D01*
X110557000Y-91295935D01*
X110643000Y-91295935D01*
X110643000Y-91784065D01*
X110829800Y-92235039D01*
X111174961Y-92580200D01*
X111625935Y-92767000D01*
X112114065Y-92767000D01*
X112565039Y-92580200D01*
X112910200Y-92235039D01*
X112994030Y-92032657D01*
X113114741Y-92324080D01*
X113366042Y-92404353D01*
X114230395Y-91540000D01*
X114589605Y-91540000D01*
X115453958Y-92404353D01*
X115705259Y-92324080D01*
X115817976Y-92013356D01*
X115909800Y-92235039D01*
X116254961Y-92580200D01*
X116705935Y-92767000D01*
X117194065Y-92767000D01*
X117645039Y-92580200D01*
X117990200Y-92235039D01*
X118177000Y-91784065D01*
X118177000Y-91295935D01*
X118263000Y-91295935D01*
X118263000Y-91784065D01*
X118449800Y-92235039D01*
X118794961Y-92580200D01*
X119245935Y-92767000D01*
X119734065Y-92767000D01*
X120185039Y-92580200D01*
X120530200Y-92235039D01*
X120614030Y-92032657D01*
X120734741Y-92324080D01*
X120986042Y-92404353D01*
X121850395Y-91540000D01*
X122209605Y-91540000D01*
X123073958Y-92404353D01*
X123325259Y-92324080D01*
X123437976Y-92013356D01*
X123529800Y-92235039D01*
X123874961Y-92580200D01*
X124325935Y-92767000D01*
X124814065Y-92767000D01*
X125265039Y-92580200D01*
X125610200Y-92235039D01*
X125797000Y-91784065D01*
X125797000Y-91295935D01*
X125883000Y-91295935D01*
X125883000Y-91784065D01*
X126069800Y-92235039D01*
X126414961Y-92580200D01*
X126865935Y-92767000D01*
X127354065Y-92767000D01*
X127805039Y-92580200D01*
X128150200Y-92235039D01*
X128337000Y-91784065D01*
X128337000Y-91295935D01*
X128423000Y-91295935D01*
X128423000Y-91784065D01*
X128609800Y-92235039D01*
X128954961Y-92580200D01*
X129157343Y-92664030D01*
X128865920Y-92784741D01*
X128785647Y-93036042D01*
X129650000Y-93900395D01*
X130514353Y-93036042D01*
X130434080Y-92784741D01*
X130123356Y-92672024D01*
X130345039Y-92580200D01*
X130690200Y-92235039D01*
X130877000Y-91784065D01*
X130877000Y-91295935D01*
X130963000Y-91295935D01*
X130963000Y-91784065D01*
X131149800Y-92235039D01*
X131494961Y-92580200D01*
X131945935Y-92767000D01*
X132434065Y-92767000D01*
X132885039Y-92580200D01*
X133230200Y-92235039D01*
X133314030Y-92032657D01*
X133434741Y-92324080D01*
X133686042Y-92404353D01*
X134550395Y-91540000D01*
X134909605Y-91540000D01*
X135773958Y-92404353D01*
X136025259Y-92324080D01*
X136137976Y-92013356D01*
X136229800Y-92235039D01*
X136574961Y-92580200D01*
X137025935Y-92767000D01*
X137514065Y-92767000D01*
X137965039Y-92580200D01*
X138310200Y-92235039D01*
X138394030Y-92032657D01*
X138514741Y-92324080D01*
X138766042Y-92404353D01*
X139630395Y-91540000D01*
X139989605Y-91540000D01*
X140853958Y-92404353D01*
X141105259Y-92324080D01*
X141217976Y-92013356D01*
X141309800Y-92235039D01*
X141654961Y-92580200D01*
X142105935Y-92767000D01*
X142594065Y-92767000D01*
X143045039Y-92580200D01*
X143390200Y-92235039D01*
X143577000Y-91784065D01*
X143577000Y-91295935D01*
X143663000Y-91295935D01*
X143663000Y-91784065D01*
X143849800Y-92235039D01*
X144194961Y-92580200D01*
X144645935Y-92767000D01*
X145134065Y-92767000D01*
X145585039Y-92580200D01*
X145930200Y-92235039D01*
X146117000Y-91784065D01*
X146117000Y-91295935D01*
X146203000Y-91295935D01*
X146203000Y-91784065D01*
X146389800Y-92235039D01*
X146734961Y-92580200D01*
X146937343Y-92664030D01*
X146645920Y-92784741D01*
X146565647Y-93036042D01*
X147430000Y-93900395D01*
X148294353Y-93036042D01*
X148214080Y-92784741D01*
X147903356Y-92672024D01*
X148125039Y-92580200D01*
X148470200Y-92235039D01*
X148576894Y-91977457D01*
X149573000Y-91977457D01*
X149573000Y-93022543D01*
X149972937Y-93988076D01*
X150711924Y-94727063D01*
X151677457Y-95127000D01*
X152722543Y-95127000D01*
X153688076Y-94727063D01*
X154427063Y-93988076D01*
X154696793Y-93336890D01*
X163458524Y-93336890D01*
X163628355Y-93746924D01*
X164018642Y-94175183D01*
X164421191Y-94364230D01*
X164015383Y-94635383D01*
X163744192Y-95041248D01*
X163648962Y-95520000D01*
X163744192Y-95998752D01*
X164015383Y-96404617D01*
X164421248Y-96675808D01*
X164779153Y-96747000D01*
X165020847Y-96747000D01*
X165378752Y-96675808D01*
X165784617Y-96404617D01*
X166055808Y-95998752D01*
X166151038Y-95520000D01*
X166061263Y-95068671D01*
X168352935Y-92777000D01*
X168654555Y-92777000D01*
X168940135Y-92658709D01*
X169158709Y-92440135D01*
X169277000Y-92154555D01*
X169277000Y-91845445D01*
X169158709Y-91559865D01*
X168940135Y-91341291D01*
X168654555Y-91223000D01*
X168345445Y-91223000D01*
X168059865Y-91341291D01*
X167841291Y-91559865D01*
X167723000Y-91845445D01*
X167723000Y-91987065D01*
X166319063Y-93391002D01*
X166341476Y-93336890D01*
X166220155Y-93107000D01*
X165027000Y-93107000D01*
X165027000Y-93127000D01*
X164773000Y-93127000D01*
X164773000Y-93107000D01*
X163579845Y-93107000D01*
X163458524Y-93336890D01*
X154696793Y-93336890D01*
X154827000Y-93022543D01*
X154827000Y-92623110D01*
X163458524Y-92623110D01*
X163579845Y-92853000D01*
X164773000Y-92853000D01*
X164773000Y-92833000D01*
X165027000Y-92833000D01*
X165027000Y-92853000D01*
X166220155Y-92853000D01*
X166341476Y-92623110D01*
X166171645Y-92213076D01*
X165781358Y-91784817D01*
X165378809Y-91595770D01*
X165784617Y-91324617D01*
X166055808Y-90918752D01*
X166151038Y-90440000D01*
X166055808Y-89961248D01*
X165784617Y-89555383D01*
X165378752Y-89284192D01*
X165020847Y-89213000D01*
X164779153Y-89213000D01*
X164421248Y-89284192D01*
X164015383Y-89555383D01*
X163744192Y-89961248D01*
X163648962Y-90440000D01*
X163744192Y-90918752D01*
X164015383Y-91324617D01*
X164421191Y-91595770D01*
X164018642Y-91784817D01*
X163628355Y-92213076D01*
X163458524Y-92623110D01*
X154827000Y-92623110D01*
X154827000Y-91977457D01*
X154427063Y-91011924D01*
X153688076Y-90272937D01*
X152722543Y-89873000D01*
X151677457Y-89873000D01*
X150711924Y-90272937D01*
X149972937Y-91011924D01*
X149573000Y-91977457D01*
X148576894Y-91977457D01*
X148657000Y-91784065D01*
X148657000Y-91295935D01*
X148470200Y-90844961D01*
X148125039Y-90499800D01*
X147674065Y-90313000D01*
X147185935Y-90313000D01*
X146734961Y-90499800D01*
X146389800Y-90844961D01*
X146203000Y-91295935D01*
X146117000Y-91295935D01*
X145930200Y-90844961D01*
X145585039Y-90499800D01*
X145134065Y-90313000D01*
X144645935Y-90313000D01*
X144194961Y-90499800D01*
X143849800Y-90844961D01*
X143663000Y-91295935D01*
X143577000Y-91295935D01*
X143390200Y-90844961D01*
X143045039Y-90499800D01*
X142594065Y-90313000D01*
X142105935Y-90313000D01*
X141654961Y-90499800D01*
X141309800Y-90844961D01*
X141225970Y-91047343D01*
X141105259Y-90755920D01*
X140853958Y-90675647D01*
X139989605Y-91540000D01*
X139630395Y-91540000D01*
X138766042Y-90675647D01*
X138514741Y-90755920D01*
X138402024Y-91066644D01*
X138310200Y-90844961D01*
X137965039Y-90499800D01*
X137955967Y-90496042D01*
X138945647Y-90496042D01*
X139810000Y-91360395D01*
X140674353Y-90496042D01*
X140594080Y-90244741D01*
X140038721Y-90043282D01*
X139448542Y-90069685D01*
X139025920Y-90244741D01*
X138945647Y-90496042D01*
X137955967Y-90496042D01*
X137514065Y-90313000D01*
X137025935Y-90313000D01*
X136574961Y-90499800D01*
X136229800Y-90844961D01*
X136145970Y-91047343D01*
X136025259Y-90755920D01*
X135773958Y-90675647D01*
X134909605Y-91540000D01*
X134550395Y-91540000D01*
X133686042Y-90675647D01*
X133434741Y-90755920D01*
X133322024Y-91066644D01*
X133230200Y-90844961D01*
X132885039Y-90499800D01*
X132875967Y-90496042D01*
X133865647Y-90496042D01*
X134730000Y-91360395D01*
X135594353Y-90496042D01*
X135514080Y-90244741D01*
X134958721Y-90043282D01*
X134368542Y-90069685D01*
X133945920Y-90244741D01*
X133865647Y-90496042D01*
X132875967Y-90496042D01*
X132434065Y-90313000D01*
X131945935Y-90313000D01*
X131494961Y-90499800D01*
X131149800Y-90844961D01*
X130963000Y-91295935D01*
X130877000Y-91295935D01*
X130690200Y-90844961D01*
X130345039Y-90499800D01*
X129894065Y-90313000D01*
X129405935Y-90313000D01*
X128954961Y-90499800D01*
X128609800Y-90844961D01*
X128423000Y-91295935D01*
X128337000Y-91295935D01*
X128150200Y-90844961D01*
X127805039Y-90499800D01*
X127354065Y-90313000D01*
X126865935Y-90313000D01*
X126414961Y-90499800D01*
X126069800Y-90844961D01*
X125883000Y-91295935D01*
X125797000Y-91295935D01*
X125610200Y-90844961D01*
X125265039Y-90499800D01*
X124814065Y-90313000D01*
X124325935Y-90313000D01*
X123874961Y-90499800D01*
X123529800Y-90844961D01*
X123445970Y-91047343D01*
X123325259Y-90755920D01*
X123073958Y-90675647D01*
X122209605Y-91540000D01*
X121850395Y-91540000D01*
X120986042Y-90675647D01*
X120734741Y-90755920D01*
X120622024Y-91066644D01*
X120530200Y-90844961D01*
X120185039Y-90499800D01*
X120175967Y-90496042D01*
X121165647Y-90496042D01*
X122030000Y-91360395D01*
X122894353Y-90496042D01*
X122814080Y-90244741D01*
X122258721Y-90043282D01*
X121668542Y-90069685D01*
X121245920Y-90244741D01*
X121165647Y-90496042D01*
X120175967Y-90496042D01*
X119734065Y-90313000D01*
X119245935Y-90313000D01*
X118794961Y-90499800D01*
X118449800Y-90844961D01*
X118263000Y-91295935D01*
X118177000Y-91295935D01*
X117990200Y-90844961D01*
X117645039Y-90499800D01*
X117194065Y-90313000D01*
X116705935Y-90313000D01*
X116254961Y-90499800D01*
X115909800Y-90844961D01*
X115825970Y-91047343D01*
X115705259Y-90755920D01*
X115453958Y-90675647D01*
X114589605Y-91540000D01*
X114230395Y-91540000D01*
X113366042Y-90675647D01*
X113114741Y-90755920D01*
X113002024Y-91066644D01*
X112910200Y-90844961D01*
X112565039Y-90499800D01*
X112555967Y-90496042D01*
X113545647Y-90496042D01*
X114410000Y-91360395D01*
X115274353Y-90496042D01*
X115194080Y-90244741D01*
X114638721Y-90043282D01*
X114048542Y-90069685D01*
X113625920Y-90244741D01*
X113545647Y-90496042D01*
X112555967Y-90496042D01*
X112114065Y-90313000D01*
X111625935Y-90313000D01*
X111174961Y-90499800D01*
X110829800Y-90844961D01*
X110643000Y-91295935D01*
X110557000Y-91295935D01*
X110370200Y-90844961D01*
X110025039Y-90499800D01*
X109574065Y-90313000D01*
X109085935Y-90313000D01*
X108634961Y-90499800D01*
X108289800Y-90844961D01*
X108103000Y-91295935D01*
X108017000Y-91295935D01*
X107830200Y-90844961D01*
X107485039Y-90499800D01*
X107034065Y-90313000D01*
X106545935Y-90313000D01*
X106094961Y-90499800D01*
X105749800Y-90844961D01*
X105665970Y-91047343D01*
X105545259Y-90755920D01*
X105293958Y-90675647D01*
X104429605Y-91540000D01*
X104070395Y-91540000D01*
X104056253Y-91525858D01*
X104235858Y-91346253D01*
X104250000Y-91360395D01*
X105114353Y-90496042D01*
X105034080Y-90244741D01*
X104478721Y-90043282D01*
X103986559Y-90065300D01*
X105084859Y-88967000D01*
X120368156Y-88967000D01*
X120459865Y-89058709D01*
X120745445Y-89177000D01*
X121054555Y-89177000D01*
X121340135Y-89058709D01*
X121558709Y-88840135D01*
X121677000Y-88554555D01*
X121677000Y-88245445D01*
X121558709Y-87959865D01*
X121340135Y-87741291D01*
X121054555Y-87623000D01*
X120745445Y-87623000D01*
X120459865Y-87741291D01*
X120368156Y-87833000D01*
X104905843Y-87833000D01*
X104850000Y-87821892D01*
X104628767Y-87865898D01*
X104559023Y-87912500D01*
X104441216Y-87991216D01*
X104409583Y-88038558D01*
X102082106Y-90366036D01*
X101954065Y-90313000D01*
X101465935Y-90313000D01*
X101014961Y-90499800D01*
X100669800Y-90844961D01*
X100616764Y-90973000D01*
X100263236Y-90973000D01*
X100210200Y-90844961D01*
X99865039Y-90499800D01*
X99414065Y-90313000D01*
X98925935Y-90313000D01*
X98474961Y-90499800D01*
X98129800Y-90844961D01*
X97943000Y-91295935D01*
X96544705Y-91295935D01*
X96427063Y-91011924D01*
X95688076Y-90272937D01*
X94722543Y-89873000D01*
X93677457Y-89873000D01*
X92711924Y-90272937D01*
X91972937Y-91011924D01*
X91573000Y-91977457D01*
X91127000Y-91977457D01*
X91127000Y-89545445D01*
X96823000Y-89545445D01*
X96823000Y-89854555D01*
X96941291Y-90140135D01*
X97159865Y-90358709D01*
X97445445Y-90477000D01*
X97754555Y-90477000D01*
X98040135Y-90358709D01*
X98258709Y-90140135D01*
X98377000Y-89854555D01*
X98377000Y-89632934D01*
X100959935Y-87050000D01*
X163665615Y-87050000D01*
X163665615Y-88750000D01*
X163694875Y-88897098D01*
X163778199Y-89021801D01*
X163902902Y-89105125D01*
X164050000Y-89134385D01*
X165750000Y-89134385D01*
X165897098Y-89105125D01*
X166021801Y-89021801D01*
X166105125Y-88897098D01*
X166134385Y-88750000D01*
X166134385Y-87050000D01*
X166105125Y-86902902D01*
X166021801Y-86778199D01*
X165897098Y-86694875D01*
X165750000Y-86665615D01*
X164050000Y-86665615D01*
X163902902Y-86694875D01*
X163778199Y-86778199D01*
X163694875Y-86902902D01*
X163665615Y-87050000D01*
X100959935Y-87050000D01*
X102720013Y-85289923D01*
X102761921Y-85261921D01*
X102789923Y-85220013D01*
X102789926Y-85220010D01*
X102872872Y-85095871D01*
X102872873Y-85095870D01*
X102902000Y-84949439D01*
X102902000Y-84949435D01*
X102911833Y-84900001D01*
X102902000Y-84850567D01*
X102902000Y-74245445D01*
X129923000Y-74245445D01*
X129923000Y-74554555D01*
X130041291Y-74840135D01*
X130198001Y-74996845D01*
X130198000Y-81003156D01*
X130041291Y-81159865D01*
X129923000Y-81445445D01*
X129923000Y-81754555D01*
X130041291Y-82040135D01*
X130259865Y-82258709D01*
X130545445Y-82377000D01*
X130854555Y-82377000D01*
X130930735Y-82345445D01*
X173223000Y-82345445D01*
X173223000Y-82654555D01*
X173341291Y-82940135D01*
X173559865Y-83158709D01*
X173845445Y-83277000D01*
X174154555Y-83277000D01*
X174292165Y-83220000D01*
X206348962Y-83220000D01*
X206444192Y-83698752D01*
X206715383Y-84104617D01*
X207121248Y-84375808D01*
X207479153Y-84447000D01*
X207720847Y-84447000D01*
X208078752Y-84375808D01*
X208484617Y-84104617D01*
X208755808Y-83698752D01*
X208851038Y-83220000D01*
X208755808Y-82741248D01*
X208484617Y-82335383D01*
X208078752Y-82064192D01*
X207720847Y-81993000D01*
X207479153Y-81993000D01*
X207121248Y-82064192D01*
X206715383Y-82335383D01*
X206444192Y-82741248D01*
X206348962Y-83220000D01*
X174292165Y-83220000D01*
X174440135Y-83158709D01*
X174658709Y-82940135D01*
X174777000Y-82654555D01*
X174777000Y-82432934D01*
X175164489Y-82045445D01*
X185223000Y-82045445D01*
X185223000Y-82354555D01*
X185341291Y-82640135D01*
X185559865Y-82858709D01*
X185845445Y-82977000D01*
X186154555Y-82977000D01*
X186440135Y-82858709D01*
X186596844Y-82702000D01*
X189503156Y-82702000D01*
X189659865Y-82858709D01*
X189945445Y-82977000D01*
X190254555Y-82977000D01*
X190540135Y-82858709D01*
X190758709Y-82640135D01*
X190877000Y-82354555D01*
X190877000Y-82045445D01*
X190758709Y-81759865D01*
X190540135Y-81541291D01*
X190254555Y-81423000D01*
X189945445Y-81423000D01*
X189659865Y-81541291D01*
X189503156Y-81698000D01*
X186596844Y-81698000D01*
X186440135Y-81541291D01*
X186154555Y-81423000D01*
X185845445Y-81423000D01*
X185559865Y-81541291D01*
X185341291Y-81759865D01*
X185223000Y-82045445D01*
X175164489Y-82045445D01*
X176232936Y-80977000D01*
X176454555Y-80977000D01*
X176740135Y-80858709D01*
X176958709Y-80640135D01*
X177077000Y-80354555D01*
X177077000Y-80045445D01*
X176958709Y-79759865D01*
X176740135Y-79541291D01*
X176454555Y-79423000D01*
X176145445Y-79423000D01*
X175859865Y-79541291D01*
X175641291Y-79759865D01*
X175523000Y-80045445D01*
X175523000Y-80267064D01*
X174067066Y-81723000D01*
X173845445Y-81723000D01*
X173559865Y-81841291D01*
X173341291Y-82059865D01*
X173223000Y-82345445D01*
X130930735Y-82345445D01*
X131140135Y-82258709D01*
X131358709Y-82040135D01*
X131477000Y-81754555D01*
X131477000Y-81445445D01*
X131358709Y-81159865D01*
X131202000Y-81003156D01*
X131202000Y-78045445D01*
X163323000Y-78045445D01*
X163323000Y-78354555D01*
X163441291Y-78640135D01*
X163659865Y-78858709D01*
X163945445Y-78977000D01*
X164254555Y-78977000D01*
X164540135Y-78858709D01*
X164758709Y-78640135D01*
X164877000Y-78354555D01*
X164877000Y-78309711D01*
X166241266Y-76945445D01*
X183923000Y-76945445D01*
X183923000Y-77254555D01*
X184041291Y-77540135D01*
X184259865Y-77758709D01*
X184545445Y-77877000D01*
X184854555Y-77877000D01*
X185140135Y-77758709D01*
X185231844Y-77667000D01*
X190844162Y-77667000D01*
X190900000Y-77678107D01*
X190955838Y-77667000D01*
X190955843Y-77667000D01*
X191121232Y-77634102D01*
X191308784Y-77508784D01*
X191314653Y-77500000D01*
X200515615Y-77500000D01*
X200515615Y-79700000D01*
X200544875Y-79847098D01*
X200628199Y-79971801D01*
X200752902Y-80055125D01*
X200900000Y-80084385D01*
X203100000Y-80084385D01*
X203247098Y-80055125D01*
X203371801Y-79971801D01*
X203455125Y-79847098D01*
X203484385Y-79700000D01*
X203484385Y-77500000D01*
X203455125Y-77352902D01*
X203371801Y-77228199D01*
X203247098Y-77144875D01*
X203100000Y-77115615D01*
X200900000Y-77115615D01*
X200752902Y-77144875D01*
X200628199Y-77228199D01*
X200544875Y-77352902D01*
X200515615Y-77500000D01*
X191314653Y-77500000D01*
X191340419Y-77461439D01*
X194305652Y-74496206D01*
X200523000Y-74496206D01*
X200523000Y-75083794D01*
X200747860Y-75626653D01*
X201163347Y-76042140D01*
X201706206Y-76267000D01*
X202293794Y-76267000D01*
X202836653Y-76042140D01*
X203252140Y-75626653D01*
X203477000Y-75083794D01*
X203477000Y-74496206D01*
X203252140Y-73953347D01*
X202836653Y-73537860D01*
X202293794Y-73313000D01*
X201706206Y-73313000D01*
X201163347Y-73537860D01*
X200747860Y-73953347D01*
X200523000Y-74496206D01*
X194305652Y-74496206D01*
X194624859Y-74177000D01*
X194754555Y-74177000D01*
X195040135Y-74058709D01*
X195258709Y-73840135D01*
X195377000Y-73554555D01*
X195377000Y-73245445D01*
X195258709Y-72959865D01*
X195040135Y-72741291D01*
X194754555Y-72623000D01*
X194445445Y-72623000D01*
X194159865Y-72741291D01*
X193941291Y-72959865D01*
X193823000Y-73245445D01*
X193823000Y-73375141D01*
X193069882Y-74128260D01*
X192958709Y-73859865D01*
X192740135Y-73641291D01*
X192454555Y-73523000D01*
X192145445Y-73523000D01*
X191859865Y-73641291D01*
X191703156Y-73798000D01*
X186396844Y-73798000D01*
X186240135Y-73641291D01*
X185954555Y-73523000D01*
X185645445Y-73523000D01*
X185359865Y-73641291D01*
X185141291Y-73859865D01*
X185023000Y-74145445D01*
X185023000Y-74454555D01*
X185141291Y-74740135D01*
X185359865Y-74958709D01*
X185645445Y-75077000D01*
X185954555Y-75077000D01*
X186240135Y-74958709D01*
X186396844Y-74802000D01*
X191703156Y-74802000D01*
X191859865Y-74958709D01*
X192128260Y-75069882D01*
X190665142Y-76533000D01*
X185231844Y-76533000D01*
X185140135Y-76441291D01*
X184854555Y-76323000D01*
X184545445Y-76323000D01*
X184259865Y-76441291D01*
X184041291Y-76659865D01*
X183923000Y-76945445D01*
X166241266Y-76945445D01*
X166548712Y-76637999D01*
X166740135Y-76558709D01*
X166958709Y-76340135D01*
X167077000Y-76054555D01*
X167077000Y-75745445D01*
X166958709Y-75459865D01*
X166740135Y-75241291D01*
X166454555Y-75123000D01*
X166145445Y-75123000D01*
X165859865Y-75241291D01*
X165641291Y-75459865D01*
X165523000Y-75745445D01*
X165523000Y-75890289D01*
X163990289Y-77423000D01*
X163945445Y-77423000D01*
X163659865Y-77541291D01*
X163441291Y-77759865D01*
X163323000Y-78045445D01*
X131202000Y-78045445D01*
X131202000Y-74996844D01*
X131358709Y-74840135D01*
X131477000Y-74554555D01*
X131477000Y-74245445D01*
X131358709Y-73959865D01*
X131140135Y-73741291D01*
X130854555Y-73623000D01*
X130545445Y-73623000D01*
X130259865Y-73741291D01*
X130041291Y-73959865D01*
X129923000Y-74245445D01*
X102902000Y-74245445D01*
X102902000Y-71800000D01*
X147268962Y-71800000D01*
X147364192Y-72278752D01*
X147635383Y-72684617D01*
X148041248Y-72955808D01*
X148399153Y-73027000D01*
X148640847Y-73027000D01*
X148998752Y-72955808D01*
X149404617Y-72684617D01*
X149675808Y-72278752D01*
X149771038Y-71800000D01*
X149808962Y-71800000D01*
X149904192Y-72278752D01*
X150175383Y-72684617D01*
X150581248Y-72955808D01*
X150939153Y-73027000D01*
X151180847Y-73027000D01*
X151538752Y-72955808D01*
X151944617Y-72684617D01*
X152215808Y-72278752D01*
X152311038Y-71800000D01*
X152215808Y-71321248D01*
X151944617Y-70915383D01*
X151538752Y-70644192D01*
X151180847Y-70573000D01*
X150939153Y-70573000D01*
X150581248Y-70644192D01*
X150175383Y-70915383D01*
X149904192Y-71321248D01*
X149808962Y-71800000D01*
X149771038Y-71800000D01*
X149675808Y-71321248D01*
X149404617Y-70915383D01*
X148998752Y-70644192D01*
X148640847Y-70573000D01*
X148399153Y-70573000D01*
X148041248Y-70644192D01*
X147635383Y-70915383D01*
X147364192Y-71321248D01*
X147268962Y-71800000D01*
X102902000Y-71800000D01*
X102902000Y-69996844D01*
X103058709Y-69840135D01*
X103177000Y-69554555D01*
X103177000Y-69245445D01*
X103058709Y-68959865D01*
X102840135Y-68741291D01*
X102554555Y-68623000D01*
X102245445Y-68623000D01*
X101959865Y-68741291D01*
X101741291Y-68959865D01*
X101623000Y-69245445D01*
X101623000Y-69554555D01*
X101741291Y-69840135D01*
X101898000Y-69996844D01*
X101898001Y-84692063D01*
X97667066Y-88923000D01*
X97445445Y-88923000D01*
X97159865Y-89041291D01*
X96941291Y-89259865D01*
X96823000Y-89545445D01*
X91127000Y-89545445D01*
X91127000Y-66945445D01*
X118423000Y-66945445D01*
X118423000Y-67254555D01*
X118541291Y-67540135D01*
X118759865Y-67758709D01*
X119045445Y-67877000D01*
X119354555Y-67877000D01*
X119640135Y-67758709D01*
X119858709Y-67540135D01*
X119977000Y-67254555D01*
X119977000Y-66945445D01*
X119858709Y-66659865D01*
X119702000Y-66503156D01*
X119702000Y-65745445D01*
X152123000Y-65745445D01*
X152123000Y-66054555D01*
X152241291Y-66340135D01*
X152398000Y-66496844D01*
X152398001Y-67103155D01*
X152241291Y-67259865D01*
X152123000Y-67545445D01*
X152123000Y-67854555D01*
X152241291Y-68140135D01*
X152459865Y-68358709D01*
X152745445Y-68477000D01*
X153054555Y-68477000D01*
X153233001Y-68403085D01*
X153233001Y-70565615D01*
X152750000Y-70565615D01*
X152602902Y-70594875D01*
X152478199Y-70678199D01*
X152394875Y-70802902D01*
X152365615Y-70950000D01*
X152365615Y-72650000D01*
X152394875Y-72797098D01*
X152478199Y-72921801D01*
X152602902Y-73005125D01*
X152750000Y-73034385D01*
X154450000Y-73034385D01*
X154597098Y-73005125D01*
X154721801Y-72921801D01*
X154805125Y-72797098D01*
X154834385Y-72650000D01*
X154834385Y-70950000D01*
X154805125Y-70802902D01*
X154721801Y-70678199D01*
X154597098Y-70594875D01*
X154450000Y-70565615D01*
X154367000Y-70565615D01*
X154367000Y-69345445D01*
X158023000Y-69345445D01*
X158023000Y-69654555D01*
X158141291Y-69940135D01*
X158359865Y-70158709D01*
X158645445Y-70277000D01*
X158954555Y-70277000D01*
X159240135Y-70158709D01*
X159458709Y-69940135D01*
X159497930Y-69845445D01*
X160023000Y-69845445D01*
X160023000Y-70154555D01*
X160141291Y-70440135D01*
X160359865Y-70658709D01*
X160645445Y-70777000D01*
X160954555Y-70777000D01*
X161240135Y-70658709D01*
X161458709Y-70440135D01*
X161577000Y-70154555D01*
X161577000Y-69932934D01*
X162107935Y-69402000D01*
X163203156Y-69402000D01*
X163359865Y-69558709D01*
X163645445Y-69677000D01*
X163954555Y-69677000D01*
X164240135Y-69558709D01*
X164458709Y-69340135D01*
X164577000Y-69054555D01*
X164577000Y-68745445D01*
X164458709Y-68459865D01*
X164240135Y-68241291D01*
X163954555Y-68123000D01*
X163645445Y-68123000D01*
X163359865Y-68241291D01*
X163203156Y-68398000D01*
X161949434Y-68398000D01*
X161900000Y-68388167D01*
X161850566Y-68398000D01*
X161850561Y-68398000D01*
X161704130Y-68427127D01*
X161538079Y-68538079D01*
X161510075Y-68579990D01*
X160867066Y-69223000D01*
X160645445Y-69223000D01*
X160359865Y-69341291D01*
X160141291Y-69559865D01*
X160023000Y-69845445D01*
X159497930Y-69845445D01*
X159577000Y-69654555D01*
X159577000Y-69432934D01*
X161623000Y-67386936D01*
X161623000Y-67554555D01*
X161741291Y-67840135D01*
X161959865Y-68058709D01*
X162245445Y-68177000D01*
X162554555Y-68177000D01*
X162840135Y-68058709D01*
X162996844Y-67902000D01*
X163992066Y-67902000D01*
X164923000Y-68832935D01*
X164923000Y-69054555D01*
X165041291Y-69340135D01*
X165259865Y-69558709D01*
X165545445Y-69677000D01*
X165854555Y-69677000D01*
X166140135Y-69558709D01*
X166358709Y-69340135D01*
X166477000Y-69054555D01*
X166477000Y-68745445D01*
X166476976Y-68745387D01*
X175123000Y-68745387D01*
X175123000Y-69054497D01*
X175241291Y-69340077D01*
X175398000Y-69496786D01*
X175398001Y-69883108D01*
X175241291Y-70039818D01*
X175123000Y-70325398D01*
X175123000Y-70634508D01*
X175241291Y-70920088D01*
X175459865Y-71138662D01*
X175745445Y-71256953D01*
X176054555Y-71256953D01*
X176340135Y-71138662D01*
X176558709Y-70920088D01*
X176677000Y-70634508D01*
X176677000Y-70325398D01*
X176558709Y-70039818D01*
X176402000Y-69883109D01*
X176402000Y-69496786D01*
X176558709Y-69340077D01*
X176677000Y-69054497D01*
X176677000Y-68875844D01*
X176698001Y-68896845D01*
X176698000Y-73903156D01*
X176541291Y-74059865D01*
X176423000Y-74345445D01*
X176423000Y-74654555D01*
X176541291Y-74940135D01*
X176759865Y-75158709D01*
X177045445Y-75277000D01*
X177354555Y-75277000D01*
X177640135Y-75158709D01*
X177858709Y-74940135D01*
X177977000Y-74654555D01*
X177977000Y-74345445D01*
X177858709Y-74059865D01*
X177702000Y-73903156D01*
X177702000Y-73700844D01*
X177759865Y-73758709D01*
X178045445Y-73877000D01*
X178354555Y-73877000D01*
X178640135Y-73758709D01*
X178858709Y-73540135D01*
X178977000Y-73254555D01*
X178977000Y-72945445D01*
X178858709Y-72659865D01*
X178702000Y-72503156D01*
X178702000Y-69996844D01*
X178858709Y-69840135D01*
X178977000Y-69554555D01*
X178977000Y-69245445D01*
X178858709Y-68959865D01*
X178744289Y-68845445D01*
X179322992Y-68845445D01*
X179322992Y-69154555D01*
X179441283Y-69440135D01*
X179598001Y-69596853D01*
X179598000Y-72703156D01*
X179441291Y-72859865D01*
X179323000Y-73145445D01*
X179323000Y-73454555D01*
X179441291Y-73740135D01*
X179659865Y-73958709D01*
X179945445Y-74077000D01*
X180254555Y-74077000D01*
X180540135Y-73958709D01*
X180758709Y-73740135D01*
X180877000Y-73454555D01*
X180877000Y-73145445D01*
X180758709Y-72859865D01*
X180602000Y-72703156D01*
X180602000Y-70686206D01*
X200523000Y-70686206D01*
X200523000Y-71273794D01*
X200747860Y-71816653D01*
X201163347Y-72232140D01*
X201706206Y-72457000D01*
X202293794Y-72457000D01*
X202836653Y-72232140D01*
X203252140Y-71816653D01*
X203477000Y-71273794D01*
X203477000Y-70686206D01*
X203252140Y-70143347D01*
X202836653Y-69727860D01*
X202293794Y-69503000D01*
X201706206Y-69503000D01*
X201163347Y-69727860D01*
X200747860Y-70143347D01*
X200523000Y-70686206D01*
X180602000Y-70686206D01*
X180602000Y-69596836D01*
X180758701Y-69440135D01*
X180876992Y-69154555D01*
X180876992Y-68845445D01*
X180758701Y-68559865D01*
X180540127Y-68341291D01*
X180254547Y-68223000D01*
X179945437Y-68223000D01*
X179659857Y-68341291D01*
X179441283Y-68559865D01*
X179322992Y-68845445D01*
X178744289Y-68845445D01*
X178640135Y-68741291D01*
X178354555Y-68623000D01*
X178045445Y-68623000D01*
X177878602Y-68692108D01*
X177977000Y-68454555D01*
X177977000Y-68145445D01*
X177858709Y-67859865D01*
X177640135Y-67641291D01*
X177354555Y-67523000D01*
X177045445Y-67523000D01*
X176759865Y-67641291D01*
X176541291Y-67859865D01*
X176423000Y-68145445D01*
X176423000Y-68324098D01*
X176340135Y-68241233D01*
X176054555Y-68122942D01*
X175745445Y-68122942D01*
X175459865Y-68241233D01*
X175241291Y-68459807D01*
X175123000Y-68745387D01*
X166476976Y-68745387D01*
X166358709Y-68459865D01*
X166140135Y-68241291D01*
X165854555Y-68123000D01*
X165632935Y-68123000D01*
X164589927Y-67079993D01*
X164561921Y-67038079D01*
X164395870Y-66927127D01*
X164249439Y-66898000D01*
X164249434Y-66898000D01*
X164200000Y-66888167D01*
X164150566Y-66898000D01*
X164117583Y-66898000D01*
X164126610Y-66876206D01*
X200523000Y-66876206D01*
X200523000Y-67463794D01*
X200747860Y-68006653D01*
X201163347Y-68422140D01*
X201706206Y-68647000D01*
X202293794Y-68647000D01*
X202836653Y-68422140D01*
X203252140Y-68006653D01*
X203477000Y-67463794D01*
X203477000Y-66876206D01*
X203252140Y-66333347D01*
X202836653Y-65917860D01*
X202293794Y-65693000D01*
X201706206Y-65693000D01*
X201163347Y-65917860D01*
X200747860Y-66333347D01*
X200523000Y-66876206D01*
X164126610Y-66876206D01*
X164177000Y-66754555D01*
X164177000Y-66445445D01*
X164058709Y-66159865D01*
X163840135Y-65941291D01*
X163554555Y-65823000D01*
X163245445Y-65823000D01*
X162959865Y-65941291D01*
X162803156Y-66098000D01*
X161749433Y-66098000D01*
X161699999Y-66088167D01*
X161650565Y-66098000D01*
X161650561Y-66098000D01*
X161504130Y-66127127D01*
X161504128Y-66127128D01*
X161504129Y-66127128D01*
X161379990Y-66210074D01*
X161379987Y-66210077D01*
X161338079Y-66238079D01*
X161310077Y-66279987D01*
X158867066Y-68723000D01*
X158645445Y-68723000D01*
X158359865Y-68841291D01*
X158141291Y-69059865D01*
X158023000Y-69345445D01*
X154367000Y-69345445D01*
X154367000Y-64631844D01*
X154458709Y-64540135D01*
X154577000Y-64254555D01*
X154577000Y-63945445D01*
X154458709Y-63659865D01*
X154240135Y-63441291D01*
X153954555Y-63323000D01*
X153645445Y-63323000D01*
X153359865Y-63441291D01*
X153141291Y-63659865D01*
X153023000Y-63945445D01*
X153023000Y-64254555D01*
X153141291Y-64540135D01*
X153233000Y-64631844D01*
X153233000Y-65196914D01*
X153054555Y-65123000D01*
X152745445Y-65123000D01*
X152459865Y-65241291D01*
X152241291Y-65459865D01*
X152123000Y-65745445D01*
X119702000Y-65745445D01*
X119702000Y-65267934D01*
X120631553Y-64338382D01*
X120966206Y-64477000D01*
X121553794Y-64477000D01*
X122096653Y-64252140D01*
X122512140Y-63836653D01*
X122737000Y-63293794D01*
X122737000Y-62706206D01*
X123593000Y-62706206D01*
X123593000Y-63293794D01*
X123817860Y-63836653D01*
X124233347Y-64252140D01*
X124776206Y-64477000D01*
X125363794Y-64477000D01*
X125906653Y-64252140D01*
X126322140Y-63836653D01*
X126547000Y-63293794D01*
X126547000Y-62706206D01*
X127403000Y-62706206D01*
X127403000Y-63293794D01*
X127627860Y-63836653D01*
X128043347Y-64252140D01*
X128586206Y-64477000D01*
X129173794Y-64477000D01*
X129716653Y-64252140D01*
X130132140Y-63836653D01*
X130357000Y-63293794D01*
X130357000Y-62706206D01*
X131213000Y-62706206D01*
X131213000Y-63293794D01*
X131437860Y-63836653D01*
X131853347Y-64252140D01*
X132396206Y-64477000D01*
X132983794Y-64477000D01*
X133526653Y-64252140D01*
X133942140Y-63836653D01*
X134167000Y-63293794D01*
X134167000Y-63285750D01*
X134765000Y-63285750D01*
X134765000Y-64226310D01*
X134861673Y-64459699D01*
X135040302Y-64638327D01*
X135273691Y-64735000D01*
X136214250Y-64735000D01*
X136373000Y-64576250D01*
X136373000Y-63127000D01*
X136627000Y-63127000D01*
X136627000Y-64576250D01*
X136785750Y-64735000D01*
X137726309Y-64735000D01*
X137959698Y-64638327D01*
X138138327Y-64459699D01*
X138235000Y-64226310D01*
X138235000Y-63285750D01*
X138076250Y-63127000D01*
X136627000Y-63127000D01*
X136373000Y-63127000D01*
X134923750Y-63127000D01*
X134765000Y-63285750D01*
X134167000Y-63285750D01*
X134167000Y-62706206D01*
X133942140Y-62163347D01*
X133552483Y-61773690D01*
X134765000Y-61773690D01*
X134765000Y-62714250D01*
X134923750Y-62873000D01*
X136373000Y-62873000D01*
X136373000Y-61423750D01*
X136627000Y-61423750D01*
X136627000Y-62873000D01*
X138076250Y-62873000D01*
X138235000Y-62714250D01*
X138235000Y-61773690D01*
X138138327Y-61540301D01*
X137959698Y-61361673D01*
X137726309Y-61265000D01*
X136785750Y-61265000D01*
X136627000Y-61423750D01*
X136373000Y-61423750D01*
X136214250Y-61265000D01*
X135273691Y-61265000D01*
X135040302Y-61361673D01*
X134861673Y-61540301D01*
X134765000Y-61773690D01*
X133552483Y-61773690D01*
X133526653Y-61747860D01*
X132983794Y-61523000D01*
X132396206Y-61523000D01*
X131853347Y-61747860D01*
X131437860Y-62163347D01*
X131213000Y-62706206D01*
X130357000Y-62706206D01*
X130132140Y-62163347D01*
X129716653Y-61747860D01*
X129173794Y-61523000D01*
X128586206Y-61523000D01*
X128043347Y-61747860D01*
X127627860Y-62163347D01*
X127403000Y-62706206D01*
X126547000Y-62706206D01*
X126322140Y-62163347D01*
X125906653Y-61747860D01*
X125363794Y-61523000D01*
X124776206Y-61523000D01*
X124233347Y-61747860D01*
X123817860Y-62163347D01*
X123593000Y-62706206D01*
X122737000Y-62706206D01*
X122512140Y-62163347D01*
X122096653Y-61747860D01*
X121553794Y-61523000D01*
X120966206Y-61523000D01*
X120423347Y-61747860D01*
X120007860Y-62163347D01*
X119783000Y-62706206D01*
X119783000Y-63293794D01*
X119921618Y-63628447D01*
X118879991Y-64670075D01*
X118838080Y-64698079D01*
X118810076Y-64739990D01*
X118810074Y-64739992D01*
X118727128Y-64864130D01*
X118688167Y-65060000D01*
X118698001Y-65109439D01*
X118698000Y-66503156D01*
X118541291Y-66659865D01*
X118423000Y-66945445D01*
X91127000Y-66945445D01*
X91127000Y-59288490D01*
X91423000Y-59288490D01*
X91423000Y-60711510D01*
X91967565Y-62026208D01*
X92973792Y-63032435D01*
X94288490Y-63577000D01*
X95711510Y-63577000D01*
X97026208Y-63032435D01*
X97352437Y-62706206D01*
X100733000Y-62706206D01*
X100733000Y-63293794D01*
X100957860Y-63836653D01*
X101373347Y-64252140D01*
X101916206Y-64477000D01*
X102503794Y-64477000D01*
X103046653Y-64252140D01*
X103462140Y-63836653D01*
X103687000Y-63293794D01*
X103687000Y-62706206D01*
X104543000Y-62706206D01*
X104543000Y-63293794D01*
X104767860Y-63836653D01*
X105183347Y-64252140D01*
X105726206Y-64477000D01*
X106313794Y-64477000D01*
X106856653Y-64252140D01*
X107272140Y-63836653D01*
X107497000Y-63293794D01*
X107497000Y-62706206D01*
X108353000Y-62706206D01*
X108353000Y-63293794D01*
X108577860Y-63836653D01*
X108993347Y-64252140D01*
X109536206Y-64477000D01*
X110123794Y-64477000D01*
X110666653Y-64252140D01*
X111082140Y-63836653D01*
X111307000Y-63293794D01*
X111307000Y-62706206D01*
X112163000Y-62706206D01*
X112163000Y-63293794D01*
X112387860Y-63836653D01*
X112803347Y-64252140D01*
X113346206Y-64477000D01*
X113933794Y-64477000D01*
X114476653Y-64252140D01*
X114892140Y-63836653D01*
X115117000Y-63293794D01*
X115117000Y-62706206D01*
X115973000Y-62706206D01*
X115973000Y-63293794D01*
X116197860Y-63836653D01*
X116613347Y-64252140D01*
X117156206Y-64477000D01*
X117743794Y-64477000D01*
X118286653Y-64252140D01*
X118702140Y-63836653D01*
X118927000Y-63293794D01*
X118927000Y-62706206D01*
X118702140Y-62163347D01*
X118286653Y-61747860D01*
X117743794Y-61523000D01*
X117156206Y-61523000D01*
X116613347Y-61747860D01*
X116197860Y-62163347D01*
X115973000Y-62706206D01*
X115117000Y-62706206D01*
X114892140Y-62163347D01*
X114476653Y-61747860D01*
X113933794Y-61523000D01*
X113346206Y-61523000D01*
X112803347Y-61747860D01*
X112387860Y-62163347D01*
X112163000Y-62706206D01*
X111307000Y-62706206D01*
X111082140Y-62163347D01*
X110666653Y-61747860D01*
X110123794Y-61523000D01*
X109536206Y-61523000D01*
X108993347Y-61747860D01*
X108577860Y-62163347D01*
X108353000Y-62706206D01*
X107497000Y-62706206D01*
X107272140Y-62163347D01*
X106856653Y-61747860D01*
X106313794Y-61523000D01*
X105726206Y-61523000D01*
X105183347Y-61747860D01*
X104767860Y-62163347D01*
X104543000Y-62706206D01*
X103687000Y-62706206D01*
X103462140Y-62163347D01*
X103046653Y-61747860D01*
X102503794Y-61523000D01*
X101916206Y-61523000D01*
X101373347Y-61747860D01*
X100957860Y-62163347D01*
X100733000Y-62706206D01*
X97352437Y-62706206D01*
X98032435Y-62026208D01*
X98364076Y-61225554D01*
X148023000Y-61225554D01*
X148023000Y-61574446D01*
X148156516Y-61896780D01*
X148403220Y-62143484D01*
X148725554Y-62277000D01*
X149074446Y-62277000D01*
X149396780Y-62143484D01*
X149643484Y-61896780D01*
X149777000Y-61574446D01*
X149777000Y-61225554D01*
X152423000Y-61225554D01*
X152423000Y-61574446D01*
X152556516Y-61896780D01*
X152803220Y-62143484D01*
X153125554Y-62277000D01*
X153474446Y-62277000D01*
X153796780Y-62143484D01*
X154043484Y-61896780D01*
X154177000Y-61574446D01*
X154177000Y-61225554D01*
X154043484Y-60903220D01*
X153796780Y-60656516D01*
X153474446Y-60523000D01*
X153125554Y-60523000D01*
X152803220Y-60656516D01*
X152556516Y-60903220D01*
X152423000Y-61225554D01*
X149777000Y-61225554D01*
X149643484Y-60903220D01*
X149396780Y-60656516D01*
X149074446Y-60523000D01*
X148725554Y-60523000D01*
X148403220Y-60656516D01*
X148156516Y-60903220D01*
X148023000Y-61225554D01*
X98364076Y-61225554D01*
X98577000Y-60711510D01*
X98577000Y-59288490D01*
X201423000Y-59288490D01*
X201423000Y-60711510D01*
X201967565Y-62026208D01*
X202973792Y-63032435D01*
X204288490Y-63577000D01*
X205711510Y-63577000D01*
X207026208Y-63032435D01*
X208032435Y-62026208D01*
X208577000Y-60711510D01*
X208577000Y-59288490D01*
X208032435Y-57973792D01*
X207026208Y-56967565D01*
X205711510Y-56423000D01*
X204288490Y-56423000D01*
X202973792Y-56967565D01*
X201967565Y-57973792D01*
X201423000Y-59288490D01*
X98577000Y-59288490D01*
X98032435Y-57973792D01*
X97026208Y-56967565D01*
X95711510Y-56423000D01*
X94288490Y-56423000D01*
X92973792Y-56967565D01*
X91967565Y-57973792D01*
X91423000Y-59288490D01*
X91127000Y-59288490D01*
X91127000Y-56127000D01*
X208873000Y-56127000D01*
X208873000Y-97696347D01*
G36*
X189973000Y-88213483D02*
X189754555Y-88123000D01*
X189445445Y-88123000D01*
X189159865Y-88241291D01*
X188941291Y-88459865D01*
X188823000Y-88745445D01*
X188823000Y-88923000D01*
X188777000Y-88923000D01*
X188777000Y-88745445D01*
X188658709Y-88459865D01*
X188440135Y-88241291D01*
X188154555Y-88123000D01*
X187845445Y-88123000D01*
X187559865Y-88241291D01*
X187341291Y-88459865D01*
X187223000Y-88745445D01*
X187223000Y-88923000D01*
X187177000Y-88923000D01*
X187177000Y-88745445D01*
X187058709Y-88459865D01*
X186840135Y-88241291D01*
X186554555Y-88123000D01*
X186245445Y-88123000D01*
X185959865Y-88241291D01*
X185741291Y-88459865D01*
X185623000Y-88745445D01*
X185623000Y-88923000D01*
X185577000Y-88923000D01*
X185577000Y-88845445D01*
X185458709Y-88559865D01*
X185240135Y-88341291D01*
X184954555Y-88223000D01*
X184645445Y-88223000D01*
X184359865Y-88341291D01*
X184141291Y-88559865D01*
X184023000Y-88845445D01*
X184023000Y-89154555D01*
X184141291Y-89440135D01*
X184298001Y-89596845D01*
X184298000Y-90250566D01*
X184288167Y-90300000D01*
X184298000Y-90349434D01*
X184298000Y-90349438D01*
X184327127Y-90495869D01*
X184438079Y-90661921D01*
X184479993Y-90689927D01*
X185898001Y-92107936D01*
X185898000Y-97792065D01*
X184267066Y-99423000D01*
X184045445Y-99423000D01*
X183759865Y-99541291D01*
X183541291Y-99759865D01*
X183423000Y-100045445D01*
X183423000Y-100354555D01*
X183541291Y-100640135D01*
X183759865Y-100858709D01*
X184045445Y-100977000D01*
X184354555Y-100977000D01*
X184640135Y-100858709D01*
X184858709Y-100640135D01*
X184977000Y-100354555D01*
X184977000Y-100132934D01*
X186398000Y-98711935D01*
X186398000Y-101650566D01*
X186388167Y-101700000D01*
X186398000Y-101749434D01*
X186398000Y-101749438D01*
X186427127Y-101895869D01*
X186538079Y-102061921D01*
X186579993Y-102089927D01*
X187907912Y-103417847D01*
X187935916Y-103459758D01*
X188096104Y-103566793D01*
X188023000Y-103743282D01*
X188023000Y-103964903D01*
X187679991Y-104307912D01*
X187638080Y-104335916D01*
X187610076Y-104377827D01*
X187610074Y-104377829D01*
X187528442Y-104500000D01*
X187527128Y-104501967D01*
X187498000Y-104648398D01*
X187498000Y-104648403D01*
X187488167Y-104697837D01*
X187498000Y-104747271D01*
X187498000Y-105149438D01*
X187498001Y-105149443D01*
X187498001Y-105488066D01*
X186489927Y-104479993D01*
X186461921Y-104438079D01*
X186295870Y-104327127D01*
X186149439Y-104298000D01*
X186149434Y-104298000D01*
X186100000Y-104288167D01*
X186050566Y-104298000D01*
X183100844Y-104298000D01*
X183158709Y-104240135D01*
X183277000Y-103954555D01*
X183277000Y-103645445D01*
X183158709Y-103359865D01*
X182940135Y-103141291D01*
X182654555Y-103023000D01*
X182345445Y-103023000D01*
X182059865Y-103141291D01*
X182028156Y-103173000D01*
X176259712Y-103173000D01*
X174777000Y-101690289D01*
X174777000Y-101645445D01*
X174658709Y-101359865D01*
X174440135Y-101141291D01*
X174154555Y-101023000D01*
X174109712Y-101023000D01*
X173827000Y-100740289D01*
X173827000Y-88384344D01*
X173858709Y-88352635D01*
X173977000Y-88067055D01*
X173977000Y-88022211D01*
X174872212Y-87127000D01*
X189973000Y-87127000D01*
X189973000Y-88213483D01*
X189973000Y-88213483D01*
G37*
X189973000Y-88213483D02*
X189754555Y-88123000D01*
X189445445Y-88123000D01*
X189159865Y-88241291D01*
X188941291Y-88459865D01*
X188823000Y-88745445D01*
X188823000Y-88923000D01*
X188777000Y-88923000D01*
X188777000Y-88745445D01*
X188658709Y-88459865D01*
X188440135Y-88241291D01*
X188154555Y-88123000D01*
X187845445Y-88123000D01*
X187559865Y-88241291D01*
X187341291Y-88459865D01*
X187223000Y-88745445D01*
X187223000Y-88923000D01*
X187177000Y-88923000D01*
X187177000Y-88745445D01*
X187058709Y-88459865D01*
X186840135Y-88241291D01*
X186554555Y-88123000D01*
X186245445Y-88123000D01*
X185959865Y-88241291D01*
X185741291Y-88459865D01*
X185623000Y-88745445D01*
X185623000Y-88923000D01*
X185577000Y-88923000D01*
X185577000Y-88845445D01*
X185458709Y-88559865D01*
X185240135Y-88341291D01*
X184954555Y-88223000D01*
X184645445Y-88223000D01*
X184359865Y-88341291D01*
X184141291Y-88559865D01*
X184023000Y-88845445D01*
X184023000Y-89154555D01*
X184141291Y-89440135D01*
X184298001Y-89596845D01*
X184298000Y-90250566D01*
X184288167Y-90300000D01*
X184298000Y-90349434D01*
X184298000Y-90349438D01*
X184327127Y-90495869D01*
X184438079Y-90661921D01*
X184479993Y-90689927D01*
X185898001Y-92107936D01*
X185898000Y-97792065D01*
X184267066Y-99423000D01*
X184045445Y-99423000D01*
X183759865Y-99541291D01*
X183541291Y-99759865D01*
X183423000Y-100045445D01*
X183423000Y-100354555D01*
X183541291Y-100640135D01*
X183759865Y-100858709D01*
X184045445Y-100977000D01*
X184354555Y-100977000D01*
X184640135Y-100858709D01*
X184858709Y-100640135D01*
X184977000Y-100354555D01*
X184977000Y-100132934D01*
X186398000Y-98711935D01*
X186398000Y-101650566D01*
X186388167Y-101700000D01*
X186398000Y-101749434D01*
X186398000Y-101749438D01*
X186427127Y-101895869D01*
X186538079Y-102061921D01*
X186579993Y-102089927D01*
X187907912Y-103417847D01*
X187935916Y-103459758D01*
X188096104Y-103566793D01*
X188023000Y-103743282D01*
X188023000Y-103964903D01*
X187679991Y-104307912D01*
X187638080Y-104335916D01*
X187610076Y-104377827D01*
X187610074Y-104377829D01*
X187528442Y-104500000D01*
X187527128Y-104501967D01*
X187498000Y-104648398D01*
X187498000Y-104648403D01*
X187488167Y-104697837D01*
X187498000Y-104747271D01*
X187498000Y-105149438D01*
X187498001Y-105149443D01*
X187498001Y-105488066D01*
X186489927Y-104479993D01*
X186461921Y-104438079D01*
X186295870Y-104327127D01*
X186149439Y-104298000D01*
X186149434Y-104298000D01*
X186100000Y-104288167D01*
X186050566Y-104298000D01*
X183100844Y-104298000D01*
X183158709Y-104240135D01*
X183277000Y-103954555D01*
X183277000Y-103645445D01*
X183158709Y-103359865D01*
X182940135Y-103141291D01*
X182654555Y-103023000D01*
X182345445Y-103023000D01*
X182059865Y-103141291D01*
X182028156Y-103173000D01*
X176259712Y-103173000D01*
X174777000Y-101690289D01*
X174777000Y-101645445D01*
X174658709Y-101359865D01*
X174440135Y-101141291D01*
X174154555Y-101023000D01*
X174109712Y-101023000D01*
X173827000Y-100740289D01*
X173827000Y-88384344D01*
X173858709Y-88352635D01*
X173977000Y-88067055D01*
X173977000Y-88022211D01*
X174872212Y-87127000D01*
X189973000Y-87127000D01*
X189973000Y-88213483D01*
G04 #@! TD*
M02*
